<?xml version="1.0" encoding="utf-8"?>
<!-- Generator: Adobe Illustrator 21.0.0, SVG Export Plug-In . SVG Version: 6.00 Build 0)  -->
<svg version="1.1" id="图层_1" xmlns="http://www.w3.org/2000/svg" xmlns:xlink="http://www.w3.org/1999/xlink" x="0px" y="0px"
	 viewBox="0 0 168 108" style="enable-background:new 0 0 168 108;" xml:space="preserve">
<style type="text/css">
	.st0{opacity:0.7;enable-background:new    ;}
	.st1{fill:#B2D0E7;}
	.st2{opacity:0.3;enable-background:new    ;}
	.st3{fill:#B6C7DE;}
	.st4{fill:#DAE3F1;}
	.st5{fill:#FFFFFF;}
	.st6{fill:#F1F3F7;}
	.st7{fill:#D9E3F1;}
	.st8{opacity:0.8;enable-background:new    ;}
	.st9{opacity:0.23;enable-background:new    ;}
	.st10{fill:#D4E5F2;}
</style>
<g class="st0">
	<path class="st1" d="M13.7,28.2l-3.2-11.3l18.6,5.3L13.7,28.2z M12,18.3l2.4,8.5L26,22.4L12,18.3z"/>
</g>
<g class="st2">
	<path class="st3" d="M21.2,21.7L8.4,23.4l4.3,7L21.2,21.7z"/>
</g>
<g class="st2">
	<path class="st4" d="M149.5,36.2l13.7-5L162,42.4L149.5,36.2z"/>
</g>
<g class="st0">
	<path class="st1" d="M160,40.5l-16.8-1.4l15.4-12.6L160,40.5z M145.8,38.3l13.1,1.1l-1.1-10.9L145.8,38.3z"/>
</g>
<g>
	<path class="st5" d="M25.5,105H5.6"/>
	<rect x="5.6" y="104.5" class="st1" width="19.9" height="1"/>
</g>
<g>
	<path class="st5" d="M155,105h-6.4"/>
	<rect x="148.6" y="104.5" class="st1" width="6.4" height="1"/>
</g>
<g>
	<path class="st5" d="M146,105H30.6"/>
	<rect x="30.6" y="104.5" class="st1" width="115.4" height="1"/>
</g>
<g>
	<path class="st6" d="M88,13.5V15H34v-1.5C34,8.3,38.3,4,43.5,4h68C106.3,4,88,8.3,88,13.5z"/>
	<path class="st1" d="M88.5,15.5h-55v-2c0-5.5,4.5-10,10-10h68v1c-5.3,0-23,4.3-23,9V15.5z M34.5,14.5h53v-1c0-4.2,9.6-7.5,16.9-9
		H43.5c-5,0-9,4.1-9,9V14.5z"/>
</g>
<g>
	<path class="st5" d="M121,105H58c-4.4,0-8-3.6-8-8V15c0-5.2-3.6-9.5-8.4-10.7C42.4,4.1,43.2,4,44.1,4H58h13h50c4.4,0,8,3.6,8,8v85
		C129,101.4,125.4,105,121,105z"/>
	<path class="st1" d="M121,105.5H58c-4.7,0-8.5-3.8-8.5-8.5V15c0-4.9-3.3-9-8-10.2l0-1c0.9-0.2,1.8-0.3,2.6-0.3H121
		c4.7,0,8.5,3.8,8.5,8.5v85C129.5,101.7,125.7,105.5,121,105.5z M43.7,4.5c4.1,1.8,6.8,5.9,6.8,10.5v82c0,4.1,3.4,7.5,7.5,7.5h63
		c4.1,0,7.5-3.4,7.5-7.5V12c0-4.1-3.4-7.5-7.5-7.5H44.1C44,4.5,43.8,4.5,43.7,4.5z"/>
</g>
<g>
	<rect x="64" y="28" class="st7" width="8" height="8"/>
</g>
<g>
	<rect x="78" y="28" class="st7" width="41" height="8"/>
</g>
<g>
	<rect x="64" y="46" class="st7" width="8" height="8"/>
</g>
<g>
	<rect x="78" y="46" class="st7" width="41" height="8"/>
</g>
<g>
	<rect x="64" y="64" class="st7" width="8" height="8"/>
</g>
<g>
	<rect x="78" y="64" class="st7" width="41" height="8"/>
</g>
<g>
	<path class="st6" d="M133.5,105h-76c5.3,0,9.5-4.3,9.5-9.5V94h76v1.5C143,100.7,138.7,105,133.5,105z"/>
	<path class="st1" d="M133.5,105.5h-76v-1c5,0,9-4.1,9-9v-2h77v2C143.5,101,139,105.5,133.5,105.5z M61.8,104.5h71.6c5,0,9-4.1,9-9
		v-1h-75v1C67.5,99.4,65.2,102.9,61.8,104.5z"/>
</g>
<g class="st2">
	<path class="st4" d="M149.5,36.2l13.7-5L162,42.4L149.5,36.2z"/>
</g>
<g class="st0">
	<path class="st1" d="M160,40.5l-16.8-1.4l15.4-12.6L160,40.5z M145.8,38.3l13.1,1.1l-1.1-10.9L145.8,38.3z"/>
</g>
<g>
	<path class="st5" d="M25.5,105H5.6"/>
	<rect x="5.6" y="104.5" class="st1" width="19.9" height="1"/>
</g>
<g>
	<path class="st5" d="M155,105h-6.4"/>
	<rect x="148.6" y="104.5" class="st1" width="6.4" height="1"/>
</g>
<g>
	<path class="st5" d="M146,105H30.6"/>
	<rect x="30.6" y="104.5" class="st1" width="115.4" height="1"/>
</g>
<g>
	<path class="st6" d="M88,13.5V15H34v-1.5C34,8.3,38.3,4,43.5,4h68C106.3,4,88,8.3,88,13.5z"/>
	<path class="st1" d="M88.5,15.5h-55v-2c0-5.5,4.5-10,10-10h68v1c-5.3,0-23,4.3-23,9V15.5z M34.5,14.5h53v-1c0-4.2,9.6-7.5,16.9-9
		H43.5c-5,0-9,4.1-9,9V14.5z"/>
</g>
<g>
	<path class="st5" d="M121,105H58c-4.4,0-8-3.6-8-8V15c0-5.2-3.6-9.5-8.4-10.7C42.4,4.1,43.2,4,44.1,4H58h13h50c4.4,0,8,3.6,8,8v85
		C129,101.4,125.4,105,121,105z"/>
	<path class="st1" d="M121,105.5H58c-4.7,0-8.5-3.8-8.5-8.5V15c0-4.9-3.3-9-8-10.2l0-1c0.9-0.2,1.8-0.3,2.6-0.3H121
		c4.7,0,8.5,3.8,8.5,8.5v85C129.5,101.7,125.7,105.5,121,105.5z M43.7,4.5c4.1,1.8,6.8,5.9,6.8,10.5v82c0,4.1,3.4,7.5,7.5,7.5h63
		c4.1,0,7.5-3.4,7.5-7.5V12c0-4.1-3.4-7.5-7.5-7.5H44.1C44,4.5,43.8,4.5,43.7,4.5z"/>
</g>
<g class="st8">
	<rect x="63" y="28" class="st7" width="8" height="8"/>
</g>
<g class="st8">
	<rect x="78" y="28" class="st7" width="41" height="8"/>
</g>
<g class="st8">
	<rect x="63" y="46" class="st7" width="8" height="8"/>
</g>
<g class="st8">
	<rect x="78" y="46" class="st7" width="41" height="8"/>
</g>
<g>
	<rect x="64" y="64" class="st7" width="8" height="8"/>
</g>
<g class="st8">
	<rect x="78" y="64" class="st7" width="41" height="8"/>
</g>
<g>
	<path class="st6" d="M133.5,105h-76c5.3,0,9.5-4.3,9.5-9.5V94h76v1.5C143,100.7,138.7,105,133.5,105z"/>
	<path class="st1" d="M133.5,105.5h-76v-1c5,0,9-4.1,9-9v-2h77v2C143.5,101,139,105.5,133.5,105.5z M61.8,104.5h71.6c5,0,9-4.1,9-9
		v-1h-75v1C67.5,99.4,65.2,102.9,61.8,104.5z"/>
</g>
<path class="st5" d="M56,54.5c9.2,0,16.6,7.4,16.6,16.6v23.4c0,1.1-0.9,2-2,2H41.3c-1.1,0-2-0.9-2-2V71.1
	C39.4,61.9,46.8,54.5,56,54.5z"/>
<path class="st1" d="M59.7,53.9c-1.2-0.3-2.5-0.4-3.7-0.4v1c1.3,0,2.6,0.2,3.8,0.5l0.1-0.5l0.1-0.5C60,54,59.8,53.9,59.7,53.9z
	 M54.3,54.5l0-0.5l0-0.4c-0.1,0-0.3,0-0.4,0.1c-0.2,0-0.4,0-0.5,0.1c-0.2,0-0.4,0.1-0.5,0.1c0,0.2-0.1,0.5-0.1,0.7v0.3
	C53.2,54.7,53.8,54.6,54.3,54.5L54.3,54.5z M62,54.6l-0.3,0.9c1.2,0.5,2.4,1,3.5,1.8l0.6-0.8C64.6,55.7,63.3,55,62,54.6z M48.3,55.3
	c-1.2,0.6-2.4,1.3-3.5,2.2l0.6,0.8c1-0.8,2.1-1.5,3.3-2.1L48.3,55.3z M67.3,57.7l-0.6,0.8c1,0.8,1.9,1.8,2.6,2.8l0.8-0.6
	C69.3,59.6,68.4,58.6,67.3,57.7z M43.4,58.9c-1,1-1.8,2.1-2.5,3.3l0.9,0.5c0.6-1.1,1.4-2.1,2.3-3.1L43.4,58.9z M71.3,62.4l-0.9,0.5
	c0.6,1.1,1.1,2.3,1.5,3.6l1-0.3C72.5,64.9,71.9,63.6,71.3,62.4z M40,64c-0.6,1.2-1,2.6-1.2,3.9l1,0.2c0.2-1.3,0.6-2.5,1.1-3.7L40,64
	z M73.3,68.2l-1,0.2c0.1,0.9,0.2,1.7,0.2,2.6v1.3h1V71C73.5,70.1,73.4,69.1,73.3,68.2z M38.5,70c0,0.3,0,0.7,0,1v3h1v-3
	c0-0.3,0-0.7,0-1L38.5,70z M72.5,74.3v4h1v-4H72.5z M38.5,76v4h1v-4H38.5z M72.5,80.3v4h1v-4H72.5z M38.5,82v4h1v-4H38.5z
	 M72.5,86.3v4h1v-4H72.5z M38.5,88v4h1v-4H38.5z M72.5,92.3V95c0,0.3-0.1,0.6-0.3,0.9l0.8,0.6c0.3-0.4,0.5-1,0.5-1.5v-2.7H72.5z
	 M39.5,95v-1h-1v1c0,1.3,1,2.4,2.3,2.5l0.1-1C40.1,96.4,39.5,95.8,39.5,95z M42.9,96.5v1h4v-1H42.9z M48.9,96.5v1h4v-1H48.9z
	 M54.9,96.5v1h4v-1H54.9z M60.9,96.5v1h4v-1H60.9z M66.9,96.5v1h4v-1H66.9z"/>
<path class="st1" d="M51.8,54.1c0,0.2-0.1,0.5-0.1,0.7v0.3c-0.7,0.1-1.4,0.3-2.1,0.6l-0.1-1C50.3,54.4,50.9,54.2,51.8,54.1z"/>
<g>
	<path class="st5" d="M56.7,51c2,0,3.5,1.6,3.5,3.5h-7.1C53.2,52.5,54.8,51,56.7,51z"/>
	<path class="st1" d="M56.7,50.5c-2,0-3.7,1.4-4,3.3c0,0.2-0.1,0.5-0.1,0.7V55h8.1v-0.5C60.8,52.3,59,50.5,56.7,50.5z M59.7,54h-6
		c0-0.1,0.1-0.2,0.1-0.3c0.4-1.3,1.5-2.2,2.9-2.2C58.2,51.5,59.4,52.5,59.7,54C59.7,53.9,59.7,54,59.7,54z"/>
</g>
<g class="st0">
	<path class="st1" d="M39.4,41.6c0.6-0.4,1.5-0.2,1.8,0.5l3.8,6.5c0.4,0.6,0.1,1.5-0.5,1.8c-0.6,0.4-1.5,0.2-1.8-0.5l-3.8-6.5
		C38.6,42.7,38.8,41.9,39.4,41.6z"/>
</g>
<g class="st0">
	<path class="st1" d="M27.8,52.9c0.3-0.7,1.1-1,1.8-0.7l6.9,3.2c0.7,0.3,1,1.1,0.7,1.8c-0.3,0.7-1.1,1-1.8,0.7l-6.9-3.2
		C27.7,54.3,27.4,53.5,27.8,52.9z"/>
</g>
<g class="st0">
	<path class="st1" d="M34.5,66.4c0.1,0.8-0.4,1.6-1.1,1.6L26,68.9c-0.7,0.1-1.4-0.5-1.5-1.3c-0.1-0.8,0.4-1.6,1.1-1.6l7.3-0.9
		C33.7,65,34.4,65.6,34.5,66.4z"/>
</g>
<g class="st9">
	<path class="st10" d="M56.3,57.3c0.4,0,0.1,35,0.1,35H44.5c-1.1,0-2-0.8-2-1.9V72C42.5,65,48.1,57.3,56.3,57.3z"/>
</g>
<g>
	<path class="st5" d="M36,99h40c1.1,0,2,0.9,2,2v2c0,1.1-0.9,2-2,2H36c-1.1,0-2-0.9-2-2v-2C34,99.9,34.9,99,36,99z"/>
	<path class="st1" d="M76,105.5H36c-1.4,0-2.5-1.1-2.5-2.5v-2c0-1.4,1.1-2.5,2.5-2.5h40c1.4,0,2.5,1.1,2.5,2.5v2
		C78.5,104.4,77.4,105.5,76,105.5z M36,99.5c-0.8,0-1.5,0.7-1.5,1.5v2c0,0.8,0.7,1.5,1.5,1.5h40c0.8,0,1.5-0.7,1.5-1.5v-2
		c0-0.8-0.7-1.5-1.5-1.5H36z"/>
</g>
<g>
	<path class="st5" d="M37,94.9h38c0.6,0,1,0.4,1,0.8v2.5c0,0.5-0.4,0.8-1,0.8H37c-0.6,0-1-0.4-1-0.8v-2.5C36,95.3,36.4,94.9,37,94.9
		z"/>
	<path class="st1" d="M75,99.5H37c-0.8,0-1.5-0.6-1.5-1.2v-2.5c0-0.7,0.7-1.2,1.5-1.2h38c0.8,0,1.5,0.6,1.5,1.2v2.5
		C76.5,98.9,75.8,99.5,75,99.5z M37,95.3c-0.3,0-0.5,0.2-0.5,0.4v2.5c0,0.2,0.2,0.4,0.5,0.4h38c0.3,0,0.5-0.2,0.5-0.4v-2.5
		c0-0.2-0.2-0.4-0.5-0.4H37z"/>
</g>
</svg>
