<?xml version="1.0" encoding="utf-8"?>
<!-- Generator: Adobe Illustrator 21.0.0, SVG Export Plug-In . SVG Version: 6.00 Build 0)  -->
<svg version="1.1" id="图层_1" xmlns="http://www.w3.org/2000/svg" xmlns:xlink="http://www.w3.org/1999/xlink" x="0px" y="0px"
	 viewBox="0 0 168 108" style="enable-background:new 0 0 168 108;" xml:space="preserve">
<style type="text/css">
	.st0{fill:#FFFFFF;}
	.st1{fill:#B2D0E7;}
	.st2{opacity:0.23;enable-background:new    ;}
	.st3{fill:#D4E5F2;}
	.st4{fill:#EEF2FA;}
	.st5{opacity:0.56;enable-background:new    ;}
	.st6{opacity:0.4;enable-background:new    ;}
</style>
<g>
	<path class="st0" d="M140,54.2L140,54.2c6.9,0,12.4,5.5,12.4,12.4v16.5c0,1.1-0.9,2-2,2h-20.8c-1.1,0-2-0.9-2-2V66.6
		C127.6,59.8,133.2,54.2,140,54.2z"/>
	<path class="st1" d="M150.4,85.6h-20.8c-1.4,0-2.5-1.1-2.5-2.5V66.6c0-7.1,5.8-12.9,12.9-12.9h0c7.1,0,12.9,5.8,12.9,12.9v16.5
		C152.9,84.4,151.8,85.6,150.4,85.6z M140,54.7c-6.5,0-11.9,5.3-11.9,11.9v16.5c0,0.8,0.7,1.5,1.5,1.5h20.8c0.8,0,1.5-0.7,1.5-1.5
		V66.6C151.9,60,146.6,54.7,140,54.7L140,54.7z"/>
</g>
<g>
	<path class="st0" d="M140.2,51.9c1.4,0,2.6,1.2,2.6,2.6h-5.2C137.6,53,138.7,51.9,140.2,51.9z"/>
	<path class="st1" d="M143.2,55h-6.2v-0.5c0-1.7,1.4-3.1,3.1-3.1c1.7,0,3.1,1.4,3.1,3.1V55z M138.1,54h4c-0.2-0.9-1-1.6-2-1.6
		C139.2,52.4,138.4,53.1,138.1,54z"/>
</g>
<g class="st2">
	<path class="st3" d="M140.2,56.6c0.3,0,0.1,24.9,0.1,24.9h-8.7c-0.8,0-1.4-0.6-1.4-1.4V67.5C130.1,62.2,134.2,56.6,140.2,56.6z"/>
</g>
<g>
	<path class="st0" d="M126,87h29c1.1,0,2,1.9,2,3s-0.9,2-2,2h-29c-1.1,0-2-0.9-2-2S124.9,87,126,87z"/>
	<path class="st1" d="M155,92.5h-29c-1.4,0-2.5-1.1-2.5-2.5c0-1.2,1-3.5,2.5-3.5h29c1.5,0,2.5,2.3,2.5,3.5
		C157.5,91.4,156.4,92.5,155,92.5z M126,87.5c-0.7,0-1.5,1.5-1.5,2.5c0,0.8,0.7,1.5,1.5,1.5h29c0.8,0,1.5-0.7,1.5-1.5
		c0-1-0.8-2.5-1.5-2.5H126z"/>
</g>
<g>
	<path class="st0" d="M127.5,83.6h27.1c0.6,0,1,0.4,1,1v1.7c0,0.6-0.4,1-1,1h-27.1c-0.6,0-1-0.4-1-1v-1.7
		C126.5,84,126.9,83.6,127.5,83.6z"/>
	<path class="st1" d="M154.5,87.8h-27.1c-0.8,0-1.5-0.7-1.5-1.5v-1.7c0-0.8,0.7-1.5,1.5-1.5h27.1c0.8,0,1.5,0.7,1.5,1.5v1.7
		C156,87.1,155.4,87.8,154.5,87.8z M127.5,84.1c-0.3,0-0.5,0.2-0.5,0.5v1.7c0,0.3,0.2,0.5,0.5,0.5h27.1c0.3,0,0.5-0.2,0.5-0.5v-1.7
		c0-0.3-0.2-0.5-0.5-0.5H127.5z"/>
</g>
<g>
	<path class="st4" d="M141,97c-3.4,0-6.1-2.2-6.1-5h12.2C147.1,94.8,144.4,97,141,97z"/>
	<path class="st1" d="M141,97.5c-3.6,0-6.6-2.5-6.6-5.5v-0.5h13.2V92C147.6,95,144.6,97.5,141,97.5z M135.4,92.5
		c0.3,2.2,2.7,4,5.6,4c2.9,0,5.3-1.8,5.6-4H135.4z"/>
</g>
<g>
	<path class="st0" d="M13.5,107H4.6"/>
	<rect x="4.6" y="106.5" class="st1" width="8.9" height="1"/>
</g>
<g>
	<path class="st0" d="M163,107h-17.4"/>
	<rect x="145.6" y="106.5" class="st1" width="17.4" height="1"/>
</g>
<g>
	<path class="st0" d="M143,107H17.6"/>
	<rect x="17.6" y="106.5" class="st1" width="125.4" height="1"/>
</g>
<g>
	<path class="st0" d="M27,21h69c1.1,0,2,0.9,2,2v82c0,1.1-0.9,2-2,2H27c-1.1,0-2-0.9-2-2V23C25,21.9,25.9,21,27,21z"/>
	<path class="st1" d="M96,107.5H27c-1.4,0-2.5-1.1-2.5-2.5V23c0-1.4,1.1-2.5,2.5-2.5h69c1.4,0,2.5,1.1,2.5,2.5v82
		C98.5,106.4,97.4,107.5,96,107.5z M27,21.5c-0.8,0-1.5,0.7-1.5,1.5v82c0,0.8,0.7,1.5,1.5,1.5h69c0.8,0,1.5-0.7,1.5-1.5V23
		c0-0.8-0.7-1.5-1.5-1.5H27z"/>
</g>
<g class="st5">
	<path class="st0" d="M32,27h58c1.1,0,2,0.9,2,2v70c0,1.1-0.9,2-2,2H32c-1.1,0-2-0.9-2-2V29C30,27.9,30.9,27,32,27z"/>
	<path class="st1" d="M90,101.5h-1.7v-1H90c0.6,0,1.1-0.3,1.4-0.9l0.9,0.4C91.9,100.9,91,101.5,90,101.5z M86.3,101.5h-4v-1h4V101.5
		z M80.3,101.5h-4v-1h4V101.5z M74.3,101.5h-4v-1h4V101.5z M68.3,101.5h-4v-1h4V101.5z M62.3,101.5h-4v-1h4V101.5z M56.3,101.5h-4
		v-1h4V101.5z M50.3,101.5h-4v-1h4V101.5z M44.3,101.5h-4v-1h4V101.5z M38.3,101.5h-4v-1h4V101.5z M32.3,101.5H32
		c-1.4,0-2.5-1.1-2.5-2.5v-0.6h1V99c0,0.8,0.7,1.5,1.5,1.5h0.3V101.5z M92.5,97.9h-1v-4h1V97.9z M30.5,96.4h-1v-4h1V96.4z
		 M92.5,91.9h-1v-4h1V91.9z M30.5,90.4h-1v-4h1V90.4z M92.5,85.9h-1v-4h1V85.9z M30.5,84.4h-1v-4h1V84.4z M92.5,79.9h-1v-4h1V79.9z
		 M30.5,78.4h-1v-4h1V78.4z M92.5,73.9h-1v-4h1V73.9z M30.5,72.4h-1v-4h1V72.4z M92.5,67.9h-1v-4h1V67.9z M30.5,66.4h-1v-4h1V66.4z
		 M92.5,61.9h-1v-4h1V61.9z M30.5,60.4h-1v-4h1V60.4z M92.5,55.9h-1v-4h1V55.9z M30.5,54.4h-1v-4h1V54.4z M92.5,49.9h-1v-4h1V49.9z
		 M30.5,48.4h-1v-4h1V48.4z M92.5,43.9h-1v-4h1V43.9z M30.5,42.4h-1v-4h1V42.4z M92.5,37.9h-1v-4h1V37.9z M30.5,36.4h-1v-4h1V36.4z
		 M92.5,31.9h-1V29c0-0.3-0.1-0.6-0.2-0.8l0.8-0.5c0.3,0.4,0.4,0.9,0.4,1.4V31.9z M30.5,30.4h-1V29c0-1.1,0.7-2.1,1.8-2.4l0.3,1
		c-0.6,0.2-1.1,0.8-1.1,1.4V30.4z M90,27.5h-4v-1h4V27.5z M84,27.5h-4v-1h4V27.5z M78,27.5h-4v-1h4V27.5z M72,27.5h-4v-1h4V27.5z
		 M66,27.5h-4v-1h4V27.5z M60,27.5h-4v-1h4V27.5z M54,27.5h-4v-1h4V27.5z M48,27.5h-4v-1h4V27.5z M42,27.5h-4v-1h4V27.5z M36,27.5
		h-4v-1h4V27.5z"/>
</g>
<g class="st6">
	<path class="st1" d="M75.3,73.9c0,0-1.1-1.9-3.3-3c-2.5-1.2-6-1.6-4.6-2.1c1.5-0.6,2.7-1.4,2.7-2.8c0-0.3,0-0.7,0-1.1
		c-0.4-0.5-1.4-1.6-1.7-3.2c-0.4-0.2-0.7-0.6-0.9-1.1c-0.3-0.8-0.3-1.8,0.2-2.5c0,0,0,0,0,0c-0.1-1-0.4-3.5,1.1-5.1
		c0.9-1,2.2-1.7,3.9-1.8c1.7,0,3,0.8,3.9,1.8c1.5,1.7,1.2,4.2,1.1,5.1c0,0,0,0,0,0c0.6,0.7,0.5,1.7,0.2,2.5
		c-0.2,0.5-0.5,0.9-0.9,1.1c-0.4,1.6-1.3,2.8-1.7,3.2c0,0.4,0,0.8,0,1.1c0,3.8,8.7,2.9,8.7,6.9v1.1H75.3z M64.7,59.4
		c-0.3,0.7-0.7,1.2-1.2,1.5c-0.5,2.1-1.7,3.7-2.3,4.3c0,0.5,0,1,0,1.5c0,4.9,11.5,3.8,11.5,9V77H43v-1.4c0-5.2,11.4-4.1,11.4-9.1
		c0-0.5,0-0.9,0-1.4c-0.5-0.6-1.8-2.2-2.3-4.3c-0.5-0.2-0.9-0.7-1.2-1.5c-0.4-1-0.4-2.4,0.3-3.3c0,0,0,0,0,0
		c-0.1-1.3-0.5-4.6,1.5-6.8c1.1-1.3,2.9-2.2,5.1-2.3c2.2,0.1,3.9,1,5.1,2.3c2,2.2,1.6,5.5,1.5,6.8c0,0,0,0,0,0
		C65.1,57,65.1,58.4,64.7,59.4z"/>
</g>
<g>
	<path class="st4" d="M20.5,41h10c1.4,0,2.5,1.1,2.5,2.5S31.9,46,30.5,46h-10c-1.4,0-2.5-1.1-2.5-2.5S19.1,41,20.5,41z"/>
	<path class="st1" d="M30.5,46.5h-10c-1.7,0-3-1.3-3-3s1.3-3,3-3h10c1.7,0,3,1.3,3,3S32.2,46.5,30.5,46.5z M20.5,41.5
		c-1.1,0-2,0.9-2,2s0.9,2,2,2h10c1.1,0,2-0.9,2-2s-0.9-2-2-2H20.5z"/>
</g>
<g>
	<path class="st4" d="M20.5,60h10c1.4,0,2.5,1.1,2.5,2.5S31.9,65,30.5,65h-10c-1.4,0-2.5-1.1-2.5-2.5S19.1,60,20.5,60z"/>
	<path class="st1" d="M30.5,65.5h-10c-1.7,0-3-1.3-3-3s1.3-3,3-3h10c1.7,0,3,1.3,3,3S32.2,65.5,30.5,65.5z M20.5,60.5
		c-1.1,0-2,0.9-2,2s0.9,2,2,2h10c1.1,0,2-0.9,2-2s-0.9-2-2-2H20.5z"/>
</g>
<g>
	<path class="st4" d="M20.5,79h10c1.4,0,2.5,1.1,2.5,2.5S31.9,84,30.5,84h-10c-1.4,0-2.5-1.1-2.5-2.5S19.1,79,20.5,79z"/>
	<path class="st1" d="M30.5,84.5h-10c-1.7,0-3-1.3-3-3s1.3-3,3-3h10c1.7,0,3,1.3,3,3S32.2,84.5,30.5,84.5z M20.5,79.5
		c-1.1,0-2,0.9-2,2s0.9,2,2,2h10c1.1,0,2-0.9,2-2s-0.9-2-2-2H20.5z"/>
</g>
<g>
	<path class="st1" d="M128,74.5l-6,3.5v-7L128,74.5z"/>
</g>
<g>
	<path class="st1" d="M122.1,74.5h-7.3c-1.9,0-3.1-0.3-3.7-0.9c-0.7-0.7-0.6-1.6-0.6-2.6l0-0.5v-6.8c0-3.3,0-4.2-4.7-4.2H98v-1h7.8
		c5.2,0,5.7,1.3,5.7,5.2l0,7.3c0,1,0,1.5,0.3,1.9c0.4,0.4,1.4,0.6,3,0.6h7.3V74.5z"/>
</g>
<g>
	<path class="st1" d="M137.3,40.5h-4v-1h4V40.5z M131.3,40.5h-4v-1h4V40.5z M125.3,40.5h-4v-1h4V40.5z M119.3,40.5h-4v-1h4V40.5z
		 M113.3,40.5h-4v-1h4V40.5z M107.3,40.5h-4v-1h4V40.5z M101.3,40.5H99v-1h2.3V40.5z M139.3,40.5l-0.1-1c1.3-0.1,2.1-0.7,2.2-2
		l1,0.1C142.2,39.4,141.1,40.4,139.3,40.5z M142.5,35.6h-1v-4h1V35.6z M142.5,29.6h-1v-4h1V29.6z M142.5,23.6h-1v-4h1V23.6z
		 M142.5,17.6h-1v-4h1V17.6z M142.5,11.6h-1v-4h1V11.6z M140.7,6.7c-0.8-0.3-2.2-0.6-3.8-0.9l0.2-1c1,0.2,2.8,0.5,4,0.9L140.7,6.7z
		 M134.9,5.6c-0.4,0-0.8-0.1-0.9-0.1h-3v-1h3c0.2,0,0.6,0,1.1,0.1L134.9,5.6z M129,5.5h-4v-1h4V5.5z M123,5.5h-4v-1h4V5.5z M117,5.5
		h-4v-1h4V5.5z M111,5.5h-4v-1h4V5.5z M105,5.5h-4v-1h4V5.5z M99,5.5h-4v-1h4V5.5z M93,5.5h-4v-1h4V5.5z M87,5.5h-4v-1h4V5.5z
		 M81,5.5h-4v-1h4V5.5z M75,5.5h-4v-1h4V5.5z M69,5.5h-4v-1h4V5.5z M63,5.5h-4v-1h4V5.5z M57,5.5h-4v-1h4V5.5z M51,5.5h-4v-1h4V5.5z
		 M45,5.5h-4v-1h4V5.5z M39,5.5h-4v-1h4V5.5z"/>
</g>
<g>
	<circle class="st4" cx="34.5" cy="5.5" r="3.5"/>
	<path class="st1" d="M34.5,9.5c-2.2,0-4-1.8-4-4s1.8-4,4-4s4,1.8,4,4S36.7,9.5,34.5,9.5z M34.5,2.5c-1.7,0-3,1.3-3,3s1.3,3,3,3
		s3-1.3,3-3S36.2,2.5,34.5,2.5z"/>
</g>
<g>
	<circle class="st4" cx="141.5" cy="5.5" r="3.5"/>
	<path class="st1" d="M141.5,9.5c-2.2,0-4-1.8-4-4s1.8-4,4-4s4,1.8,4,4S143.7,9.5,141.5,9.5z M141.5,2.5c-1.7,0-3,1.3-3,3s1.3,3,3,3
		s3-1.3,3-3S143.2,2.5,141.5,2.5z"/>
</g>
<g>
	<circle class="st4" cx="141.5" cy="39.5" r="3.5"/>
	<path class="st1" d="M141.5,43.5c-2.2,0-4-1.8-4-4s1.8-4,4-4s4,1.8,4,4S143.7,43.5,141.5,43.5z M141.5,36.5c-1.7,0-3,1.3-3,3
		s1.3,3,3,3s3-1.3,3-3S143.2,36.5,141.5,36.5z"/>
</g>
</svg>
