<?xml version="1.0" encoding="utf-8"?>
<!-- Generator: Adobe Illustrator 19.0.0, SVG Export Plug-In . SVG Version: 6.00 Build 0)  -->
<svg version="1.1" id="图层_1" xmlns="http://www.w3.org/2000/svg" xmlns:xlink="http://www.w3.org/1999/xlink" x="0px" y="0px"
	 viewBox="0 22 172 108" style="enable-background:new 0 22 172 108;" xml:space="preserve">
<style type="text/css">
	.st0{fill:#FCFDFF;}
	.st1{opacity:0.8;}
	.st2{fill:none;stroke:#B1D0E8;stroke-width:0.9933;stroke-linecap:round;stroke-linejoin:round;stroke-dasharray:3.0132,2.0088;}
	.st3{fill:#FFFFFF;}
	.st4{opacity:0.3;enable-background:new    ;}
	.st5{fill:#D9E3F2;}
	.st6{opacity:0.7;enable-background:new    ;}
	.st7{fill:#B1D0E8;}
	.st8{fill:#B5C7DF;}
	.st9{fill:none;stroke:#B1D0E8;stroke-width:0.9933;stroke-linecap:round;stroke-linejoin:round;stroke-miterlimit:10;}
	.st10{fill:none;stroke:#B1D0E8;stroke-linecap:round;stroke-linejoin:round;stroke-miterlimit:10;}
	.st11{opacity:0.3;fill:#B5C7DF;}
	.st12{fill:#F8FBFE;}
	.st13{fill:none;stroke:#B1D0E8;stroke-miterlimit:10;}
	.st14{fill:none;stroke:#EDF1F6;stroke-linecap:round;stroke-linejoin:round;stroke-miterlimit:10;}
	.st15{fill:none;stroke:#EDF1F6;stroke-miterlimit:10;}
	.st16{opacity:0.4;fill:none;stroke:#B1D0E8;stroke-linecap:round;stroke-linejoin:round;stroke-miterlimit:10;}
</style>
<path class="st0" d="M115.6,115.3c0,2.7-2.2,5-5,5H47.5c-2.7,0-5-2.2-5-5V33.2c0-2.7,2.2-5,5-5h63.1c2.7,0,5,2.2,5,5V115.3z"/>
<g class="st1">
	<path class="st2" d="M115.6,115.3c0,2.7-2.2,5-5,5H47.5c-2.7,0-5-2.2-5-5V33.2c0-2.7,2.2-5,5-5h63.1c2.7,0,5,2.2,5,5V115.3z"/>
</g>
<path class="st3" d="M131.6,124c0,2.7-2.2,5-5,5H63.6c-2.7,0-5-2.2-5-5V41.9c0-2.7,2.2-5,5-5h63.1c2.7,0,5,2.2,5,5V124z"/>
<g class="st4">
	<path class="st5" d="M153.5,41.2l13.7-5L166,47.4L153.5,41.2z"/>
</g>
<g class="st6">
	<path class="st7" d="M164,45.5l-16.8-1.4l15.4-12.6L164,45.5z M149.8,43.3l13.1,1.1l-1.1-10.9L149.8,43.3z"/>
</g>
<g class="st6">
	<path class="st7" d="M19.5,94.5L9.3,88.7l17-9.2L19.5,94.5z M11.3,88.7l7.7,4.4L24,81.8L11.3,88.7z"/>
</g>
<g class="st4">
	<path class="st8" d="M20.3,84.6l-8,10.2l8,2V84.6z"/>
</g>
<g>
	<path class="st3" d="M28.5,129H10.6"/>
	<rect x="10.6" y="128.5" class="st7" width="17.9" height="1"/>
</g>
<g>
	<path class="st3" d="M160,129h-6.4"/>
	<rect x="153.6" y="128.5" class="st7" width="6.4" height="1"/>
</g>
<g>
	<path class="st3" d="M151,129H33.6"/>
	<rect x="33.6" y="128.5" class="st7" width="117.4" height="1"/>
</g>
<path class="st9" d="M63.6,128.9c-2.7,0-5-2.2-5-5V41.9c0-2.7,2.2-5,5-5h63.1c2.7,0,5,2.2,5,5V124c0,2.7-2.2,5-5,5"/>
<line class="st10" x1="59.3" y1="117.2" x2="131.3" y2="117.2"/>
<circle class="st11" cx="66.2" cy="44.8" r="3"/>
<circle class="st11" cx="49.9" cy="36" r="3"/>
<circle class="st11" cx="66.2" cy="111.8" r="3"/>
<circle class="st11" cx="124.2" cy="44.8" r="3"/>
<circle class="st11" cx="124.2" cy="111.8" r="3"/>
<g>
	<circle class="st12" cx="95.5" cy="73" r="24.9"/>
	<circle class="st12" cx="95.1" cy="73.3" r="5.8"/>
	<circle class="st3" cx="95.1" cy="73.3" r="5.8"/>
	<circle class="st13" cx="95.1" cy="73.3" r="5.8"/>
	<path class="st10" d="M118.5,82.5c-3.7,9.3-12.7,15.9-23.4,15.9C81.2,98.4,70,87.2,70,73.3c0-1.6,0.1-3.2,0.4-4.7"/>
	<path class="st10" d="M71.6,64.5c3.6-9.5,12.7-16.2,23.5-16.2c13.9,0,25.1,11.2,25.1,25.1c0,1.4-0.1,2.8-0.3,4.1"/>
	<path class="st10" d="M78.8,68c2.2-6.8,8.7-11.8,16.3-11.8"/>
	<path class="st10" d="M110.4,81c-2.8,5.6-8.6,9.4-15.3,9.4"/>
	<polyline class="st14" points="63.5,76.8 70.4,69.3 77.2,76.9 	"/>
	<polyline class="st10" points="63.5,75.9 70.4,68.4 77.2,76 	"/>
	<polyline class="st15" points="113.3,69.5 119.9,76.8 126.5,69.4 	"/>
	<polyline class="st10" points="113.3,70.4 119.9,77.6 126.5,70.2 	"/>
</g>
<line class="st16" x1="75.8" y1="113.8" x2="114.6" y2="113.8"/>
<line class="st16" x1="75.8" y1="109.8" x2="114.6" y2="109.8"/>
<g>
	<rect x="62.3" y="121.2" class="st8" width="2.5" height="2.5"/>
	<rect x="69.2" y="121.2" class="st8" width="2.5" height="2.5"/>
	<rect x="76.1" y="121.2" class="st8" width="2.5" height="2.5"/>
	<rect x="83" y="121.2" class="st8" width="2.5" height="2.5"/>
	<rect x="89.9" y="121.2" class="st8" width="2.5" height="2.5"/>
	<rect x="96.7" y="121.2" class="st8" width="2.5" height="2.5"/>
	<rect x="103.6" y="121.2" class="st8" width="2.5" height="2.5"/>
	<rect x="110.5" y="121.2" class="st8" width="2.5" height="2.5"/>
	<rect x="117.4" y="121.2" class="st8" width="2.5" height="2.5"/>
	<rect x="124.3" y="121.2" class="st8" width="2.5" height="2.5"/>
</g>
<path class="st3" d="M94.8,128.8"/>
</svg>
