<?xml version="1.0" encoding="utf-8"?>
<!-- Generator: Adobe Illustrator 21.0.0, SVG Export Plug-In . SVG Version: 6.00 Build 0)  -->
<svg version="1.1" id="图层_1" xmlns="http://www.w3.org/2000/svg" xmlns:xlink="http://www.w3.org/1999/xlink" x="0px" y="0px"
	 viewBox="0 0 168 108" style="enable-background:new 0 0 168 108;" xml:space="preserve">
<style type="text/css">
	.st0{fill:#FFFFFF;}
	.st1{fill:#B1D0E8;}
	.st2{fill:#F5F8FC;}
	.st3{opacity:0.6;enable-background:new    ;}
	.st4{opacity:0.3;enable-background:new    ;}
	.st5{fill:#D9E3F2;}
	.st6{opacity:0.24;enable-background:new    ;}
	.st7{fill:#C4CEDE;}
	.st8{fill:#F4F7FC;}
	.st9{opacity:0.32;enable-background:new    ;}
</style>
<g>
	<path class="st0" d="M19.5,105H7"/>
	<rect x="7" y="104.5" class="st1" width="12.5" height="1"/>
</g>
<g>
	<path class="st0" d="M165,105h-9.4"/>
	<rect x="155.6" y="104.5" class="st1" width="9.4" height="1"/>
</g>
<g>
	<path class="st0" d="M153,105H23.6"/>
	<rect x="23.6" y="104.5" class="st1" width="129.4" height="1"/>
</g>
<path class="st0" d="M57,15h67c1.1,0,2,0.9,2,2l15,63c0,1.1-0.9,2-2,2H42c-1.1,0-2-0.9-2-2l15-63C55,15.9,55.9,15,57,15z"/>
<path class="st1" d="M135,82.5v-1h4l0,0.8l0,0.2L135,82.5z M133,82.5h-4v-1h4V82.5z M127,82.5h-4v-1h4V82.5z M121,82.5h-4v-1h4V82.5
	z M115,82.5h-4v-1h4V82.5z M109,82.5h-4v-1h4V82.5z M103,82.5h-4v-1h4V82.5z M97,82.5h-4v-1h4V82.5z M91,82.5h-4v-1h4V82.5z
	 M85,82.5h-4v-1h4V82.5z M79,82.5h-4v-1h4V82.5z M73,82.5h-4v-1h4V82.5z M67,82.5h-4v-1h4V82.5z M61,82.5h-4v-1h4V82.5z M55,82.5h-4
	v-1h4V82.5z M49,82.5h-4v-1h4V82.5z M43,82.5h-1c-1.3,0-2.4-1-2.5-2.3l1-0.1c0.1,0.8,0.7,1.4,1.5,1.4h1V82.5z M141.1,81.3l-0.9-0.5
	c0.1-0.2,0.2-0.5,0.2-0.7l-0.7-2.8l1-0.2l0.7,2.9C141.5,80.5,141.4,80.9,141.1,81.3z M40.9,78.4l-1-0.2l0.9-3.9l1,0.2L40.9,78.4z
	 M139.4,75.3l-0.9-3.9l1-0.2l0.9,3.9L139.4,75.3z M42.3,72.5l-1-0.2l0.9-3.9l1,0.2L42.3,72.5z M138,69.5l-0.9-3.9l1-0.2l0.9,3.9
	L138,69.5z M43.7,66.7l-1-0.2l0.9-3.9l1,0.2L43.7,66.7z M136.6,63.7l-0.9-3.9l1-0.2l0.9,3.9L136.6,63.7z M45.1,60.8l-1-0.2l0.9-3.9
	l1,0.2L45.1,60.8z M135.2,57.8l-0.9-3.9l1-0.2l0.9,3.9L135.2,57.8z M46.5,55l-1-0.2l0.9-3.9l1,0.2L46.5,55z M133.8,52l-0.9-3.9
	l1-0.2l0.9,3.9L133.8,52z M47.9,49.2l-1-0.2l0.9-3.9l1,0.2L47.9,49.2z M132.4,46.2l-0.9-3.9l1-0.2l0.9,3.9L132.4,46.2z M49.2,43.3
	l-1-0.2l0.9-3.9l1,0.2L49.2,43.3z M131,40.3l-0.9-3.9l1-0.2l0.9,3.9L131,40.3z M50.6,37.5l-1-0.2l0.9-3.9l1,0.2L50.6,37.5z
	 M129.6,34.5l-0.9-3.9l1-0.2l0.9,3.9L129.6,34.5z M52,31.7l-1-0.2l0.9-3.9l1,0.2L52,31.7z M128.3,28.7l-0.9-3.9l1-0.2l0.9,3.9
	L128.3,28.7z M53.4,25.8l-1-0.2l0.9-3.9l1,0.2L53.4,25.8z M126.9,22.8l-0.9-3.9l1-0.2l0.9,3.9L126.9,22.8z M54.8,20l-1-0.2l0.7-2.8
	c0-0.4,0.1-0.8,0.3-1.2l0.9,0.5c-0.1,0.2-0.2,0.5-0.2,0.8l0,0.1L54.8,20z M125.5,16.9c-0.1-0.8-0.7-1.4-1.5-1.4h-1v-1h1
	c1.3,0,2.4,1,2.5,2.3L125.5,16.9z M121,15.5h-4v-1h4V15.5z M115,15.5h-4v-1h4V15.5z M109,15.5h-4v-1h4V15.5z M103,15.5h-4v-1h4V15.5
	z M97,15.5h-4v-1h4V15.5z M91,15.5h-4v-1h4V15.5z M85,15.5h-4v-1h4V15.5z M79,15.5h-4v-1h4V15.5z M73,15.5h-4v-1h4V15.5z M67,15.5
	h-4v-1h4V15.5z M61,15.5h-4l-0.1-1l0.1,0h4V15.5z"/>
<g>
	<path class="st0" d="M44,76h93c2.2,0,4,1.8,4,4v21c0,2.2-1.8,4-4,4H44c-2.2,0-4-1.8-4-4V80C40,77.8,41.8,76,44,76z"/>
	<path class="st1" d="M137,105.5H44c-2.5,0-4.5-2-4.5-4.5V80c0-2.5,2-4.5,4.5-4.5h93c2.5,0,4.5,2,4.5,4.5v21
		C141.5,103.5,139.5,105.5,137,105.5z M44,76.5c-1.9,0-3.5,1.6-3.5,3.5v21c0,1.9,1.6,3.5,3.5,3.5h93c1.9,0,3.5-1.6,3.5-3.5V80
		c0-1.9-1.6-3.5-3.5-3.5H44z"/>
</g>
<g>
	<circle class="st2" cx="55" cy="94" r="4"/>
	<path class="st1" d="M55,98.5c-2.5,0-4.5-2-4.5-4.5s2-4.5,4.5-4.5s4.5,2,4.5,4.5S57.5,98.5,55,98.5z M55,90.5
		c-1.9,0-3.5,1.6-3.5,3.5s1.6,3.5,3.5,3.5s3.5-1.6,3.5-3.5S56.9,90.5,55,90.5z"/>
</g>
<g class="st3">
	<rect x="125" y="85" class="st1" width="5" height="13"/>
</g>
<g class="st3">
	<rect x="116" y="85" class="st1" width="5" height="13"/>
</g>
<g class="st3">
	<rect x="106" y="85" class="st1" width="5" height="13"/>
</g>
<g>
	<path class="st0" d="M46,43.2l4.2,4c0.9,0.8,0.9,2.2,0,3l-39,40.2c-1.7,1.7-4.4,1.8-6.1,0.1l-1.1-1c-1.7-1.7-1.8-4.4-0.1-6.1
		l39-40.2C43.8,42.4,45.1,42.3,46,43.2z"/>
	<path class="st1" d="M8.1,92.2c-1.2,0-2.4-0.4-3.4-1.4l-1.1-1c-0.9-0.9-1.4-2.1-1.5-3.4S2.6,84,3.5,83l39-40.2
		c1-1.1,2.7-1.1,3.8-0.1l4.2,4c0.5,0.5,0.8,1.2,0.8,1.9c0,0.7-0.3,1.4-0.7,1.9l-39,40.2C10.6,91.8,9.3,92.2,8.1,92.2z M44.5,43.1
		c-0.4,0-0.9,0.2-1.2,0.5l-39,40.2c-0.7,0.7-1.1,1.7-1.1,2.7c0,1,0.4,2,1.2,2.7l1.1,1c1.5,1.5,3.9,1.4,5.4-0.1l39-40.2
		c0.3-0.3,0.5-0.7,0.5-1.2c0-0.4-0.2-0.9-0.5-1.2l-4.2-4C45.3,43.2,44.9,43.1,44.5,43.1z"/>
</g>
<g class="st4">
	<path class="st5" d="M62.8,25.9l3.6,3.6c0.7,0.7,0.8,1.9,0,2.7L32.7,67.4c-2.6,2.6-4.6,1.3-6-0.2l0,0c-1.5-1.5-3-3.2-0.3-6
		l33.8-35.3C60.9,25.2,62.1,25.2,62.8,25.9z"/>
</g>
<g class="st6">
	<circle class="st7" cx="49.6" cy="44.6" r="28.6"/>
</g>
<g>
	<g>
		<circle class="st0" cx="46.5" cy="42.5" r="28"/>
	</g>
	<g>
		<path class="st1" d="M46.5,71C30.8,71,18,58.2,18,42.5C18,26.8,30.8,14,46.5,14S75,26.8,75,42.5C75,58.2,62.2,71,46.5,71z
			 M46.5,15C31.3,15,19,27.4,19,42.5S31.3,70,46.5,70S74,57.7,74,42.5S61.6,15,46.5,15z"/>
	</g>
</g>
<ellipse class="st8" cx="46.2" cy="42.5" rx="22" ry="22.1"/>
<g class="st9">
	<path class="st1" d="M128.1,27.5c-4.6-1.2-9.4-1.7-9.4-1.7H96.7v9.1c0,0,0,0.7-1.3,1c-1.2,0.2-2.6-0.2-2.6-0.2L70.3,23.8
		c0,0-1.5-0.6-1.5-2.2c0-1.6,2.1-2.4,2.1-2.4L93.3,6.9c0,0,1.1-0.6,2.2-0.4c1.3,0.2,1.3,0.7,1.3,0.7V17h21.3c3.1,0,5.6,0.5,7.7,1.3
		L128.1,27.5z M96.9,51.2h22v-9.1c0,0,0.1-0.6,1.6-0.9c1.3-0.3,2.2,0.2,2.2,0.2l10.1,5.3l3.9,15.6c-6.3,3.5-14.2,7.7-14.4,7.9
		c-0.2,0.1-0.8,0.5-1.7,0.4c-1.4-0.1-1.6-0.7-1.6-0.7V60H97.5c-17.5,0-17.8-15.5-17.8-15.5C79.7,49.4,96.9,51.2,96.9,51.2z"/>
</g>
<g>
	<g>
		<path class="st2" d="M120.1,66.5c-0.1,0-0.2,0-0.3,0c-0.8-0.1-1.1-0.3-1.2-0.4v-9.6c0-0.3-0.2-0.5-0.5-0.5H96.7
			C90,56,85,53.7,82.1,49.2c-1.4-2-2-4.2-2.4-5.7c3.9,3.3,14.9,4.6,16.4,4.7l22.1,0c0.3,0,0.5-0.2,0.5-0.5v-9
			c0.1-0.1,0.4-0.4,1.2-0.5c0.2,0,0.5-0.1,0.7-0.1c0.7,0,1.2,0.2,1.2,0.2l22.5,11.9c0.1,0,1.2,0.6,1.2,1.8c0,1.3-1.8,2-1.8,2
			c-0.1,0-22,12-22.5,12.2C121,66.3,120.7,66.5,120.1,66.5z M93.9,31.9c-0.8,0-1.5-0.2-1.7-0.2L69.7,19.9c-0.1,0-1.2-0.6-1.2-1.8
			c0-1.2,1.8-2,1.8-2L92.7,3.9c0,0,0.7-0.4,1.5-0.4c0.1,0,0.3,0,0.4,0c0.6,0.1,0.8,0.3,0.9,0.3l0,9.7c0,0.3,0.2,0.5,0.5,0.5h21.3
			c6.7,0,11.6,2.3,14.6,6.8c1.3,2,2,4.2,2.4,5.7c-3.9-3.3-14.9-4.6-16.4-4.7l-21.9,0c-0.3,0-0.5,0.2-0.5,0.5v9.1
			c0,0.1-0.2,0.4-0.9,0.5C94.3,31.9,94.1,31.9,93.9,31.9z"/>
	</g>
	<g>
		<path class="st1" d="M94.2,4c0.1,0,0.2,0,0.3,0c0.2,0,0.4,0.1,0.5,0.1v9.4c0,0.6,0.4,1,1,1h21.3c11.2,0,14.9,6.5,16.2,10.8
			c-4.5-2.8-13.3-3.8-15.5-4.1c0,0-0.1,0-0.1,0H95.9c-0.6,0-1,0.4-1,1l0,9c-0.1,0-0.2,0.1-0.5,0.1c-0.2,0-0.4,0-0.6,0
			c-0.7,0-1.3-0.1-1.5-0.2L70,19.4c0,0,0,0-0.1,0c0,0-0.9-0.4-0.9-1.3c0-0.8,1.1-1.4,1.5-1.5c0,0,0.1,0,0.1-0.1L92.9,4.3
			C93,4.3,93.5,4,94.2,4 M120.6,38.6L120.6,38.6c0.5,0,0.9,0.1,1,0.2L144,50.6c0,0,0,0,0.1,0c0,0,0.9,0.4,0.9,1.3
			c0,0.8-1.1,1.4-1.5,1.5c0,0-0.1,0-0.1,0.1c0,0-21.9,12-22.4,12.2c0,0,0,0,0,0c-0.2,0.1-0.4,0.3-0.9,0.3c-0.1,0-0.1,0-0.2,0
			c-0.4,0-0.6-0.1-0.7-0.2v-9.3c0-0.6-0.4-1-1-1H96.7c-11.2,0-15-6.5-16.2-10.9c4.5,2.8,13.3,3.8,15.6,4.1c0,0,0.1,0,0.1,0h22
			c0.6,0,1-0.4,1-1v-8.8c0.1-0.1,0.4-0.2,0.8-0.3C120.2,38.6,120.4,38.6,120.6,38.6 M94.2,3c-0.9,0-1.7,0.4-1.7,0.4L70.1,15.6
			c0,0-2.1,0.8-2.1,2.4c0,1.6,1.5,2.2,1.5,2.2L92,32.2c0,0,0.9,0.3,1.9,0.3c0.2,0,0.5,0,0.7-0.1c1.3-0.2,1.3-1,1.3-1v-9.1h21.9
			c0,0,16.8,1.7,17.3,6.5c-0.1-1.7-1.4-15.3-17.8-15.3H95.9V3.8c0,0,0-0.5-1.3-0.7C94.5,3,94.3,3,94.2,3L94.2,3z M135.1,28.8
			c0,0.1,0,0.2,0,0.2C135.1,28.9,135.1,28.9,135.1,28.8L135.1,28.8z M120.6,37.6c-0.2,0-0.5,0-0.8,0.1c-1.6,0.3-1.6,0.9-1.6,0.9v9.1
			h-22c0,0-16.8-1.7-17.3-6.5c0.1,1.7,1.4,15.3,17.8,15.3h21.4v9.8c0,0,0.2,0.6,1.6,0.7c0.1,0,0.2,0,0.3,0c0.8,0,1.2-0.3,1.4-0.4
			c0.5-0.3,22.4-12.2,22.4-12.2s2.1-0.8,2.1-2.5c0-1.6-1.5-2.2-1.5-2.2L122,37.8C122,37.8,121.4,37.6,120.6,37.6L120.6,37.6z
			 M78.8,41c0,0.1,0,0.1,0,0.2C78.8,41.1,78.8,41,78.8,41L78.8,41z"/>
	</g>
</g>
<g class="st4">
	<path class="st5" d="M25.5,49c-0.6-1.9-0.9-4-0.9-6.1c0-12.2,9.8-22.1,22-22.1c6.8,0,12.9,3.1,16.9,8L25.5,49z"/>
</g>
<path class="st1" d="M46.2,65c-0.3,0-0.5,0-0.8,0l0-1c1.3,0,2.6,0,3.9-0.2l0.1,1C48.5,65,47.3,65,46.2,65z M43.4,64.9
	c-1.3-0.2-2.7-0.5-4-0.9l0.3-1c1.2,0.4,2.5,0.7,3.8,0.8L43.4,64.9z M51.5,64.4l-0.2-1c1.3-0.3,2.5-0.7,3.7-1.3l0.4,0.9
	C54.2,63.6,52.9,64.1,51.5,64.4z M37.5,63.3c-1.2-0.5-2.5-1.2-3.6-1.9l0.5-0.8c1.1,0.7,2.2,1.3,3.4,1.8L37.5,63.3z M57.2,62.2
	l-0.5-0.9c1.1-0.6,2.2-1.4,3.2-2.2l0.6,0.8C59.6,60.7,58.4,61.5,57.2,62.2z M32.3,60.1c-1.1-0.8-2.1-1.8-3-2.8l0.8-0.7
	c0.9,1,1.8,1.9,2.8,2.7L32.3,60.1z M62.1,58.5l-0.7-0.7c0.9-0.9,1.8-1.9,2.5-3l0.8,0.6C64,56.4,63.1,57.5,62.1,58.5z M28,55.7
	c-0.8-1.1-1.5-2.3-2.1-3.5l0.9-0.4c0.6,1.2,1.2,2.3,2,3.4L28,55.7z M65.8,53.6l-0.9-0.5c0.6-1.1,1.2-2.3,1.6-3.6l0.9,0.3
	C67.1,51.2,66.5,52.4,65.8,53.6z M25.1,50.3c-0.5-1.3-0.8-2.6-1.1-3.9l1-0.2c0.2,1.3,0.6,2.5,1,3.8L25.1,50.3z M68.1,47.9l-1-0.2
	c0.3-1.3,0.5-2.6,0.6-3.9l1,0.1C68.6,45.2,68.4,46.6,68.1,47.9z M23.8,44.4c-0.1-0.6-0.1-1.3-0.1-1.9c0-0.7,0-1.5,0.1-2.2l1,0.1
	c-0.1,0.7-0.1,1.4-0.1,2.1c0,0.6,0,1.2,0.1,1.8L23.8,44.4z M67.7,41.9c0-1.3-0.2-2.6-0.5-3.9l1-0.2c0.3,1.3,0.4,2.7,0.5,4.1
	L67.7,41.9z M25.1,38.4l-1-0.2c0.3-1.3,0.6-2.7,1.1-3.9l0.9,0.4C25.7,35.9,25.4,37.2,25.1,38.4z M66.8,36.1
	c-0.4-1.2-0.9-2.5-1.5-3.6l0.9-0.5c0.6,1.2,1.2,2.5,1.6,3.8L66.8,36.1z M27,32.9l-0.9-0.4c0.6-1.2,1.3-2.4,2.1-3.5l0.8,0.6
	C28.2,30.6,27.5,31.7,27,32.9z M64.3,30.8c-0.7-1.1-1.5-2.1-2.4-3.1l0.7-0.7c0.9,1,1.8,2.1,2.5,3.2L64.3,30.8z M30.2,28.1l-0.7-0.7
	c0.9-1,1.9-2,3-2.8l0.6,0.8C32.1,26.2,31.1,27.1,30.2,28.1z M60.5,26.4c-1-0.9-2-1.6-3.1-2.3l0.5-0.9c1.2,0.7,2.3,1.5,3.3,2.4
	L60.5,26.4z M34.7,24.3l-0.5-0.8c1.1-0.7,2.4-1.4,3.6-1.9l0.4,0.9C37,23,35.8,23.6,34.7,24.3z M55.7,23.1c-1.2-0.6-2.4-1-3.6-1.4
	l0.3-1c1.3,0.4,2.6,0.9,3.8,1.5L55.7,23.1z M40,21.8l-0.3-1c1.3-0.4,2.6-0.7,4-0.8l0.1,1C42.5,21.2,41.2,21.5,40,21.8z M50.1,21.3
	c-1.3-0.2-2.6-0.3-3.9-0.4c-0.1,0-0.3,0-0.4,0l0-1c0.2,0,0.3,0,0.5,0c1.4,0,2.7,0.1,4.1,0.4L50.1,21.3z"/>
</svg>
