<?xml version="1.0" encoding="utf-8"?>
<!-- Generator: Adobe Illustrator 21.0.0, SVG Export Plug-In . SVG Version: 6.00 Build 0)  -->
<svg version="1.1" id="图层_1" xmlns="http://www.w3.org/2000/svg" xmlns:xlink="http://www.w3.org/1999/xlink" x="0px" y="0px"
	 viewBox="0 0 168 105.5" style="enable-background:new 0 0 168 105.5;" xml:space="preserve">
<style type="text/css">
	.st0{opacity:0.7;enable-background:new    ;}
	.st1{fill:#B1D0E8;}
	.st2{opacity:0.3;enable-background:new    ;}
	.st3{fill:#B5C7DF;}
	.st4{fill:#FFFFFF;}
	.st5{fill:#D9E3F2;}
	.st6{opacity:0.24;enable-background:new    ;}
	.st7{fill:#C4CEDE;}
	.st8{opacity:0.53;enable-background:new    ;}
	.st9{fill:#F5F8FC;}
	.st10{fill:#F6F9FC;}
	.st11{opacity:0.9;enable-background:new    ;}
	.st12{fill:#F4F7FC;}
</style>
<g class="st0">
	<path class="st1" d="M9.1,20.4L9,8.9l16.2,9.9L9.1,20.4z M10,10.7l0.1,8.6l12-1.2L10,10.7z"/>
</g>
<g class="st2">
	<path class="st3" d="M17.8,16.2L5.3,14.4l2.2,7.7L17.8,16.2z"/>
</g>
<g>
	<path class="st4" d="M49.8,48l4.1,4c0.8,0.8,0.9,2.1,0,3L15.8,94.2c-1.6,1.7-4.3,1.7-6,0.1l-1.1-1C7,91.7,7,89,8.6,87.3l38.1-39.2
		C47.6,47.2,49,47.2,49.8,48z"/>
	<path class="st1" d="M12.8,96c-1.2,0-2.4-0.4-3.3-1.3l-1.1-1c-0.9-1-1.4-2.1-1.4-3.4s0.5-2.4,1.3-3.3l38.1-39.2
		c1-1,2.7-1.1,3.7-0.1l4.1,4c0.5,0.5,0.8,1.1,0.8,1.8s-0.3,1.4-0.7,1.9L16.2,94.5C15.2,95.5,14,96,12.8,96z M48.3,47.9
		c-0.4,0-0.8,0.2-1.2,0.5L9,87.7c-0.7,0.7-1.1,1.6-1,2.6c0,1,0.4,1.9,1.1,2.6l1.1,1c1.5,1.4,3.8,1.4,5.3-0.1l38.1-39.2
		c0.3-0.3,0.5-0.7,0.5-1.1c0-0.4-0.2-0.8-0.5-1.1l-4.1-4C49.1,48.1,48.7,47.9,48.3,47.9z"/>
</g>
<g class="st2">
	<path class="st5" d="M64,33.2l3.3,3.2c0.7,0.7,0.7,1.7,0,2.4L36.8,70.7c-1.3,1.4-4.1,1.1-5.4-0.2l0,0c-1.3-1.3-1.5-4.1-0.2-5.4
		l30.5-31.8C62.3,32.6,63.4,32.6,64,33.2z"/>
</g>
<g class="st2">
	<path class="st5" d="M149,35.3l13.4-4.9l-1.2,11L149,35.3z"/>
</g>
<g class="st0">
	<path class="st1" d="M159.3,39.5l-16.4-1.4l15-12.3L159.3,39.5z M145.4,37.4l12.8,1.1l-1.1-10.7L145.4,37.4z"/>
</g>
<g class="st6">
	<circle class="st7" cx="58.2" cy="50.4" r="27.9"/>
</g>
<g>
	<path class="st4" d="M27.8,102.6H8.4"/>
	<rect x="8.4" y="102.1" class="st1" width="19.4" height="1"/>
</g>
<g>
	<path class="st4" d="M154.3,102.6H148"/>
	<rect x="148.1" y="102.1" class="st1" width="6.3" height="1"/>
</g>
<g>
	<path class="st4" d="M145.5,102.6H32.8"/>
	<rect x="32.8" y="102.1" class="st1" width="112.7" height="1"/>
</g>
<g>
	<rect x="42" y="2.9" class="st4" width="44" height="99.6"/>
	<path class="st1" d="M86.4,103.1h-45V2.4h45V103.1z M42.5,102.1h43V3.4h-43V102.1z"/>
</g>
<g class="st8">
	<rect x="47.9" y="13.7" class="st1" width="31.3" height="2.9"/>
</g>
<g class="st8">
	<rect x="47.9" y="23.4" class="st1" width="31.3" height="2.9"/>
</g>
<g class="st8">
	<rect x="47.9" y="34.2" class="st1" width="31.3" height="2.9"/>
</g>
<g>
	<rect x="90.8" y="2.9" class="st4" width="44" height="99.6"/>
	<path class="st1" d="M135.3,103.1h-45V2.4h45V103.1z M91.3,102.1h43V3.4h-43V102.1z"/>
</g>
<g class="st8">
	<rect x="91.3" y="52.7" class="st9" width="43" height="49.4"/>
</g>
<g class="st8">
	<rect x="91.3" y="3.4" class="st9" width="42.9" height="48.3"/>
</g>
<g>
	<circle class="st10" cx="101.1" cy="44.4" r="3.4"/>
	<path class="st1" d="M101.1,48.4c-2.2,0-3.9-1.8-3.9-3.9s1.8-3.9,3.9-3.9c2.2,0,3.9,1.8,3.9,3.9S103.2,48.4,101.1,48.4z
		 M101.1,41.5c-1.6,0-2.9,1.3-2.9,2.9s1.3,2.9,2.9,2.9s2.9-1.3,2.9-2.9S102.7,41.5,101.1,41.5z"/>
</g>
<g>
	<circle class="st10" cx="101.1" cy="60.1" r="3.4"/>
	<path class="st1" d="M101.1,64c-2.2,0-3.9-1.8-3.9-3.9c0-2.2,1.8-3.9,3.9-3.9c2.2,0,3.9,1.8,3.9,3.9S103.2,64,101.1,64z
		 M101.1,57.1c-1.6,0-2.9,1.3-2.9,2.9s1.3,2.9,2.9,2.9s2.9-1.3,2.9-2.9S102.7,57.1,101.1,57.1z"/>
</g>
<g>
	<rect x="91.8" y="52.1" class="st4" width="42" height="0.1"/>
	<rect x="91.3" y="51.6" class="st1" width="43" height="1.1"/>
</g>
<g class="st6">
	<circle class="st7" cx="51.4" cy="49.4" r="27.9"/>
</g>
<g>
	<circle class="st4" cx="50.3" cy="47.4" r="27.3"/>
	<path class="st1" d="M50.3,75.2c-15.4,0-27.8-12.5-27.8-27.8S35,19.6,50.3,19.6c15.4,0,27.8,12.5,27.8,27.8S65.6,75.2,50.3,75.2z
		 M50.3,20.5c-14.8,0-26.8,12-26.8,26.8s12,26.8,26.8,26.8s26.8-12,26.8-26.8S65.1,20.5,50.3,20.5z"/>
</g>
<g class="st11">
	<ellipse class="st12" cx="50.3" cy="47.3" rx="21.5" ry="21.5"/>
	<path class="st1" d="M50.3,69.3c-0.8,0-1.6,0-2.5-0.1l0.1-1c0.8,0.1,1.5,0.1,2.3,0.1c0.6,0,1.1,0,1.6-0.1l0.1,1
		C51.4,69.3,50.8,69.3,50.3,69.3z M53.9,69l-0.2-1c1.3-0.2,2.5-0.6,3.8-1l0.3,0.9C56.6,68.4,55.3,68.8,53.9,69z M45.8,68.9
		c-1.3-0.3-2.7-0.7-3.9-1.2l0.4-0.9c1.2,0.5,2.5,0.9,3.7,1.1L45.8,68.9z M59.8,67.1l-0.4-0.9c1.2-0.6,2.3-1.2,3.3-2l0.6,0.8
		C62.2,65.8,61,66.5,59.8,67.1z M40,66.8c-1.2-0.6-2.4-1.4-3.4-2.2l0.6-0.8c1,0.8,2.1,1.5,3.3,2.1L40,66.8z M64.9,63.7L64.2,63
		c1-0.9,1.9-1.8,2.7-2.9l0.8,0.6C66.8,61.8,65.9,62.8,64.9,63.7z M35.1,63.2c-1-0.9-1.9-2-2.7-3.1l0.8-0.6c0.8,1.1,1.6,2,2.6,2.9
		L35.1,63.2z M68.8,59.1L68,58.6c0.7-1.1,1.3-2.3,1.8-3.5l0.9,0.4C70.2,56.7,69.5,57.9,68.8,59.1z M31.3,58.4
		c-0.7-1.2-1.3-2.4-1.7-3.7l0.9-0.3c0.4,1.2,1,2.4,1.7,3.5L31.3,58.4z M71.3,53.5l-1-0.3c0.4-1.2,0.6-2.5,0.7-3.8l1,0.1
		C72,50.8,71.7,52.2,71.3,53.5z M29,52.8c-0.3-1.3-0.6-2.7-0.6-4l1-0.1c0.1,1.3,0.3,2.6,0.6,3.9L29,52.8z M72.2,47.4h-1v-0.2
		c0-1.2-0.1-2.5-0.3-3.7l1-0.2c0.2,1.3,0.3,2.6,0.3,3.9V47.4z M29.3,46.7h-1c0-1.4,0.2-2.7,0.5-4.1l1,0.2
		C29.5,44.1,29.3,45.4,29.3,46.7z M70.5,41.6c-0.3-1.3-0.8-2.5-1.4-3.6l0.9-0.4c0.6,1.2,1.1,2.5,1.4,3.8L70.5,41.6z M30.2,40.9
		l-1-0.3c0.4-1.3,0.9-2.6,1.6-3.8l0.9,0.5C31.1,38.5,30.6,39.7,30.2,40.9z M68.2,36.3c-0.7-1.1-1.5-2.2-2.3-3.1l0.7-0.7
		c0.9,1,1.7,2.1,2.4,3.3L68.2,36.3z M32.7,35.7l-0.8-0.5c0.7-1.1,1.6-2.2,2.6-3.2l0.7,0.7C34.3,33.6,33.4,34.6,32.7,35.7z
		 M64.5,31.8c-1-0.9-2-1.7-3.1-2.4l0.5-0.8c1.2,0.7,2.2,1.6,3.2,2.5L64.5,31.8z M36.6,31.3l-0.7-0.8c1-0.9,2.2-1.7,3.3-2.4l0.5,0.9
		C38.6,29.7,37.6,30.4,36.6,31.3z M59.7,28.4c-1.2-0.6-2.4-1.1-3.6-1.4l0.3-1c1.3,0.4,2.6,0.9,3.8,1.5L59.7,28.4z M41.5,28.1
		l-0.4-0.9c1.2-0.6,2.5-1,3.9-1.4l0.2,1C43.9,27.1,42.7,27.6,41.5,28.1z M54.1,26.6c-2.3-0.4-4.7-0.5-7-0.1l-0.2-1
		c2.4-0.4,5-0.3,7.4,0.1L54.1,26.6z"/>
</g>
<g class="st2">
	<path class="st5" d="M30.1,53.1c-0.6-1.9-0.9-3.8-0.9-5.8c0-11.6,9.4-21.1,21-21.1l0,0c6.2,0,12.2,2.8,16.1,7.6L30.1,53.1z"/>
</g>
</svg>
