<?xml version="1.0" encoding="utf-8"?>
<!-- Generator: Adobe Illustrator 21.0.0, SVG Export Plug-In . SVG Version: 6.00 Build 0)  -->
<svg version="1.1" id="图层_1" xmlns="http://www.w3.org/2000/svg" xmlns:xlink="http://www.w3.org/1999/xlink" x="0px" y="0px"
	 viewBox="0 0 172 108" style="enable-background:new 0 0 172 108;" xml:space="preserve">
<style type="text/css">
	.st0{opacity:0.3;fill:#D9E3F2;enable-background:new    ;}
	.st1{opacity:0.7;fill:#B1D0E8;enable-background:new    ;}
	.st2{opacity:0.3;fill:#B5C7DF;enable-background:new    ;}
	.st3{fill:#B1D0E8;}
	.st4{fill:#FFFFFF;}
	.st5{fill:#FFFFFF;stroke:#B1D0E8;}
	.st6{opacity:0.78;fill:#B1D0E8;enable-background:new    ;}
	.st7{fill:#F8FBFE;}
	.st8{opacity:0.84;fill:url(#SVGID_1_);enable-background:new    ;}
	.st9{enable-background:new    ;}
	.st10{opacity:0.13;fill:#B1D0E8;stroke:#A6CAE8;enable-background:new    ;}
	.st11{fill:#A6CAE8;}
	.st12{fill:#DFEEF8;}
</style>
<path class="st0" d="M135.5,50.8l13.7-5L148,57L135.5,50.8z"/>
<path class="st1" d="M146,55.1l-16.8-1.4l15.4-12.6L146,55.1z M131.8,52.9l13.1,1.1l-1.1-11L131.8,52.9z"/>
<path class="st1" d="M18.8,55.4l-2.3-11.5l18.2,6.8L18.8,55.4z M17.8,45.4l1.8,8.7l11.9-3.6L17.8,45.4z"/>
<path class="st2" d="M27.1,54.1l-12.4-3.5l1.2,8.1L27.1,54.1z"/>
<rect x="12" y="107.1" class="st3" width="9" height="1"/>
<rect x="143.6" y="107.1" class="st3" width="17.4" height="1"/>
<rect x="24" y="107.1" class="st3" width="117" height="1"/>
<path class="st4" d="M57,55.6l-21,10l-12,14l19-9"/>
<path class="st3" d="M24,80.1c-0.2,0-0.3-0.1-0.4-0.2c-0.1-0.2-0.1-0.5,0-0.6l12-14c0-0.1,0.1-0.1,0.2-0.1l21-10
	c0.2-0.1,0.5,0,0.7,0.2c0.1,0.2,0,0.5-0.2,0.7l-21,9.9L25.9,78.1l16.9-8c0.2-0.1,0.5,0,0.7,0.2c0.1,0.2,0,0.5-0.2,0.7l-19,9
	C24.1,80.1,24.1,80.1,24,80.1z"/>
<path class="st4" d="M101,56.2l19.5,9.5l12,14l-19-9"/>
<path class="st3" d="M132.5,79.7c-0.1,0-0.1,0-0.2,0l-19-9c-0.2-0.1-0.4-0.4-0.2-0.7c0.1-0.3,0.4-0.4,0.7-0.2l16.9,8l-10.4-12.1
	l-19.4-9.5c-0.2-0.1-0.4-0.4-0.2-0.7c0.1-0.2,0.4-0.3,0.7-0.2l19.5,9.5c0.1,0,0.1,0.1,0.2,0.1l12,14c0.2,0.2,0.2,0.4,0,0.6
	C132.8,79.6,132.7,79.7,132.5,79.7z"/>
<path class="st5" d="M44,69.6h68c0.6,0,1,0.4,1,1v37H43v-37C43,70,43.4,69.6,44,69.6z"/>
<path class="st4" d="M79,9.2c4-6.1,11.3-9.5,18.6-8c8,1.7,15.1,8.1,14.4,17.6"/>
<path class="st3" d="M112.5,18.9l-1-0.1c0.7-9.6-6.6-15.5-14-17.1c-7-1.5-14.1,1.6-18.1,7.7l-0.8-0.5c4.2-6.5,11.7-9.7,19.2-8.2
	C105.6,2.4,113.2,8.7,112.5,18.9z"/>
<path class="st4" d="M94.6,12.9c19.7,5.3,34.6,13.4,33.3,18.1s-18.2,4.3-37.9-1S55.4,16.6,56.7,11.9C57.9,7.2,74.9,7.6,94.6,12.9z"
	/>
<path class="st3" d="M117.3,34.8c-7.1,0-17-1.5-27.4-4.3c-17.7-4.8-35.2-13.1-33.7-18.8c0.2-0.8,0.8-1.5,1.8-2
	c5-2.9,20.1-1.8,36.8,2.7c17.7,4.8,35.2,13.1,33.7,18.8c-0.2,0.8-0.8,1.5-1.8,2C124.8,34.3,121.5,34.8,117.3,34.8z M67.2,9.1
	c-4,0-7,0.5-8.7,1.5c-0.7,0.4-1.1,0.9-1.3,1.4c-1,3.9,12,11.9,33,17.5c16.2,4.3,31.3,5.5,36,2.8c0.7-0.4,1.1-0.9,1.3-1.4
	c1-3.9-12-11.9-33-17.5l0,0C84.1,10.6,74.2,9.1,67.2,9.1z"/>
<path class="st6" d="M125.1,31.3l-1-0.3c0.1-0.4,0-0.8-0.3-1.3c-2-3.4-12.2-8.2-24.3-11.4l0.3-1c12.5,3.3,22.8,8.2,24.9,11.9
	C125.1,30,125.3,30.7,125.1,31.3z"/>
<path class="st7" d="M57.5,55.6h43.2l12.3,15H43L57.5,55.6z"/>
<path class="st3" d="M114.1,71.1h-2.4v-1h0.3l-1-1.2l0.8-0.6L114.1,71.1z M109.6,71.1h-4v-1h4V71.1z M103.6,71.1h-4v-1h4V71.1z
	 M97.6,71.1h-4v-1h4V71.1z M91.6,71.1h-4v-1h4V71.1z M85.6,71.1h-4v-1h4V71.1z M79.6,71.1h-4v-1h4V71.1z M73.6,71.1h-4v-1h4V71.1z
	 M67.6,71.1h-4v-1h4V71.1z M61.6,71.1h-4v-1h4V71.1z M55.6,71.1h-4v-1h4V71.1z M49.6,71.1h-4v-1h4V71.1z M43.6,71.1h-1.8l3.2-3.3
	l0.7,0.7l-2.1,2.2C43.6,70.7,43.6,71.1,43.6,71.1z M109.7,67.3l-2.5-3.1l0.8-0.6l2.5,3.1L109.7,67.3z M47.1,67.1l-0.7-0.7l2.8-2.9
	l0.7,0.7L47.1,67.1z M51.3,62.8l-0.7-0.7l2.8-2.9l0.7,0.7L51.3,62.8z M105.9,62.7l-2.5-3.1l0.8-0.6l2.5,3.1L105.9,62.7z M55.4,58.4
	l-0.7-0.7l2.6-2.7h4.2v1h-3.8L55.4,58.4z M102.1,58.1l-1.6-2h-1v-1h1.5l1.9,2.3L102.1,58.1z M97.5,56.1h-4v-1h4V56.1z M91.5,56.1h-4
	v-1h4V56.1z M85.5,56.1h-4v-1h4V56.1z M79.5,56.1h-4v-1h4V56.1z M73.5,56.1h-4v-1h4V56.1z M67.5,56.1h-4v-1h4V56.1z"/>
<g>
	<path class="st3" d="M108,15.6c-0.3-1.3-0.7-2.5-1.3-3.6l0.9-0.5c0.6,1.2,1.1,2.5,1.4,3.9L108,15.6z M82.7,10.6L81.8,10
		c0.8-1.1,1.7-2.2,2.7-3.1l0.6,0.8C84.2,8.5,83.4,9.5,82.7,10.6z M105.7,10.3c-0.8-1-1.6-2-2.7-2.8l0.6-0.8c1.1,0.9,2,1.9,2.8,3
		L105.7,10.3z M86.8,6.6l-0.5-0.8C87.4,5,88.7,4.4,90,4l0.3,1C89.1,5.3,87.9,5.9,86.8,6.6z M101.5,6.4c-1.1-0.7-2.3-1.2-3.5-1.5
		l0.3-1c1.3,0.4,2.6,0.9,3.8,1.6L101.5,6.4z M92.2,4.6l-0.1-1c0.7-0.1,1.4-0.2,2.2-0.2c0.6,0,1.3,0,1.9,0.1l-0.1,1
		c-0.6-0.1-1.2-0.1-1.8-0.1C93.5,4.4,92.8,4.5,92.2,4.6z"/>
</g>
<linearGradient id="SVGID_1_" gradientUnits="userSpaceOnUse" x1="96.4472" y1="42.25" x2="121.96" y2="42.25" gradientTransform="matrix(1 0 0 -1 0 110)">
	<stop  offset="0" style="stop-color:#FFFFFF;stop-opacity:0.4"/>
	<stop  offset="1" style="stop-color:#FFFFFF;stop-opacity:0"/>
</linearGradient>
<path class="st8" d="M100.7,28l21.3,79.5h-18.1L96.4,28H100.7z"/>
<g class="st9">
	<path class="st3" d="M65.7,87.3c0.5,0.6,0.7,1.5,0.7,2.6h-4.6c0,0.6,0.2,1,0.5,1.3c0.3,0.3,0.6,0.5,1.1,0.5c0.4,0,0.8-0.1,1-0.3
		c0.2-0.2,0.4-0.4,0.6-0.8h1.4c-0.1,0.6-0.4,1.1-0.9,1.5c-0.6,0.5-1.2,0.7-2.1,0.7c-0.9,0-1.7-0.3-2.2-0.9c-0.6-0.6-0.9-1.4-0.9-2.4
		c0-0.9,0.3-1.7,0.8-2.3c0.5-0.6,1.3-0.9,2.2-0.9C64.4,86.2,65.2,86.6,65.7,87.3z M62.3,87.7c-0.3,0.3-0.4,0.6-0.5,1.1H65
		c-0.1-1-0.7-1.5-1.6-1.5C62.9,87.3,62.6,87.5,62.3,87.7z"/>
	<path class="st3" d="M72.5,87.2c0.3-0.4,0.6-0.6,0.9-0.8c0.3-0.1,0.6-0.2,1-0.2c0.6,0,1.2,0.2,1.6,0.6c0.4,0.4,0.6,1,0.6,1.7v4.1
		h-1.4v-3.8c0-0.5-0.1-0.9-0.3-1.1c-0.2-0.2-0.6-0.3-1-0.3c-0.3,0-0.6,0.1-0.8,0.4c-0.2,0.3-0.3,0.6-0.3,1.1v3.8h-1.4v-3.8
		c0-0.9-0.4-1.4-1.2-1.4c-0.4,0-0.7,0.1-0.9,0.5c-0.2,0.3-0.4,0.6-0.4,1.1v3.7h-1.4v-6.2h1.4V87c0.5-0.5,1.1-0.8,1.7-0.8
		C71.5,86.2,72.1,86.6,72.5,87.2z"/>
	<path class="st3" d="M83.4,87.2c0.5,0.6,0.7,1.4,0.7,2.3c0,0.9-0.2,1.7-0.7,2.3c-0.5,0.6-1.2,1-2.1,1c-0.7,0-1.3-0.3-1.8-1V95h-1.4
		v-8.6h1.3v0.7c0.4-0.6,1.1-0.8,1.9-0.8C82.2,86.2,82.9,86.6,83.4,87.2z M79.8,88c-0.3,0.4-0.4,0.9-0.4,1.5v0.1
		c0,0.6,0.2,1.2,0.5,1.6c0.3,0.4,0.6,0.5,1.1,0.5c0.6,0,1.1-0.2,1.3-0.6c0.3-0.4,0.4-0.9,0.4-1.5s-0.1-1.2-0.3-1.5
		c-0.3-0.4-0.7-0.6-1.3-0.6C80.5,87.3,80.1,87.5,79.8,88z"/>
	<path class="st3" d="M87.3,86.4h1.4v1.1h-1.4V91c0,0.1,0,0.3,0.1,0.3c0.1,0.1,0.2,0.1,0.3,0.1h0.8v1.1h-1c-0.5,0-0.9-0.1-1.2-0.4
		c-0.2-0.3-0.4-0.6-0.4-1.1v-3.5h-1.1v-1.1h1.1V85l1.4-0.6V86.4z"/>
	<path class="st3" d="M90.5,86.4l1.6,4.4l1.6-4.4h1.5L91.9,95h-1.5l1.1-2.5L89,86.4H90.5z"/>
</g>
<path class="st10" d="M81.3,18.9l-51.8,88.3h106l-32.3-79.9L81.3,18.9z"/>
<path class="st11" d="M85.1,18.5c-1.5,0-2.7,0.2-3.4,0.6c-0.3,0.2-0.5,0.4-0.5,0.6c-0.3,1.3,3.4,4.2,10.3,6
	c4.9,1.4,9.6,1.6,11.3,0.6c0.3-0.2,0.5-0.4,0.5-0.6c0.3-1.3-3.4-4.2-10.3-6l0,0C90.1,19,87.3,18.5,85.1,18.5z M99.4,28
	c-2.3,0-5.1-0.4-8.1-1.2c-5.8-1.6-11.7-4.7-11-7.3c0.1-0.5,0.5-0.9,1-1.2c2-1.1,6.8-0.9,12.1,0.5c5.8,1.6,11.7,4.7,11,7.3
	c-0.1,0.5-0.5,0.9-1,1.2C102.5,27.7,101.1,28,99.4,28z"/>
<path class="st12" d="M93.2,19.3c6.4,1.8,11.2,4.7,10.7,6.6s-6.1,2.1-12.5,0.3c-6.4-1.8-11.2-4.7-10.7-6.6
	C81.2,17.7,86.8,17.5,93.2,19.3z"/>
</svg>
