<?xml version="1.0" encoding="utf-8"?>
<!-- Generator: Adobe Illustrator 24.0.0, SVG Export Plug-In . SVG Version: 6.00 Build 0)  -->
<svg version="1.1" id="图层_1" xmlns="http://www.w3.org/2000/svg" xmlns:xlink="http://www.w3.org/1999/xlink" x="0px" y="0px"
	 viewBox="0 0 168 104" style="enable-background:new 0 0 168 104;" xml:space="preserve">
<style type="text/css">
	.st0{fill:#F4F6F9;}
	.st1{fill:#B1D0E8;}
	.st2{fill:#FFFFFF;}
</style>
<title>instance</title>
<path class="st0" d="M114,104V74.5c0-0.8-0.7-1.5-1.5-1.5h-61c-0.8,0-1.5,0.7-1.5,1.5V104H114z"/>
<rect x="89.5" y="21.5" class="st0" width="1" height="24"/>
<path class="st0" d="M51.5,45.5h13c0.8,0,1.5,0.7,1.5,1.5v13c0,0.8-0.7,1.5-1.5,1.5h-13c-0.8,0-1.5-0.7-1.5-1.5V47
	C50,46.2,50.7,45.5,51.5,45.5z"/>
<path class="st0" d="M83.5,45.5h13c0.8,0,1.5,0.7,1.5,1.5v13c0,0.8-0.7,1.5-1.5,1.5h-13c-0.8,0-1.5-0.7-1.5-1.5V47
	C82,46.2,82.7,45.5,83.5,45.5z"/>
<path class="st0" d="M83.5,5.5h13C97.3,5.5,98,6.2,98,7v13c0,0.8-0.7,1.5-1.5,1.5h-13c-0.8,0-1.5-0.7-1.5-1.5V7
	C82,6.2,82.7,5.5,83.5,5.5z"/>
<path class="st0" d="M115.1,45h13c1.2,0,1.9,0.7,1.9,1.5v13c0,0.8-0.7,1.5-1.5,1.5h-13c-0.8,0-1.5-0.7-1.5-1.5v-13
	C114,45.7,114.7,45,115.1,45z"/>
<path class="st0" d="M59.5,29.5c-0.8,0-1.5,0.7-1.5,1.5v14.5h1V32c0-0.8,0.7-1.5,1.5-1.5h59c0.8,0,1.5,0.7,1.5,1.5v13.5h1V31
	c0-0.8-0.7-1.5-1.5-1.5H59.5z"/>
<rect x="79.5" y="16" class="st1" width="1" height="24.5"/>
<path class="st1" d="M49.5,24.5c-0.8,0-1.5,0.7-1.5,1.5v15.5h1V27c0-0.8,0.7-1.5,1.5-1.5h59c0.8,0,1.5,0.7,1.5,1.5v14h1V26
	c0-0.8-0.7-1.5-1.5-1.5H49.5z"/>
<path class="st0" d="M153.5,28.7l13.7-5c0,0,2.5,14-1.2,11.2S153.5,28.7,153.5,28.7z"/>
<path class="st1" d="M164,33l-16.8-1.4L162.6,19L164,33z M149.8,30.8l13.1,1.1L161.8,21L149.8,30.8z"/>
<polygon class="st0" points="11.7,27.3 0.1,21.8 1,32.5 "/>
<path class="st1" d="M20.2,31L4,27.8l3.3-11.3L20.2,31z M5.3,27l12.2,2.5l-9.7-11L5.3,27z"/>
<rect x="33" y="102.8" class="st1" width="76" height="1.2"/>
<rect x="113" y="102.8" class="st1" width="15" height="1.2"/>
<rect x="132" y="102.8" class="st1" width="36" height="1.2"/>
<rect x="16" y="103" class="st1" width="13" height="1"/>
<rect y="103" class="st1" width="12" height="1"/>
<path class="st2" d="M41.5,41h13c0.6,0,1,0.4,1,1v13c0,0.6-0.4,1-1,1h-13c-0.6,0-1-0.4-1-1V42C40.5,41.4,40.9,41,41.5,41z"/>
<path class="st1" d="M54.5,41c0.3,0,0.5,0.2,0.5,0.5v13c0,0.3-0.2,0.5-0.5,0.5h-13c-0.3,0-0.5-0.2-0.5-0.5v-13
	c0-0.3,0.2-0.5,0.5-0.5H54.5 M54.5,40h-13c-0.8,0-1.5,0.7-1.5,1.5v13c0,0.8,0.7,1.5,1.5,1.5h13c0.8,0,1.5-0.7,1.5-1.5v-13
	C56,40.7,55.3,40,54.5,40z"/>
<path class="st2" d="M73.5,41h13c0.6,0,1,0.4,1,1v13c0,0.6-0.4,1-1,1h-13c-0.6,0-1-0.4-1-1V42C72.5,41.4,72.9,41,73.5,41z"/>
<path class="st1" d="M86.5,41c0.3,0,0.5,0.2,0.5,0.5v13c0,0.3-0.2,0.5-0.5,0.5h-13c-0.3,0-0.5-0.2-0.5-0.5v-13
	c0-0.3,0.2-0.5,0.5-0.5H86.5 M86.5,40h-13c-0.8,0-1.5,0.7-1.5,1.5v13c0,0.8,0.7,1.5,1.5,1.5h13c0.8,0,1.5-0.7,1.5-1.5v-13
	C88,40.7,87.3,40,86.5,40z"/>
<path class="st1" d="M73.5,0h13C87.3,0,88,0.7,88,1.5v13c0,0.8-0.7,1.5-1.5,1.5h-13c-0.8,0-1.5-0.7-1.5-1.5v-13
	C72,0.7,72.7,0,73.5,0z"/>
<path class="st2" d="M41.5,68h61c0.6,0,1,0.4,1,1v33c0,0.6-0.4,1-1,1h-61c-0.6,0-1-0.4-1-1V69C40.5,68.4,40.9,68,41.5,68z"/>
<path class="st1" d="M102.5,68.5c0.3,0,0.5,0.2,0.5,0.5v33c0,0.3-0.2,0.5-0.5,0.5h-61c-0.3,0-0.5-0.2-0.5-0.5V69
	c0-0.3,0.2-0.5,0.5-0.5H102.5 M102.5,67.5h-61c-0.8,0-1.5,0.7-1.5,1.5v33c0,0.8,0.7,1.5,1.5,1.5h61c0.8,0,1.5-0.7,1.5-1.5V69
	C104,68.2,103.3,67.5,102.5,67.5z"/>
<rect x="80" y="74.5" class="st0" width="16" height="4"/>
<rect x="73" y="74.5" class="st0" width="4" height="4"/>
<rect x="73" y="83.5" class="st0" width="4" height="4"/>
<rect x="73" y="91.5" class="st0" width="4" height="4"/>
<rect x="80" y="83.5" class="st0" width="16" height="4"/>
<rect x="80" y="91.5" class="st0" width="16" height="4"/>
<rect x="103.5" y="87.5" class="st1" width="2" height="1"/>
<rect x="136.7" y="87.5" class="st1" width="3.9" height="1"/>
<rect x="125" y="87.5" class="st1" width="3.9" height="1"/>
<rect x="119.1" y="87.5" class="st1" width="3.9" height="1"/>
<rect x="107.4" y="87.5" class="st1" width="3.9" height="1"/>
<rect x="130.8" y="87.5" class="st1" width="3.9" height="1"/>
<rect x="113.3" y="87.5" class="st1" width="3.9" height="1"/>
<rect x="119" y="48.5" class="st1" width="2" height="1"/>
<rect x="123.2" y="48.5" class="st1" width="4.3" height="1"/>
<rect x="129.6" y="48.5" class="st1" width="4.3" height="1"/>
<rect x="136.1" y="48.5" class="st1" width="4.3" height="1"/>
<path class="st1" d="M142.5,48.5v1l0,0c0.8,0,1.5,0.7,1.5,1.5l0,0v0.5h1V50c0-0.8-0.7-1.5-1.5-1.5l0,0H142.5z"/>
<rect x="144" y="53.6" class="st1" width="1" height="4.2"/>
<rect x="144" y="67" class="st1" width="1" height="4.2"/>
<rect x="144" y="60" class="st1" width="1" height="4.2"/>
<rect x="144" y="73.3" class="st1" width="1" height="4.2"/>
<rect x="144" y="79.7" class="st1" width="1" height="4.2"/>
<path class="st1" d="M145,86h-1c0,0.8-0.7,1.5-1.5,1.5l0,0l0,0v1h1c0.8,0,1.5-0.7,1.5-1.5l0,0V86z"/>
<rect x="114" y="92.5" class="st0" width="38.5" height="1"/>
<rect x="129" y="53.5" class="st0" width="23.5" height="1"/>
<path class="st0" d="M152.5,53.5v1l0,0c0.8,0,1.5,0.7,1.5,1.5l0,0v0.5h1V55c0-0.8-0.7-1.5-1.5-1.5l0,0H152.5z"/>
<rect x="154" y="56.5" class="st0" width="1" height="34.5"/>
<path class="st0" d="M155,91h-1c0,0.8-0.7,1.5-1.5,1.5l0,0l0,0v1h1c0.8,0,1.5-0.7,1.5-1.5l0,0V91z"/>
<polygon class="st1" points="43,53 43,46 42,46 42,53 42,54 43,54 50,54 50,53 "/>
<polygon class="st1" points="75,53 75,46 74,46 74,53 74,54 75,54 82,54 82,53 "/>
<g>
	<path class="st1" d="M54.1,75c0.1-0.1,0.3-0.3,0.5-0.4L54,73.8c-0.2,0.1-0.4,0.3-0.5,0.5c-0.8,0.8-1.4,1.8-1.6,2.9l1,0.2
		C52.9,76.5,53.4,75.7,54.1,75z"/>
	<path class="st1" d="M55.6,83l-0.3,0.7c-0.5,0.1-1.1,0.3-1.6,0.5l0.4,0.9c1.1-0.5,2.3-0.7,3.5-0.7l0,0l0,0c0.6,0,1.1-0.1,1.7-0.2
		l-0.3-1C57.9,83.6,56.7,83.5,55.6,83z"/>
	<path class="st1" d="M54.1,82c-0.8-0.8-1.3-1.8-1.4-2.9l-1,0.1c0.2,1.3,0.8,2.5,1.7,3.4l0.1,0.1L54.1,82L54.1,82z"/>
	<path class="st1" d="M59.4,73.9l0.4-0.9c-1.3-0.5-2.7-0.5-4-0.1l0.3,0.9C57.1,73.5,58.3,73.5,59.4,73.9z"/>
	<path class="st1" d="M62.5,78l1-0.1c-0.1-1.4-0.7-2.7-1.7-3.6c-0.1-0.1-0.2-0.2-0.3-0.3l-0.7,0.8c0.1,0.1,0.2,0.1,0.2,0.2
		C61.9,75.8,62.4,76.9,62.5,78z"/>
	<path class="st1" d="M61.8,82.7c0.8-0.8,1.3-1.7,1.6-2.7l-1-0.2c-0.2,0.9-0.7,1.6-1.3,2.3c-0.2,0.2-0.4,0.3-0.6,0.5l0.6,0.8
		C61.3,83.1,61.5,82.9,61.8,82.7z"/>
	<path class="st1" d="M48.8,93.2c0-1.1,0.2-2.1,0.6-3.1l-0.9-0.3c-0.4,1.1-0.6,2.2-0.6,3.4c0,0.2,0,0.3,0,0.5l1-0.1
		C48.8,93.5,48.8,93.4,48.8,93.2z"/>
	<rect x="48.6" y="95" class="st1" width="3.8" height="1"/>
	<path class="st1" d="M66.7,89.8c-0.5-1.2-1.2-2.4-2.1-3.3l-0.7,0.7c0.8,0.9,1.5,1.9,1.9,3L66.7,89.8z"/>
	<path class="st1" d="M67.2,91.7l-1,0.2c0.1,0.4,0.1,0.9,0.1,1.4c0,0.6-0.1,1.2-0.2,1.8h-0.7v1h1.5l0.1-0.4c0.2-0.8,0.3-1.6,0.3-2.4
		C67.3,92.7,67.3,92.2,67.2,91.7z"/>
	<rect x="59.8" y="95" class="st1" width="3.8" height="1"/>
	<rect x="54.2" y="95" class="st1" width="3.8" height="1"/>
	<path class="st1" d="M63.1,85.2c-1.1-0.8-2.3-1.3-3.6-1.5l-0.2,1c1.2,0.2,2.3,0.7,3.2,1.4L63.1,85.2z"/>
	<path class="st1" d="M49.3,88l0.8,0.5c0.6-1,1.5-1.9,2.4-2.6L52,85.2C50.9,86,50,86.9,49.3,88z"/>
</g>
<g>
	<g>
		<path class="st1" d="M120,54.5c0,0.8-0.7,1.5-1.5,1.5h-1.1v-1h0.1c0.8,0,1.5-0.7,1.5-1.5l0,0h1V54.5z"/>
	</g>
	<g>
		<path class="st1" d="M116.7,56h-4.4v-1h4.4V56z M111.6,56h-4.4v-1h4.4V56z"/>
	</g>
	<g>
		<path class="st1" d="M106.5,56h-1c-0.8,0-1.5-0.7-1.5-1.5v-1h1l0,0c0,0.8,0.7,1.5,1.5,1.5l0,0V56z"/>
	</g>
	<g>
		<path class="st1" d="M105,52.8h-1v-4.4h1V52.8z M105,47.6h-1v-4.4h1V47.6z"/>
	</g>
	<g>
		<path class="st1" d="M105,42.5h-1v-1c0-0.8,0.7-1.5,1.5-1.5h1v1l0,0C105.7,41,105,41.7,105,42.5L105,42.5z"/>
	</g>
	<g>
		<path class="st1" d="M116.7,41h-4.4v-1h4.4V41z M111.6,41h-4.4v-1h4.4V41z"/>
	</g>
	<g>
		<path class="st1" d="M120,42.5h-1l0,0c0-0.8-0.7-1.5-1.5-1.5h-0.1v-1h1.1c0.8,0,1.5,0.7,1.5,1.5V42.5z"/>
	</g>
	<g>
		<path class="st1" d="M120,52.8h-1v-4.3h1V52.8z M120,47.6h-1v-4.4h1V47.6z"/>
	</g>
</g>
</svg>
