<?xml version="1.0" encoding="utf-8"?>
<!-- Generator: Adobe Illustrator 21.0.0, SVG Export Plug-In . SVG Version: 6.00 Build 0)  -->
<svg version="1.1" id="图层_1" xmlns="http://www.w3.org/2000/svg" xmlns:xlink="http://www.w3.org/1999/xlink" x="0px" y="0px"
	 viewBox="0 0 172 108" style="enable-background:new 0 0 172 108;" xml:space="preserve">
<style type="text/css">
	.st0{fill:none;enable-background:new    ;}
	.st1{opacity:0.7;enable-background:new    ;}
	.st2{fill:#B1D0E8;}
	.st3{opacity:0.3;enable-background:new    ;}
	.st4{fill:#B5C7DF;}
	.st5{fill:#FFFFFF;}
	.st6{fill:#D9E3F2;}
	.st7{opacity:0.24;enable-background:new    ;}
	.st8{fill:#C4CEDE;}
	.st9{opacity:0.11;enable-background:new    ;}
	.st10{fill:#C5DCF1;}
	.st11{opacity:0.2;enable-background:new    ;}
	.st12{fill:#A1B6D1;}
	.st13{opacity:0.1;enable-background:new    ;}
	.st14{opacity:0.9;enable-background:new    ;}
	.st15{fill:#F4F7FC;}
</style>
<path class="st0" d="z"/>
<g class="st1">
	<path class="st2" d="M15.2,67.3L5,61.5l17-9.2L15.2,67.3z M7,61.5l7.7,4.4l5.1-11.3L7,61.5z"/>
</g>
<g class="st3">
	<path class="st4" d="M16,57.4L8,67.6l8,2V57.4z"/>
</g>
<path class="st5" d="M64,52.2l4.2,4c0.9,0.8,0.9,2.2,0,3l-39,40.2c-1.7,1.7-4.4,1.8-6.1,0.1l-1.1-1c-1.7-1.7-1.8-4.4-0.1-6.1
	l39-40.2C61.8,51.4,63.1,51.3,64,52.2z"/>
<path class="st2" d="M26.1,101.2c-1.2,0-2.4-0.5-3.4-1.4l-1.1-1c-0.9-0.9-1.4-2.1-1.5-3.4s0.5-2.5,1.4-3.4l39-40.2
	c1-1.1,2.7-1.1,3.8-0.1l4.2,4c0.5,0.5,0.8,1.2,0.8,1.9c0,0.7-0.3,1.4-0.8,1.9l-39,40.2C28.6,100.8,27.3,101.2,26.1,101.2z
	 M62.5,52.1c-0.4,0-0.9,0.2-1.2,0.5l-39,40.2c-0.7,0.7-1.1,1.7-1.1,2.7c0,1,0.4,2,1.2,2.7l1.1,1c1.5,1.5,3.9,1.4,5.4-0.1l39-40.2
	c0.3-0.3,0.5-0.7,0.5-1.2c0-0.4-0.2-0.9-0.5-1.2l-4.2-4C63.3,52.2,62.9,52.1,62.5,52.1z"/>
<g class="st3">
	<path class="st6" d="M78.6,37.7l3.3,3.3c0.7,0.7,0.7,1.8,0,2.5L50.7,76.1c-1.3,1.4-4.2,1.2-5.6-0.2l0,0c-1.4-1.3-1.6-4.2-0.3-5.5
		l31.3-32.6C76.8,37,77.9,37,78.6,37.7z"/>
</g>
<g class="st3">
	<path class="st6" d="M151.5,32.2l13.7-5L164,38.4L151.5,32.2z"/>
</g>
<g class="st1">
	<path class="st2" d="M162,36.5l-16.8-1.4l15.4-12.6L162,36.5z M147.8,34.3l13.1,1.1l-1.1-10.9L147.8,34.3z"/>
</g>
<g>
	<path class="st5" d="M62,1h70c3.3,0,6,2.7,6,6v98c0,1.1-0.9,2-2,2H58c-1.1,0-2-0.9-2-2V7C56,3.7,58.7,1,62,1z"/>
	<path class="st2" d="M136,107.5H58c-1.4,0-2.5-1.1-2.5-2.5V7c0-3.6,2.9-6.5,6.5-6.5h70c3.6,0,6.5,2.9,6.5,6.5v98
		C138.5,106.4,137.4,107.5,136,107.5z M62,1.5c-3,0-5.5,2.5-5.5,5.5v98c0,0.8,0.7,1.5,1.5,1.5h78c0.8,0,1.5-0.7,1.5-1.5V7
		c0-3-2.5-5.5-5.5-5.5H62z"/>
</g>
<g>
	<path class="st5" d="M63,85h18v6c0,1.7,1.3,3,3,3h26c1.7,0,3-1.3,3-3v-6h18"/>
	<path class="st2" d="M110,94.5H84c-1.9,0-3.5-1.6-3.5-3.5v-5.5H63v-1h18.5V91c0,1.4,1.1,2.5,2.5,2.5h26c1.4,0,2.5-1.1,2.5-2.5v-6.5
		H131v1h-17.5V91C113.5,92.9,111.9,94.5,110,94.5z"/>
</g>
<g class="st7">
	<circle class="st8" cx="66.6" cy="53.6" r="28.6"/>
</g>
<g>
	<path class="st5" d="M35.5,107H15.6"/>
	<rect x="15.6" y="106.5" class="st2" width="19.9" height="1"/>
</g>
<g>
	<path class="st5" d="M165,107h-6.4"/>
	<rect x="158.6" y="106.5" class="st2" width="6.4" height="1"/>
</g>
<g>
	<path class="st5" d="M156,107H40.6"/>
	<rect x="40.6" y="106.5" class="st2" width="115.4" height="1"/>
</g>
<g class="st9">
	<path class="st10" d="M113,85v7c0,1.1-0.9,2-2,2H83c-1.1,0-2-0.9-2-2v-7H63V11h68v74H113z"/>
</g>
<g class="st11">
	<rect x="74" y="23" class="st12" width="45" height="10"/>
</g>
<g class="st11">
	<rect x="74" y="41" class="st12" width="45" height="10"/>
</g>
<g class="st11">
	<rect x="74" y="61" class="st12" width="45" height="10"/>
</g>
<g class="st13">
	<path class="st12" d="M113,85v7c0,1.1-0.9,2-2,2H83c-1.1,0-2-0.9-2-2v-7H63v-3V13v-2h2h64h2v2v69v3H113z M65,13v69h18h1v6
		c0,1.7,1.3,3,3,3h20c1.7,0,3-1.3,3-3v-6h1h18V13H65z"/>
</g>
<g>
	<circle class="st5" cx="64.5" cy="51.5" r="28"/>
	<path class="st2" d="M64.5,80C48.8,80,36,67.2,36,51.5C36,35.8,48.8,23,64.5,23S93,35.8,93,51.5C93,67.2,80.2,80,64.5,80z M64.5,24
		C49.3,24,37,36.4,37,51.5S49.3,79,64.5,79C79.6,79,92,66.7,92,51.5S79.6,24,64.5,24z"/>
</g>
<g class="st14">
	<ellipse class="st15" cx="63.9" cy="51" rx="22" ry="22.1"/>
	<path class="st2" d="M63.9,73.5c-0.3,0-0.5,0-0.8,0l0-1c1.3,0,2.6,0,3.9-0.2l0.1,1C66.2,73.5,65,73.5,63.9,73.5z M61.1,73.4
		c-1.4-0.2-2.7-0.5-4-0.9l0.3-1c1.2,0.4,2.5,0.7,3.8,0.8L61.1,73.4z M69.2,72.9l-0.2-1c1.3-0.3,2.5-0.7,3.7-1.3l0.4,0.9
		C71.9,72.1,70.6,72.6,69.2,72.9z M55.2,71.8c-1.2-0.5-2.5-1.2-3.6-1.9l0.5-0.8c1.1,0.7,2.2,1.3,3.4,1.8L55.2,71.8z M74.9,70.7
		l-0.5-0.9c1.1-0.6,2.2-1.4,3.2-2.2l0.6,0.8C77.2,69.2,76.1,70,74.9,70.7z M50,68.6c-1.1-0.8-2.1-1.8-3-2.8l0.8-0.7
		c0.9,1,1.8,1.9,2.8,2.7L50,68.6z M79.8,67l-0.7-0.7c0.9-0.9,1.8-1.9,2.5-3l0.8,0.6C81.7,64.9,80.8,66,79.8,67z M45.7,64.2
		c-0.8-1.1-1.5-2.3-2.1-3.5l0.9-0.4c0.6,1.2,1.2,2.3,2,3.4L45.7,64.2z M83.5,62.1l-0.9-0.5c0.6-1.1,1.2-2.3,1.6-3.6l0.9,0.3
		C84.8,59.7,84.2,60.9,83.5,62.1z M42.8,58.8c-0.5-1.3-0.8-2.6-1.1-3.9l1-0.2c0.2,1.3,0.6,2.5,1,3.8L42.8,58.8z M85.8,56.4l-1-0.2
		c0.3-1.3,0.5-2.6,0.6-3.9l1,0.1C86.3,53.7,86.1,55.1,85.8,56.4z M41.5,52.9c-0.1-0.6-0.1-1.3-0.1-1.9c0-0.7,0-1.5,0.1-2.2l1,0.1
		c-0.1,0.7-0.1,1.4-0.1,2.1c0,0.6,0,1.2,0.1,1.8L41.5,52.9z M85.4,50.4c0-1.3-0.2-2.6-0.5-3.9l1-0.2c0.3,1.3,0.4,2.7,0.5,4.1
		L85.4,50.4z M42.8,46.9l-1-0.2c0.3-1.3,0.6-2.7,1.1-3.9l0.9,0.4C43.4,44.4,43.1,45.7,42.8,46.9z M84.5,44.6
		c-0.4-1.2-0.9-2.5-1.5-3.6l0.9-0.5c0.6,1.2,1.2,2.5,1.6,3.8L84.5,44.6z M44.7,41.4L43.8,41c0.6-1.2,1.3-2.4,2.1-3.5l0.8,0.6
		C45.9,39.1,45.2,40.2,44.7,41.4z M82,39.3c-0.7-1.1-1.5-2.1-2.4-3.1l0.7-0.7c0.9,1,1.8,2.1,2.5,3.2L82,39.3z M47.9,36.6l-0.7-0.7
		c0.9-1,1.9-2,3-2.8l0.6,0.8C49.8,34.7,48.8,35.6,47.9,36.6z M78.2,34.9c-1-0.9-2-1.6-3.1-2.3l0.5-0.9c1.2,0.7,2.3,1.5,3.3,2.4
		L78.2,34.9z M52.4,32.8l-0.5-0.8c1.1-0.7,2.4-1.4,3.6-1.9l0.4,0.9C54.7,31.5,53.5,32.1,52.4,32.8z M73.4,31.6
		c-1.2-0.6-2.4-1-3.6-1.4l0.3-1c1.3,0.4,2.6,0.9,3.8,1.5L73.4,31.6z M57.7,30.3l-0.3-1c1.3-0.4,2.6-0.7,4-0.8l0.1,1
		C60.2,29.7,58.9,30,57.7,30.3z M67.8,29.8c-1.3-0.2-2.6-0.3-3.9-0.4c-0.1,0-0.3,0-0.4,0l0-1c0.2,0,0.3,0,0.5,0
		c1.4,0,2.7,0.1,4.1,0.4L67.8,29.8z"/>
</g>
<g class="st3">
	<path class="st6" d="M43.2,56.9C42.6,55,42.3,53,42.3,51c0-11.9,9.6-21.6,21.5-21.6c6.6,0,12.6,3,16.5,7.8L43.2,56.9z"/>
</g>
</svg>
