<?xml version="1.0" encoding="utf-8"?>
<!-- Generator: Adobe Illustrator 21.0.0, SVG Export Plug-In . SVG Version: 6.00 Build 0)  -->
<svg version="1.1" id="图层_1" xmlns="http://www.w3.org/2000/svg" xmlns:xlink="http://www.w3.org/1999/xlink" x="0px" y="0px"
	 viewBox="0 0 172 108" style="enable-background:new 0 0 172 108;" xml:space="preserve">
<style type="text/css">
	.st0{fill:#FFFFFF;}
	.st1{fill:#B1D0E8;}
	.st2{opacity:0.7;enable-background:new    ;}
	.st3{opacity:0.3;fill:#B5C7DF;enable-background:new    ;}
	.st4{opacity:0.3;fill:#D9E3F2;enable-background:new    ;}
	.st5{opacity:0.7;fill:#B1D0E8;enable-background:new    ;}
	.st6{opacity:0.24;fill:#C4CEDE;enable-background:new    ;}
	.st7{opacity:0.4;fill:#D0DAEA;enable-background:new    ;}
	.st8{opacity:0.36;enable-background:new    ;}
	.st9{fill:#D9E3F2;}
	.st10{fill:#A1B6D1;}
	.st11{fill:#F4F7FC;}
	.st12{opacity:0.4;fill:#D9E3F2;enable-background:new    ;}
</style>
<path class="st0" d="M109.1,19.6h29.8c1.1,0,1.9,0.9,1.9,2v83c0,1.1-0.9,2-1.9,2h-29.8c-1.1,0-1.9-0.9-1.9-2v-83
	C107.2,20.5,108,19.6,109.1,19.6z"/>
<g>
	<path class="st1" d="M107.3,102.8h-1v2.2c0,0.8,0.3,1.5,0.9,2l0.6-0.8c-0.4-0.3-0.6-0.7-0.6-1.2L107.3,102.8L107.3,102.8z"/>
	<rect x="106.3" y="96.8" class="st1" width="1" height="4"/>
	<rect x="106.3" y="90.8" class="st1" width="1" height="4"/>
	<rect x="106.3" y="84.8" class="st1" width="1" height="4"/>
	<path class="st1" d="M112.7,19.5h-4c-1.3,0-2.4,1.1-2.4,2.5v0.8h1V22c0-0.8,0.6-1.5,1.4-1.5h4V19.5z"/>
	<rect x="109.5" y="106.5" class="st1" width="4" height="1"/>
	<rect x="121.5" y="106.5" class="st1" width="4" height="1"/>
	<rect x="115.5" y="106.5" class="st1" width="4" height="1"/>
	<rect x="114.7" y="19.5" class="st1" width="4" height="1"/>
	<rect x="120.7" y="19.5" class="st1" width="4" height="1"/>
	<rect x="106.3" y="36.8" class="st1" width="1" height="4"/>
	<rect x="106.3" y="30.8" class="st1" width="1" height="4"/>
	<rect x="106.3" y="24.8" class="st1" width="1" height="4"/>
	<rect x="106.3" y="42.8" class="st1" width="1" height="4"/>
	<rect x="106.3" y="60.8" class="st1" width="1" height="4"/>
	<rect x="106.3" y="78.8" class="st1" width="1" height="4"/>
	<rect x="106.3" y="66.8" class="st1" width="1" height="4"/>
	<rect x="106.3" y="48.8" class="st1" width="1" height="4"/>
	<rect x="106.3" y="54.8" class="st1" width="1" height="4"/>
	<rect x="106.3" y="72.8" class="st1" width="1" height="4"/>
	<rect x="139.9" y="55.1" class="st1" width="1" height="4"/>
	<rect x="139.9" y="43.1" class="st1" width="1" height="4"/>
	<rect x="139.9" y="49.1" class="st1" width="1" height="4"/>
	<rect x="139.9" y="67.1" class="st1" width="1" height="4"/>
	<rect x="139.9" y="61.1" class="st1" width="1" height="4"/>
	<rect x="139.9" y="25.1" class="st1" width="1" height="4"/>
	<path class="st1" d="M138.8,19.5l-0.1,1c0.7,0.1,1.3,0.7,1.3,1.5v1.1h1V22C140.9,20.7,140,19.7,138.8,19.5z"/>
	<rect x="139.9" y="37.1" class="st1" width="1" height="4"/>
	<rect x="126.7" y="19.5" class="st1" width="4" height="1"/>
	<rect x="139.9" y="31.1" class="st1" width="1" height="4"/>
	<rect x="133.5" y="106.5" class="st1" width="4" height="1"/>
	<path class="st1" d="M139.9,105c0,0.6-0.3,1.1-0.8,1.3l0.5,0.9c0.8-0.4,1.3-1.3,1.3-2.2v-1.9h-1V105z"/>
	<rect x="132.7" y="19.5" class="st1" width="4" height="1"/>
	<rect x="139.9" y="73.1" class="st1" width="1" height="4"/>
	<rect x="127.5" y="106.5" class="st1" width="4" height="1"/>
	<rect x="139.9" y="85.1" class="st1" width="1" height="4"/>
	<rect x="139.9" y="97.1" class="st1" width="1" height="4"/>
	<rect x="139.9" y="79.1" class="st1" width="1" height="4"/>
	<rect x="139.9" y="91.1" class="st1" width="1" height="4"/>
</g>
<g class="st2">
	<path class="st1" d="M15.2,67.3L5,61.5l17-9.2L15.2,67.3z M7,61.5l7.7,4.4l5.1-11.3L7,61.5z"/>
</g>
<path class="st3" d="M16,57.4L8,67.6l8,2V57.4z"/>
<path class="st0" d="M64,52.2l4.2,4c0.9,0.8,0.9,2.2,0,3l-39,40.2c-1.7,1.7-4.4,1.8-6.1,0.1l-1.1-1c-1.7-1.7-1.8-4.4-0.1-6.1
	l39-40.2C61.8,51.4,63.1,51.3,64,52.2z"/>
<path class="st1" d="M68.5,55.9l-4.2-4c-1.1-1-2.7-1-3.8,0.1l-39,40c-0.9,0.9-1.4,2.1-1.4,3.4s0.5,2.5,1.5,3.4l1.1,1
	c0.9,0.9,2.1,1.4,3.4,1.4s2.5-0.5,3.5-1.5l39-40.2c0.5-0.5,0.8-1.2,0.8-1.9C69.3,57,69,56.4,68.5,55.9z M67.9,58.9l-39,40.2
	c-1.5,1.5-3.9,1.5-5.4,0.1l-1.1-1c-0.7-0.7-1.1-1.7-1.2-2.7s0.4-2,1.1-2.7l39-40.2c0.3-0.3,0.8-0.5,1.2-0.5s0.8,0.2,1.2,0.5l4.2,4
	c0.3,0.3,0.5,0.7,0.5,1.2C68.3,58.2,68.2,58.6,67.9,58.9z"/>
<path class="st4" d="M77.4,38.9l3.3,3.3c0.7,0.7,0.7,1.8,0,2.5L49.5,77.2c-1.3,1.4-4.2,1.2-5.6-0.2l0,0c-1.4-1.3-1.6-4.2-0.3-5.5
	l31.3-32.6C75.6,38.2,76.7,38.2,77.4,38.9z"/>
<path class="st4" d="M151.5,32.2l13.7-5L164,38.4L151.5,32.2z"/>
<path class="st5" d="M162,36.5l-16.8-1.4l15.4-12.6L162,36.5z M147.8,34.3l13.1,1.1l-1.1-10.9L147.8,34.3z"/>
<path class="st0" d="M58.4,1h47c1.1,0,2,0.9,2,2v102c0,1.1-0.9,2-2,2h-47c-1.1,0-2-0.9-2-2V3C56.4,1.9,57.3,1,58.4,1z"/>
<path class="st1" d="M105.4,107.5h-47c-1.4,0-2.5-1.1-2.5-2.5V3c0-1.4,1.1-2.5,2.5-2.5h47c1.4,0,2.5,1.1,2.5,2.5v102
	C107.9,106.4,106.8,107.5,105.4,107.5z M58.4,1.5c-0.8,0-1.5,0.7-1.5,1.5v102c0,0.8,0.7,1.5,1.5,1.5h47c0.8,0,1.5-0.7,1.5-1.5V3
	c0-0.8-0.7-1.5-1.5-1.5H58.4z"/>
<circle class="st6" cx="66.6" cy="53.6" r="28.6"/>
<g>
	<rect x="15.6" y="106.5" class="st1" width="19.9" height="1"/>
	<rect x="158.6" y="106.5" class="st1" width="6.4" height="1"/>
	<rect x="40.6" y="106.5" class="st1" width="115.4" height="1"/>
</g>
<rect x="66.3" y="18.5" class="st7" width="31.1" height="10"/>
<rect x="66.3" y="35.9" class="st7" width="31.1" height="10"/>
<g class="st8">
	<circle class="st9" cx="92.5" cy="87" r="5"/>
	<path class="st10" d="M92.5,92.5c-3,0-5.5-2.5-5.5-5.5s2.5-5.5,5.5-5.5S98,84,98,87C97.9,90.1,95.5,92.5,92.5,92.5z M92.5,82.6
		c-2.5,0-4.5,2-4.5,4.5s2,4.5,4.5,4.5s4.5-2,4.5-4.5C96.9,84.6,94.9,82.6,92.5,82.6z"/>
</g>
<g class="st8">
	<circle class="st9" cx="127.3" cy="88.3" r="3.7"/>
	<path class="st10" d="M127.3,92.5c-2.3,0-4.2-1.9-4.2-4.2s1.9-4.2,4.2-4.2c2.3,0,4.2,1.9,4.2,4.2S129.6,92.5,127.3,92.5z
		 M127.3,85.1c-1.8,0-3.2,1.4-3.2,3.2s1.4,3.2,3.2,3.2c1.8,0,3.2-1.4,3.2-3.2S129.1,85.1,127.3,85.1z"/>
</g>
<circle class="st0" cx="64.5" cy="51.5" r="28"/>
<path class="st1" d="M64.5,23C48.8,23,36,35.8,36,51.5S48.8,80,64.5,80S93,67.2,93,51.5S80.2,23,64.5,23z M64.5,79
	C49.3,79,37,66.7,37,51.5S49.3,24,64.5,24C79.6,24,92,36.4,92,51.5S79.6,79,64.5,79z"/>
<ellipse class="st11" cx="63.9" cy="51" rx="22" ry="22.1"/>
<g>
	<path class="st1" d="M42.8,54.7l-1,0.2c0.2,1.3,0.6,2.7,1.1,3.9l0.9-0.3C43.3,57.3,43,56,42.8,54.7z"/>
	<path class="st1" d="M43.8,41l0.9,0.4c0.6-1.2,1.3-2.3,2-3.3l-0.8-0.6C45.1,38.6,44.4,39.7,43.8,41z"/>
	<path class="st1" d="M51.6,69.8c1.1,0.8,2.4,1.4,3.6,1.9l0.4-0.9c-1.2-0.5-2.4-1.1-3.4-1.8L51.6,69.8z"/>
	<path class="st1" d="M47.2,35.9l0.7,0.7c0.9-1,1.8-1.9,2.9-2.7l-0.6-0.8C49.1,33.9,48.1,34.9,47.2,35.9z"/>
	<path class="st1" d="M47.8,65.2L47,65.8c0.9,1,1.9,2,3,2.8l0.6-0.8C49.6,67.1,48.6,66.1,47.8,65.2z"/>
	<path class="st1" d="M82.9,38.8c-0.7-1.1-1.6-2.2-2.5-3.2l-0.7,0.7c0.9,0.9,1.7,2,2.4,3.1L82.9,38.8z"/>
	<path class="st1" d="M85.4,50.4h1c0-1.4-0.2-2.7-0.5-4.1l-1,0.2C85.2,47.8,85.4,49.1,85.4,50.4z"/>
	<path class="st1" d="M85.4,44.3c-0.4-1.3-0.9-2.6-1.6-3.8L83,41c0.6,1.2,1.1,2.4,1.5,3.6L85.4,44.3z"/>
	<path class="st1" d="M51.9,31.9l0.5,0.8c1.1-0.7,2.3-1.3,3.5-1.8L55.5,30C54.2,30.6,53,31.2,51.9,31.9z"/>
	<path class="st1" d="M43.9,43.2L43,42.8c-0.5,1.3-0.9,2.6-1.1,3.9l1,0.2C43.1,45.7,43.4,44.4,43.9,43.2z"/>
	<path class="st1" d="M42.4,51c0-0.7,0-1.4,0.1-2.1l-1-0.1c-0.1,0.7-0.1,1.5-0.1,2.2c0,0.6,0,1.3,0.1,1.9l1-0.1
		C42.5,52.2,42.4,51.6,42.4,51z"/>
	<path class="st1" d="M43.6,60.7c0.6,1.2,1.3,2.4,2.1,3.5l0.8-0.6c-0.8-1.1-1.4-2.2-2-3.4L43.6,60.7z"/>
	<path class="st1" d="M79.1,66.3l0.7,0.7c1-1,1.8-2,2.6-3.1l-0.8-0.6C80.9,64.3,80,65.3,79.1,66.3z"/>
	<path class="st1" d="M74.4,69.8l0.5,0.9c1.2-0.7,2.3-1.4,3.4-2.3l-0.6-0.8C76.7,68.4,75.6,69.1,74.4,69.8z"/>
	<path class="st1" d="M57.1,72.5c1.3,0.4,2.6,0.7,4,0.9l0.1-1c-1.3-0.2-2.6-0.4-3.8-0.8L57.1,72.5z"/>
	<path class="st1" d="M84.8,56.2l1,0.2c0.3-1.3,0.5-2.7,0.6-4l-1-0.1C85.3,53.6,85.1,54.9,84.8,56.2z"/>
	<path class="st1" d="M82.6,61.6l0.9,0.5c0.7-1.2,1.2-2.4,1.7-3.7L84.3,58C83.8,59.3,83.3,60.5,82.6,61.6z"/>
	<path class="st1" d="M75.1,32.5c1.1,0.7,2.2,1.5,3.1,2.3l0.7-0.7c-1-0.9-2.1-1.7-3.3-2.4L75.1,32.5z"/>
	<path class="st1" d="M63.2,72.5v1c0.3,0,0.5,0,0.8,0c1.1,0,2.2-0.1,3.3-0.2l-0.1-1C65.8,72.5,64.5,72.6,63.2,72.5z"/>
	<path class="st1" d="M57.4,29.4l0.3,1c1.2-0.4,2.5-0.6,3.8-0.8l-0.1-1C60.1,28.7,58.7,29,57.4,29.4z"/>
	<path class="st1" d="M69.7,30.2c1.3,0.4,2.5,0.8,3.6,1.4l0.4-0.9c-1.2-0.6-2.5-1.1-3.8-1.5L69.7,30.2z"/>
	<path class="st1" d="M63.4,28.4v1c0.1,0,0.3,0,0.4,0c1.3,0,2.6,0.1,3.9,0.4l0.2-1c-1.3-0.2-2.7-0.4-4.1-0.4
		C63.8,28.4,63.6,28.4,63.4,28.4z"/>
	<path class="st1" d="M69,71.9l0.2,1c1.3-0.3,2.6-0.8,3.9-1.3l-0.4-0.9C71.5,71.2,70.3,71.6,69,71.9z"/>
</g>
<path class="st4" d="M43.3,57c-0.6-1.9-0.9-3.9-0.9-5.9c0-11.9,9.6-21.6,21.5-21.6c6.6,0,12.6,3,16.5,7.8L43.3,57z"/>
<rect x="107.9" y="35.9" class="st12" width="23.6" height="7.5"/>
<rect x="107.8" y="51.2" class="st12" width="23.6" height="7.5"/>
</svg>
