<?xml version="1.0" encoding="utf-8"?>
<!-- Generator: Adobe Illustrator 21.0.0, SVG Export Plug-In . SVG Version: 6.00 Build 0)  -->
<svg version="1.1" id="图层_1" xmlns="http://www.w3.org/2000/svg" xmlns:xlink="http://www.w3.org/1999/xlink" x="0px" y="0px"
	 viewBox="0 0 172 108" style="enable-background:new 0 0 172 108;" xml:space="preserve">
<style type="text/css">
	.st0{fill:none;enable-background:new    ;}
	.st1{fill:#FFFFFF;}
	.st2{fill:#B1D0E8;}
	.st3{fill:#F5F8FA;}
	.st4{opacity:0.8;enable-background:new    ;}
	.st5{fill:#EEF2FA;}
	.st6{fill:#EDF3F2;}
	.st7{opacity:0.3;enable-background:new    ;}
	.st8{fill:#D9E3F2;}
	.st9{opacity:0.7;enable-background:new    ;}
	.st10{opacity:0.18;enable-background:new    ;}
	.st11{fill:#A1B6D1;}
	.st12{fill:#B5C7DF;}
	.st13{fill:#D0DDE9;}
</style>
<path class="st0" d="M0,0"/>
<g>
	<path class="st1" d="M73,6c19.8,5,31.8,25,26.8,44.7S74.8,82.3,55,77.3s-31.8-25-26.8-44.7C33.1,13,53.2,1,73,6z"/>
	<path class="st2" d="M64,79c-3,0-6.1-0.4-9.2-1.1c-9.7-2.4-17.9-8.5-23-17.1s-6.6-18.6-4.2-28.3s8.5-17.8,17.1-22.9S63.3,3,73,5.5
		l0,0c9.7,2.4,17.9,8.5,23,17.1s6.6,18.6,4.2,28.3C96,67.8,80.7,79,64,79z M63.8,5.4c-6.5,0-12.9,1.7-18.6,5.1
		c-8.4,5-14.3,12.9-16.6,22.3c-2.4,9.4-0.9,19.2,4.1,27.5s12.9,14.2,22.4,16.6c19.5,4.9,39.3-6.9,44.2-26.3
		c2.4-9.4,0.9-19.2-4.1-27.5S82.3,8.9,72.8,6.5C69.9,5.8,66.8,5.4,63.8,5.4z"/>
</g>
<g>
	<path class="st2" d="M50.6,69.1L50.6,69.1h-0.7v-1h0.6c1.1,0,2.2,0,3.3-0.1l0.1,1C52.9,69,51.7,69.1,50.6,69.1z M47.9,69
		c-1.3-0.1-2.7-0.2-4-0.4l0.2-1c1.3,0.2,2.6,0.3,3.9,0.4L47.9,69z M56,68.7l-0.1-1c1.3-0.2,2.6-0.4,3.9-0.7l0.2,1
		C58.7,68.3,57.3,68.6,56,68.7z M41.9,68.2c-1.3-0.3-2.6-0.6-3.9-1l0.3-1c1.3,0.4,2.6,0.7,3.8,1L41.9,68.2z M61.9,67.6l-0.3-1
		c1.3-0.3,2.5-0.7,3.8-1.2l0.3,0.9C64.5,66.8,63.2,67.2,61.9,67.6z M36.1,66.6L36.1,66.6l0.2-0.9h0.1L36.1,66.6z M67.7,65.6
		l-0.4-0.9c1.2-0.5,2.4-1.1,3.6-1.7l0.5,0.9C70.1,64.5,68.9,65.1,67.7,65.6z M73.1,62.9L72.6,62c1.1-0.6,2.3-1.3,3.4-2.1l0.6,0.8
		C75.4,61.6,74.3,62.3,73.1,62.9z M78.2,59.7l-0.6-0.8c1-0.7,2.1-1.6,3.1-2.5l0.7,0.8C80.3,58.1,79.3,58.9,78.2,59.7z M82.9,55.8
		l-0.7-0.7c0.9-0.9,1.9-1.8,2.8-2.8l0.7,0.7C84.8,53.9,83.8,54.9,82.9,55.8z M87.1,51.4l-0.8-0.7c0.9-1,1.7-2,2.5-3.1l0.8,0.6
		C88.8,49.4,87.9,50.4,87.1,51.4z M90.8,46.6L90,46.1c0.8-1.1,1.5-2.2,2.2-3.3l0.9,0.5C92.3,44.4,91.5,45.5,90.8,46.6z M94,41.5
		L93.1,41c0.7-1.2,1.3-2.4,1.8-3.5l0.9,0.4C95.3,39.1,94.7,40.3,94,41.5z M96.5,36l-0.9-0.4c0.5-1.3,0.9-2.6,1.1-3.8l1,0.2
		C97.4,33.3,97.1,34.7,96.5,36z M98,30.1L97,30c0.1-0.5,0.1-1,0.1-1.5c0-0.8-0.1-1.6-0.3-2.3l1-0.2c0.2,0.8,0.3,1.6,0.3,2.6
		C98.1,29,98.1,29.5,98,30.1z"/>
</g>
<g>
	<path class="st2" d="M80.9,73.3L80,72.9c0.5-1.2,1-2.5,1.4-3.7l0.9,0.3C81.9,70.8,81.4,72,80.9,73.3z M82.9,67.6l-1-0.3
		c0.4-1.3,0.7-2.6,0.9-3.8l1,0.2C83.6,65,83.3,66.3,82.9,67.6z M84.2,61.6l-1-0.1c0.2-1.3,0.3-2.6,0.4-3.9l1,0.1
		C84.5,59,84.4,60.3,84.2,61.6z M84.7,55.6h-1c0-0.2,0-0.5,0-0.7c0-1.1,0-2.2-0.1-3.2l1-0.1c0.1,1.1,0.1,2.2,0.1,3.3
		C84.7,55.1,84.7,55.4,84.7,55.6z M83.4,49.7c-0.2-1.3-0.4-2.6-0.6-3.9l1-0.2c0.3,1.3,0.5,2.7,0.6,4L83.4,49.7z M82.3,43.8
		c-0.3-1.3-0.7-2.5-1.1-3.8l0.9-0.3c0.4,1.3,0.8,2.6,1.2,3.9L82.3,43.8z M80.4,38.2c-0.4-0.9-0.7-1.8-1.2-2.6
		c-0.2-0.3-0.3-0.6-0.5-1l0.9-0.5c0.2,0.3,0.3,0.7,0.5,1c0.4,0.9,0.8,1.8,1.2,2.7L80.4,38.2z M77.9,32.9c-0.6-1.2-1.3-2.3-2.1-3.4
		l0.8-0.6c0.8,1.1,1.5,2.3,2.1,3.4L77.9,32.9z M74.6,27.9c-0.8-1.1-1.6-2.1-2.5-3.1l0.7-0.7c0.9,1,1.8,2,2.6,3.1L74.6,27.9z
		 M70.8,23.4c-0.9-0.9-1.9-1.8-2.9-2.7l0.6-0.8c1,0.9,2,1.8,3,2.8L70.8,23.4z M66.3,19.4c-1-0.8-2.1-1.6-3.2-2.3l0.5-0.8
		c1.1,0.7,2.2,1.5,3.3,2.3L66.3,19.4z M61.4,16.1c-1.1-0.7-2.3-1.3-3.5-1.8l0.4-0.9c1.2,0.6,2.4,1.2,3.6,1.9L61.4,16.1z M56.1,13.5
		c-1.2-0.5-2.5-1-3.7-1.4l0.3-1c1.3,0.4,2.6,0.9,3.8,1.4L56.1,13.5z M50.5,11.5c-1.2-0.3-2.4-0.6-3.7-0.8l0.2-1
		c1.2,0.2,2.5,0.5,3.7,0.9L50.5,11.5z"/>
</g>
<g>
	<path class="st1" d="M72.7,21.8l2.7,2.9c0.6,0.6,0.6,1.6-0.1,2.2L74.2,28c-0.6,0.6-1.6,0.6-2.2-0.1L69.2,25
		c-0.6-0.6-0.6-1.6,0.1-2.2l1.2-1.1C71.1,21.1,72.1,21.2,72.7,21.8z"/>
	<path class="st2" d="M73.1,29c-0.6,0-1.1-0.2-1.5-0.7l-2.7-2.9c-0.4-0.4-0.6-0.9-0.6-1.5s0.3-1.1,0.7-1.4l1.2-1.1
		c0.8-0.8,2.2-0.7,3,0.1l2.7,2.9c0.4,0.4,0.6,0.9,0.6,1.5s-0.3,1.1-0.7,1.4l-1.2,1.1C74.1,28.8,73.6,29,73.1,29z M71.6,21.8
		c-0.3,0-0.5,0.1-0.7,0.3l-1.2,1.1c-0.2,0.2-0.3,0.5-0.3,0.8s0.1,0.6,0.3,0.8l2.7,2.9c0.4,0.4,1.1,0.5,1.5,0.1l1.2-1.1
		c0.2-0.2,0.3-0.5,0.3-0.8s-0.1-0.6-0.3-0.8l-2.7-2.9C72.2,21.9,71.9,21.8,71.6,21.8z"/>
</g>
<g>
	<path class="st1" d="M60.4,64.2l3.9-0.5c0.9-0.1,1.7,0.5,1.8,1.4l0.2,1.6c0.1,0.9-0.5,1.7-1.4,1.8L61,68.9
		c-0.9,0.1-1.7-0.5-1.8-1.4L59,65.9C58.9,65.1,59.5,64.3,60.4,64.2z"/>
	<path class="st2" d="M60.8,69.4c-1,0-1.9-0.8-2.1-1.8L58.5,66c-0.1-0.6,0.1-1.1,0.4-1.5c0.3-0.4,0.8-0.7,1.4-0.8l0,0l3.9-0.5
		c1.1-0.1,2.2,0.7,2.3,1.8l0.2,1.6c0.1,0.6-0.1,1.1-0.4,1.5s-0.8,0.7-1.4,0.8L61,69.4C61,69.4,60.9,69.4,60.8,69.4z M60.5,64.7
		c-0.3,0-0.5,0.2-0.7,0.4c-0.2,0.2-0.3,0.5-0.2,0.8l0.2,1.6c0.1,0.6,0.6,1,1.2,0.9l3.9-0.5c0.3,0,0.5-0.2,0.7-0.4
		c0.2-0.2,0.3-0.5,0.2-0.8l-0.2-1.6c-0.1-0.6-0.6-1-1.2-0.9L60.5,64.7z"/>
</g>
<g>
	<path class="st1" d="M67.3,46.5c0-2.1,0-3.3,0-3.3c0-1.2,1-2.2,2.3-2.2c0,0,7,0,16.5,0c20.3,0,51.9,0,51.9,0c1.2,0,2.3,1,2.3,2.2
		v49.2c0,1.2-1,2.2-2.3,2.2H69.5c-1.2,0-2.3-1-2.3-2.2c0,0,0-17.6,0-31.8c0-1.4,0-2.8,0-4.1"/>
	<path class="st2" d="M138,95.2H69.5c-1.5,0-2.8-1.2-2.8-2.7v-36h1v35.9c0,1,0.8,1.7,1.8,1.7H138c1,0,1.8-0.8,1.8-1.7V43.2
		c0-1-0.8-1.7-1.8-1.7H69.5c-1,0-1.8,0.8-1.8,1.7v3.3h-1v-3.3c0-1.5,1.2-2.7,2.8-2.7H138c1.5,0,2.8,1.2,2.8,2.7v49.2
		C140.7,93.9,139.5,95.2,138,95.2z"/>
</g>
<path class="st1" d="M57.7,92.8h90.6c0.9,0,1.7,0.8,1.7,1.8l-3.4,7.6c0,1-0.8,1.8-1.7,1.8H61.1c-0.9,0-1.7-0.8-1.7-1.8L56,94.6
	C56,93.6,56.8,92.8,57.7,92.8z"/>
<path class="st3" d="M73.5,49.7h59.1v36.9H73.5V49.7z"/>
<g class="st4">
	<path class="st5" d="M133,87l-27.8-0.4L126,49.7l7,0.3V87z"/>
</g>
<g>
	<path class="st6" d="M57.8,99.5l1.5,3.7h87.4l1.5-3.7H57.8z"/>
</g>
<g class="st7">
	<path class="st8" d="M155.5,35.2l13.7-5L168,41.4L155.5,35.2z"/>
</g>
<g class="st9">
	<path class="st2" d="M166,39.5l-16.8-1.4l15.4-12.6L166,39.5z M151.8,37.3l13.1,1.1l-1.1-10.9L151.8,37.3z"/>
</g>
<g>
	<path class="st1" d="M31.5,104H11.6"/>
	<rect x="11.6" y="103.5" class="st2" width="19.9" height="1"/>
</g>
<g>
	<path class="st1" d="M161,104h-6.4"/>
	<rect x="154.6" y="103.5" class="st2" width="6.4" height="1"/>
</g>
<g>
	<path class="st1" d="M152,104H36.6"/>
	<rect x="36.6" y="103.5" class="st2" width="115.4" height="1"/>
</g>
<g>
	<polygon class="st2" points="100.3,66.9 99.6,66.2 104.9,61.1 99.8,55.9 100.5,55.2 106.3,61.1 	"/>
</g>
<g class="st10">
	<path class="st11" d="M100.4,65.5c-9.8-0.4-25.6-3.9-40.2-11c-0.5-0.2-7.8-4.4-7.8-4.4c-23-14.2-36-20.8-30.3-32.1l0.2-0.4l0.4-0.3
		c2.3-1.8,4.9-3,11.8-1.5c1.1,0.2,2.3,0.1,3.6,0.3l-3.7,4.4c-1.3-0.3,0.4-0.6-0.7-0.8c-4-0.8-8.9-1.6-10.2-1.2
		c-1.5,5.7,11.2,15.6,31,27.9l2.8,1.8c0.4,0.3,3.9,2,4.6,2.4c14.2,6.8,30,11.9,42.8,10.9L100.4,65.5z"/>
</g>
<g class="st9">
	<path class="st2" d="M8.3,85l-6-10.1l19.4,0.5L8.3,85z M4.1,75.9l4.5,7.6l10.1-7.2L4.1,75.9z"/>
</g>
<g class="st7">
	<path class="st12" d="M13.9,76.9l-12,4.8l5.9,5.7L13.9,76.9z"/>
</g>
<path class="st13" d="M132.6,87.1H73.5c-0.3,0-0.5-0.2-0.5-0.5V49.7c0-0.3,0.2-0.5,0.5-0.5h59.1c0.3,0,0.5,0.2,0.5,0.5v36.9
	C133.1,86.9,132.9,87.1,132.6,87.1z M74,86.1h58.1V50.2H74V86.1z"/>
<path class="st2" d="M144.9,104.5H61.1c-1.2,0-2.2-1-2.2-2.2l-3.4-7.7c0-1.3,1-2.3,2.2-2.3h90.6c1.2,0,2.2,1,2.2,2.3v0.2l-3.4,7.5
	C147,103.5,146,104.5,144.9,104.5z M56.5,94.5l3.4,7.7c0,0.7,0.5,1.3,1.2,1.3h83.7c0.7,0,1.2-0.6,1.2-1.3V102l3.4-7.5
	c0-0.7-0.6-1.2-1.2-1.2H57.7C57.1,93.3,56.6,93.8,56.5,94.5z"/>
<g>
	<path class="st2" d="M103.4,61.6c-1.3-0.1-2.6-0.1-4-0.2l0.1-1c1.4,0.1,2.7,0.2,4,0.2L103.4,61.6z M97.4,61.2
		c-1.4-0.1-2.7-0.3-4-0.4l0.1-1c1.3,0.2,2.6,0.3,4,0.4L97.4,61.2z M91.4,60.5c-1.3-0.2-2.7-0.4-4-0.7l0.2-1c1.3,0.3,2.6,0.5,3.9,0.7
		L91.4,60.5z M85.6,59.4c-1.3-0.3-2.6-0.6-3.9-1l0.3-1c1.3,0.3,2.6,0.7,3.9,0.9L85.6,59.4z M79.8,57.8c-1.3-0.4-2.6-0.8-3.8-1.2
		l0.3-0.9c1.3,0.4,2.5,0.8,3.8,1.2L79.8,57.8z M74,55.9c-1.2-0.5-2.5-0.9-3.7-1.4l0.4-0.9c1.2,0.5,2.5,1,3.7,1.4L74,55.9z
		 M68.4,53.6c-1.2-0.5-2.4-1.1-3.7-1.7l0.4-0.9c1.2,0.6,2.4,1.1,3.6,1.6L68.4,53.6z M63,51c-1-0.5-2-1-3-1.5l-0.6-0.3l0.5-0.9
		l0.6,0.3c1,0.5,2,1,3,1.5L63,51z M57.6,48.3c-1.2-0.6-2.4-1.3-3.5-1.9l0.5-0.9c1.1,0.6,2.3,1.3,3.5,1.9L57.6,48.3z M52.5,45.2
		c-1.2-0.7-2.3-1.4-3.5-2l0.5-0.9c1.1,0.7,2.3,1.4,3.4,2L52.5,45.2z M47.3,42.2c-1.2-0.7-2.3-1.4-3.4-2.1l0.5-0.8
		c1.1,0.7,2.2,1.4,3.4,2.1L47.3,42.2z M42.2,38.9c-1.1-0.8-2.3-1.5-3.3-2.3l0.6-0.8c1.1,0.7,2.2,1.5,3.3,2.2L42.2,38.9z M37.3,35.4
		c-1.1-0.8-2.2-1.6-3.2-2.4l0.6-0.8c1,0.8,2.1,1.6,3.2,2.4L37.3,35.4z M32.5,31.8c-1.1-0.9-2.1-1.7-3.1-2.6l0.7-0.7
		c0.9,0.8,2,1.7,3,2.6L32.5,31.8z M28,27.8c-1.1-1-2-2-2.8-2.9l0.8-0.7c0.8,0.9,1.7,1.8,2.8,2.8L28,27.8z M23.9,23.2
		c-1-1.4-1.7-2.7-1.9-3.7l1-0.2c0.2,0.9,0.8,2,1.7,3.3L23.9,23.2z M23.1,17.7l-0.9-0.5c0.6-1,1.9-1.7,3.8-2l0.2,1
		C24.6,16.5,23.6,17,23.1,17.7z M36.8,17.1c-1.3-0.2-1.5-0.5-2.7-0.6l0.1-1c1.2,0.1,2.4,0.3,3.7,0.6L36.8,17.1z M32.2,16.2
		c-1.3-0.1-2.5-0.1-3.6-0.1l-0.4,0l0-1l0.4,0c1.1,0,2.3,0,3.7,0.1L32.2,16.2z"/>
</g>
</svg>
