<?xml version="1.0" encoding="utf-8"?>
<!-- Generator: Adobe Illustrator 21.0.0, SVG Export Plug-In . SVG Version: 6.00 Build 0)  -->
<svg version="1.1" id="图层_1" xmlns="http://www.w3.org/2000/svg" xmlns:xlink="http://www.w3.org/1999/xlink" x="0px" y="0px"
	 viewBox="0 0 171.5 108" style="enable-background:new 0 0 171.5 108;" xml:space="preserve">
<style type="text/css">
	.st0{fill:#FFFFFF;}
	.st1{fill:#B1D0E8;}
	.st2{opacity:0.26;enable-background:new    ;}
	.st3{fill:#EEF2FA;}
	.st4{fill:#A1B6D1;}
	.st5{opacity:0.45;fill:#D9E3F2;enable-background:new    ;}
	.st6{opacity:0.7;enable-background:new    ;}
	.st7{opacity:0.3;enable-background:new    ;}
	.st8{fill:#B5C7DF;}
	.st9{fill:#D9E3F2;}
	.st10{opacity:0.9;enable-background:new    ;}
	.st11{fill:#F4F7FC;}
</style>
<g>
	<path class="st0" d="M89.2,54.6c0,0-8.5-27.1,16-40c0,0-3.9,8.5-1,11s3.3,4.3,4,6c0,0,1.6-27.5,23-27.5c0,0-7,3.2-6,7.5
		s8.3,10.3,7,22c0,0,6.1-12.5,11-12c0,0-5.8,10.3-1,13c12.9,7.3,2.6,36.4-20,34S89.2,54.6,89.2,54.6z"/>
	<path class="st1" d="M124.8,69.2c-0.2,0-0.4,0-0.6,0v-1c1.3,0,2.6-0.1,3.9-0.2l0.1,1C127.1,69.2,126,69.2,124.8,69.2z M122.1,69.1
		l0.1-0.5L122.1,69.1c-1.3-0.1-2.7-0.3-4-0.5l0.2-1c1.3,0.2,2.6,0.4,3.9,0.5L122.1,69.1z M130.3,68.6l-0.2-1
		c1.3-0.3,2.5-0.7,3.7-1.3l0.4,0.9C132.9,67.8,131.6,68.3,130.3,68.6z M116.2,68.2c-1.3-0.3-2.7-0.5-3.9-0.9l0.2-1
		c1.3,0.3,2.6,0.6,3.9,0.9L116.2,68.2z M110.3,66.8c-1.3-0.4-2.6-0.8-3.8-1.2l0.3-0.9c1.2,0.4,2.5,0.9,3.8,1.2L110.3,66.8z
		 M136,66.3l-0.5-0.9c1.1-0.6,2.2-1.4,3.2-2.2l0.6,0.8C138.3,64.9,137.1,65.7,136,66.3z M104.6,64.9c-1.3-0.5-2.5-1-3.7-1.6l0.4-0.9
		c1.2,0.6,2.4,1.1,3.6,1.6L104.6,64.9z M140.8,62.7l-0.7-0.7c0.9-0.9,1.8-1.9,2.6-3l0.8,0.6C142.7,60.7,141.8,61.7,140.8,62.7z
		 M99.1,62.4c-1.2-0.6-2.4-1.3-3.5-2l0.5-0.8c1.1,0.7,2.2,1.4,3.4,2L99.1,62.4z M93.9,59.2c-1.2-0.8-2.2-1.6-3.2-2.5l0.7-0.8
		c0.9,0.8,2,1.6,3.1,2.4L93.9,59.2z M144.6,57.9l-0.8-0.5c0.7-1.1,1.3-2.3,1.8-3.5l0.9,0.4C146,55.5,145.4,56.7,144.6,57.9z
		 M89.2,55.3c-0.3-0.3-0.5-0.5-0.5-0.7c-0.1-0.4-0.5-1.8-0.8-3.9l1-0.2c0.3,2,0.7,3.4,0.8,3.7c0.1,0.1,0.1,0.2,0.3,0.3L89.2,55.3z
		 M147.2,52.3l-1-0.3c0.4-1.3,0.7-2.5,0.9-3.8l1,0.1C148,49.7,147.7,51,147.2,52.3z M87.6,48.8c-0.2-1.3-0.2-2.7-0.3-4h1
		c0,1.3,0.1,2.6,0.3,3.9L87.6,48.8z M148.3,46.3h-1c0-0.2,0-0.5,0-0.7c0-1.1-0.1-2.2-0.3-3.2l1-0.2c0.2,1.1,0.3,2.2,0.3,3.4
		C148.3,45.8,148.3,46.1,148.3,46.3z M88.3,42.7h-1c0-1.4,0.1-2.7,0.3-4l1,0.1C88.4,40.1,88.3,41.4,88.3,42.7z M146.5,40.6
		c-0.5-1.2-1.1-2.4-1.9-3.3l0.8-0.6c0.9,1,1.6,2.3,2.1,3.6L146.5,40.6z M88.9,36.9l-1-0.2c0.3-1.3,0.6-2.7,1-3.9l1,0.3
		C89.5,34.3,89.1,35.6,88.9,36.9z M143.3,35.9c-0.4-0.3-0.9-0.6-1.3-0.9c-0.8-0.4-1.4-1.1-1.7-1.9l0.9-0.4c0.3,0.6,0.7,1.1,1.3,1.5
		c0.5,0.3,1,0.6,1.5,1L143.3,35.9z M132.6,33.8l-0.9-0.3c0-0.4,0.1-0.8,0.1-1.2h0.5c0.2-0.4,0.5-0.9,0.8-1.5l0.9,0.5
		C133.1,32.8,132.7,33.8,132.6,33.8z M108.7,31.4l-1-0.1c0-0.3,0.1-0.8,0.2-1.5l-0.8,0.3c-0.3-0.8-0.9-1.9-2.1-3.1l0.7-0.7
		c1.2,1.3,1.8,2.4,2.2,3.2c0.1-0.6,0.2-1.4,0.4-2.2l1,0.2C108.9,29.4,108.8,30.9,108.7,31.4z M90.5,31.2l-0.9-0.4
		c0.5-1.3,1.1-2.5,1.7-3.7l0.9,0.5C91.5,28.8,91,30,90.5,31.2z M139.8,31v-0.3c0-1.1,0.2-2.4,0.6-3.8l1,0.3
		c-0.4,1.3-0.6,2.5-0.6,3.6V31L139.8,31z M131.9,30.4c0-1.3-0.2-2.6-0.4-3.9l1-0.2c0.3,1.3,0.4,2.7,0.4,4.1H131.9z M135,29.7
		l-0.8-0.5c0.8-1.2,1.5-2.4,2.3-3.3l0.8,0.6C136.5,27.4,135.7,28.5,135,29.7z M93.2,25.9l-0.8-0.5c0.7-1.1,1.5-2.2,2.4-3.3l0.8,0.7
		C94.7,23.8,93.9,24.8,93.2,25.9z M103.5,25.6c-0.6-0.7-0.9-1.7-0.9-3.1c0-0.4,0-0.8,0.1-1.1l1,0.1c0,0.4-0.1,0.7-0.1,1
		c0,1.1,0.2,1.9,0.7,2.4L103.5,25.6z M109.7,25.5l-1-0.2c0.3-1.3,0.7-2.7,1.1-3.9l0.9,0.3C110.3,22.9,110,24.2,109.7,25.5z
		 M142,25.3l-0.9-0.4c0.8-2,1.6-3.5,1.7-3.6l0.3,0.2v-0.4l0.9,0.1l-0.4,0.7C143.6,21.9,142.8,23.4,142,25.3z M138.4,24.9l-0.7-0.7
		c1.1-1.2,2.2-2.1,3.2-2.6l0.4,0.9C140.5,22.9,139.5,23.8,138.4,24.9z M131,24.6c-0.4-1.2-0.8-2.4-1.4-3.7l0.9-0.4
		c0.6,1.3,1.1,2.5,1.5,3.8L131,24.6z M96.8,21.3l-0.7-0.7c0.9-0.9,1.9-1.9,3-2.7l0.6,0.8C98.7,19.5,97.7,20.4,96.8,21.3z
		 M111.4,19.8l-0.9-0.4c0.5-1.3,1.1-2.5,1.7-3.7l0.9,0.5C112.4,17.4,111.9,18.6,111.4,19.8z M104,19.6l-1-0.2
		c0.3-1.4,0.8-2.7,1.1-3.6c-1,0.6-1.9,1.2-2.8,1.8l-0.6-0.8c1.1-0.8,2.2-1.5,3.4-2.1l0.5,0.9c-0.1,0-0.1,0.1-0.2,0.1l0.7,0.3
		C104.9,16.8,104.4,18.1,104,19.6z M128.7,19.2c-0.5-1-1.1-1.9-1.6-2.8l-0.4-0.7l0.9-0.5l0.4,0.7c0.5,0.9,1.1,1.8,1.6,2.8
		L128.7,19.2z M114,14.5l-0.9-0.5c0.7-1.2,1.5-2.3,2.4-3.3l0.8,0.7C115.5,12.3,114.7,13.4,114,14.5z M125.6,14
		c-0.5-0.9-0.8-1.6-0.9-2.3c-0.1-0.3-0.1-0.6-0.1-0.9c0-0.3,0-0.6,0.1-0.9l1,0.2c-0.1,0.2-0.1,0.5-0.1,0.7s0,0.5,0.1,0.7
		c0.1,0.6,0.4,1.2,0.8,2.1L125.6,14z M117.6,9.9l-0.7-0.7c1-1,2.1-1.8,3.2-2.5l0.5,0.8C119.6,8.2,118.6,9,117.6,9.9z M126.4,8.5
		l-0.8-0.6c0.7-1,1.7-1.9,3-2.9l0.6,0.8C128,6.7,127,7.6,126.4,8.5z M122.4,6.6l-0.5-0.9c1.2-0.6,2.5-1.1,3.8-1.4l0.2,1
		C124.7,5.6,123.5,6,122.4,6.6z M127.9,4.9l-0.1-1c1.1-0.2,2.3-0.2,3.4-0.2l0.2,1c0,0-0.2,0.1-0.5,0.3l-0.1-0.2
		C129.8,4.7,128.8,4.7,127.9,4.9z"/>
</g>
<g class="st2">
	<path class="st1" d="M102.3,59.6c0,0-4.7-14.9,8.9-22c0,0-2.2,4.7-0.6,6c1.6,1.4,1.9,2.4,2.2,3.3c0,0,0.9-15.1,12.8-15.1
		c0,0-3.9,1.7-3.3,4.1c0.5,2.4,4.6,5.7,3.9,12.1c0,0,3.4-6.9,6.1-6.6c0,0-3.2,5.6-0.6,7.1c7.2,4,1.5,20-11.1,18.7
		S102.3,59.6,102.3,59.6z"/>
</g>
<g>
	<circle class="st3" cx="77.7" cy="48.1" r="3.5"/>
	<path class="st4" d="M77.7,52.1c-2.2,0-4-1.8-4-4s1.8-4,4-4s4,1.8,4,4S79.9,52.1,77.7,52.1z M77.7,45.1c-1.7,0-3,1.3-3,3s1.3,3,3,3
		s3-1.3,3-3S79.4,45.1,77.7,45.1z"/>
</g>
<g>
	<path class="st0" d="M64.8,89h37.7c0.9,0,1.6,0.7,1.6,1.5v14.7c0,0.8-0.7,1.5-1.6,1.5H64.8c-0.9,0-1.6-0.7-1.6-1.5V90.4
		C63.2,89.6,63.9,89,64.8,89z"/>
	<path class="st1" d="M102.5,107.1H64.8c-1.2,0-2.1-0.9-2.1-1.9V90.4c0-1.1,0.9-1.9,2.1-1.9h37.7c1.2,0,2.1,0.9,2.1,1.9v14.7
		C104.6,106.2,103.6,107.1,102.5,107.1z M64.8,89.4c-0.6,0-1.1,0.5-1.1,1v14.7c0,0.6,0.5,1,1.1,1h37.7c0.6,0,1.1-0.5,1.1-1V90.4
		c0-0.6-0.5-1-1.1-1H64.8z"/>
</g>
<g>
	<path class="st0" d="M104.9,89h37.7c0.9,0,1.6,0.7,1.6,1.5v14.7c0,0.8-0.7,1.5-1.6,1.5h-37.7c-0.9,0-1.6-0.7-1.6-1.5V90.4
		C103.3,89.6,104,89,104.9,89z"/>
	<path class="st1" d="M142.6,107.1h-37.7c-1.2,0-2.1-0.9-2.1-1.9V90.4c0-1.1,0.9-1.9,2.1-1.9h37.7c1.2,0,2.1,0.9,2.1,1.9v14.7
		C144.7,106.2,143.7,107.1,142.6,107.1z M104.9,89.4c-0.6,0-1.1,0.5-1.1,1v14.7c0,0.6,0.5,1,1.1,1h37.7c0.6,0,1.1-0.5,1.1-1V90.4
		c0-0.6-0.5-1-1.1-1H104.9z"/>
</g>
<g>
	<path class="st0" d="M76,69.6h36.9c1.1,0,2,0.9,2,2V87c0,1.1-0.9,2-2,2H76c-1.1,0-2-0.9-2-2V71.6C74,70.5,74.9,69.6,76,69.6z"/>
	<path class="st1" d="M112.9,89.5H76c-1.4,0-2.5-1.1-2.5-2.5V71.6c0-1.4,1.1-2.5,2.5-2.5h36.9c1.4,0,2.5,1.1,2.5,2.5V87
		C115.4,88.4,114.3,89.5,112.9,89.5z M76,70.1c-0.8,0-1.5,0.7-1.5,1.5V87c0,0.8,0.7,1.5,1.5,1.5h36.9c0.8,0,1.5-0.7,1.5-1.5V71.6
		c0-0.8-0.7-1.5-1.5-1.5H76z"/>
</g>
<path class="st0" d="M58,51.6h36.9c1.1,0,2,0.9,2,2V69c0,1.1-0.9,2-2,2H58c-1.1,0-2-0.9-2-2V53.6C56,52.5,56.9,51.6,58,51.6z"/>
<path class="st5" d="M83.7,52.1c0,0-3.4,8.2-9.1,12.2c-6.8,4.8-15.3,5.7-17.9,5.6l-0.9-3l23.9-18l2.7,3.2L83.7,52.1z"/>
<path class="st1" d="M94.9,71.5H58c-1.4,0-2.5-1.1-2.5-2.5V53.6c0-1.4,1.1-2.5,2.5-2.5h36.9c1.4,0,2.5,1.1,2.5,2.5V69
	C97.4,70.4,96.3,71.5,94.9,71.5z M58,52.1c-0.8,0-1.5,0.7-1.5,1.5V69c0,0.8,0.7,1.5,1.5,1.5h36.9c0.8,0,1.5-0.7,1.5-1.5V53.6
	c0-0.8-0.7-1.5-1.5-1.5h-11H58z"/>
<g>
	<path class="st0" d="M92.4,51.6h36.9c1.1,0,2,0.9,2,2V69c0,1.1-0.9,2-2,2H92.4c-1.1,0-2-0.9-2-2V53.6
		C90.4,52.5,91.3,51.6,92.4,51.6z"/>
	<path class="st1" d="M129.3,71.5H92.4c-1.4,0-2.5-1.1-2.5-2.5V53.6c0-1.4,1.1-2.5,2.5-2.5h36.9c1.4,0,2.5,1.1,2.5,2.5V69
		C131.8,70.4,130.6,71.5,129.3,71.5z M92.4,52.1c-0.8,0-1.5,0.7-1.5,1.5V69c0,0.8,0.7,1.5,1.5,1.5h36.9c0.8,0,1.5-0.7,1.5-1.5V53.6
		c0-0.8-0.7-1.5-1.5-1.5H92.4z"/>
</g>
<g>
	<path class="st0" d="M129.9,51.6h36.9c1.1,0,2,0.9,2,2V69c0,1.1-0.9,2-2,2h-36.9c-1.1,0-2-0.9-2-2V53.6
		C127.9,52.5,128.8,51.6,129.9,51.6z"/>
	<path class="st1" d="M166.8,71.5h-36.9c-1.4,0-2.5-1.1-2.5-2.5V53.6c0-1.4,1.1-2.5,2.5-2.5h36.9c1.4,0,2.5,1.1,2.5,2.5V69
		C169.3,70.4,168.2,71.5,166.8,71.5z M129.9,52.1c-0.8,0-1.5,0.7-1.5,1.5V69c0,0.8,0.7,1.5,1.5,1.5h36.9c0.8,0,1.5-0.7,1.5-1.5V53.6
		c0-0.8-0.7-1.5-1.5-1.5H129.9z"/>
</g>
<g>
	<path class="st0" d="M74.2,88.6h-29"/>
	<rect x="45.2" y="88.1" class="st1" width="29" height="1"/>
</g>
<g>
	<path class="st0" d="M112.9,71h37.7c0.9,0,1.6,0.7,1.6,1.5v15c0,0.8-0.7,1.5-1.6,1.5h-37.7c-0.9,0-1.6-0.7-1.6-1.5v-15
		C111.3,71.7,112,71,112.9,71z"/>
	<path class="st1" d="M150.6,89.5h-37.7c-1.2,0-2.1-0.9-2.1-2v-15c0-1.1,0.9-2,2.1-2h37.7c1.2,0,2.1,0.9,2.1,2v15
		C152.7,88.6,151.8,89.5,150.6,89.5z M112.9,71.5c-0.6,0-1.1,0.5-1.1,1v15c0,0.6,0.5,1,1.1,1h37.7c0.6,0,1.1-0.5,1.1-1v-15
		c0-0.6-0.5-1-1.1-1H112.9z"/>
</g>
<g class="st6">
	<path class="st1" d="M12.5,65.8L2.3,60l17-9.2L12.5,65.8z M4.3,60l7.7,4.4l5.1-11.3L4.3,60z"/>
</g>
<g class="st7">
	<path class="st8" d="M13.2,55.9L5.2,66l8,2V55.9z"/>
</g>
<g>
	<path class="st0" d="M56.2,40.8l4.2,4c0.9,0.8,0.9,2.2,0,3L21.4,88c-1.7,1.7-4.4,1.8-6.1,0.1l-1.1-1c-1.7-1.7-1.8-4.4-0.1-6.1
		l39-40.2C54,40,55.3,40,56.2,40.8z"/>
	<path class="st1" d="M18.3,89.9c-1.2,0-2.4-0.5-3.4-1.4l-1.1-1c-0.9-0.9-1.4-2.1-1.5-3.4s0.5-2.5,1.4-3.4l39-40.2
		c1-1,2.7-1.1,3.8-0.1l4.2,4c0.5,0.5,0.8,1.2,0.8,1.9s-0.3,1.4-0.8,1.9l-39,40.2C20.8,89.4,19.5,89.9,18.3,89.9z M54.7,40.7
		c-0.4,0-0.9,0.2-1.2,0.5l-39,40.2c-0.7,0.7-1.1,1.7-1.1,2.7s0.4,2,1.2,2.7l1.1,1c1.5,1.5,3.9,1.4,5.4-0.1l39-40.2
		c0.3-0.3,0.5-0.7,0.5-1.2s-0.2-0.9-0.5-1.2l-4.2-4C55.5,40.8,55.1,40.7,54.7,40.7z"/>
</g>
<g class="st7">
	<path class="st9" d="M156.7,24.8l13.7-5L169.2,31L156.7,24.8z"/>
</g>
<g class="st6">
	<path class="st1" d="M167.2,29.1l-16.8-1.4l15.4-12.6L167.2,29.1z M153,26.9l13.1,1.1L165,17L153,26.9z"/>
</g>
<g>
	<path class="st0" d="M30.7,106.6H10.8"/>
	<rect x="10.8" y="106.1" class="st1" width="19.9" height="1"/>
</g>
<g class="st7">
	<path class="st9" d="M70.2,26.6l3.3,3.3c0.7,0.7,0.7,1.8,0,2.5L42.3,65c-1.3,1.4-4.2,1.2-5.6-0.2l0,0c-1.4-1.3-1.6-4.2-0.3-5.5
		l31.3-32.6C68.4,25.9,69.5,25.9,70.2,26.6z"/>
</g>
<g>
	<path class="st0" d="M157.3,106.6H35.8"/>
	<rect x="35.8" y="106.1" class="st1" width="121.5" height="1"/>
</g>
<g>
	<circle class="st0" cx="56.7" cy="40.1" r="28"/>
	<path class="st1" d="M56.7,68.6c-15.7,0-28.5-12.8-28.5-28.5S41,11.6,56.7,11.6s28.5,12.8,28.5,28.5S72.4,68.6,56.7,68.6z
		 M56.7,12.6c-15.2,0-27.5,12.3-27.5,27.5s12.3,27.5,27.5,27.5s27.5-12.3,27.5-27.5S71.8,12.6,56.7,12.6z"/>
</g>
<g class="st10">
	<ellipse class="st11" cx="56.2" cy="39.9" rx="22" ry="22.1"/>
	<path class="st1" d="M56.2,62.4c-0.3,0-0.5,0-0.8,0v-1c1.3,0,2.6,0,3.9-0.2l0.1,1C58.5,62.4,57.3,62.4,56.2,62.4z M53.4,62.3
		c-1.4-0.2-2.7-0.5-4-0.9l0.3-1c1.2,0.4,2.5,0.7,3.8,0.8L53.4,62.3z M61.5,61.8l-0.2-1c1.3-0.3,2.5-0.7,3.7-1.3l0.4,0.9
		C64.2,61,62.9,61.5,61.5,61.8z M47.5,60.7c-1.2-0.5-2.5-1.2-3.6-1.9l0.5-0.8c1.1,0.7,2.2,1.3,3.4,1.8L47.5,60.7z M67.2,59.6
		l-0.5-0.9c1.1-0.6,2.2-1.4,3.2-2.2l0.6,0.8C69.5,58.1,68.4,58.9,67.2,59.6z M42.3,57.6c-1.1-0.8-2.1-1.8-3-2.8l0.8-0.7
		c0.9,1,1.8,1.9,2.8,2.7L42.3,57.6z M72.1,55.9l-0.7-0.7c0.9-0.9,1.8-1.9,2.5-3l0.8,0.6C73.9,53.9,73.1,54.9,72.1,55.9z M38,53.1
		c-0.8-1.1-1.5-2.3-2.1-3.5l0.9-0.4c0.6,1.2,1.2,2.3,2,3.4L38,53.1z M75.8,51l-0.9-0.5c0.6-1.1,1.2-2.3,1.6-3.6l0.9,0.3
		C77,48.6,76.5,49.8,75.8,51z M35.1,47.7c-0.5-1.3-0.8-2.6-1.1-3.9l1-0.2c0.2,1.3,0.6,2.5,1,3.8L35.1,47.7z M78.1,45.3l-1-0.2
		c0.3-1.3,0.5-2.6,0.6-3.9l1,0.1C78.6,42.7,78.4,44,78.1,45.3z M33.8,41.8c-0.1-0.6-0.1-1.3-0.1-1.9c0-0.7,0-1.5,0.1-2.2l1,0.1
		c-0.1,0.7-0.1,1.4-0.1,2.1c0,0.6,0,1.2,0.1,1.8L33.8,41.8z M77.7,39.3c0-1.3-0.2-2.6-0.5-3.9l1-0.2c0.3,1.3,0.4,2.7,0.5,4.1
		L77.7,39.3z M35.1,35.9l-1-0.2c0.3-1.3,0.6-2.7,1.1-3.9l0.9,0.4C35.7,33.3,35.3,34.6,35.1,35.9z M76.8,33.5
		c-0.4-1.2-0.9-2.5-1.5-3.6l0.9-0.5c0.6,1.2,1.2,2.5,1.6,3.8L76.8,33.5z M37,30.3l-0.9-0.4c0.6-1.2,1.3-2.4,2.1-3.5L39,27
		C38.2,28,37.5,29.2,37,30.3z M74.3,28.2c-0.7-1.1-1.5-2.1-2.4-3.1l0.7-0.7c0.9,1,1.8,2.1,2.5,3.2L74.3,28.2z M40.2,25.5l-0.7-0.7
		c0.9-1,1.9-2,3-2.8l0.6,0.8C42.1,23.6,41.1,24.5,40.2,25.5z M70.5,23.8c-1-0.9-2-1.6-3.1-2.3l0.5-0.9c1.2,0.7,2.3,1.5,3.3,2.4
		L70.5,23.8z M44.7,21.7l-0.5-0.8c1.1-0.7,2.4-1.4,3.6-1.9l0.4,0.9C46.9,20.4,45.8,21,44.7,21.7z M65.7,20.5c-1.2-0.6-2.4-1-3.6-1.4
		l0.3-1c1.3,0.4,2.6,0.9,3.8,1.5L65.7,20.5z M50,19.2l-0.3-1c1.3-0.4,2.6-0.7,4-0.8l0.1,1C52.5,18.6,51.2,18.9,50,19.2z M60.1,18.7
		c-1.3-0.2-2.6-0.3-3.9-0.4c-0.1,0-0.3,0-0.4,0v-1c0.2,0,0.3,0,0.5,0c1.4,0,2.7,0.1,4.1,0.4L60.1,18.7z"/>
</g>
<g class="st7">
	<path class="st9" d="M35.1,46c-0.6-1.9-0.9-4-0.9-6.1c0-12.2,9.8-22.1,22-22.1c6.8,0,12.9,3.1,16.9,8L35.1,46z"/>
</g>
<g>
	<rect x="161.7" y="106.1" class="st1" width="8" height="1"/>
</g>
</svg>
