<svg id="图层_1" data-name="图层 1" xmlns="http://www.w3.org/2000/svg" viewBox="0 0 160.7 105"><defs><style>.cls-1{fill:none;}.cls-1,.cls-11,.cls-13,.cls-14,.cls-2,.cls-5,.cls-6,.cls-7,.cls-8{isolation:isolate;}.cls-14,.cls-2,.cls-4,.cls-6{fill:#b1d0e8;}.cls-2{opacity:0.4;}.cls-3{fill:#fff;}.cls-5{fill:#c4cede;opacity:0.24;}.cls-6{opacity:0.7;}.cls-7{fill:#b5c7df;}.cls-7,.cls-8{opacity:0.3;}.cls-8{fill:#d9e3f2;}.cls-9{fill:#eff5fb;}.cls-10{fill:#f5f8fc;}.cls-11{opacity:0.9;}.cls-12{fill:#f4f7fc;}.cls-13{fill:#b5cadf;opacity:0.18;}.cls-14{opacity:0.6;}</style></defs><title>VMWARE-实体资源-镜像</title><path class="cls-1" d="M-172.7-149.95" transform="translate(167.2 148.45)"/><rect class="cls-2" x="81.5" y="10.5" width="2" height="81"/><path class="cls-3" d="M-94.7-138.75l-37-9.2a1.91,1.91,0,0,0-2,1.8v87.4a1.91,1.91,0,0,0,2,1.8h37a1.91,1.91,0,0,0,2-1.8v-78.2A1.91,1.91,0,0,0-94.7-138.75Z" transform="translate(167.2 148.45)"/><path class="cls-4" d="M-94.7-56.45h-37a2.38,2.38,0,0,1-2.5-2.3v-87.4a2.38,2.38,0,0,1,2.5-2.3h.1l36.9,9.2a2.35,2.35,0,0,1,2.4,2.3v78.2A2.23,2.23,0,0,1-94.7-56.45Zm-37.1-91a1.35,1.35,0,0,0-1.4,1.3v87.4a1.44,1.44,0,0,0,1.5,1.3h37a1.44,1.44,0,0,0,1.5-1.3v-78.2a1.44,1.44,0,0,0-1.5-1.3h-.1Z" transform="translate(167.2 148.45)"/><circle class="cls-5" cx="54.1" cy="51.1" r="28.6"/><path class="cls-6" d="M-163.4-128l-.1-11.8,16.5,10.1Zm.9-10,.1,8.8,12.4-1.2Z" transform="translate(167.2 148.45)"/><path class="cls-7" d="M-154.5-132.35l-12.7-1.8,2.2,7.9Z" transform="translate(167.2 148.45)"/><path class="cls-3" d="M-115.7-98.75l4.2,4a2,2,0,0,1,0,3l-39,40.2a4.29,4.29,0,0,1-6.1.1l-1.1-1a4.29,4.29,0,0,1-.1-6.1l39-40.2A2.2,2.2,0,0,1-115.7-98.75Z" transform="translate(167.2 148.45)"/><path class="cls-4" d="M-153.6-49.75a5.13,5.13,0,0,1-3.4-1.4l-1.1-1a5.32,5.32,0,0,1-1.5-3.4,4.39,4.39,0,0,1,1.4-3.4l39-40.2a2.69,2.69,0,0,1,3.8-.1l4.2,4a2.73,2.73,0,0,1,.8,1.9,2.73,2.73,0,0,1-.8,1.9l-39,40.2A4.29,4.29,0,0,1-153.6-49.75Zm36.4-49.1a1.85,1.85,0,0,0-1.2.5l-39,40.2a3.86,3.86,0,0,0-1.1,2.7,3.57,3.57,0,0,0,1.2,2.7l1.1,1a3.8,3.8,0,0,0,5.4-.1l39-40.2a1.66,1.66,0,0,0,.5-1.2,1.85,1.85,0,0,0-.5-1.2l-4.2-4A1.92,1.92,0,0,0-117.2-98.85Z" transform="translate(167.2 148.45)"/><path class="cls-8" d="M-101.1-113.25l3.3,3.3a1.75,1.75,0,0,1,0,2.5L-129-74.95c-1.3,1.4-4.2,1.2-5.6-.2h0c-1.4-1.3-1.6-4.2-.3-5.5l31.3-32.6A1.75,1.75,0,0,1-101.1-113.25Z" transform="translate(167.2 148.45)"/><path class="cls-8" d="M-20.2-112.75l13.7-5-1.2,11.2Z" transform="translate(167.2 148.45)"/><path class="cls-6" d="M-9.7-108.45l-16.8-1.4,15.4-12.6Zm-14.2-2.2,13.1,1.1-1.1-10.9Z" transform="translate(167.2 148.45)"/><path class="cls-3" d="M-144.2-43.95h-19.9" transform="translate(167.2 148.45)"/><rect class="cls-4" x="3.1" y="104" width="19.9" height="1"/><path class="cls-3" d="M-14.7-43.95h-6.4" transform="translate(167.2 148.45)"/><rect class="cls-4" x="146.1" y="104" width="6.4" height="1"/><path class="cls-3" d="M-23.7-43.95H-139.1" transform="translate(167.2 148.45)"/><rect class="cls-4" x="28.1" y="104" width="115.4" height="1"/><path class="cls-9" d="M-76.7-117.95v-19a1.91,1.91,0,0,1,2-1.8l37-9.2a1.91,1.91,0,0,1,2,1.8v87.4a1.91,1.91,0,0,1-2,1.8h-37a1.91,1.91,0,0,1-2-1.8v-22.1" transform="translate(167.2 148.45)"/><path class="cls-10" d="M-76.7-137.95l40.5-10v55.4l-40.5,13.6Z" transform="translate(167.2 148.45)"/><path class="cls-10" d="M-76.7-73.95l40.5-13.9v5.9l-40.5,15Z" transform="translate(167.2 148.45)"/><path class="cls-3" d="M-76.7-86.95l15-12.8-15-12.2v7.6h-14v9.9h14Z" transform="translate(167.2 148.45)"/><path class="cls-4" d="M-76.7-86.45h-.2a.55.55,0,0,1-.3-.5V-94H-90.7a.47.47,0,0,1-.5-.5v-9.9a.47.47,0,0,1,.5-.5h13.5v-7a.55.55,0,0,1,.3-.5c.2-.1.4-.1.5.1l15,12.2a.52.52,0,0,1,.2.4.76.76,0,0,1-.2.4l-15,12.8C-76.4-86.45-76.5-86.45-76.7-86.45ZM-90.2-95h13.5a.47.47,0,0,1,.5.5V-88l13.7-11.7-13.7-11.1v6.5a.47.47,0,0,1-.5.5H-90.2Z" transform="translate(167.2 148.45)"/><circle class="cls-3" cx="52" cy="49" r="28"/><path class="cls-4" d="M-115.2-70.95a28.55,28.55,0,0,1-28.5-28.5,28.55,28.55,0,0,1,28.5-28.5,28.55,28.55,0,0,1,28.5,28.5A28.55,28.55,0,0,1-115.2-70.95Zm0-56a27.55,27.55,0,0,0-27.5,27.5,27.55,27.55,0,0,0,27.5,27.5,27.48,27.48,0,0,0,27.5-27.5A27.55,27.55,0,0,0-115.2-126.95Z" transform="translate(167.2 148.45)"/><g class="cls-11"><ellipse class="cls-12" cx="51.4" cy="48.5" rx="22" ry="22.1"/><path class="cls-4" d="M-115.8-77.45h-.8v-1a25.49,25.49,0,0,0,3.9-.2l.1,1A16.17,16.17,0,0,1-115.8-77.45Zm-2.8-.1a25.85,25.85,0,0,1-4-.9l.3-1a16.06,16.06,0,0,0,3.8.8Zm8.1-.5-.2-1a16.27,16.27,0,0,0,3.7-1.3l.4.9A16.42,16.42,0,0,1-110.5-78Zm-14-1.1a24.75,24.75,0,0,1-3.6-1.9l.5-.8a22.11,22.11,0,0,0,3.4,1.8Zm19.7-1.1-.5-.9a22.74,22.74,0,0,0,3.2-2.2l.6.8A27.49,27.49,0,0,1-104.8-80.25Zm-24.9-2.1a19.91,19.91,0,0,1-3-2.8l.8-.7a23.67,23.67,0,0,0,2.8,2.7Zm29.8-1.6-.7-.7a18.1,18.1,0,0,0,2.5-3l.8.6A23.75,23.75,0,0,1-99.9-83.95Zm-34.1-2.8a25,25,0,0,1-2.1-3.5l.9-.4a23.29,23.29,0,0,0,2,3.4Zm37.8-2.1-.9-.5a19.64,19.64,0,0,0,1.6-3.6l.9.3A12.78,12.78,0,0,1-96.2-88.85Zm-40.7-3.3A28.47,28.47,0,0,1-138-96l1-.2a26.64,26.64,0,0,0,1,3.8Zm43-2.4-1-.2a26.29,26.29,0,0,0,.6-3.9l1,.1A27.61,27.61,0,0,1-93.9-94.55ZM-138.2-98a12.1,12.1,0,0,1-.1-1.9,16.2,16.2,0,0,1,.1-2.2l1,.1a14.77,14.77,0,0,0-.1,2.1,10.87,10.87,0,0,0,.1,1.8Zm43.9-2.5a17.37,17.37,0,0,0-.5-3.9l1-.2a27,27,0,0,1,.5,4.1Zm-42.6-3.5-1-.2a25,25,0,0,1,1.1-3.9l.9.4C-136.3-106.55-136.6-105.25-136.9-104Zm41.7-2.3a22.77,22.77,0,0,0-1.5-3.6l.9-.5a25.44,25.44,0,0,1,1.6,3.8Zm-39.8-3.2-.9-.4a25,25,0,0,1,2.1-3.5l.8.6A13.85,13.85,0,0,0-135-109.55Zm37.3-2.1a23.39,23.39,0,0,0-2.4-3.1l.7-.7a25.12,25.12,0,0,1,2.5,3.2Zm-34.1-2.7-.7-.7a19.91,19.91,0,0,1,3-2.8l.6.8A24.43,24.43,0,0,0-131.8-114.35Zm30.3-1.7a22.59,22.59,0,0,0-3.1-2.3l.5-.9a19.92,19.92,0,0,1,3.3,2.4Zm-25.8-2.1-.5-.8a24.75,24.75,0,0,1,3.6-1.9l.4.9A23.13,23.13,0,0,0-127.3-118.15Zm21-1.2a26.71,26.71,0,0,0-3.6-1.4l.3-1a25,25,0,0,1,3.8,1.5Zm-15.7-1.3-.3-1a17.73,17.73,0,0,1,4-.8l.1,1C-119.5-121.25-120.8-120.95-122-120.65Zm10.1-.5a16,16,0,0,0-4.4-.3v-1a23.83,23.83,0,0,1,4.6.4Z" transform="translate(167.2 148.45)"/></g><path class="cls-4" d="M-45.7-43.45h-79a1.54,1.54,0,0,1-1.5-1.5v-8a1.54,1.54,0,0,1,1.5-1.5h79a1.54,1.54,0,0,1,1.5,1.5v8A1.54,1.54,0,0,1-45.7-43.45Zm-79-10a.47.47,0,0,0-.5.5v8a.47.47,0,0,0,.5.5h79a.47.47,0,0,0,.5-.5v-8a.47.47,0,0,0-.5-.5Z" transform="translate(167.2 148.45)"/><path class="cls-13" d="M-124.7-53.45h79a.94.94,0,0,1,1,1v2h-81v-2A.94.94,0,0,1-124.7-53.45Z" transform="translate(167.2 148.45)"/><polygon class="cls-14" points="100.9 61.9 100.1 61.1 112.8 48.5 102.1 37.9 102.9 37.1 114.2 48.5 100.9 61.9"/><path class="cls-4" d="M-37.7-56.45h-.5v-1h.5a1.44,1.44,0,0,0,1.5-1.3v-.5h1v.5A2.38,2.38,0,0,1-37.7-56.45Zm-2.5,0h-4v-1h4Zm-6,0h-4v-1h4Zm-6,0h-4v-1h4Zm-6,0h-4v-1h4Zm-6,0h-4v-1h4Zm-6,0h-4v-1h4Zm-6.2-.6a2.14,2.14,0,0,1-.8-1.7v-2.5h1v2.5a1.49,1.49,0,0,0,.4.9Zm41.2-4.2h-1v-4h1Zm-41-2h-1v-4h1Zm41-4h-1v-4h1Zm-41-2h-1v-4h1Zm41-4h-1v-4h1Zm-41-2h-1v-4h1Zm41-4h-1v-4h1Zm0-12h-1v-4h1Zm0-6h-1v-4h1Zm0-6h-1v-4h1Zm0-6h-1v-4h1Zm0-6h-1v-4h1Zm-41-2.7h-1v-4h1Zm41-3.3h-1v-4h1Zm-41-2.7h-1v-4h1Zm41-3.3h-1v-4h1Zm-41-2.7h-1v-4h1Zm41-3.3h-1v-4h1Zm-41-2.7h-1v-1a2.38,2.38,0,0,1,2.5-2.3v.5l.1.5h-.1a1.44,1.44,0,0,0-1.5,1.3Zm3.6-2.8-.2-1,3.9-1,.2,1Zm37.4-.5h-1v-4h1Zm-31.6-.9-.2-1,3.9-1,.2,1Zm5.8-1.5-.2-1,3.9-1,.2,1Zm5.8-1.4-.2-1,3.9-1,.2,1Zm5.9-1.5-.2-1,3.9-1,.2,1Zm14.1-.7h-1v-.9a1.35,1.35,0,0,0-1.4-1.3h-.1l-.2-.9h.2a2.38,2.38,0,0,1,2.5,2.3Zm-8.3-.7-.2-1,3.9-1,.2,1Zm8.3,60.7h-1v-4h1Z" transform="translate(167.2 148.45)"/><path class="cls-8" d="M-136.5-93.85a19.64,19.64,0,0,1-.9-5.9,21.55,21.55,0,0,1,21.5-21.6,21.24,21.24,0,0,1,16.5,7.8Z" transform="translate(167.2 148.45)"/></svg>