<?xml version="1.0" encoding="utf-8"?>
<!-- Generator: Adobe Illustrator 23.0.1, SVG Export Plug-In . SVG Version: 6.00 Build 0)  -->
<svg version="1.1" id="图层_1" xmlns="http://www.w3.org/2000/svg" xmlns:xlink="http://www.w3.org/1999/xlink" x="0px" y="0px"
	 viewBox="0 0 171 110" style="enable-background:new 0 0 171 110;" xml:space="preserve">
<style type="text/css">
	.st0{fill:none;}
	.st1{fill:#FFFFFF;}
	.st2{fill:#B1D0E8;}
	.st3{opacity:0.7;enable-background:new    ;}
	.st4{opacity:0.3;enable-background:new    ;}
	.st5{fill:#B5C7DF;}
	.st6{opacity:0.5;}
	.st7{opacity:0.28;enable-background:new    ;}
	.st8{opacity:0.5;enable-background:new    ;}
	.st9{opacity:0.15;}
	.st10{opacity:0.4;}
	.st11{fill:#D9E3F2;}
	.st12{opacity:0.24;enable-background:new    ;}
	.st13{fill:#C4CEDE;}
	.st14{opacity:0.9;enable-background:new    ;}
	.st15{fill:#F4F7FC;}
</style>
<g id="XMLID_151_">
	<g>
		<path class="st0" d="M3.8,3"/>
	</g>
</g>
<g id="XMLID_121_">
	<g id="XMLID_209_">
		<g>
			<path class="st1" d="M33.3,108H13.4"/>
		</g>
	</g>
</g>
<g id="XMLID_120_">
	<g id="XMLID_208_">
		<g>
			<rect x="4.4" y="107.5" class="st2" width="19.9" height="1"/>
		</g>
	</g>
</g>
<g id="XMLID_117_">
	<g id="XMLID_119_">
		<g id="XMLID_207_">
			<g>
				<path class="st1" d="M168.4,108h-12"/>
			</g>
		</g>
	</g>
	<g id="XMLID_118_">
		<g id="XMLID_206_">
			<g>
				<rect x="156.4" y="107.5" class="st2" width="12" height="1"/>
			</g>
		</g>
	</g>
</g>
<g id="XMLID_114_">
	<g id="XMLID_116_">
		<g id="XMLID_205_">
			<g>
				<path class="st1" d="M147.8,108H32.4"/>
			</g>
		</g>
	</g>
	<g id="XMLID_115_">
		<g id="XMLID_200_">
			<g>
				<rect x="32.4" y="107.5" class="st2" width="115.4" height="1"/>
			</g>
		</g>
	</g>
</g>
<g id="XMLID_140_" class="st3">
	<g id="XMLID_141_">
		<g id="XMLID_161_">
			<g>
				<path class="st2" d="M17,86L6.8,80.2l17-9.2L17,86z M8.8,80.2l7.7,4.4l5.1-11.3L8.8,80.2z"/>
			</g>
		</g>
	</g>
</g>
<g id="XMLID_138_" class="st4">
	<g id="XMLID_139_">
		<g id="XMLID_157_">
			<g>
				<path class="st5" d="M17.8,76.1l-8,10.2l8,2V76.1z"/>
			</g>
		</g>
	</g>
</g>
<g class="st6">
	<g>
		<path class="st2" d="M93.2,99.2H81.5c-2.1,0-3.9-1.8-3.9-3.9l0,0h19.5l0,0C97.1,97.5,95.3,99.2,93.2,99.2z"/>
	</g>
	<path class="st2" d="M97,94.7H77.5c-0.4,0-0.7,0.3-0.7,0.7c0,2.5,2.1,4.6,4.6,4.6h11.7c2.5,0,4.6-2.1,4.6-4.6
		C97.8,95,97.5,94.7,97,94.7z"/>
</g>
<g>
	<g>
		<path class="st2" d="M139.8,108.5v-1c6.6,0,11.9-5.4,11.9-11.9c0-0.1-0.1-0.2-0.2-0.2H22.7c-0.1,0-0.2,0.1-0.2,0.2
			c0,6.6,5.4,11.9,11.9,11.9v1c-7.1,0-12.9-5.8-12.9-12.9c0-0.7,0.6-1.2,1.2-1.2h128.8c0.7,0,1.2,0.6,1.2,1.2
			C152.8,102.7,146.9,108.5,139.8,108.5z"/>
	</g>
</g>
<g>
	<path class="st1" d="M142,94.6H32.7V26.5c0-3.3,2.7-6,6-6H136c3.3,0,6,2.7,6,6V94.6z"/>
</g>
<g>
	<path class="st2" d="M142.4,95.1H32.2V26.5c0-3.6,2.9-6.5,6.5-6.5H136c3.6,0,6.5,2.9,6.5,6.5v68.6H142.4z M33.2,94.1h108.3V26.5
		c0-3-2.5-5.5-5.5-5.5H38.7c-3,0-5.5,2.5-5.5,5.5V94.1z"/>
</g>
<g class="st6">
	<g>
		<path class="st2" d="M134.8,27.6v59.7H39.5V27.6H134.8 M135.8,26.6H38.5v61.7h97.3V26.6L135.8,26.6z"/>
	</g>
</g>
<g class="st6">
	<g>
		<rect x="63.8" y="26.6" class="st2" width="1" height="2"/>
	</g>
	<g>
		<path class="st2" d="M64.8,84.2h-1v-4.1h1V84.2z M64.8,78.1h-1V74h1V78.1z M64.8,71.9h-1v-4.1h1V71.9z M64.8,65.7h-1v-4.1h1V65.7z
			 M64.8,59.5h-1v-4.1h1V59.5z M64.8,53.3h-1v-4.1h1V53.3z M64.8,47.1h-1V43h1V47.1z M64.8,41h-1v-4.1h1V41z M64.8,34.8h-1v-4.1h1
			V34.8z"/>
	</g>
	<g>
		<rect x="63.8" y="86.3" class="st2" width="1" height="2"/>
	</g>
</g>
<g>
	<g id="XMLID_33_" class="st7">
		<g id="XMLID_34_">
			<g id="XMLID_35_">
				<rect x="42.6" y="33.6" class="st5" width="18" height="5"/>
			</g>
		</g>
	</g>
	<g class="st7">
		<g>
			<rect x="42.6" y="42.4" class="st5" width="18" height="5"/>
		</g>
	</g>
	<g class="st8">
		<g>
			<rect x="42.6" y="51.2" class="st5" width="18" height="5"/>
		</g>
	</g>
	<g class="st7">
		<g>
			<rect x="42.6" y="60" class="st5" width="18" height="5"/>
		</g>
	</g>
	<g class="st7">
		<g>
			<rect x="42.6" y="68.8" class="st5" width="18" height="5"/>
		</g>
	</g>
	<g id="XMLID_23_" class="st7">
		<g id="XMLID_30_">
			<g id="XMLID_32_">
				<rect x="42.6" y="77.6" class="st5" width="18" height="5"/>
			</g>
		</g>
	</g>
</g>
<g class="st9">
	<g>
		<path class="st2" d="M65,76.5c0-4.2,2.6-13.3,5-16.1c2.4-2.6,3.2-0.7,4.7,2.2c2.6,4.8,6.9,9.8,11.8,9.4c5.6-0.4,8.9-9.2,15-7.6
			c2.8,0.7,5.2,2.5,7.8-0.1c1.4-1.5,2.4-3.5,3.5-5.6c5.1-9.8,13.4-15.8,22.3-10.8v39.2H65C65,86.9,65,76.5,65,76.5z"/>
	</g>
</g>
<g>
	<path class="st1" d="M105.4,81c-0.1,0-0.3-0.1-0.3-0.2l-2.7-8.4c0-0.1,0-0.3,0.1-0.4s0.2-0.1,0.3-0.1l8,2.8c0.1,0,0.2,0.2,0.2,0.4
		s-0.1,0.3-0.2,0.3l-2.6,0.7l2.7,2.8c0.1,0.1,0.1,0.4,0,0.5l-1.3,1.4c-0.1,0.1-0.3,0.1-0.5,0l-2.7-2.8l-0.7,2.8
		C105.7,80.9,105.6,81,105.4,81L105.4,81z"/>
</g>
<g class="st10">
	<g>
		<g>
			<path class="st2" d="M121.8,59.2c-0.7,0-1.4,0-2.1-0.1c-0.6-0.1-1-0.6-0.9-1.2c0.1-0.6,0.6-1,1.2-0.9c1.3,0.1,2.8,0.1,4.2-0.1
				h0.1c0.7-0.1,1.5-0.2,2.2-0.4c0.8-0.2,1.5-0.4,2.1-0.7c0.4-0.2,0.8-0.3,1.2-0.5l0.3-0.2c0.8-0.4,1.5-0.8,2.1-1.3
				c0.4-0.3,0.8-0.6,1.3-1c0.7-0.5,1.4-1.2,2.1-2c0.2-0.2,0.5-0.3,0.8-0.4c0.3,0,0.6,0.1,0.8,0.3s0.3,0.4,0.3,0.7s-0.1,0.6-0.3,0.8
				c-0.7,0.8-1.5,1.6-2.4,2.3c-0.4,0.4-0.9,0.7-1.4,1c-0.7,0.5-1.5,0.9-2.4,1.4c-0.6,0.3-1.2,0.6-1.8,0.8c-0.8,0.4-1.8,0.6-2.4,0.8
				c-0.8,0.2-1.7,0.4-2.6,0.5C123.7,59.1,122.9,59.2,121.8,59.2z M119.8,58L119.8,58c0.6,0.2,1.3,0.2,2,0.2c1,0,1.8-0.1,2.4-0.2
				c0.8-0.1,1.7-0.3,2.5-0.5c0.6-0.1,1.5-0.4,2.3-0.7c0.5-0.2,1.1-0.5,1.7-0.8c0.9-0.5,1.7-0.9,2.3-1.4c0.4-0.3,0.9-0.6,1.3-1
				c0.8-0.6,1.6-1.4,2.3-2.2l0,0v-0.1c-0.8,0.9-1.6,1.6-2.3,2.2c-0.4,0.4-0.9,0.7-1.3,1c-0.7,0.5-1.4,0.9-2.3,1.4l-0.3,0.2
				c-0.4,0.2-0.9,0.4-1.3,0.6c-0.7,0.3-1.4,0.5-2.2,0.7c-0.7,0.2-1.5,0.3-2.3,0.5h-0.1C122.7,58.1,121.2,58.1,119.8,58z"/>
		</g>
	</g>
	<g>
		<g>
			<path class="st2" d="M152.7,51.3c-0.1,0-0.2,0-0.2,0c-0.3-0.1-0.5-0.5-0.3-0.7c0.2-0.4,0.3-0.9,0.5-1.3c1.2-3.4,1.8-7,1.8-10.6
				c0-2.3-0.2-4.6-0.7-6.8c-0.4-1.9-1-3.8-1.7-5.6c-0.9-2.1-2-4.2-3.3-6.1c-0.8-1.1-1.6-2.3-2.6-3.3c-1.7-1.9-3.6-3.6-5.7-5
				c-0.3-0.2-0.3-0.5-0.2-0.8c0.2-0.3,0.5-0.3,0.8-0.2c2.2,1.5,4.2,3.3,5.9,5.2c1,1,1.9,2.2,2.7,3.4c1.4,2,2.5,4.1,3.4,6.3
				c0.8,1.9,1.4,3.8,1.8,5.8c0.5,2.3,0.7,4.7,0.7,7.1c0,3.8-0.6,7.5-1.8,11c-0.2,0.5-0.3,0.9-0.5,1.4
				C153.1,51.1,152.9,51.3,152.7,51.3z"/>
		</g>
	</g>
	<g>
		<path class="st2" d="M109.7,8.3c3.8-1.5,7.9-2.3,12.1-2.3c2.6,0,5.2,0.3,7.8,0.9c0.3,0.1,0.6-0.1,0.7-0.4s-0.1-0.6-0.4-0.7
			c-2.6-0.7-5.3-1-8.1-1c-4.4,0-8.5,0.8-12.5,2.4c-3.4,1.3-6.5,3.2-9.3,5.6c-0.1,0.1-0.2,0.3-0.2,0.4c0,0.3,0.3,0.6,0.6,0.6
			c0.1,0,0.1,0,0.2,0"/>
	</g>
</g>
<g>
	<path class="st2" d="M105.4,81.5c-0.4,0-0.7-0.2-0.8-0.6l-2.7-8.4c-0.1-0.3,0-0.6,0.2-0.8c0.2-0.2,0.5-0.3,0.8-0.2l8.1,2.8
		c0.3,0.1,0.6,0.4,0.6,0.8s-0.2,0.7-0.6,0.8l-1.9,0.5l2.1,2.2c0.3,0.3,0.3,0.9,0,1.2l-1.3,1.4c-0.3,0.3-0.9,0.3-1.2,0l-2-2.1
		l-0.5,1.9C106.1,81.2,105.8,81.5,105.4,81.5z M105.6,80.6L105.6,80.6L105.6,80.6z M106.1,77l3.2,3.3l1.1-1.2l-3.1-3.3l3-0.8
		l-7.3-2.5l2.4,7.6L106.1,77z M102.9,72.2L102.9,72.2L102.9,72.2z"/>
</g>
<g id="XMLID_73_">
	<g id="XMLID_182_">
		<g id="XMLID_188_">
			<g id="XMLID_29_">
				<path class="st1" d="M125.4,38.2L162,75.9c1.6,1.6,1.5,4.1-0.1,5.7l-1,0.9c-1.6,1.6-4.1,1.5-5.7-0.1l-36.6-37.7
					c-0.8-0.8-0.8-2.1,0-2.8l3.9-3.8C123.4,37.3,124.6,37.4,125.4,38.2z"/>
			</g>
		</g>
		<g id="XMLID_184_">
			<g id="XMLID_28_">
				<path class="st2" d="M154.9,82.7L118.3,45c-0.5-0.5-0.8-1.1-0.8-1.8s0.3-1.3,0.8-1.8l3.9-3.8c1-0.9,2.6-0.9,3.6,0.1l36.6,37.7
					c0.8,0.8,1.4,2,1.3,3.2c-0.1,1.2-0.6,2.3-1.4,3.2l-1,0.9c-0.9,0.8-2.1,1.3-3.2,1.3S155.7,83.8,154.9,82.7z M122.8,38.5l-3.9,3.8
					c-0.3,0.3-0.5,0.8-0.5,1.1c0,0.5,0.2,0.8,0.5,1.1l36.6,37.7c1.4,1.4,3.7,1.5,5.1,0.1l1-0.9c0.8-0.7,1.1-1.6,1.1-2.5
					s-0.4-1.9-1-2.5L125,38.6c-0.3-0.3-0.8-0.5-1.1-0.5C123.5,38.1,123.2,38.2,122.8,38.5z"/>
			</g>
		</g>
	</g>
	<g id="XMLID_180_" class="st4">
		<g id="XMLID_181_">
			<g id="XMLID_27_">
				<path class="st11" d="M111.5,24.5l29.4,30.6c1.2,1.2,1,3.9-0.3,5.2l0,0c-1.3,1.3-4,1.5-5.3,0.2l-29.2-30.6
					c-0.7-0.7-0.7-1.7,0-2.3l3.1-3.1C109.9,23.7,110.9,23.7,111.5,24.5z"/>
			</g>
		</g>
	</g>
	<g id="XMLID_177_" class="st12">
		<g id="XMLID_179_">
			<g id="XMLID_26_">
				<circle class="st13" cx="120.1" cy="39.5" r="26.8"/>
			</g>
		</g>
	</g>
	<g id="XMLID_18_">
		<g id="XMLID_176_">
			<g id="XMLID_25_">
				<circle class="st1" cx="122" cy="37.5" r="26.3"/>
			</g>
		</g>
		<g id="XMLID_19_">
			<g id="XMLID_24_">
				<path class="st2" d="M95.3,37.5c0-14.7,12-26.7,26.7-26.7s26.7,12,26.7,26.7s-12,26.7-26.7,26.7S95.3,52.3,95.3,37.5z
					 M96.3,37.5c0,14.3,11.5,25.8,25.8,25.8s25.8-11.6,25.8-25.8s-11.5-25.8-25.8-25.8C107.9,11.7,96.3,23.3,96.3,37.5z"/>
			</g>
		</g>
	</g>
	<g id="XMLID_78_" class="st14">
		<g id="XMLID_16_">
			<g id="XMLID_9_">
				<ellipse class="st15" cx="122.6" cy="37.1" rx="20.6" ry="20.7"/>
			</g>
		</g>
		<g id="XMLID_82_">
			<g id="XMLID_8_">
				<path class="st2" d="M119.6,58l0.1-0.9c1.2,0.2,2.4,0.2,3.7,0.2v0.9c-0.3,0-0.5,0-0.8,0C121.6,58.2,120.5,58.2,119.6,58z
					 M125.1,57c1.2-0.1,2.4-0.4,3.6-0.8l0.3,0.9c-1.2,0.4-2.4,0.7-3.8,0.8L125.1,57z M114,56.3l0.4-0.8c1.1,0.6,2.3,0.9,3.5,1.2
					l-0.2,0.9C116.3,57.3,115.1,56.8,114,56.3z M130.5,55.7c1.1-0.5,2.2-1,3.2-1.7l0.5,0.8c-1,0.7-2.3,1.3-3.4,1.8L130.5,55.7z
					 M109.2,53.4l0.6-0.8c0.9,0.8,2,1.5,3,2.1l-0.5,0.8C111.2,54.9,110.1,54.1,109.2,53.4z M135.1,52.8c0.9-0.8,1.8-1.6,2.6-2.5
					l0.8,0.7c-0.8,0.9-1.8,1.9-2.8,2.6L135.1,52.8z M105.3,49.2l0.8-0.6c0.7,1,1.5,2,2.3,2.8l-0.7,0.7
					C106.8,51.1,105.9,50.1,105.3,49.2z M138.9,49c0.8-1,1.3-2.1,1.9-3.2l0.8,0.4c-0.6,1.1-1.2,2.3-2,3.3L138.9,49z M102.7,43.9
					l0.8-0.3c0.4,1.2,0.9,2.3,1.5,3.4l-0.8,0.5C103.6,46.3,103,45.2,102.7,43.9z M141.6,44.1c0.4-1.2,0.8-2.3,0.9-3.6l0.9,0.2
					c-0.3,1.2-0.6,2.4-1,3.7L141.6,44.1z M101.5,38.4l0.9-0.1c0.1,1.2,0.3,2.4,0.6,3.7l-0.9,0.2C101.8,40.9,101.6,39.6,101.5,38.4z
					 M142.7,38.7c0.1-0.6,0.1-1.1,0.1-1.7c0-0.7,0-1.3-0.1-2l0.9-0.1c0.1,0.7,0.1,1.4,0.1,2.1c0,0.6,0,1.2-0.1,1.8L142.7,38.7z
					 M101.5,36.5c0.1-1.3,0.2-2.6,0.5-3.8l0.9,0.2c-0.3,1.2-0.5,2.4-0.5,3.7L101.5,36.5z M141.5,29.7l0.8-0.4c0.5,1.1,0.8,2.4,1,3.7
					l-0.9,0.2C142.1,32.1,141.8,30.9,141.5,29.7z M102.4,30.8c0.4-1.2,0.9-2.4,1.5-3.6l0.8,0.5c-0.6,1-1,2.3-1.4,3.4L102.4,30.8z
					 M138.7,25l0.8-0.6c0.8,1,1.4,2.2,2,3.3l-0.8,0.4C140.1,26.9,139.5,25.9,138.7,25z M104.9,25.5c0.7-1,1.5-2.1,2.3-3l0.7,0.7
					c-0.8,0.9-1.6,1.9-2.3,2.9L104.9,25.5z M134.9,21l0.6-0.8c1,0.8,2,1.7,2.8,2.6l-0.7,0.7C136.8,22.6,135.8,21.8,134.9,21z
					 M108.5,21.2c0.9-0.8,2-1.6,3.1-2.3l0.5,0.8c-1,0.7-2,1.3-2.9,2.2L108.5,21.2z M130.1,18.3l0.4-0.8c1.1,0.5,2.3,1.1,3.4,1.8
					l-0.5,0.8C132.4,19.3,131.2,18.8,130.1,18.3z M113.2,18c1.1-0.6,2.3-1,3.6-1.4l0.3,0.9c-1.1,0.4-2.3,0.8-3.4,1.3L113.2,18z
					 M124.9,16.9L125,16c1.3,0.1,2.5,0.4,3.8,0.8l-0.3,0.9C127.3,17.4,126.1,17.1,124.9,16.9z M118.7,16.2c1.3-0.3,2.5-0.4,3.8-0.4
					c0.2,0,0.3,0,0.5,0v0.9c-0.1,0-0.3,0-0.4,0c-1.2,0.1-2.4,0.2-3.7,0.4L118.7,16.2z"/>
			</g>
		</g>
	</g>
	<g id="XMLID_74_" class="st4">
		<g id="XMLID_7_">
			<path class="st11" d="M107.1,24.1c3.7-4.5,9.3-7.3,15.5-7.3c11.2,0,20.2,9.1,20.2,20.3c0,1.9-0.3,3.8-0.8,5.5L107.1,24.1z"/>
		</g>
	</g>
</g>
</svg>
