<?xml version="1.0" encoding="utf-8"?>
<!-- Generator: Adobe Illustrator 21.0.0, SVG Export Plug-In . SVG Version: 6.00 Build 0)  -->
<svg version="1.1" id="图层_1" xmlns="http://www.w3.org/2000/svg" xmlns:xlink="http://www.w3.org/1999/xlink" x="0px" y="0px"
	 viewBox="0 0 172 108" style="enable-background:new 0 0 172 108;" xml:space="preserve">
<style type="text/css">
	.st0{fill:none;enable-background:new    ;}
	.st1{fill:#F4F6F9;}
	.st2{opacity:0.7;enable-background:new    ;}
	.st3{fill:#B1D0E8;}
	.st4{opacity:0.12;enable-background:new    ;}
	.st5{fill:#A1B6D1;}
	.st6{fill:#FFFFFF;}
	.st7{fill:#B5C7DF;}
	.st8{opacity:0.3;enable-background:new    ;}
	.st9{opacity:0.4;enable-background:new    ;}
	.st10{opacity:0.28;enable-background:new    ;}
	.st11{opacity:0.52;}
</style>
<path class="st0" d="M0,0"/>
<g>
	<path class="st1" d="M153.5,35.2l13.7-5c0,0,2.5,14-1.2,11.2C162.2,38.6,153.5,35.2,153.5,35.2z"/>
</g>
<g class="st2">
	<path class="st3" d="M164,39.5l-16.8-1.4l15.4-12.6L164,39.5z M149.8,37.3l13.1,1.1l-1.1-10.9L149.8,37.3z"/>
</g>
<g>
	<path class="st1" d="M17.7,22.8L6.1,17.3L7,28L17.7,22.8z"/>
</g>
<g class="st2">
	<path class="st3" d="M26.2,26.5L10,23.3L13.3,12L26.2,26.5z M11.3,22.5L23.5,25l-9.7-11L11.3,22.5z"/>
</g>
<g class="st4">
	<path class="st5" d="M51,44h60c1.1,0,2,0.9,2,2v19c0,1.1-0.9,2-2,2H51c-1.1,0-2-0.9-2-2V46C49,44.9,49.9,44,51,44z"/>
</g>
<g class="st4">
	<path class="st5" d="M51,70h60c1.1,0,2,0.9,2,2v19c0,1.1-0.9,2-2,2H51c-1.1,0-2-0.9-2-2V72C49,70.9,49.9,70,51,70z"/>
</g>
<g class="st4">
	<path class="st5" d="M51,96h60c1.1,0,2,0.9,2,2v7H49v-7C49,96.9,49.9,96,51,96z"/>
</g>
<g class="st4">
	<rect x="49" y="67" class="st5" width="61" height="3"/>
</g>
<g class="st4">
	<rect x="49" y="93" class="st5" width="61" height="3"/>
</g>
<g>
	<path class="st6" d="M27.5,105H9.6"/>
	<rect x="9.6" y="104.5" class="st3" width="17.9" height="1"/>
</g>
<g>
	<path class="st6" d="M159,105h-6.4"/>
	<rect x="152.6" y="104.5" class="st3" width="6.4" height="1"/>
</g>
<g>
	<path class="st6" d="M150,105H32.6"/>
	<rect x="32.6" y="104.5" class="st3" width="117.4" height="1"/>
</g>
<g>
	<path class="st3" d="M125.4,105.5v-1h4v1H125.4z M123.4,105.5h-4v-1h4V105.5z M117.4,105.5h-4v-1h4V105.5z M131.4,105.5v-1
		c1.5,0,2.3,0,2.6,0l0,0h0.6v0.1c0.1,0.1,0.2,0.2,0.2,0.4c0,0.2,0,0.3-0.2,0.4v0.1h-0.3c0,0-0.1,0-0.2,0
		C133.6,105.5,132.7,105.5,131.4,105.5z M111.4,105.5h-4v-1h4V105.5z M105.4,105.5h-4v-1h4V105.5z M99.4,105.5V105V105.5z
		 M99.3,105.5h-3.9v-1h3.9l0.1,0.5L99.3,105.5z M93.4,105.5V105V105.5z M93.3,105.5h-4v-1h4v0.5V105.5z M87.4,105.5h-4v-1h4V105.5z
		 M81.4,105.5h-4v-1h4V105.5z M75.4,105.5h-4v-1h4V105.5z M69.4,105.5h-4v-1h4V105.5z M63.4,105.5h-4v-1h4V105.5z M57.3,105.5H57v-1
		h0.3V105.5z M136.7,105.4l-0.1-1c1.3-0.1,2.6-0.3,3.9-0.6l0.2,1C139.4,105.1,138.1,105.3,136.7,105.4z M142.7,104.2l-0.3-0.9
		c1.2-0.4,2.5-0.9,3.6-1.5l0.5,0.9C145.2,103.3,144,103.8,142.7,104.2z M148.2,101.6l-0.5-0.8c1.1-0.7,2.1-1.5,3.1-2.4l0.7,0.7
		C150.4,100,149.3,100.9,148.2,101.6z M152.8,97.6l-0.7-0.7c0.9-1,1.7-2,2.4-3.1l0.8,0.5C154.6,95.5,153.7,96.6,152.8,97.6z
		 M156.3,92.6l-0.9-0.5c0.6-1.1,1.1-2.4,1.6-3.6l0.9,0.3C157.5,90.2,156.9,91.4,156.3,92.6z M158.5,86.9l-1-0.3
		c0.3-1.2,0.6-2.5,0.7-3.9l1,0.1C159.1,84.3,158.9,85.6,158.5,86.9z M159.5,80.9l-1-0.1c0-0.6,0-1.1,0-1.7c0-0.7,0-1.5-0.1-2.2
		l1-0.1c0.1,0.8,0.1,1.5,0.1,2.3C159.5,79.7,159.5,80.3,159.5,80.9z M158.2,75c-0.2-1.3-0.5-2.6-0.9-3.8l1-0.3
		c0.4,1.3,0.7,2.6,0.9,4L158.2,75z M156.6,69.3c-0.5-1.2-1.1-2.4-1.7-3.5l0.9-0.5c0.7,1.2,1.3,2.4,1.8,3.7L156.6,69.3z M153.8,64.1
		c-0.7-1.1-1.6-2.1-2.5-3.1l0.7-0.7c0.9,1,1.8,2.1,2.6,3.2L153.8,64.1z M150,59.7c-1-0.9-2-1.7-3.1-2.4l0.6-0.8
		c1.1,0.8,2.2,1.6,3.2,2.5L150,59.7z M145.3,56.2c-1.1-0.7-2.3-1.2-3.5-1.7l0.4-0.9c1.3,0.5,2.5,1.1,3.7,1.8L145.3,56.2z
		 M139.9,53.9c-1.2-0.4-2.5-0.7-3.8-0.9l0.1-1c1.3,0.2,2.7,0.5,4,0.9L139.9,53.9z M130.2,52.9l-0.1-1c1.4-0.1,2.8-0.1,4.1,0l-0.1,1
		C132.8,52.8,131.5,52.8,130.2,52.9z M128.4,51.5c-0.5-1.2-1.1-2.4-1.7-3.5l0.9-0.5c0.7,1.2,1.3,2.4,1.8,3.6L128.4,51.5z
		 M125.7,46.3c-0.7-1.1-1.5-2.2-2.3-3.2l0.8-0.6c0.9,1,1.6,2.1,2.4,3.3L125.7,46.3z M122.1,41.6c-0.9-1-1.8-1.9-2.8-2.8L120,38
		c1,0.9,2,1.8,2.9,2.8L122.1,41.6z M75.7,38l-0.6-0.8c1.1-0.8,2.2-1.6,3.3-2.4l0.5,0.8C77.8,36.4,76.7,37.2,75.7,38z M117.8,37.6
		c-1-0.8-2.1-1.6-3.3-2.2l0.5-0.9c1.2,0.7,2.3,1.5,3.3,2.3L117.8,37.6z M80.6,34.7l-0.5-0.9c1.2-0.7,2.4-1.2,3.7-1.7l0.4,0.9
		C83,33.5,81.8,34.1,80.6,34.7z M112.8,34.4c-1.2-0.6-2.4-1.2-3.6-1.6l0.4-0.9c1.3,0.5,2.5,1,3.7,1.7L112.8,34.4z M86,32.3l-0.3-0.9
		c1.3-0.4,2.6-0.8,3.9-1.1l0.2,1C88.5,31.5,87.3,31.9,86,32.3z M107.3,32.1c-1.3-0.4-2.5-0.7-3.8-1l0.2-1c1.3,0.3,2.6,0.6,3.9,1
		L107.3,32.1z M91.8,30.9l-0.2-1c1.3-0.2,2.7-0.3,4-0.4v1C94.4,30.6,93.1,30.7,91.8,30.9z M101.6,30.8c-1.3-0.2-2.6-0.3-3.9-0.3v-1
		c1.3,0,2.7,0.1,4,0.3L101.6,30.8z"/>
</g>
<g>
	<rect x="42.5" y="60" class="st7" width="1" height="3"/>
</g>
<g>
	<rect x="101.5" y="60" class="st7" width="1" height="3"/>
</g>
<g>
	<rect x="42.5" y="83" class="st7" width="1" height="3"/>
</g>
<g>
	<rect x="101.5" y="83" class="st7" width="1" height="3"/>
</g>
<g class="st8">
	<path class="st7" d="M102.5,62.5h-60v-3h60V62.5z M43.5,61.5h58v-1h-58V61.5z"/>
</g>
<g class="st8">
	<path class="st7" d="M102.5,84.5h-60v-3h60V84.5z M43.5,83.5h58v-1h-58V83.5z"/>
</g>
<g>
	<path class="st6" d="M38,85h68c1.1,0,2,0.9,2,2v16c0,1.1-0.9,2-2,2H38c-1.1,0-2-0.9-2-2V87C36,85.9,36.9,85,38,85z"/>
	<path class="st3" d="M106,105.5H38c-1.4,0-2.5-1.1-2.5-2.5V87c0-1.4,1.1-2.5,2.5-2.5h68c1.4,0,2.5,1.1,2.5,2.5v16
		C108.5,104.4,107.4,105.5,106,105.5z M38,85.5c-0.8,0-1.5,0.7-1.5,1.5v16c0,0.8,0.7,1.5,1.5,1.5h68c0.8,0,1.5-0.7,1.5-1.5V87
		c0-0.8-0.7-1.5-1.5-1.5H38z"/>
</g>
<g>
	<path class="st6" d="M38,63h68c1.1,0,2,0.9,2,2v16c0,1.1-0.9,2-2,2H38c-1.1,0-2-0.9-2-2V65C36,63.9,36.9,63,38,63z"/>
	<path class="st3" d="M106,83.5H38c-1.4,0-2.5-1.1-2.5-2.5V65c0-1.4,1.1-2.5,2.5-2.5h68c1.4,0,2.5,1.1,2.5,2.5v16
		C108.5,82.4,107.4,83.5,106,83.5z M38,63.5c-0.8,0-1.5,0.7-1.5,1.5v16c0,0.8,0.7,1.5,1.5,1.5h68c0.8,0,1.5-0.7,1.5-1.5V65
		c0-0.8-0.7-1.5-1.5-1.5H38z"/>
</g>
<g>
	<path class="st6" d="M38,41h68c1.1,0,2,0.9,2,2v16c0,1.1-0.9,2-2,2H38c-1.1,0-2-0.9-2-2V43C36,41.9,36.9,41,38,41z"/>
	<path class="st3" d="M106,61.5H38c-1.4,0-2.5-1.1-2.5-2.5V43c0-1.4,1.1-2.5,2.5-2.5h68c1.4,0,2.5,1.1,2.5,2.5v16
		C108.5,60.4,107.4,61.5,106,61.5z M38,41.5c-0.8,0-1.5,0.7-1.5,1.5v16c0,0.8,0.7,1.5,1.5,1.5h68c0.8,0,1.5-0.7,1.5-1.5V43
		c0-0.8-0.7-1.5-1.5-1.5H38z"/>
</g>
<g class="st9">
	<path class="st6" d="M55,51h40"/>
	<path class="st5" d="M95,51.5h-4v-1h4V51.5z M89,51.5h-4v-1h4V51.5z M83,51.5h-4v-1h4V51.5z M77,51.5h-4v-1h4V51.5z M71,51.5h-4v-1
		h4V51.5z M65,51.5h-4v-1h4V51.5z M59,51.5h-4v-1h4V51.5z"/>
</g>
<g class="st9">
	<path class="st6" d="M55,73h40"/>
	<path class="st5" d="M95,73.5h-4v-1h4V73.5z M89,73.5h-4v-1h4V73.5z M83,73.5h-4v-1h4V73.5z M77,73.5h-4v-1h4V73.5z M71,73.5h-4v-1
		h4V73.5z M65,73.5h-4v-1h4V73.5z M59,73.5h-4v-1h4V73.5z"/>
</g>
<g class="st9">
	<path class="st6" d="M55,95h40"/>
	<path class="st5" d="M95,95.5h-4v-1h4V95.5z M89,95.5h-4v-1h4V95.5z M83,95.5h-4v-1h4V95.5z M77,95.5h-4v-1h4V95.5z M71,95.5h-4v-1
		h4V95.5z M65,95.5h-4v-1h4V95.5z M59,95.5h-4v-1h4V95.5z"/>
</g>
<g class="st10">
	<rect x="45" y="48" class="st7" width="6" height="6"/>
</g>
<g class="st10">
	<rect x="45" y="70" class="st7" width="6" height="6"/>
</g>
<g class="st10">
	<rect x="45" y="92" class="st7" width="6" height="6"/>
</g>
<g class="st11">
	<path class="st3" d="M1.9,70.5h-1c0-19,15.4-34.5,34.3-34.5c1.3,0,2.6,0.1,3.9,0.2C43.9,16.6,61.1,3,81.1,3
		c14.6,0,28,7.3,36.1,19.5l-0.8,0.5c-7.9-11.9-21-19-35.3-19C61.4,4,44.5,17.5,40,36.9l-0.1,0.4l-0.4-0.1C38,37.1,36.6,37,35.2,37
		C16.8,37,1.9,52,1.9,70.5z"/>
</g>
</svg>
