<?xml version="1.0" encoding="utf-8"?>
<!-- Generator: Adobe Illustrator 21.0.0, SVG Export Plug-In . SVG Version: 6.00 Build 0)  -->
<svg version="1.1" id="图层_1" xmlns="http://www.w3.org/2000/svg" xmlns:xlink="http://www.w3.org/1999/xlink" x="0px" y="0px"
	 viewBox="0 0 171 108" style="enable-background:new 0 0 171 108;" xml:space="preserve">
<style type="text/css">
	.st0{fill:#EEF2FA;}
	.st1{fill:#A1B6D1;}
	.st2{fill:#FFFFFF;}
	.st3{fill:#B1D0E8;}
	.st4{opacity:0.39;enable-background:new    ;}
	.st5{opacity:0.12;enable-background:new    ;}
	.st6{opacity:0.38;enable-background:new    ;}
	.st7{opacity:0.18;enable-background:new    ;}
	.st8{fill:#F1F5FB;}
	.st9{opacity:0.7;enable-background:new    ;}
	.st10{opacity:0.3;enable-background:new    ;}
	.st11{fill:#B5C7DF;}
	.st12{fill:#D9E3F2;}
	.st13{opacity:0.24;enable-background:new    ;}
	.st14{fill:#C4CEDE;}
	.st15{opacity:0.9;enable-background:new    ;}
	.st16{fill:#F4F7FC;}
	.st17{opacity:0.59;enable-background:new    ;}
	.st18{fill:#D7E0EC;}
	.st19{fill:#F6F9FC;}
</style>
<g>
	<circle class="st0" cx="113.5" cy="28.7" r="3.5"/>
	<path class="st1" d="M113.5,32.7c-2.2,0-4-1.8-4-4s1.8-4,4-4s4,1.8,4,4S115.7,32.7,113.5,32.7z M113.5,25.7c-1.7,0-3,1.3-3,3
		s1.3,3,3,3s3-1.3,3-3S115.2,25.7,113.5,25.7z"/>
</g>
<g>
	<circle class="st0" cx="77.5" cy="42.7" r="3.5"/>
	<path class="st1" d="M77.5,46.7c-2.2,0-4-1.8-4-4s1.8-4,4-4s4,1.8,4,4S79.7,46.7,77.5,46.7z M77.5,39.7c-1.7,0-3,1.3-3,3s1.3,3,3,3
		s3-1.3,3-3S79.2,39.7,77.5,39.7z"/>
</g>
<g>
	<path class="st2" d="M53,12.2h91c1.7,0,3,1.3,3,3v69c0,1.7-1.3,3-3,3H53c-1.7,0-3-1.3-3-3v-69C50,13.6,51.3,12.2,53,12.2z"/>
	<path class="st3" d="M144,87.7H53c-1.9,0-3.5-1.6-3.5-3.5v-69c0-1.9,1.6-3.5,3.5-3.5h91c1.9,0,3.5,1.6,3.5,3.5v69
		C147.5,86.2,145.9,87.7,144,87.7z M53,12.7c-1.4,0-2.5,1.1-2.5,2.5v69c0,1.4,1.1,2.5,2.5,2.5h91c1.4,0,2.5-1.1,2.5-2.5v-69
		c0-1.4-1.1-2.5-2.5-2.5C144,12.7,53,12.7,53,12.7z"/>
</g>
<g class="st4">
	<path class="st2" d="M58.2,23.1h80.5c0.5,0,0.9,0.4,0.9,1v52.6c0,0.5-0.4,1-0.9,1H58.2c-0.5,0-0.9-0.4-0.9-1V24
		C57.3,23.5,57.7,23.1,58.2,23.1z"/>
	<path class="st3" d="M138.8,78H58.2c-0.8,0-1.4-0.7-1.4-1.5V24c0-0.8,0.6-1.5,1.4-1.5h80.5c0.8,0,1.4,0.7,1.4,1.5v52.6
		C140.2,77.4,139.5,78,138.8,78z M58.2,23.6c-0.2,0-0.4,0.2-0.4,0.5v52.6c0,0.2,0.2,0.5,0.4,0.5h80.5c0.2,0,0.4-0.2,0.4-0.5V24
		c0-0.2-0.2-0.5-0.4-0.5H58.2V23.6z"/>
</g>
<path class="st2" d="M37.3,86.2h120.5c1.3,0,2.3,1.1,2.3,2.4l-4.6,10.2c0,1.3-1,2.4-2.3,2.4H41.8c-1.3,0-2.3-1.1-2.3-2.4L35,88.6
	C35,87.3,36,86.2,37.3,86.2z"/>
<g class="st5">
	<path class="st3" d="M72,30h67.7v47.1H72V30z"/>
</g>
<g class="st6">
	<circle class="st3" cx="134.5" cy="34.7" r="1.5"/>
</g>
<g class="st6">
	<circle class="st3" cx="128.5" cy="34.7" r="1.5"/>
</g>
<g class="st6">
	<circle class="st3" cx="121.5" cy="34.7" r="1.5"/>
</g>
<g class="st7">
	<rect x="72" y="37.7" class="st1" width="66" height="1"/>
</g>
<g>
	<path class="st8" d="M38.2,95.2l2,6h114.6l2-6H38.2z"/>
</g>
<g class="st9">
	<path class="st3" d="M10.2,61.5L0,55.7l17-9.2L10.2,61.5z M2,55.7l7.7,4.4l5.1-11.3L2,55.7z"/>
</g>
<g class="st10">
	<path class="st11" d="M11,51.7L3,61.8l8,2V51.7z"/>
</g>
<g>
	<path class="st2" d="M56,35.4l4.2,4c0.9,0.8,0.9,2.2,0,3l-39,40.2c-1.7,1.7-4.4,1.8-6.1,0.1l-1.1-1c-1.7-1.7-1.8-4.4-0.1-6.1
		l39-40.2C53.8,34.6,55.1,34.6,56,35.4z"/>
	<path class="st3" d="M18.1,84.5c-1.2,0-2.4-0.5-3.4-1.4l-1.1-1c-0.9-0.9-1.4-2.1-1.5-3.4c0-1.3,0.5-2.5,1.4-3.4l39-40.2
		c1-1.1,2.7-1.1,3.8-0.1l4.2,4c0.5,0.5,0.8,1.2,0.8,1.9s-0.3,1.4-0.7,1.9L21.5,83C20.6,84,19.3,84.5,18.1,84.5z M54.5,35.3
		c-0.4,0-0.9,0.2-1.2,0.5L14.3,76c-0.7,0.7-1.1,1.7-1.1,2.7s0.4,2,1.2,2.7l1.1,1c1.5,1.5,3.9,1.4,5.4-0.1l39-40.2
		c0.3-0.3,0.5-0.7,0.5-1.2s-0.2-0.9-0.5-1.2l-4.2-4C55.3,35.5,54.9,35.3,54.5,35.3z"/>
</g>
<g class="st10">
	<path class="st12" d="M156.5,19.4l13.7-5L169,25.7L156.5,19.4z"/>
</g>
<g class="st9">
	<path class="st3" d="M167,23.7l-16.8-1.4l15.4-12.6L167,23.7z M152.8,21.5l13.1,1.1l-1.1-10.9L152.8,21.5z"/>
</g>
<g class="st13">
	<circle class="st14" cx="59.6" cy="36.9" r="28.6"/>
</g>
<g>
	<path class="st2" d="M30.5,101.2H10.6"/>
	<rect x="10.6" y="100.7" class="st3" width="19.9" height="1"/>
</g>
<g class="st10">
	<path class="st12" d="M70.2,20.9l3.3,3.3c0.7,0.7,0.7,1.8,0,2.5L42.3,59.3c-1.3,1.4-4.2,1.2-5.6-0.2l0,0c-1.4-1.3-1.6-4.2-0.3-5.5
		L67.8,21C68.4,20.3,69.5,20.3,70.2,20.9z"/>
</g>
<g>
	<path class="st2" d="M160,101.2h-6.4"/>
	<rect x="153.6" y="100.7" class="st3" width="6.4" height="1"/>
</g>
<g>
	<path class="st2" d="M151,101.2H35.6"/>
	<rect x="35.6" y="100.7" class="st3" width="115.4" height="1"/>
</g>
<g>
	<circle class="st2" cx="56.5" cy="34.8" r="28"/>
	<path class="st3" d="M56.5,63.3C40.8,63.3,28,50.5,28,34.8S40.8,6.3,56.5,6.3S85,19,85,34.8S72.2,63.3,56.5,63.3z M56.5,7.3
		C41.3,7.3,29,19.6,29,34.8s12.3,27.5,27.5,27.5S84,49.9,84,34.8S71.6,7.3,56.5,7.3z"/>
</g>
<g class="st15">
	<ellipse class="st16" cx="55.9" cy="34.2" rx="22" ry="22.1"/>
	<path class="st3" d="M55.9,56.8c-0.3,0-0.5,0-0.8,0v-1c1.3,0,2.6,0,3.9-0.2l0.1,1C58.2,56.7,57,56.8,55.9,56.8z M53.1,56.6
		c-1.4-0.2-2.7-0.5-4-0.9l0.3-1c1.2,0.4,2.5,0.7,3.8,0.8L53.1,56.6z M61.2,56.1l-0.2-1c1.3-0.3,2.5-0.7,3.7-1.3l0.4,0.9
		C63.9,55.4,62.6,55.8,61.2,56.1z M47.2,55c-1.3-0.5-2.5-1.2-3.6-1.9l0.5-0.8c1.1,0.7,2.2,1.3,3.4,1.8L47.2,55z M66.9,53.9L66.4,53
		c1.1-0.6,2.2-1.4,3.2-2.2l0.6,0.8C69.3,52.5,68.1,53.2,66.9,53.9z M42,51.9c-1.1-0.8-2.1-1.8-3-2.8l0.8-0.7c0.9,1,1.8,1.9,2.8,2.7
		L42,51.9z M71.8,50.2l-0.7-0.7c0.9-0.9,1.8-1.9,2.5-3l0.8,0.6C73.7,48.2,72.8,49.2,71.8,50.2z M37.7,47.5c-0.8-1.1-1.5-2.3-2.1-3.5
		l0.9-0.4c0.6,1.2,1.2,2.3,2,3.4L37.7,47.5z M75.5,45.3l-0.9-0.5c0.6-1.1,1.2-2.3,1.6-3.6l0.9,0.3C76.8,42.9,76.2,44.2,75.5,45.3z
		 M34.8,42.1c-0.5-1.3-0.8-2.6-1.1-3.9l1-0.2c0.2,1.3,0.6,2.5,1,3.8L34.8,42.1z M77.8,39.7l-1-0.2c0.3-1.3,0.5-2.6,0.6-3.9l1,0.1
		C78.3,37,78.1,38.3,77.8,39.7z M33.5,36.1c-0.1-0.6-0.1-1.3-0.1-1.9c0-0.7,0-1.5,0.1-2.2l1,0.1c-0.1,0.7-0.1,1.4-0.1,2.1
		c0,0.6,0,1.2,0.1,1.8L33.5,36.1z M77.4,33.6c0-1.3-0.2-2.6-0.5-3.9l1-0.2c0.3,1.3,0.4,2.7,0.5,4.1H77.4z M34.8,30.2l-1-0.2
		c0.3-1.3,0.6-2.7,1.1-3.9l0.9,0.4C35.4,27.6,35.1,28.9,34.8,30.2z M76.5,27.8c-0.4-1.2-0.9-2.5-1.5-3.6l0.9-0.5
		c0.6,1.2,1.2,2.5,1.6,3.8L76.5,27.8z M36.7,24.6l-0.9-0.4c0.6-1.2,1.3-2.4,2.1-3.5l0.8,0.6C37.9,22.4,37.2,23.5,36.7,24.6z
		 M74,22.5c-0.7-1.1-1.5-2.1-2.4-3.1l0.7-0.7c0.9,1,1.8,2.1,2.5,3.2L74,22.5z M39.9,19.8l-0.7-0.7c0.9-1,1.9-2,3-2.8l0.6,0.8
		C41.8,17.9,40.8,18.8,39.9,19.8z M70.2,18.1c-1-0.9-2-1.6-3.1-2.3l0.5-0.9c1.2,0.7,2.3,1.5,3.3,2.4L70.2,18.1z M44.4,16l-0.5-0.8
		c1.1-0.7,2.4-1.4,3.6-1.9l0.4,0.9C46.7,14.7,45.5,15.3,44.4,16z M65.4,14.8c-1.2-0.6-2.4-1-3.6-1.4l0.3-1c1.3,0.4,2.6,0.9,3.8,1.5
		L65.4,14.8z M49.7,13.6l-0.3-1c1.3-0.4,2.6-0.7,4-0.8l0.1,1C52.2,12.9,50.9,13.2,49.7,13.6z M59.8,13c-1.4-0.3-2.9-0.4-4.4-0.3v-1
		c1.5,0,3.1,0.1,4.6,0.4L59.8,13z"/>
</g>
<g class="st10">
	<path class="st12" d="M34.8,40.3c-0.6-1.9-0.9-4-0.9-6.1c0-12.2,9.8-22.1,22-22.1c6.8,0,12.9,3.1,16.9,8L34.8,40.3z"/>
</g>
<g class="st17">
	<path class="st18" d="M125.8,54.6c-2,3.5-5.9,5.2-9.7,4.5l-4,6.9l2.1,1.2l-2.5,4.3l-2.1-1.2l-2.5,4.3l-6.1,0.7L111.6,57
		c-3.2-2.9-4.1-7.7-1.9-11.6c2.6-4.4,8.2-5.9,12.6-3.4C126.8,44.5,128.3,50.2,125.8,54.6z M120.8,45.6c-1.2-0.7-2.7-0.3-3.4,0.9
		c-0.7,1.2-0.3,2.7,0.9,3.4c1.2,0.7,2.7,0.3,3.4-0.9C122.4,47.8,122,46.3,120.8,45.6z"/>
</g>
<g>
	<path class="st19" d="M113.6,51.5c-2.2,3.8-6.6,5.7-10.8,4.9L98.4,64l2.4,1.4L98,70.1l-2.4-1.4l-2.8,4.7L86,74.2L97.8,54
		c-3.6-3.1-4.6-8.5-2.1-12.7c2.9-4.9,9.2-6.5,14.1-3.7C114.8,40.4,116.5,46.6,113.6,51.5z M107.3,42c-1.1-0.6-2.4-0.2-3.1,0.8
		c-0.6,1.1-0.3,2.4,0.8,3c1.1,0.6,2.4,0.2,3.1-0.8C108.7,44,108.3,42.6,107.3,42z"/>
	<path class="st3" d="M85.1,74.8l12.1-20.7c-3.6-3.4-4.4-8.8-1.9-13.1c3-5.1,9.6-6.9,14.8-3.9c2.5,1.4,4.3,3.8,5.1,6.5
		c0.7,2.7,0.3,5.6-1.1,8.1c-2.2,3.8-6.6,5.9-11,5.2l-4,6.8l2.4,1.4l-3.3,5.6l-2.4-1.4l-2.6,4.5L85.1,74.8z M104.7,36.7
		c-3.4,0-6.7,1.7-8.5,4.8c-2.3,4-1.5,9.1,2,12.1l0.3,0.3L87,73.6l5.6-0.7l2.9-4.9l2.4,1.4l2.2-3.8l-2.4-1.4l4.9-8.3l0.3,0.1
		c4.1,0.8,8.2-1.1,10.3-4.7l0,0c1.3-2.2,1.7-4.8,1-7.3s-2.3-4.6-4.6-5.9C108.1,37.2,106.4,36.7,104.7,36.7z M106.1,46.7
		c-0.5,0-0.9-0.1-1.4-0.4c-0.6-0.4-1.1-1-1.3-1.7c-0.2-0.7-0.1-1.4,0.3-2c0.8-1.3,2.4-1.7,3.7-1l0,0c0.6,0.4,1.1,1,1.3,1.7
		c0.2,0.7,0.1,1.4-0.3,2C108,46.2,107.1,46.7,106.1,46.7z M106.2,42.2c-0.6,0-1.2,0.3-1.5,0.9c-0.2,0.4-0.3,0.8-0.2,1.3
		c0.1,0.4,0.4,0.8,0.8,1c0.8,0.5,1.9,0.2,2.4-0.6c0.2-0.4,0.3-0.8,0.2-1.3c-0.1-0.4-0.4-0.8-0.8-1C106.7,42.3,106.4,42.2,106.2,42.2
		z"/>
</g>
<g>
	<rect x="163" y="100.7" class="st3" width="8" height="1"/>
</g>
<path class="st3" d="M153.2,101.7H41.8c-1.5,0-2.7-1.2-2.8-2.8l-4.6-10.3c0-1.6,1.2-2.9,2.8-2.9h120.4c1.5,0,2.8,1.3,2.8,2.9v0.2
	L155.9,99C155.9,100.5,154.7,101.7,153.2,101.7z M35.5,88.5L40,98.8c0,1,0.8,1.9,1.8,1.9h111.3c1,0,1.8-0.9,1.8-1.9v-0.2l4.5-10.1
	c0-1-0.8-1.8-1.8-1.8H37.3C36.3,86.7,35.6,87.5,35.5,88.5z"/>
</svg>
