<?xml version="1.0" encoding="utf-8"?>
<!-- Generator: Adobe Illustrator 19.0.0, SVG Export Plug-In . SVG Version: 6.00 Build 0)  -->
<svg version="1.1" id="图层_2" xmlns="http://www.w3.org/2000/svg" xmlns:xlink="http://www.w3.org/1999/xlink" x="0px" y="0px"
	 viewBox="-7 465 171 108" style="enable-background:new -7 465 171 108;" xml:space="preserve">
<style type="text/css">
	.st0{opacity:0.3;enable-background:new    ;}
	.st1{fill:#D9E3F2;}
	.st2{opacity:0.7;enable-background:new    ;}
	.st3{fill:#B1D0E8;}
	.st4{fill:#FFFFFF;}
	.st5{opacity:0.68;enable-background:new    ;}
	.st6{opacity:0.12;}
	.st7{fill:#B5C7DF;}
	.st8{opacity:0.24;enable-background:new    ;}
	.st9{fill:#C4CEDE;}
	.st10{opacity:0.9;enable-background:new    ;}
	.st11{fill:#F4F7FC;}
	.st12{opacity:0.28;enable-background:new    ;}
</style>
<g id="XMLID_492_" class="st0">
	<g id="XMLID_493_">
		<g id="XMLID_454_">
			<g>
				<path class="st1" d="M147.5,484.7l13.7-5l-1.2,11.2L147.5,484.7z"/>
			</g>
		</g>
	</g>
</g>
<g id="XMLID_486_" class="st2">
	<g id="XMLID_487_">
		<g id="XMLID_453_">
			<g>
				<path class="st3" d="M158,489l-16.8-1.4l15.4-12.6L158,489z M143.8,486.8l13.1,1.1l-1.1-10.9L143.8,486.8z"/>
			</g>
		</g>
	</g>
</g>
<g id="XMLID_477_">
	<g id="XMLID_479_">
		<g id="XMLID_450_">
			<g>
				<path class="st4" d="M22.6,571.5H4.7"/>
			</g>
		</g>
	</g>
	<g id="XMLID_478_">
		<g id="XMLID_444_">
			<g>
				<rect x="4.7" y="571" class="st3" width="17.9" height="1"/>
			</g>
		</g>
	</g>
</g>
<g id="XMLID_474_">
	<g id="XMLID_476_">
		<g id="XMLID_443_">
			<g>
				<path class="st4" d="M154.1,571.5h-6.4"/>
			</g>
		</g>
	</g>
	<g id="XMLID_475_">
		<g id="XMLID_442_">
			<g>
				<rect x="147.7" y="571" class="st3" width="6.4" height="1"/>
			</g>
		</g>
	</g>
</g>
<g id="XMLID_179_">
	<g id="XMLID_181_">
		<g id="XMLID_441_">
			<g>
				<path class="st4" d="M145.1,571.5H27.7"/>
			</g>
		</g>
	</g>
	<g id="XMLID_180_">
		<g id="XMLID_390_">
			<g>
				<rect x="27.7" y="571" class="st3" width="117.4" height="1"/>
			</g>
		</g>
	</g>
</g>
<g id="XMLID_160_">
	<g id="XMLID_34_">
		<path class="st4" d="M127.2,528.3v41.3c0,1.1-0.9,2-2,2H55.5c-1.1,0-2-0.9-2-2v-90.3c0-1.1,0.9-2,2-2h58.1l13.5,12.8v23"/>
	</g>
</g>
<g id="XMLID_191_">
	<g id="XMLID_35_">
		<path class="st3" d="M125.2,572.2H55.5c-1.4,0-2.5-1.1-2.5-2.5v-90.3c0-1.4,1.1-2.5,2.5-2.5h58.1c0.1,0,0.3,0,0.3,0.1l13.5,12.8
			c0.1,0.1,0.2,0.2,0.2,0.4v9.8c0,0.3-0.2,0.5-0.5,0.5s-0.5-0.2-0.5-0.5v-9.5l-13.2-12.5H55.5c-0.8,0-1.5,0.7-1.5,1.5v90.3
			c0,0.8,0.7,1.5,1.5,1.5h69.7c0.8,0,1.5-0.7,1.5-1.5v-28.3c0-0.3,0.2-0.5,0.5-0.5s0.5,0.2,0.5,0.5v28.3
			C127.7,571,126.5,572.2,125.2,572.2z"/>
	</g>
</g>
<g id="XMLID_10_" class="st5">
	<g id="XMLID_11_">
		<g id="XMLID_28_">
			<path class="st3" d="M125.3,491.6h-9.9c-2.8,0-3.1-1.4-3.1-2.8v-9h1.1v9c0,1.1,0,1.7,1.9,1.7h9.9V491.6z"/>
		</g>
	</g>
</g>
<g id="XMLID_162_">
	<g id="XMLID_18_">
		<circle class="st4" cx="104.3" cy="521.8" r="17.4"/>
	</g>
</g>
<g id="XMLID_1_">
	<g id="XMLID_9_">
		<path id="XMLID_98_" class="st3" d="M104.3,539.7c-9.9,0-17.9-8-17.9-17.9s8-17.9,17.9-17.9c4.6,0,9,1.8,12.4,4.9
			c0.2,0.2,0.2,0.5,0,0.7c-0.2,0.2-0.5,0.2-0.7,0c-3.2-3-7.3-4.7-11.7-4.7c-9.3,0-16.9,7.6-16.9,16.9c0,9.3,7.6,16.9,16.9,16.9
			c4.5,0,8.8-1.8,12-5c0.2-0.2,0.5-0.2,0.7,0s0.2,0.5,0,0.7C113.6,537.8,109.1,539.7,104.3,539.7z"/>
	</g>
</g>
<g id="XMLID_165_">
	<g id="XMLID_56_">
		<path id="XMLID_40_" class="st3" d="M103.3,545.8C103.3,545.8,103.3,545.8,103.3,545.8c-1,0-2.1-0.2-3.1-0.3
			c-0.3,0-0.5-0.3-0.4-0.6s0.3-0.5,0.6-0.4c1,0.2,1.9,0.3,2.9,0.3c0.3,0,0.5,0.2,0.5,0.5C103.8,545.6,103.6,545.8,103.3,545.8z
			 M98.4,545.1c0,0-0.1,0-0.1,0c-1-0.3-2-0.6-2.9-1c-0.3-0.1-0.4-0.4-0.3-0.7c0.1-0.3,0.4-0.4,0.7-0.3c0.9,0.4,1.8,0.7,2.8,0.9
			c0.3,0.1,0.4,0.3,0.4,0.6C98.8,544.9,98.6,545.1,98.4,545.1z M93.7,543.3c-0.1,0-0.2,0-0.2-0.1c-0.9-0.5-1.8-1-2.6-1.6
			c-0.2-0.2-0.3-0.5-0.1-0.7c0.2-0.2,0.5-0.3,0.7-0.1c0.8,0.5,1.7,1.1,2.5,1.5c0.2,0.1,0.3,0.4,0.2,0.7
			C94.1,543.2,93.9,543.3,93.7,543.3z M89.5,540.6c-0.1,0-0.2,0-0.3-0.1c-0.8-0.6-1.5-1.3-2.3-2.1c-0.2-0.2-0.2-0.5,0-0.7
			c0.2-0.2,0.5-0.2,0.7,0c0.7,0.7,1.4,1.4,2.2,2c0.2,0.2,0.2,0.5,0.1,0.7C89.8,540.5,89.7,540.6,89.5,540.6z M86,537
			c-0.1,0-0.3-0.1-0.4-0.2c-0.6-0.8-1.2-1.6-1.8-2.5c-0.1-0.2-0.1-0.5,0.2-0.7c0.2-0.1,0.5-0.1,0.7,0.2c0.5,0.8,1.1,1.6,1.7,2.4
			c0.2,0.2,0.1,0.5-0.1,0.7C86.2,537,86.1,537,86,537z M83.3,532.9c-0.2,0-0.4-0.1-0.4-0.3c-0.5-0.9-0.9-1.9-1.2-2.8
			c-0.1-0.3,0-0.5,0.3-0.6c0.3-0.1,0.5,0,0.6,0.3c0.3,0.9,0.7,1.8,1.2,2.7c0.1,0.2,0,0.5-0.2,0.7C83.5,532.8,83.4,532.9,83.3,532.9z
			 M81.5,528.2c-0.2,0-0.4-0.1-0.5-0.4c-0.3-1-0.4-2-0.6-3c0-0.3,0.2-0.5,0.4-0.6c0.3,0,0.5,0.2,0.6,0.4c0.1,1,0.3,1.9,0.6,2.9
			c0.1,0.3-0.1,0.5-0.4,0.6C81.6,528.2,81.6,528.2,81.5,528.2z M80.8,523.3c-0.3,0-0.5-0.2-0.5-0.5c0-0.3,0-0.7,0-1
			c0-0.7,0-1.4,0.1-2.1c0-0.3,0.3-0.5,0.5-0.5c0.3,0,0.5,0.3,0.5,0.5c-0.1,0.7-0.1,1.3-0.1,2c0,0.3,0,0.6,0,1
			C81.3,523,81.1,523.2,80.8,523.3C80.8,523.3,80.8,523.3,80.8,523.3z M81.1,518.3C81.1,518.3,81.1,518.3,81.1,518.3
			c-0.4-0.1-0.5-0.3-0.5-0.6c0.2-1,0.4-2,0.7-3c0.1-0.3,0.4-0.4,0.6-0.3c0.3,0.1,0.4,0.4,0.3,0.6c-0.3,0.9-0.5,1.9-0.7,2.9
			C81.6,518.1,81.4,518.3,81.1,518.3z M82.5,513.5c-0.1,0-0.1,0-0.2,0c-0.3-0.1-0.4-0.4-0.3-0.7c0.4-0.9,0.8-1.9,1.3-2.8
			c0.1-0.2,0.4-0.3,0.7-0.2c0.2,0.1,0.3,0.4,0.2,0.7c-0.5,0.9-0.9,1.7-1.3,2.6C82.9,513.4,82.7,513.5,82.5,513.5z M84.8,509.1
			c-0.1,0-0.2,0-0.3-0.1c-0.2-0.2-0.3-0.5-0.1-0.7c0.6-0.8,1.2-1.7,1.9-2.4c0.2-0.2,0.5-0.2,0.7,0c0.2,0.2,0.2,0.5,0,0.7
			c-0.6,0.7-1.3,1.5-1.8,2.3C85.2,509,85,509.1,84.8,509.1z M88.1,505.3c-0.1,0-0.3-0.1-0.4-0.2c-0.2-0.2-0.2-0.5,0-0.7
			c0.7-0.7,1.5-1.4,2.3-2c0.2-0.2,0.5-0.1,0.7,0.1c0.2,0.2,0.1,0.5-0.1,0.7c-0.8,0.6-1.5,1.2-2.2,1.9
			C88.3,505.2,88.2,505.3,88.1,505.3z M92,502.2c-0.2,0-0.3-0.1-0.4-0.2c-0.1-0.2-0.1-0.5,0.2-0.7c0.9-0.5,1.8-1,2.7-1.4
			c0.3-0.1,0.5,0,0.7,0.2s0,0.5-0.2,0.7c-0.9,0.4-1.8,0.9-2.6,1.4C92.2,502.2,92.1,502.2,92,502.2z M96.5,500.1
			c-0.2,0-0.4-0.1-0.5-0.3c-0.1-0.3,0-0.5,0.3-0.6c1-0.3,2-0.6,2.9-0.8c0.3-0.1,0.5,0.1,0.6,0.4c0.1,0.3-0.1,0.5-0.4,0.6
			c-1,0.2-1.9,0.5-2.8,0.8C96.6,500,96.6,500.1,96.5,500.1z M101.4,498.9c-0.2,0-0.5-0.2-0.5-0.4c0-0.3,0.2-0.5,0.4-0.6
			c1-0.1,2-0.2,3.1-0.2c0.3,0,0.5,0.2,0.5,0.5s-0.2,0.5-0.5,0.5C103.4,498.7,102.4,498.8,101.4,498.9
			C101.4,498.9,101.4,498.9,101.4,498.9z"/>
	</g>
</g>
<g id="XMLID_163_" class="st6">
	<g id="XMLID_3_">
		<circle class="st3" cx="104.2" cy="521.9" r="6.2"/>
	</g>
</g>
<g id="XMLID_184_">
	<g id="XMLID_25_">
		<path class="st3" d="M104.2,528.5c-3.7,0-6.7-3-6.7-6.7s3-6.7,6.7-6.7s6.7,3,6.7,6.7S107.9,528.5,104.2,528.5z M104.2,516.2
			c-3.1,0-5.7,2.5-5.7,5.7c0,3.1,2.5,5.7,5.7,5.7c3.1,0,5.7-2.5,5.7-5.7C109.9,518.7,107.3,516.2,104.2,516.2z"/>
	</g>
</g>
<g id="XMLID_167_">
	<g id="XMLID_22_">
		<path class="st3" d="M135.3,510.9c-2.9,0-5.3-2.4-5.3-5.3s2.4-5.3,5.3-5.3c2.9,0,5.3,2.4,5.3,5.3S138.2,510.9,135.3,510.9z
			 M135.3,501.4c-2.4,0-4.3,1.9-4.3,4.3c0,2.4,1.9,4.3,4.3,4.3s4.3-1.9,4.3-4.3C139.5,503.3,137.6,501.4,135.3,501.4z"/>
	</g>
</g>
<g id="XMLID_20_">
	<g id="XMLID_21_">
		<path class="st3" d="M135.3,542.9c-2.9,0-5.3-2.4-5.3-5.3s2.4-5.3,5.3-5.3c2.9,0,5.3,2.4,5.3,5.3S138.2,542.9,135.3,542.9z
			 M135.3,533.4c-2.4,0-4.3,1.9-4.3,4.3c0,2.4,1.9,4.3,4.3,4.3s4.3-1.9,4.3-4.3C139.5,535.3,137.6,533.4,135.3,533.4z"/>
	</g>
</g>
<g id="XMLID_178_">
	<g id="XMLID_6_">
		<path class="st3" d="M105.4,490.1H59.5c-0.3,0-0.5-0.2-0.5-0.5s0.2-0.5,0.5-0.5h45.9c0.3,0,0.5,0.2,0.5,0.5
			S105.7,490.1,105.4,490.1z"/>
	</g>
</g>
<g id="XMLID_170_">
	<g id="XMLID_13_">
		<circle class="st3" cx="61.1" cy="483.4" r="1.1"/>
	</g>
</g>
<g id="XMLID_182_">
	<g id="XMLID_38_">
		<circle class="st3" cx="67.1" cy="483.4" r="1.1"/>
	</g>
</g>
<g id="XMLID_183_">
	<g id="XMLID_39_">
		<circle class="st3" cx="73.1" cy="483.4" r="1.1"/>
	</g>
</g>
<g id="XMLID_172_">
	<g id="XMLID_44_">
		<path class="st3" d="M109.8,519.2c-0.2,0-0.3-0.1-0.4-0.3c-0.1-0.2,0-0.5,0.2-0.7l20.8-11.4c0.2-0.1,0.5,0,0.7,0.2
			c0.1,0.2,0,0.5-0.2,0.7L110,519.2C109.9,519.2,109.8,519.2,109.8,519.2z"/>
	</g>
</g>
<g id="XMLID_17_">
	<g id="XMLID_45_">
		<path class="st3" d="M130.3,537.6c0.2,0,0.3-0.1,0.4-0.3c0.1-0.2,0-0.5-0.2-0.7l-20.8-11.4c-0.2-0.1-0.5,0-0.7,0.2
			c-0.1,0.2,0,0.5,0.2,0.7l20.8,11.4C130.1,537.6,130.2,537.6,130.3,537.6z"/>
	</g>
</g>
<g id="XMLID_308_" class="st2">
	<g id="XMLID_309_">
		<g id="XMLID_434_">
			<g id="XMLID_354_">
				<path class="st3" d="M15.5,522.8L5.3,517l17-9.2L15.5,522.8z M7.3,517l7.7,4.4l5.1-11.3L7.3,517z"/>
			</g>
		</g>
	</g>
</g>
<g id="XMLID_306_" class="st0">
	<g id="XMLID_307_">
		<g id="XMLID_433_">
			<g id="XMLID_350_">
				<path class="st7" d="M16.3,513l-8,10.1l8,2V513z"/>
			</g>
		</g>
	</g>
</g>
<g id="XMLID_46_">
	<g id="XMLID_96_">
		<g id="XMLID_105_">
			<path id="XMLID_36_" class="st4" d="M54.2,493.9l3.9,3.8c0.8,0.8,0.8,2.1,0,2.8l-36.6,37.7c-1.6,1.6-4.1,1.7-5.7,0.1l-1-0.9
				c-1.6-1.6-1.7-4.1-0.1-5.7l36.6-37.7C52.1,493.1,53.3,493,54.2,493.9z"/>
		</g>
		<g id="XMLID_100_">
			<path id="XMLID_33_" class="st3" d="M18.6,539.8c-1.1,0-2.3-0.5-3.2-1.3l-1-0.9c-0.8-0.8-1.3-2-1.4-3.2s0.5-2.3,1.3-3.2
				l36.6-37.7c0.9-1,2.5-1,3.6-0.1l3.9,3.8c0.5,0.5,0.8,1.1,0.8,1.8c0,0.7-0.3,1.3-0.8,1.8l-36.6,37.7
				C21,539.5,19.7,539.8,18.6,539.8z M52.7,493.8c-0.4,0-0.8,0.2-1.1,0.5L15,532c-0.7,0.7-1,1.6-1,2.5s0.4,1.9,1.1,2.5l1,0.9
				c1.4,1.4,3.7,1.3,5.1-0.1l36.6-37.7c0.3-0.3,0.5-0.7,0.5-1.1c0-0.4-0.2-0.8-0.5-1.1l-3.9-3.8C53.5,493.9,53.1,493.8,52.7,493.8z"
				/>
		</g>
	</g>
	<g id="XMLID_92_" class="st0">
		<g id="XMLID_95_">
			<path id="XMLID_32_" class="st1" d="M67.5,480.1l3.1,3.1c0.7,0.7,0.7,1.7,0,2.3l-29.2,30.6c-1.2,1.3-3.9,1.1-5.3-0.2l0,0
				c-1.3-1.2-1.5-3.9-0.3-5.2l29.4-30.6C65.8,479.4,66.8,479.4,67.5,480.1z"/>
		</g>
	</g>
	<g id="XMLID_90_" class="st8">
		<g id="XMLID_91_">
			<circle id="XMLID_31_" class="st9" cx="56.6" cy="495.2" r="26.8"/>
		</g>
	</g>
	<g id="XMLID_83_">
		<g id="XMLID_89_">
			<circle id="XMLID_30_" class="st4" cx="54.6" cy="493.2" r="26.3"/>
		</g>
		<g id="XMLID_84_">
			<path id="XMLID_19_" class="st3" d="M54.6,520c-14.7,0-26.7-12-26.7-26.7s12-26.7,26.7-26.7s26.7,12,26.7,26.7S69.3,520,54.6,520
				z M54.6,467.4c-14.3,0-25.8,11.6-25.8,25.8S40.4,519,54.6,519s25.8-11.5,25.8-25.8S68.8,467.4,54.6,467.4z"/>
		</g>
	</g>
	<g id="XMLID_48_" class="st10">
		<g id="XMLID_82_">
			<ellipse id="XMLID_16_" class="st11" cx="54.1" cy="492.8" rx="20.6" ry="20.7"/>
		</g>
		<g id="XMLID_49_">
			<path id="XMLID_15_" class="st3" d="M54.1,513.9c-0.3,0-0.5,0-0.8,0v-0.9c1.2,0,2.4,0,3.7-0.2l0.1,0.9
				C56.2,513.9,55.1,513.9,54.1,513.9z M51.4,513.8c-1.3-0.2-2.5-0.5-3.8-0.8L48,512c1.1,0.4,2.3,0.7,3.6,0.8L51.4,513.8z M59,513.3
				l-0.2-0.9c1.2-0.3,2.3-0.7,3.5-1.2l0.4,0.8C61.6,512.5,60.3,513,59,513.3z M45.9,512.3c-1.1-0.5-2.3-1.1-3.4-1.8l0.5-0.8
				c1,0.7,2.1,1.2,3.2,1.7L45.9,512.3z M64.4,511.2l-0.5-0.8c1-0.6,2.1-1.3,3-2.1l0.6,0.8C66.5,509.8,65.5,510.6,64.4,511.2z
				 M41,509.3c-1-0.8-2-1.7-2.8-2.6L39,506c0.8,0.9,1.7,1.8,2.6,2.5L41,509.3z M69,507.8l-0.7-0.7c0.8-0.8,1.7-1.8,2.3-2.8l0.8,0.6
				C70.8,505.8,69.9,506.8,69,507.8z M37,505.1c-0.8-1-1.4-2.2-2-3.3l0.8-0.4c0.6,1.1,1.1,2.2,1.9,3.2L37,505.1z M72.4,503.2
				l-0.8-0.5c0.6-1,1.1-2.2,1.5-3.4l0.8,0.3C73.7,500.9,73.1,502,72.4,503.2z M34.3,500.1c-0.5-1.2-0.8-2.4-1-3.7l0.9-0.2
				c0.2,1.2,0.6,2.3,0.9,3.6L34.3,500.1z M74.6,497.8l-0.9-0.2c0.3-1.2,0.5-2.4,0.6-3.7l0.9,0.1C75.1,495.3,74.9,496.6,74.6,497.8z
				 M33.1,494.5c-0.1-0.6-0.1-1.2-0.1-1.8c0-0.7,0-1.4,0.1-2.1l0.9,0.1c-0.1,0.7-0.1,1.3-0.1,2c0,0.6,0,1.1,0.1,1.7L33.1,494.5z
				 M74.2,492.2c0-1.2-0.2-2.4-0.5-3.7l0.9-0.2c0.3,1.2,0.4,2.5,0.5,3.8H74.2z M34.3,488.9l-0.9-0.2c0.3-1.2,0.6-2.5,1-3.7l0.8,0.4
				C34.8,486.6,34.6,487.8,34.3,488.9z M73.4,486.8c-0.4-1.1-0.8-2.3-1.4-3.4l0.8-0.5c0.6,1.1,1.1,2.3,1.5,3.6L73.4,486.8z
				 M36.1,483.8l-0.8-0.4c0.6-1.1,1.2-2.3,2-3.3l0.8,0.6C37.2,481.6,36.5,482.6,36.1,483.8z M71,481.8c-0.7-1-1.4-2-2.3-2.9l0.7-0.7
				c0.8,0.9,1.7,2,2.3,3L71,481.8z M39.1,479.3l-0.7-0.7c0.8-0.9,1.8-1.9,2.8-2.6l0.6,0.8C40.8,477.5,39.9,478.3,39.1,479.3z
				 M67.5,477.7c-0.9-0.8-1.9-1.5-2.9-2.2l0.5-0.8c1.1,0.7,2.2,1.4,3.1,2.3L67.5,477.7z M43.3,475.7l-0.5-0.8c1-0.7,2.3-1.3,3.4-1.8
				l0.4,0.8C45.4,474.5,44.3,475,43.3,475.7z M63,474.6c-1.1-0.6-2.3-0.9-3.4-1.3l0.3-0.9c1.2,0.4,2.4,0.8,3.6,1.4L63,474.6z
				 M48.2,473.3l-0.3-0.9c1.2-0.4,2.4-0.7,3.8-0.8l0.1,0.9C50.6,472.8,49.4,473.1,48.2,473.3z M57.7,472.9c-1.2-0.2-2.4-0.3-3.7-0.4
				c-0.1,0-0.3,0-0.4,0v-0.9c0.2,0,0.3,0,0.5,0c1.3,0,2.5,0.1,3.8,0.4L57.7,472.9z"/>
		</g>
	</g>
	<g id="XMLID_47_" class="st0">
		<path id="XMLID_14_" class="st1" d="M34.7,498.3c-0.6-1.8-0.8-3.7-0.8-5.5c0-11.2,9-20.3,20.2-20.3c6.2,0,11.8,2.8,15.5,7.3
			L34.7,498.3z"/>
	</g>
</g>
<g id="XMLID_5_" class="st12">
	<g id="XMLID_4_">
		<rect id="XMLID_12_" x="58.5" y="555.8" class="st7" width="64.4" height="3.7"/>
	</g>
</g>
<g id="XMLID_2_" class="st12">
	<g id="XMLID_7_">
		<rect id="XMLID_8_" x="58.5" y="562.8" class="st7" width="64.4" height="3.7"/>
	</g>
</g>
</svg>
