<?xml version="1.0" encoding="utf-8"?>
<!-- Generator: Adobe Illustrator 21.0.0, SVG Export Plug-In . SVG Version: 6.00 Build 0)  -->
<svg version="1.1" id="图层_1" xmlns="http://www.w3.org/2000/svg" xmlns:xlink="http://www.w3.org/1999/xlink" x="0px" y="0px"
	 viewBox="0 0 168 107.4" style="enable-background:new 0 0 168 107.4;" xml:space="preserve">
<style type="text/css">
	.st0{fill:#FFFFFF;}
	.st1{fill:#B1D0E8;}
	.st2{fill:#F5F8FC;}
	.st3{fill:#F1F3F7;}
	.st4{opacity:0.64;enable-background:new    ;}
	.st5{fill:#D3E4F2;}
	.st6{opacity:0.24;enable-background:new    ;}
	.st7{fill:#C4CEDE;}
	.st8{opacity:0.3;enable-background:new    ;}
	.st9{fill:#D9E3F2;}
	.st10{opacity:0.9;enable-background:new    ;}
	.st11{fill:#F4F7FC;}
	.st12{opacity:0.7;enable-background:new    ;}
	.st13{fill:#B5C7DF;}
	.st14{opacity:0.48;enable-background:new    ;}
	.st15{opacity:0.3;fill:#D9E3F2;enable-background:new    ;}
</style>
<g>
	<g>
		<path class="st0" d="M38.8,18h100.4c1.6,0,3,1.3,3,3v77.5c0,1.6-1.3,3-3,3H38.8c-1.6,0-3-1.3-3-3V20.9C35.8,19.3,37.1,18,38.8,18z
			"/>
		<path class="st1" d="M139.2,101.9H38.8c-1.9,0-3.5-1.6-3.5-3.5V20.9c0-1.9,1.6-3.5,3.5-3.5h100.4c1.9,0,3.5,1.6,3.5,3.5v77.5
			C142.6,100.3,141.1,101.9,139.2,101.9z M38.8,18.5c-1.4,0-2.5,1.1-2.5,2.5v77.5c0,1.4,1.1,2.5,2.5,2.5h100.4
			c1.4,0,2.5-1.1,2.5-2.5V20.9c0-1.4-1.1-2.5-2.5-2.5H38.8z"/>
	</g>
	<g>
		<path class="st2" d="M38.8,15.9h100.4c1.6,0,3,1.3,3,3v19.7H35.8V18.9C35.8,17.2,37.1,15.9,38.8,15.9z"/>
		<path class="st1" d="M142.6,39.1H35.3V18.9c0-1.9,1.6-3.5,3.5-3.5h100.4c1.9,0,3.5,1.6,3.5,3.5V39.1z M36.3,38.1h105.4V18.9
			c0-1.4-1.1-2.5-2.5-2.5H38.8c-1.4,0-2.5,1.1-2.5,2.5V38.1z"/>
	</g>
	<g>
		<rect x="108.3" y="16.5" class="st3" width="9.9" height="10.9"/>
	</g>
	<g class="st4">
		<rect x="56.7" y="52.7" class="st5" width="62.6" height="4"/>
	</g>
	<g class="st4">
		<rect x="56.7" y="65.8" class="st5" width="62.6" height="4"/>
	</g>
	<g class="st4">
		<rect x="51.7" y="79.5" class="st5" width="56.7" height="4"/>
	</g>
	<g>
		<rect x="64.6" y="16.5" class="st3" width="9.9" height="10.9"/>
	</g>
	<g>
		<path class="st0" d="M114.3,24.8h-6c-1.1,0-2-0.9-2-2V8c0-1.1,0.9-2,2-2h6c1.1,0,2,0.9,2,2v14.9C116.3,24,115.4,24.8,114.3,24.8z
			 M69.6,24.8h-6c-1.1,0-2-0.9-2-2V8c0-1.1,0.9-2,2-2h6c1.1,0,2,0.9,2,2v14.9C71.6,24,70.7,24.8,69.6,24.8z"/>
		<path class="st1" d="M114.3,25.4h-6c-1.4,0-2.5-1.1-2.5-2.5V8c0-1.4,1.1-2.5,2.5-2.5h6c1.4,0,2.5,1.1,2.5,2.5v14.9
			C116.8,24.2,115.7,25.4,114.3,25.4z M108.3,6.5c-0.8,0-1.5,0.7-1.5,1.5v14.9c0,0.8,0.7,1.5,1.5,1.5h6c0.8,0,1.5-0.7,1.5-1.5V8
			c0-0.8-0.7-1.5-1.5-1.5H108.3z M69.6,25.4h-6c-1.4,0-2.5-1.1-2.5-2.5V8c0-1.4,1.1-2.5,2.5-2.5h6c1.4,0,2.5,1.1,2.5,2.5v14.9
			C72.1,24.2,71,25.4,69.6,25.4z M63.6,6.5c-0.8,0-1.5,0.7-1.5,1.5v14.9c0,0.8,0.7,1.5,1.5,1.5h6c0.8,0,1.5-0.7,1.5-1.5V8
			c0-0.8-0.7-1.5-1.5-1.5H63.6z"/>
	</g>
	<g>
		<path class="st0" d="M45.7,45.9l4.2,4c0.9,0.8,0.9,2.2,0,3L11.1,92.9C9.5,94.6,6.7,94.6,5,93l-1.1-1c-1.7-1.6-1.7-4.4-0.1-6.1
			l38.8-39.9C43.5,45.1,44.9,45.1,45.7,45.9z"/>
		<path class="st1" d="M8,94.7c-1.2,0-2.4-0.4-3.3-1.3l-1.1-1c-0.9-0.9-1.4-2.1-1.5-3.4c0-1.3,0.5-2.5,1.4-3.4l38.8-39.9
			c1-1,2.7-1.1,3.7-0.1l4.2,4c0.5,0.5,0.8,1.2,0.8,1.9s-0.3,1.4-0.7,1.9L11.5,93.2C10.5,94.2,9.3,94.7,8,94.7z M44.2,45.8
			c-0.4,0-0.9,0.2-1.2,0.5L4.2,86.2c-0.7,0.7-1.1,1.7-1.1,2.7c0,1,0.4,2,1.2,2.7l1.1,1c1.5,1.5,3.9,1.4,5.4-0.1l38.8-39.9
			c0.3-0.3,0.5-0.7,0.5-1.2c0-0.4-0.2-0.8-0.5-1.2l-4.2-4C45,45.9,44.6,45.8,44.2,45.8z"/>
	</g>
	<g class="st6">
		<circle class="st7" cx="49.3" cy="47.3" r="28.4"/>
	</g>
	<g class="st8">
		<path class="st9" d="M59,32.7l3.3,3.3c0.7,0.7,0.7,1.8,0,2.5L31.3,70.8c-1.3,1.4-4.2,1.2-5.5-0.2l0,0c-1.4-1.3-1.6-4.1-0.3-5.5
			l31.1-32.4C57.3,32,58.4,32,59,32.7z"/>
	</g>
	<g>
		<circle class="st0" cx="46.2" cy="45.2" r="27.8"/>
		<path class="st1" d="M46.2,73.6c-15.6,0-28.3-12.7-28.3-28.3c0-15.6,12.7-28.3,28.3-28.3c15.6,0,28.3,12.7,28.3,28.3
			C74.5,60.9,61.8,73.6,46.2,73.6z M46.2,17.9c-15.1,0-27.3,12.3-27.3,27.3s12.3,27.3,27.3,27.3s27.3-12.3,27.3-27.3
			S61.3,17.9,46.2,17.9z"/>
	</g>
	<g class="st10">
		<ellipse class="st11" cx="46.4" cy="46" rx="21.9" ry="21.9"/>
		<path class="st1" d="M46.4,67.8c-0.4,0-0.8,0-1.2,0l0.1-1c1.3,0.1,2.6,0,3.9-0.1l0.1,1C48.3,67.8,47.3,67.8,46.4,67.8z M43.1,67.6
			c-1.3-0.2-2.7-0.5-4-1l0.3-0.9c1.2,0.4,2.5,0.7,3.8,0.9L43.1,67.6z M51.3,67.3l-0.2-1c1.3-0.3,2.5-0.7,3.7-1.2l0.4,0.9
			C53.9,66.6,52.6,67,51.3,67.3z M37.3,65.9c-1.2-0.6-2.4-1.2-3.6-2l0.6-0.8c1.1,0.7,2.2,1.4,3.4,1.9L37.3,65.9z M57,65.1l-0.5-0.9
			c1.1-0.6,2.2-1.3,3.2-2.2l0.6,0.8C59.3,63.7,58.2,64.5,57,65.1z M32.1,62.7c-1-0.9-2-1.8-2.9-2.9l0.8-0.6c0.8,1,1.8,1.9,2.8,2.8
			L32.1,62.7z M61.9,61.5l-0.7-0.7c0.9-0.9,1.8-1.9,2.5-3l0.8,0.6C63.8,59.5,62.9,60.6,61.9,61.5z M27.9,58.1
			c-0.8-1.1-1.4-2.3-2-3.6l0.9-0.4c0.5,1.2,1.2,2.3,1.9,3.4L27.9,58.1z M65.7,56.7l-0.9-0.5c0.7-1.1,1.2-2.3,1.7-3.5l0.9,0.3
			C67,54.3,66.4,55.5,65.7,56.7z M25.2,52.7c-0.4-1.3-0.8-2.6-1-4l1-0.1c0.2,1.3,0.5,2.6,0.9,3.8L25.2,52.7z M68,51.1l-1-0.3
			c0.3-1.3,0.5-2.6,0.6-3.9l1,0.1C68.6,48.4,68.4,49.7,68,51.1z M24,46.7c0-0.4,0-0.8,0-1.3c0-0.9,0.1-1.9,0.2-2.8l1,0.1
			c-0.1,0.9-0.2,1.8-0.2,2.7c0,0.4,0,0.8,0,1.2L24,46.7z M67.7,45c0-1.3-0.2-2.6-0.4-3.9l1-0.2c0.3,1.3,0.4,2.7,0.4,4.1L67.7,45z
			 M25.5,40.8l-1-0.2c0.3-1.3,0.7-2.6,1.2-3.9l0.9,0.4C26.2,38.3,25.8,39.5,25.5,40.8z M66.8,39.2c-0.4-1.2-0.9-2.5-1.5-3.6l0.9-0.5
			c0.6,1.2,1.1,2.5,1.5,3.8L66.8,39.2z M27.5,35.3l-0.9-0.5c0.6-1.2,1.4-2.3,2.2-3.4l0.8,0.6C28.8,33.1,28.1,34.2,27.5,35.3z
			 M64.4,33.9c-0.7-1.1-1.5-2.1-2.4-3.1l0.7-0.7c0.9,1,1.8,2.1,2.5,3.2L64.4,33.9z M30.9,30.6l-0.7-0.7c0.9-1,2-1.9,3.1-2.7l0.6,0.8
			C32.8,28.8,31.8,29.6,30.9,30.6z M60.6,29.4c-1-0.9-2-1.7-3.1-2.3l0.5-0.9c1.2,0.7,2.3,1.5,3.3,2.4L60.6,29.4z M35.5,26.9L35,26.1
			c1.2-0.7,2.4-1.3,3.7-1.8l0.3,0.9C37.8,25.7,36.6,26.3,35.5,26.9z M55.8,26.2c-1.2-0.6-2.4-1-3.6-1.4l0.3-1
			c1.3,0.4,2.6,0.9,3.8,1.5L55.8,26.2z M40.9,24.7l-0.3-1c1.3-0.3,2.7-0.6,4-0.7l0.1,1C43.5,24.1,42.2,24.3,40.9,24.7z M50.2,24.3
			C49,24.1,47.7,24,46.4,24v-1c1.4,0,2.7,0.1,4.1,0.4L50.2,24.3z"/>
	</g>
	<g class="st12">
		<path class="st1" d="M9.3,17.8L9.2,6.1l16.4,10.1L9.3,17.8z M10.2,7.9l0.1,8.8l12.3-1.2L10.2,7.9z"/>
	</g>
	<g class="st8">
		<path class="st13" d="M18.1,13.5L5.4,11.7l2.2,7.9L18.1,13.5z"/>
	</g>
	<g class="st8">
		<path class="st9" d="M151.6,33l13.6-5L164,39.2L151.6,33z"/>
	</g>
	<g class="st12">
		<path class="st1" d="M162.1,37.2l-16.7-1.4l15.3-12.5L162.1,37.2z M147.9,35.1l13,1.1l-1.1-10.9L147.9,35.1z"/>
	</g>
	<g>
		<path class="st0" d="M28.3,101.4H8.5"/>
		<rect x="8.5" y="100.9" class="st1" width="19.8" height="1"/>
	</g>
	<g>
		<path class="st0" d="M157.1,101.4h-6.4"/>
		<rect x="150.7" y="100.9" class="st1" width="6.4" height="1"/>
	</g>
	<path class="st0" d="M150.7,65.5l-27.5,25.8c0,0-0.1,0.1-0.2,0.1l-10.9,4.9c-0.5,0.2-0.9-0.3-0.7-0.7l4.7-11.2
		c0-0.1,0.1-0.1,0.1-0.2l27.4-25.8c0.8-0.8,2-0.8,2.8,0l4.2,4.2C151.4,63.5,151.4,64.7,150.7,65.5z"/>
	<g>
		<path class="st0" d="M148.1,101.4H33.4"/>
		<rect x="33.4" y="100.9" class="st1" width="114.7" height="1"/>
	</g>
	<g class="st14">
		<path class="st9" d="M116.1,84.3l6.8,6.6l-11.7,5.5L116.1,84.3z"/>
	</g>
	<path class="st1" d="M110.6,96.2l5.2-12.3c0,0,0,0,0,0l27.5-25.9c1-1,2.5-0.9,3.5,0l4.2,4.2c1,1,1,2.6,0,3.5l0,0l-27.6,25.9l-0.1,0
		l-11.8,5.3C110.9,97.4,110.3,96.8,110.6,96.2z M116.6,84.6l-4.7,11.3c0,0,0,0,0,0l11-4.9c0,0,0,0,0,0l27.5-25.8
		c0.6-0.6,0.6-1.5,0-2.1l-4.2-4.2c-0.6-0.6-1.5-0.6-2.1,0L116.6,84.6C116.6,84.6,116.6,84.6,116.6,84.6z"/>
	<path class="st15" d="M25.7,51.5c-0.6-1.9-0.9-3.9-0.9-5.9c0-11.9,9.6-21.6,21.5-21.6c6.6,0,12.6,3,16.5,7.8L25.7,51.5z"/>
</g>
</svg>
