<?xml version="1.0" encoding="utf-8"?>
<!-- Generator: Adobe Illustrator 21.0.0, SVG Export Plug-In . SVG Version: 6.00 Build 0)  -->
<svg version="1.1" id="图层_1" xmlns="http://www.w3.org/2000/svg" xmlns:xlink="http://www.w3.org/1999/xlink" x="0px" y="0px"
	 viewBox="0 0 168 108" style="enable-background:new 0 0 168 108;" xml:space="preserve">
<style type="text/css">
	.st0{fill:#FFFFFF;}
	.st1{fill:#B2D0E7;}
	.st2{opacity:0.7;enable-background:new    ;}
	.st3{opacity:0.3;enable-background:new    ;}
	.st4{fill:#B6C7DE;}
	.st5{fill:#DAE3F1;}
	.st6{opacity:0.76;enable-background:new    ;}
	.st7{fill:#F6F9FC;}
	.st8{opacity:0.61;enable-background:new    ;}
	.st9{fill:#D6E6F3;}
	.st10{fill:#F5F8FC;}
	.st11{opacity:0.8;enable-background:new    ;}
</style>
<g>
	<path class="st0" d="M18.5,105H6.6"/>
	<rect x="6.6" y="104.5" class="st1" width="11.9" height="1"/>
</g>
<g>
	<path class="st0" d="M156,105h-6.4"/>
	<rect x="149.6" y="104.5" class="st1" width="6.4" height="1"/>
</g>
<g>
	<path class="st0" d="M156,105h-6.4"/>
	<rect x="149.6" y="104.5" class="st1" width="6.4" height="1"/>
</g>
<g class="st2">
	<path class="st1" d="M11.7,28.2L8.5,16.9l18.6,5.3L11.7,28.2z M10,18.3l2.4,8.5L24,22.4L10,18.3z"/>
</g>
<g class="st3">
	<path class="st4" d="M19.2,21.7L6.4,23.4l4.3,7L19.2,21.7z"/>
</g>
<g class="st3">
	<path class="st5" d="M147.5,36.2l13.7-5L160,42.4L147.5,36.2z"/>
</g>
<g class="st2">
	<path class="st1" d="M158,40.5l-16.8-1.4l15.4-12.6L158,40.5z M143.8,38.3l13.1,1.1l-1.1-10.9L143.8,38.3z"/>
</g>
<g class="st3">
	<path class="st5" d="M147.5,36.2l13.7-5L160,42.4L147.5,36.2z"/>
</g>
<g class="st2">
	<path class="st1" d="M158,40.5l-16.8-1.4l15.4-12.6L158,40.5z M143.8,38.3l13.1,1.1l-1.1-10.9L143.8,38.3z"/>
</g>
<path class="st0" d="M35.1,43.6h22.6c1.1,0,2,0.9,2,2v58.9H33.1v-59C33.1,44.5,34,43.6,35.1,43.6z"/>
<path class="st1" d="M56.2,105.5h-4v-1h4V105.5z M50.2,105.5h-4v-1h4V105.5z M44.2,105.5h-4v-1h4V105.5z M38.2,105.5h-4v-1h4V105.5z
	 M33.6,104.1h-1v-4h1V104.1z M33.6,98.1h-1v-4h1V98.1z M33.6,92.1h-1v-4h1V92.1z M33.6,86.1h-1v-4h1V86.1z M33.6,80.1h-1v-4h1V80.1z
	 M33.6,74.1h-1v-4h1V74.1z M33.6,68.1h-1v-4h1V68.1z M33.6,62.1h-1v-4h1V62.1z M33.6,56.1h-1v-4h1V56.1z M33.6,50.1h-1v-4h1V50.1z
	 M33.7,44.4L32.8,44c0.4-0.9,1.3-1.5,2.3-1.5h4v1h-4C34.5,43.5,34,43.8,33.7,44.4z M57.1,43.5h-4v-1h4V43.5z M51.1,43.5h-4v-1h4
	V43.5z M45.1,43.5h-4v-1h4V43.5z"/>
<path class="st0" d="M115.5,43H138c1.1,0,2,0.9,2,2v60h-26.5V45C113.5,43.9,114.4,43,115.5,43z"/>
<path class="st1" d="M140.5,105.5h-2.4v-1h1.4v-1.6h1V105.5z M136.1,105.5h-4v-1h4V105.5z M130.1,105.5h-4v-1h4V105.5z M124.1,105.5
	h-4v-1h4V105.5z M118.1,105.5h-4v-1h4V105.5z M140.5,100.9h-1v-4h1V100.9z M140.5,94.9h-1v-4h1V94.9z M140.5,88.9h-1v-4h1V88.9z
	 M140.5,82.9h-1v-4h1V82.9z M140.5,76.9h-1v-4h1V76.9z M140.5,70.9h-1v-4h1V70.9z M140.5,64.9h-1v-4h1V64.9z M140.5,58.9h-1v-4h1
	V58.9z M140.5,52.9h-1v-4h1V52.9z M140.5,46.9h-1V45c0-0.5-0.3-1.1-0.8-1.3l0.5-0.9c0.8,0.4,1.3,1.3,1.3,2.2V46.9z M113.6,44.4
	l-0.9-0.4c0.4-0.9,1.3-1.5,2.3-1.5h4v1h-4C114.4,43.5,113.9,43.8,113.6,44.4z M137,43.5h-4v-1h4V43.5z M131,43.5h-4v-1h4V43.5z
	 M125,43.5h-4v-1h4V43.5z"/>
<g class="st6">
	<circle class="st7" cx="50" cy="57" r="3"/>
	<path class="st1" d="M50,60.5c-1.9,0-3.5-1.6-3.5-3.5s1.6-3.5,3.5-3.5s3.5,1.6,3.5,3.5S51.9,60.5,50,60.5z M50,54.5
		c-1.4,0-2.5,1.1-2.5,2.5s1.1,2.5,2.5,2.5s2.5-1.1,2.5-2.5S51.4,54.5,50,54.5z"/>
</g>
<g class="st6">
	<circle class="st7" cx="131" cy="57" r="3"/>
	<path class="st1" d="M131,60.5c-1.9,0-3.5-1.6-3.5-3.5s1.6-3.5,3.5-3.5s3.5,1.6,3.5,3.5S132.9,60.5,131,60.5z M131,54.5
		c-1.4,0-2.5,1.1-2.5,2.5s1.1,2.5,2.5,2.5s2.5-1.1,2.5-2.5S132.4,54.5,131,54.5z"/>
</g>
<g class="st8">
	<path class="st9" d="M38,94h14c0.6,0,1,0.4,1,1v1c0,0.6-0.4,1-1,1H38c-0.6,0-1-0.4-1-1v-1C37,94.4,37.4,94,38,94z"/>
</g>
<g class="st8">
	<path class="st9" d="M38,87h14c0.6,0,1,0.4,1,1v1c0,0.6-0.4,1-1,1H38c-0.6,0-1-0.4-1-1v-1C37,87.4,37.4,87,38,87z"/>
</g>
<g class="st8">
	<path class="st9" d="M119,94h14c0.6,0,1,0.4,1,1v1c0,0.6-0.4,1-1,1h-14c-0.6,0-1-0.4-1-1v-1C118,94.4,118.4,94,119,94z"/>
</g>
<g class="st8">
	<path class="st9" d="M119,87h14c0.6,0,1,0.4,1,1v1c0,0.6-0.4,1-1,1h-14c-0.6,0-1-0.4-1-1v-1C118,87.4,118.4,87,119,87z"/>
</g>
<g>
	<path class="st0" d="M147.7,105H24.3"/>
	<rect x="24.3" y="104.5" class="st1" width="123.4" height="1"/>
</g>
<g>
	<path class="st10" d="M120.5,28l-7.2,4.7c-0.1,0-0.1,0.1-0.2,0.1h-54c-0.1,0-0.1,0-0.2-0.1L51.8,28c-0.2-0.1-0.2-0.4,0-0.6L86,2.8
		c0.1-0.1,0.3-0.1,0.4,0l34.2,24.6C120.7,27.5,120.7,27.8,120.5,28z"/>
	<path class="st1" d="M113.2,33.2H59.1c-0.1,0-0.2,0-0.3-0.1l-7.3-4.7c-0.5-0.3-0.5-1,0-1.4L85.8,2.3c0.2-0.1,0.5-0.1,0.7,0l34,24.4
		c0.7,0.5,0.6,1.5,0,1.9l-6.9,4.5C113.4,33.2,113.3,33.2,113.2,33.2z M59.4,32.2h53.5c0.1,0,0.2,0,0.3-0.1l6.1-3.9
		c0.3-0.2,0.4-0.7,0-1L86.5,3.5c-0.2-0.1-0.5-0.1-0.7,0L53,27.2c-0.3,0.2-0.3,0.7,0,1l6.1,3.9C59.2,32.2,59.3,32.2,59.4,32.2z"/>
	<g>
		<path class="st0" d="M59.1,32l27-19l27.1,19v73H59.1V32z"/>
		<path class="st1" d="M113.7,105.5h-55V31.7l27.5-19.3l27.6,19.3L113.7,105.5L113.7,105.5z M59.6,104.5h53.1V32.3L86.2,13.6
			L59.6,32.3V104.5z"/>
	</g>
	<g>
		<path class="st10" d="M81.1,85.8h12c1.1,0,2,0.9,2,2v15c0,1.1-0.9,2-2,2h-12c-1.1,0-2-0.9-2-2v-15C79.1,86.7,80,85.8,81.1,85.8z"
			/>
		<path class="st1" d="M93.1,105.3h-12c-1.4,0-2.5-1.1-2.5-2.5v-15c0-1.4,1.1-2.5,2.5-2.5h12c1.4,0,2.5,1.1,2.5,2.5v15
			C95.6,104.2,94.5,105.3,93.1,105.3z M81.1,86.3c-0.8,0-1.5,0.7-1.5,1.5v15c0,0.8,0.7,1.5,1.5,1.5h12c0.8,0,1.5-0.7,1.5-1.5v-15
			c0-0.8-0.7-1.5-1.5-1.5H81.1z"/>
	</g>
	<g class="st11">
		<path class="st9" d="M67.2,38h11c0.6,0,1,0.4,1,1v4c0,0.6-0.4,1-1,1h-11c-0.6,0-1-0.4-1-1v-4C66.2,38.4,66.6,38,67.2,38z"/>
	</g>
	<g class="st11">
		<path class="st9" d="M95,37.8h11c0.6,0,1,0.4,1,1v4c0,0.6-0.4,1-1,1H95c-0.6,0-1-0.4-1-1v-4C94,38.2,94.4,37.8,95,37.8z"/>
	</g>
	<g class="st11">
		<path class="st9" d="M67,50.8h11c0.6,0,1,0.4,1,1v4c0,0.6-0.4,1-1,1H67c-0.6,0-1-0.4-1-1v-4C66,51.2,66.4,50.8,67,50.8z"/>
	</g>
	<g class="st11">
		<path class="st9" d="M95,50.8h11c0.6,0,1,0.4,1,1v4c0,0.6-0.4,1-1,1H95c-0.6,0-1-0.4-1-1v-4C94,51.2,94.4,50.8,95,50.8z"/>
	</g>
</g>
</svg>
