<?xml version="1.0" encoding="utf-8"?>
<!-- Generator: Adobe Illustrator 21.0.0, SVG Export Plug-In . SVG Version: 6.00 Build 0)  -->
<svg version="1.1" id="图层_1" xmlns="http://www.w3.org/2000/svg" xmlns:xlink="http://www.w3.org/1999/xlink" x="0px" y="0px"
	 viewBox="0 0 168 108" style="enable-background:new 0 0 168 108;" xml:space="preserve">
<style type="text/css">
	.st0{fill:#EEF2FA;}
	.st1{fill:#A2B6D0;}
	.st2{fill:#FFFFFF;}
	.st3{fill:#B2D0E7;}
	.st4{opacity:0.3;enable-background:new    ;}
	.st5{fill:#D4E5F2;}
	.st6{opacity:0.39;enable-background:new    ;}
	.st7{opacity:0.56;enable-background:new    ;}
	.st8{opacity:0.24;enable-background:new    ;}
	.st9{fill:#C4CEDD;}
	.st10{fill:#DAE3F1;}
	.st11{fill:#F4F7FC;}
	.st12{opacity:0.7;enable-background:new    ;}
	.st13{fill:#B6C7DE;}
	.st14{fill:#D9E3F2;}
</style>
<g>
	<circle class="st0" cx="67.5" cy="43.5" r="3.5"/>
	<path class="st1" d="M67.5,47.5c-2.2,0-4-1.8-4-4s1.8-4,4-4s4,1.8,4,4S69.7,47.5,67.5,47.5z M67.5,40.5c-1.7,0-3,1.3-3,3s1.3,3,3,3
		s3-1.3,3-3S69.2,40.5,67.5,40.5z"/>
</g>
<g>
	<path class="st2" d="M38,13h100c1.7,0,3,1.3,3,3v69c0,1.7-1.3,3-3,3H38c-1.7,0-3-1.3-3-3V16C35,14.3,36.3,13,38,13z"/>
	<path class="st3" d="M138,88.5H38c-1.9,0-3.5-1.6-3.5-3.5V16c0-1.9,1.6-3.5,3.5-3.5h100c1.9,0,3.5,1.6,3.5,3.5v69
		C141.5,86.9,139.9,88.5,138,88.5z M38,13.5c-1.4,0-2.5,1.1-2.5,2.5v69c0,1.4,1.1,2.5,2.5,2.5h100c1.4,0,2.5-1.1,2.5-2.5V16
		c0-1.4-1.1-2.5-2.5-2.5H38z"/>
</g>
<path class="st2" d="M49,93h76c1.7,0,3,1.3,3,3v3c0,1.7-1.3,3-3,3H49c-1.7,0-3-1.3-3-3v-3C46,94.3,47.3,93,49,93z"/>
<g class="st4">
	<path class="st5" d="M47.6,93.4h78.9c1.1,0,2.1,0.9,2.1,2.1v1h-83v-1C45.5,94.4,46.4,93.4,47.6,93.4z"/>
</g>
<g class="st6">
	<path class="st2" d="M44,21h88c0.6,0,1,0.5,1,1v56c0,0.6-0.4,1-1,1H44c-0.6,0-1-0.5-1-1V22C43,21.4,43.4,21,44,21z"/>
	<path class="st3" d="M132,79.5H44c-0.8,0-1.5-0.7-1.5-1.5V22c0-0.8,0.7-1.5,1.5-1.5h88c0.8,0,1.5,0.7,1.5,1.5v56
		C133.5,78.8,132.8,79.5,132,79.5z M44,21.5c-0.3,0-0.5,0.2-0.5,0.5v56c0,0.3,0.2,0.5,0.5,0.5h88c0.3,0,0.5-0.2,0.5-0.5V22
		c0-0.3-0.2-0.5-0.5-0.5H44z"/>
</g>
<g class="st7">
	<path class="st2" d="M51,48h11l8,13l10-30l9,25l9-12l10,24l9-16h7"/>
	<path class="st3" d="M108,69C108,69,108,69,108,69c-0.4,0-0.8-0.3-0.9-0.6L97.8,46l-8,10.6c-0.2,0.3-0.6,0.4-0.9,0.4
		c-0.4-0.1-0.7-0.3-0.8-0.7l-8-22.3l-9.1,27.3c-0.1,0.4-0.4,0.6-0.8,0.7c-0.4,0.1-0.8-0.1-1-0.5L61.4,49H51c-0.6,0-1-0.4-1-1
		s0.4-1,1-1h11c0.3,0,0.7,0.2,0.9,0.5l6.9,11.2l9.3-28c0.1-0.4,0.5-0.7,0.9-0.7c0.4,0,0.8,0.3,1,0.7l8.4,23.3l7.9-10.5
		c0.2-0.3,0.6-0.4,0.9-0.4c0.4,0,0.7,0.3,0.8,0.6l9.2,22.1l8-14.2c0.2-0.3,0.5-0.5,0.9-0.5h7c0.6,0,1,0.4,1,1s-0.4,1-1,1h-6.4
		l-8.7,15.5C108.7,68.8,108.4,69,108,69z"/>
</g>
<g>
	<path class="st2" d="M48,36.2l4.2,4c0.9,0.8,0.9,2.2,0,3l-39,40.2c-1.7,1.7-4.4,1.8-6.1,0.1l-1.1-1c-1.7-1.7-1.8-4.4-0.1-6.1
		l39-40.2C45.8,35.4,47.1,35.3,48,36.2z"/>
	<path class="st3" d="M10.1,85.2c-1.2,0-2.4-0.4-3.4-1.4l-1.1-1c-0.9-0.9-1.4-2.1-1.5-3.4S4.6,77,5.5,76l39-40.2
		c1-1,2.7-1.1,3.8-0.1l4.2,4c0.5,0.5,0.8,1.2,0.8,1.9c0,0.7-0.3,1.4-0.7,1.9l-39,40.2C12.6,84.8,11.3,85.2,10.1,85.2z M46.5,36.1
		c-0.4,0-0.9,0.2-1.2,0.5l-39,40.2c-0.7,0.7-1.1,1.7-1.1,2.7c0,1,0.4,2,1.2,2.7l1.1,1c1.5,1.5,3.9,1.4,5.4-0.1l39-40.2
		c0.3-0.3,0.5-0.7,0.5-1.2c0-0.4-0.2-0.9-0.5-1.2l-4.2-4C47.3,36.2,46.9,36.1,46.5,36.1z"/>
</g>
<g class="st8">
	<circle class="st9" cx="51.6" cy="37.6" r="28.6"/>
</g>
<g class="st4">
	<path class="st10" d="M65,18.4l3.6,3.6c0.7,0.7,0.8,1.9,0,2.7L34.8,60c-2.6,2.6-4.6,1.3-6-0.2l0,0c-1.5-1.5-3.1-3.2-0.3-6
		l33.9-35.3C63,17.7,64.2,17.7,65,18.4z"/>
</g>
<g>
	<circle class="st2" cx="48.5" cy="35.5" r="28"/>
	<path class="st3" d="M48.5,64C32.8,64,20,51.2,20,35.5S32.8,7,48.5,7S77,19.8,77,35.5S64.2,64,48.5,64z M48.5,8
		C33.3,8,21,20.4,21,35.5C21,50.7,33.3,63,48.5,63S76,50.7,76,35.5C76,20.4,63.6,8,48.5,8z"/>
</g>
<ellipse class="st11" cx="48" cy="35.6" rx="22" ry="22.1"/>
<g class="st12">
	<path class="st3" d="M7.3,59.3l-3.6-8.4l15,2.3L7.3,59.3z M4.9,51.9l2.7,6.3l8.5-4.6L4.9,51.9z"/>
</g>
<g class="st4">
	<path class="st13" d="M13.9,55L1.1,56.4l4.1,7.1L13.9,55z"/>
</g>
<g class="st4">
	<path class="st10" d="M150.5,33.2l13.7-5L163,39.4L150.5,33.2z"/>
</g>
<g class="st12">
	<path class="st3" d="M161,37.5l-16.8-1.4l15.4-12.6L161,37.5z M146.8,35.3l13.1,1.1l-1.1-10.9L146.8,35.3z"/>
</g>
<g>
	<path class="st2" d="M26.5,102H6.6"/>
	<rect x="6.6" y="101.5" class="st3" width="19.9" height="1"/>
</g>
<g>
	<path class="st2" d="M156,102h-6.4"/>
	<rect x="149.6" y="101.5" class="st3" width="6.4" height="1"/>
</g>
<g>
	<path class="st2" d="M147,102H31.6"/>
	<rect x="31.6" y="101.5" class="st3" width="115.4" height="1"/>
</g>
<g class="st4">
	<g>
		<path class="st14" d="M27.6,42.3c-0.6-1.9-0.9-4-0.9-6.1c0-12.2,9.8-22.1,22-22.1c6.8,0,12.9,3.1,16.9,8L27.6,42.3z"/>
	</g>
</g>
<path class="st3" d="M48.3,58.1c-0.3,0-0.5,0-0.8,0l0-1c1.3,0,2.6,0,3.9-0.2l0.1,1C50.6,58,49.4,58.1,48.3,58.1z M45.5,58
	c-1.3-0.2-2.7-0.5-4-0.9l0.3-1c1.2,0.4,2.5,0.7,3.8,0.8L45.5,58z M53.6,57.5l-0.2-1c1.3-0.3,2.5-0.7,3.7-1.3l0.4,0.9
	C56.3,56.7,55,57.2,53.6,57.5z M39.6,56.4c-1.3-0.5-2.5-1.2-3.6-1.9l0.5-0.8c1.1,0.7,2.2,1.3,3.4,1.8L39.6,56.4z M59.3,55.3
	l-0.5-0.9c1.1-0.6,2.2-1.4,3.2-2.2l0.6,0.8C61.7,53.8,60.5,54.6,59.3,55.3z M34.4,53.2c-1.1-0.8-2.1-1.8-3-2.8l0.8-0.7
	c0.9,1,1.8,1.9,2.8,2.7L34.4,53.2z M64.2,51.6l-0.7-0.7c0.9-0.9,1.8-1.9,2.5-3l0.8,0.6C66.1,49.5,65.2,50.6,64.2,51.6z M30.1,48.8
	c-0.8-1.1-1.5-2.3-2.1-3.5l0.9-0.4c0.6,1.2,1.2,2.3,2,3.4L30.1,48.8z M67.9,46.7L67,46.2c0.6-1.1,1.2-2.3,1.6-3.6l0.9,0.3
	C69.2,44.3,68.6,45.5,67.9,46.7z M27.2,43.4c-0.5-1.3-0.8-2.6-1.1-3.9l1-0.2c0.2,1.3,0.6,2.5,1,3.8L27.2,43.4z M70.2,41l-1-0.2
	c0.3-1.3,0.5-2.6,0.6-3.9l1,0.1C70.7,38.3,70.5,39.7,70.2,41z M25.9,37.5c-0.1-0.6-0.1-1.3-0.1-1.9c0-0.7,0-1.5,0.1-2.2l1,0.1
	c-0.1,0.7-0.1,1.4-0.1,2.1c0,0.6,0,1.2,0.1,1.8L25.9,37.5z M69.8,35c0-1.3-0.2-2.6-0.5-3.9l1-0.2c0.3,1.3,0.4,2.7,0.5,4.1L69.8,35z
	 M27.2,31.5l-1-0.2c0.3-1.3,0.6-2.7,1.1-3.9l0.9,0.4C27.8,29,27.5,30.3,27.2,31.5z M68.9,29.2c-0.4-1.2-0.9-2.5-1.5-3.6l0.9-0.5
	c0.6,1.2,1.2,2.5,1.6,3.8L68.9,29.2z M29.1,26l-0.9-0.4c0.6-1.2,1.3-2.4,2.1-3.5l0.8,0.6C30.3,23.7,29.6,24.8,29.1,26z M66.4,23.9
	c-0.7-1.1-1.5-2.1-2.4-3.1l0.7-0.7c0.9,1,1.8,2.1,2.5,3.2L66.4,23.9z M32.3,21.2l-0.7-0.7c0.9-1,1.9-2,3-2.8l0.6,0.8
	C34.2,19.3,33.2,20.2,32.3,21.2z M62.6,19.5c-1-0.9-2-1.6-3.1-2.3l0.5-0.9c1.2,0.7,2.3,1.5,3.3,2.4L62.6,19.5z M36.8,17.4l-0.5-0.8
	c1.1-0.7,2.4-1.4,3.6-1.9l0.4,0.9C39.1,16.1,37.9,16.7,36.8,17.4z M57.8,16.2c-1.2-0.6-2.4-1-3.6-1.4l0.3-1c1.3,0.4,2.6,0.9,3.8,1.5
	L57.8,16.2z M42.1,14.9l-0.3-1c1.3-0.4,2.6-0.7,4-0.8l0.1,1C44.6,14.3,43.3,14.6,42.1,14.9z M52.2,14.4c-1.4-0.3-2.9-0.4-4.4-0.3
	l0-1c1.5,0,3.1,0.1,4.6,0.4L52.2,14.4z"/>
<path class="st3" d="M125,102.5H49c-1.9,0-3.5-1.6-3.5-3.5v-3c0-1.9,1.6-3.5,3.5-3.5h76c1.9,0,3.5,1.6,3.5,3.5v3
	C128.5,100.9,126.9,102.5,125,102.5z M49,93.5c-1.4,0-2.5,1.1-2.5,2.5v3c0,1.4,1.1,2.5,2.5,2.5h76c1.4,0,2.5-1.1,2.5-2.5v-3
	c0-1.4-1.1-2.5-2.5-2.5H49z"/>
</svg>
