<?xml version="1.0" encoding="utf-8"?>
<!-- Generator: Adobe Illustrator 21.0.0, SVG Export Plug-In . SVG Version: 6.00 Build 0)  -->
<svg version="1.1" id="图层_1" xmlns="http://www.w3.org/2000/svg" xmlns:xlink="http://www.w3.org/1999/xlink" x="0px" y="0px"
	 viewBox="0 0 172 108" style="enable-background:new 0 0 172 108;" xml:space="preserve">
<style type="text/css">
	.st0{fill:none;enable-background:new    ;}
	.st1{fill:#B1D0E8;}
	.st2{opacity:8.000000e-02;enable-background:new    ;}
	.st3{fill:#B5C7DF;}
	.st4{opacity:6.000000e-02;enable-background:new    ;}
	.st5{opacity:0.7;enable-background:new    ;}
	.st6{opacity:0.3;enable-background:new    ;}
	.st7{fill:#FFFFFF;}
	.st8{fill:#D9E3F2;}
	.st9{opacity:0.24;enable-background:new    ;}
	.st10{fill:#C4CEDE;}
	.st11{opacity:0.2;enable-background:new    ;}
	.st12{opacity:0.9;enable-background:new    ;}
	.st13{fill:#F4F7FC;}
	.st14{opacity:0.3;fill:#D9E3F2;enable-background:new    ;}
</style>
<path class="st0" d="z"/>
<g>
	<path class="st1" d="M90.5,94.5c-25.9,0-47-21.1-47-47s21.1-47,47-47s47,21.1,47,47S116.4,94.5,90.5,94.5z M90.5,1.5
		c-25.4,0-46,20.6-46,46s20.6,46,46,46s46-20.6,46-46S115.9,1.5,90.5,1.5z"/>
</g>
<g class="st2">
	<path class="st3" d="M128,22c0-0.7,0-1.4-0.1-2.1c5.7,7.7,9.1,17.2,9.1,27.6C137,73.2,116.2,94,90.5,94c-9.3,0-18-2.7-25.2-7.5
		C100.6,82.8,128,55.3,128,22z"/>
</g>
<g class="st4">
	<path class="st3" d="M120.7,82.8c0.1-1.4,0.3-2.9,0.3-4.3c1.6-47.1-26.9-63.2-61.9-65.3C67.3,5.6,78.4,1,90.5,1
		C116.2,1,137,21.8,137,47.5C137,61.7,130.7,74.3,120.7,82.8z"/>
</g>
<g class="st5">
	<path class="st1" d="M10.3,20.9L10.2,9.1l16.5,10.1L10.3,20.9z M11.2,10.9l0.1,8.8l12.4-1.2L11.2,10.9z"/>
</g>
<g class="st6">
	<path class="st3" d="M19.2,16.6L6.5,14.8l2.2,7.9L19.2,16.6z"/>
</g>
<g>
	<path class="st7" d="M58,50.2l4.2,4c0.9,0.8,0.9,2.2,0,3l-39,40.2c-1.7,1.7-4.4,1.8-6.1,0.1l-1.1-1c-1.7-1.7-1.8-4.4-0.1-6.1
		l39-40.2C55.8,49.4,57.1,49.3,58,50.2z"/>
	<path class="st1" d="M20.1,99.2c-1.2,0-2.4-0.5-3.4-1.4l-1.1-1c-0.9-0.9-1.4-2.1-1.5-3.4s0.5-2.5,1.4-3.4l39-40.2
		c1-1.1,2.7-1.1,3.8-0.1l4.2,4c0.5,0.5,0.8,1.2,0.8,1.9c0,0.7-0.3,1.4-0.8,1.9l-39,40.2C22.6,98.8,21.3,99.2,20.1,99.2z M56.5,50.1
		c-0.4,0-0.9,0.2-1.2,0.5l-39,40.2c-0.7,0.7-1.1,1.7-1.1,2.7c0,1,0.4,2,1.2,2.7l1.1,1c1.5,1.5,3.9,1.4,5.4-0.1l39-40.2
		c0.3-0.3,0.5-0.7,0.5-1.2c0-0.4-0.2-0.9-0.5-1.2l-4.2-4C57.3,50.2,56.9,50.1,56.5,50.1z"/>
</g>
<g class="st6">
	<path class="st8" d="M72.2,35.5l3.3,3.3c0.7,0.7,0.7,1.8,0,2.5L44.4,73.9c-1.3,1.4-4.2,1.2-5.6-0.2l0,0c-1.4-1.3-1.6-4.2-0.3-5.5
		l31.3-32.6C70.4,34.8,71.5,34.8,72.2,35.5z"/>
</g>
<g class="st6">
	<path class="st8" d="M153.5,36.2l13.7-5L166,42.4L153.5,36.2z"/>
</g>
<g class="st5">
	<path class="st1" d="M164,40.5l-16.8-1.4l15.4-12.6L164,40.5z M149.8,38.3l13.1,1.1l-1.1-10.9L149.8,38.3z"/>
</g>
<g class="st9">
	<circle class="st10" cx="60.6" cy="51.6" r="28.6"/>
</g>
<g>
	<path class="st7" d="M29.5,105H9.6"/>
	<rect x="9.6" y="104.5" class="st1" width="19.9" height="1"/>
</g>
<g>
	<path class="st7" d="M159,105h-6.4"/>
	<rect x="152.6" y="104.5" class="st1" width="6.4" height="1"/>
</g>
<g>
	<path class="st7" d="M150,105H34.6"/>
	<rect x="34.6" y="104.5" class="st1" width="115.4" height="1"/>
</g>
<g>
	<path class="st7" d="M83,100h13c1.1,0,2,0.9,2,2v4c0,1.1-0.9,2-2,2H83c-1.1,0-2-0.9-2-2v-4C81,100.9,81.9,100,83,100z"/>
	<path class="st1" d="M96,108.5H83c-1.4,0-2.5-1.1-2.5-2.5v-4c0-1.4,1.1-2.5,2.5-2.5h13c1.4,0,2.5,1.1,2.5,2.5v4
		C98.5,107.4,97.4,108.5,96,108.5z M83,100.5c-0.8,0-1.5,0.7-1.5,1.5v4c0,0.8,0.7,1.5,1.5,1.5h13c0.8,0,1.5-0.7,1.5-1.5v-4
		c0-0.8-0.7-1.5-1.5-1.5H83z"/>
</g>
<g>
	<path class="st1" d="M69.7,86.7l0-1c1.3,0,2.7-0.1,4-0.2l0.1,1C72.4,86.6,71,86.7,69.7,86.7z M67.7,86.7c-1.2,0-2.5-0.1-3.7-0.2
		l0.1-1c1.2,0.1,2.5,0.2,3.7,0.2L67.7,86.7z M75.7,86.3l-0.1-1c1.3-0.2,2.6-0.4,3.9-0.6l0.2,1C78.4,85.9,77.1,86.2,75.7,86.3z
		 M81.7,85.3l-0.2-1c1.3-0.3,2.6-0.7,3.8-1.1l0.3,1C84.3,84.6,83,85,81.7,85.3z M87.5,83.5l-0.3-0.9c1.2-0.4,2.5-0.9,3.7-1.5
		l0.4,0.9C90,82.6,88.7,83.1,87.5,83.5z M93.1,81.2l-0.4-0.9c1.2-0.6,2.3-1.2,3.5-1.9l0.5,0.9C95.5,80,94.3,80.6,93.1,81.2z
		 M98.4,78.2l-0.5-0.8c1.1-0.7,2.2-1.4,3.3-2.2l0.6,0.8C100.6,76.8,99.5,77.5,98.4,78.2z M103.3,74.8l-0.6-0.8c1-0.8,2.1-1.7,3-2.5
		l0.7,0.7C105.4,73.1,104.4,73.9,103.3,74.8z M107.9,70.8l-0.7-0.7c0.9-0.9,1.9-1.8,2.8-2.8l0.7,0.7C109.8,69,108.8,69.9,107.9,70.8
		z M112.1,66.5l-0.7-0.7c0.2-0.2,0.4-0.4,0.6-0.7c0.7-0.8,1.3-1.6,2-2.4l0.8,0.6c-0.6,0.8-1.3,1.6-2,2.4
		C112.5,66.1,112.3,66.3,112.1,66.5z M115.9,61.8l-0.8-0.6c0.8-1.1,1.5-2.2,2.2-3.3l0.8,0.5C117.5,59.6,116.7,60.7,115.9,61.8z
		 M119.2,56.7l-0.9-0.5c0.7-1.1,1.3-2.3,1.9-3.5l0.9,0.4C120.5,54.4,119.9,55.6,119.2,56.7z M122,51.4l-0.9-0.4
		c0.5-1.2,1.1-2.4,1.5-3.7l0.9,0.4C123.1,48.9,122.6,50.2,122,51.4z M124.2,45.8l-0.9-0.3c0.4-1.2,0.8-2.5,1.2-3.8l1,0.3
		C125.1,43.2,124.7,44.5,124.2,45.8z M125.9,40l-1-0.2c0.3-1.3,0.6-2.6,0.8-3.9l1,0.2C126.5,37.3,126.2,38.7,125.9,40z M127,34
		l-1-0.1c0.2-1.3,0.3-2.6,0.4-3.9l1,0.1C127.3,31.3,127.1,32.7,127,34z M127.5,28l-1,0c0-0.6,0-1.2,0-1.8c0-0.7,0-1.5,0-2.2l1,0
		c0,0.7,0,1.5,0,2.2C127.5,26.8,127.5,27.4,127.5,28z M126.3,22c-0.1-1.3-0.2-2.6-0.4-3.9l1-0.1c0.2,1.3,0.3,2.7,0.4,4L126.3,22z"/>
</g>
<g>
	<path class="st1" d="M130.5,56.8c-0.2,0-0.3,0-0.5,0c-9.8-0.1-22.5-1.7-35.7-4.7c-13.2-3-25.4-6.8-34.2-11c-6.4-3-13.9-7.4-13-11.4
		l1,0.2c-0.6,2.6,4,6.3,12.5,10.3c8.8,4.1,20.9,8,34,10.9c13.1,2.9,25.7,4.6,35.4,4.6c0.2,0,0.3,0,0.5,0c9.1,0,14.6-1.4,15.2-4
		c0.5-2.3-2.6-5.3-9.3-8.8l-0.1-1.1c5.2,2.6,11.2,6.5,10.4,10.1C145.8,55.9,137.5,56.8,130.5,56.8z"/>
</g>
<g class="st11">
	<path class="st1" d="M129.7,62c-10.5,0-23.4-1.9-34.9-4.5c-13.3-3-26.3-7.1-35.7-11.2c-11.4-5-16.2-9.4-15.2-13.8l4.9,1.1
		c0.2,3,16.2,13.5,47.1,19c23.3,4.2,37,5.8,46.8,2c1.1-0.4,1.5-0.2,1.5-0.7c0-0.9-0.1-1.6-7.4-5.3l-0.5-5.6c4.6,2.3,10.2,3.8,10.3,9
		c0,2.3,0,4.8-1.9,6.4C141.2,61.3,137.8,62,129.7,62z"/>
</g>
<g>
	<path class="st1" d="M120.7,80.3l-1-0.2c0.2-1.3,0.4-2.6,0.5-3.9l1,0.1C121.1,77.7,120.9,79,120.7,80.3z M121.4,74.3l-1-0.1
		c0.1-1.1,0.1-2.2,0.1-3.3l0-0.7l1,0l0,0.7C121.5,72.1,121.4,73.2,121.4,74.3z M120.4,68.3c-0.1-1.3-0.2-2.6-0.3-4l1-0.1
		c0.2,1.3,0.3,2.7,0.3,4L120.4,68.3z M119.8,62.4c-0.2-1.3-0.4-2.6-0.7-3.9l1-0.2c0.3,1.3,0.5,2.6,0.7,4L119.8,62.4z M118.6,56.6
		c-0.3-1.3-0.7-2.6-1.1-3.8l0.9-0.3c0.4,1.3,0.8,2.6,1.1,3.9L118.6,56.6z M116.9,50.9c-0.5-1.2-1-2.5-1.5-3.7l0.9-0.4
		c0.6,1.2,1.1,2.5,1.5,3.7L116.9,50.9z M114.5,45.5c-0.6-1.2-1.2-2.3-1.9-3.5l0.9-0.5c0.7,1.2,1.3,2.3,1.9,3.5L114.5,45.5z
		 M111.6,40.3c-0.7-1.2-1.5-2.3-2.2-3.3l0.8-0.6c0.8,1.1,1.6,2.2,2.3,3.3L111.6,40.3z M108.1,35.4c-0.2-0.3-0.5-0.6-0.7-0.9
		c-0.6-0.7-1.2-1.4-1.8-2.1l0.7-0.7c0.6,0.7,1.3,1.4,1.9,2.2c0.2,0.3,0.5,0.6,0.7,0.9L108.1,35.4z M104.2,31
		c-0.9-0.9-1.9-1.9-2.9-2.7l0.7-0.7c1,0.9,2,1.8,2.9,2.8L104.2,31z M99.8,26.9c-1-0.8-2.1-1.7-3.1-2.4l0.6-0.8
		c1.1,0.8,2.2,1.6,3.2,2.5L99.8,26.9z M95.1,23.4c-1.1-0.7-2.2-1.4-3.4-2.1l0.5-0.9c1.2,0.7,2.3,1.4,3.4,2.1L95.1,23.4z M89.9,20.4
		c-1.2-0.6-2.4-1.2-3.6-1.7l0.4-0.9c1.2,0.5,2.5,1.1,3.6,1.7L89.9,20.4z M84.5,17.9c-1.2-0.5-2.5-0.9-3.7-1.3l0.3-1
		c1.3,0.4,2.6,0.9,3.8,1.3L84.5,17.9z M78.9,16c-1.3-0.4-2.6-0.7-3.9-0.9l0.2-1c1.3,0.3,2.6,0.6,3.9,0.9L78.9,16z M73.1,14.7
		c-1.3-0.2-2.6-0.4-3.9-0.5l0.1-1c1.3,0.1,2.7,0.3,4,0.5L73.1,14.7z M67.2,14c-1.2-0.1-2.4-0.1-3.6-0.1l-0.4,0l0-1l0.4,0
		c1.2,0,2.4,0,3.7,0.1L67.2,14z M60.1,14L60,13c0.4,0,0.8,0,1.2-0.1l0,1C60.9,14,60.5,14,60.1,14z"/>
</g>
<g>
	<rect x="88.5" y="94" class="st1" width="1" height="6"/>
</g>
<g>
	<circle class="st7" cx="58.5" cy="49.5" r="28"/>
	<path class="st1" d="M58.5,78C42.8,78,30,65.2,30,49.5C30,33.8,42.8,21,58.5,21S87,33.8,87,49.5C87,65.2,74.2,78,58.5,78z M58.5,22
		C43.3,22,31,34.4,31,49.5S43.3,77,58.5,77S86,64.7,86,49.5S73.6,22,58.5,22z"/>
</g>
<g class="st12">
	<ellipse class="st13" cx="57.9" cy="49" rx="22" ry="22.1"/>
	<path class="st1" d="M57.9,71.5c-0.3,0-0.5,0-0.8,0l0-1c1.3,0,2.6,0,3.9-0.2l0.1,1C60.2,71.5,59,71.5,57.9,71.5z M55.1,71.4
		c-1.4-0.2-2.7-0.5-4-0.9l0.3-1c1.2,0.4,2.5,0.7,3.8,0.8L55.1,71.4z M63.2,70.9l-0.2-1c1.3-0.3,2.5-0.7,3.7-1.3l0.4,0.9
		C65.9,70.1,64.6,70.6,63.2,70.9z M49.2,69.8c-1.2-0.5-2.5-1.2-3.6-1.9l0.5-0.8c1.1,0.7,2.2,1.3,3.4,1.8L49.2,69.8z M68.9,68.7
		l-0.5-0.9c1.1-0.6,2.2-1.4,3.2-2.2l0.6,0.8C71.2,67.2,70.1,68,68.9,68.7z M44,66.6c-1.1-0.8-2.1-1.8-3-2.8l0.8-0.7
		c0.9,1,1.8,1.9,2.8,2.7L44,66.6z M73.8,65l-0.7-0.7c0.9-0.9,1.8-1.9,2.5-3l0.8,0.6C75.7,62.9,74.8,64,73.8,65z M39.7,62.2
		c-0.8-1.1-1.5-2.3-2.1-3.5l0.9-0.4c0.6,1.2,1.2,2.3,2,3.4L39.7,62.2z M77.5,60.1l-0.9-0.5c0.6-1.1,1.2-2.3,1.6-3.6l0.9,0.3
		C78.8,57.7,78.2,58.9,77.5,60.1z M36.8,56.8c-0.5-1.3-0.8-2.6-1.1-3.9l1-0.2c0.2,1.3,0.6,2.5,1,3.8L36.8,56.8z M79.8,54.4l-1-0.2
		c0.3-1.3,0.5-2.6,0.6-3.9l1,0.1C80.3,51.7,80.1,53.1,79.8,54.4z M35.5,50.9c-0.1-0.6-0.1-1.3-0.1-1.9c0-0.7,0-1.5,0.1-2.2l1,0.1
		c-0.1,0.7-0.1,1.4-0.1,2.1c0,0.6,0,1.2,0.1,1.8L35.5,50.9z M79.4,48.4c0-1.3-0.2-2.6-0.5-3.9l1-0.2c0.3,1.3,0.4,2.7,0.5,4.1
		L79.4,48.4z M36.8,44.9l-1-0.2c0.3-1.3,0.6-2.7,1.1-3.9l0.9,0.4C37.4,42.4,37.1,43.7,36.8,44.9z M78.5,42.6
		c-0.4-1.2-0.9-2.5-1.5-3.6l0.9-0.5c0.6,1.2,1.2,2.5,1.6,3.8L78.5,42.6z M38.7,39.4L37.8,39c0.6-1.2,1.3-2.4,2.1-3.5l0.8,0.6
		C39.9,37.1,39.2,38.2,38.7,39.4z M76,37.3c-0.7-1.1-1.5-2.1-2.4-3.1l0.7-0.7c0.9,1,1.8,2.1,2.5,3.2L76,37.3z M41.9,34.6l-0.7-0.7
		c0.9-1,1.9-2,3-2.8l0.6,0.8C43.8,32.7,42.8,33.6,41.9,34.6z M72.2,32.9c-1-0.9-2-1.6-3.1-2.3l0.5-0.9c1.2,0.7,2.3,1.5,3.3,2.4
		L72.2,32.9z M46.4,30.8l-0.5-0.8c1.1-0.7,2.4-1.4,3.6-1.9l0.4,0.9C48.7,29.5,47.5,30.1,46.4,30.8z M67.4,29.6
		c-1.2-0.6-2.4-1-3.6-1.4l0.3-1c1.3,0.4,2.6,0.9,3.8,1.5L67.4,29.6z M51.7,28.3l-0.3-1c1.3-0.4,2.6-0.7,4-0.8l0.1,1
		C54.2,27.7,52.9,28,51.7,28.3z M61.8,27.8c-1.3-0.2-2.6-0.3-3.9-0.4c-0.1,0-0.3,0-0.4,0l0-1c0.2,0,0.3,0,0.5,0
		c1.4,0,2.7,0.1,4.1,0.4L61.8,27.8z"/>
</g>
<g>
	<path class="st7" d="M91.7,17.4l4.2,2.7c0.9,0.6,1.2,1.8,0.6,2.8l-1.1,1.7c-0.6,0.9-1.8,1.2-2.8,0.6l-4.2-2.7
		c-0.9-0.6-1.2-1.8-0.6-2.8l1.1-1.7C89.6,17,90.8,16.8,91.7,17.4z"/>
	<path class="st1" d="M93.7,25.9c-0.5,0-0.9-0.1-1.4-0.4l-4.2-2.7c-0.6-0.4-0.9-0.9-1.1-1.6c-0.1-0.7,0-1.3,0.3-1.9l1.1-1.7
		c0.8-1.2,2.3-1.5,3.5-0.7l4.2,2.7c0.6,0.4,0.9,0.9,1.1,1.6c0.1,0.7,0,1.3-0.3,1.9l-1.1,1.7c-0.4,0.6-0.9,0.9-1.6,1.1
		C94.1,25.9,93.9,25.9,93.7,25.9z M90.6,17.5c-0.5,0-1,0.2-1.3,0.7l-1.1,1.7c-0.2,0.3-0.3,0.7-0.2,1.1c0.1,0.4,0.3,0.7,0.7,0.9
		l4.2,2.7c0.3,0.2,0.7,0.3,1.1,0.2c0.4-0.1,0.7-0.3,0.9-0.7l1.1-1.7c0.2-0.3,0.3-0.7,0.2-1.1c-0.1-0.4-0.3-0.7-0.7-0.9l-4.2-2.7
		C91.2,17.6,90.9,17.5,90.6,17.5z"/>
</g>
<g>
	<path class="st7" d="M93.1,76.1l4.7-1.8c1-0.4,2.2,0.1,2.6,1.1l0.7,1.9c0.4,1-0.1,2.2-1.1,2.6l-4.7,1.8c-1,0.4-2.2-0.1-2.6-1.1
		l-0.7-1.9C91.5,77.7,92.1,76.5,93.1,76.1z"/>
	<path class="st1" d="M94.5,82.3c-1,0-2-0.6-2.3-1.6l-0.7-1.9c-0.2-0.6-0.2-1.3,0-1.9c0.3-0.6,0.8-1.1,1.4-1.3l4.7-1.8
		c1.3-0.5,2.7,0.1,3.2,1.4l0.7,1.9c0.2,0.6,0.2,1.3,0,1.9s-0.8,1.1-1.4,1.3l-4.7,1.8C95.1,82.3,94.8,82.3,94.5,82.3z M98.5,74.7
		c-0.2,0-0.4,0-0.5,0.1l-4.7,1.8c-0.4,0.1-0.7,0.4-0.8,0.8s-0.2,0.8,0,1.1l0.7,1.9c0.3,0.8,1.2,1.2,1.9,0.9l4.7-1.8
		c0.4-0.1,0.7-0.4,0.8-0.8c0.2-0.4,0.2-0.8,0-1.1l-0.7-1.9C99.6,75,99.1,74.7,98.5,74.7z"/>
</g>
<path class="st14" d="M37.3,54.9C36.7,53,36.4,51,36.4,49c0-11.9,9.6-21.6,21.5-21.6c6.6,0,12.6,3,16.5,7.8L37.3,54.9z"/>
</svg>
