<?xml version="1.0" encoding="utf-8"?>
<!-- Generator: Adobe Illustrator 21.0.0, SVG Export Plug-In . SVG Version: 6.00 Build 0)  -->
<svg version="1.1" id="图层_1" xmlns="http://www.w3.org/2000/svg" xmlns:xlink="http://www.w3.org/1999/xlink" x="0px" y="0px"
	 viewBox="0 0 168 108" style="enable-background:new 0 0 168 108;" xml:space="preserve">
<style type="text/css">
	.st0{fill:#FFFFFF;}
	.st1{fill:#B2D0E7;}
	.st2{opacity:0.3;enable-background:new    ;}
	.st3{fill:#DAE3F1;}
	.st4{opacity:0.7;enable-background:new    ;}
	.st5{fill:#B6C7DE;}
	.st6{fill:#F5F8FC;}
	.st7{opacity:0.85;enable-background:new    ;}
	.st8{fill:#EBEEF2;}
	.st9{fill:#F1F5FB;}
	.st10{fill:#EEF2FA;}
	.st11{fill:#A2B6D0;}
	.st12{opacity:0.24;enable-background:new    ;}
	.st13{fill:#C4CEDD;}
	.st14{fill:#F4F7FC;}
	.st15{fill:#D9E3F2;}
</style>
<g>
	<path class="st0" d="M47,41.2l4.2,4c0.9,0.8,0.9,2.2,0,3l-39,40.2c-1.7,1.7-4.4,1.8-6.1,0.1l-1.1-1c-1.7-1.7-1.8-4.4-0.1-6.1
		l39-40.2C44.8,40.4,46.1,40.3,47,41.2z"/>
	<path class="st1" d="M9.1,90.2c-1.2,0-2.4-0.4-3.4-1.4l-1.1-1c-0.9-0.9-1.4-2.1-1.5-3.4S3.6,82,4.5,81l39-40.2
		c1-1.1,2.7-1.1,3.8-0.1l4.2,4c0.5,0.5,0.8,1.2,0.8,1.9c0,0.7-0.3,1.4-0.7,1.9l-39,40.2C11.6,89.8,10.3,90.2,9.1,90.2z M45.5,41.1
		c-0.4,0-0.9,0.2-1.2,0.5l-39,40.2c-0.7,0.7-1.1,1.7-1.1,2.7c0,1,0.4,2,1.2,2.7l1.1,1c1.5,1.5,3.9,1.4,5.4-0.1l39-40.2
		c0.3-0.3,0.5-0.7,0.5-1.2c0-0.4-0.2-0.9-0.5-1.2l-4.2-4C46.3,41.2,45.9,41.1,45.5,41.1z"/>
</g>
<g class="st2">
	<path class="st3" d="M67.6,19.6l3.9,3.8c0.8,0.8,0.8,2.1,0,2.9L34.9,64.5c-2.8,2.8-4.9,1.4-6.5-0.2l0,0c-1.6-1.6-3.3-3.5-0.3-6.5
		l36.6-38.2C65.5,18.8,66.8,18.8,67.6,19.6z"/>
</g>
<g class="st4">
	<path class="st1" d="M6.3,22.9L6.2,11.1l16.5,10.1L6.3,22.9z M7.2,12.9l0.1,8.8l12.4-1.2L7.2,12.9z"/>
</g>
<g class="st2">
	<path class="st5" d="M15.2,18.6L2.5,16.8l2.2,7.9L15.2,18.6z"/>
</g>
<g class="st2">
	<path class="st3" d="M151.8,39.4l13.7-5l-1.2,11.2L151.8,39.4z"/>
</g>
<g class="st4">
	<path class="st1" d="M160,42.5l-12.5-1.4l11.1-12.8L160,42.5z M149.6,40.3l9.4,1.1l-1.1-10.7L149.6,40.3z"/>
</g>
<g>
	<path class="st0" d="M25.5,107H5.6"/>
	<rect x="5.6" y="106.5" class="st1" width="19.9" height="1"/>
</g>
<g>
	<path class="st0" d="M155,107h-6.4"/>
	<rect x="148.6" y="106.5" class="st1" width="6.4" height="1"/>
</g>
<g>
	<path class="st0" d="M146,107H30.6"/>
	<rect x="30.6" y="106.5" class="st1" width="115.4" height="1"/>
</g>
<g>
	<path class="st6" d="M95,41h39c1.1,0,2,0.9,2,2v42c0,1.1-0.9,2-2,2H95c-1.1,0-2-0.9-2-2V43C93,41.9,93.9,41,95,41z"/>
	<path class="st1" d="M134,87.5h-0.7v-1h0.7c0.8,0,1.5-0.7,1.5-1.5v-0.1h1V85C136.5,86.4,135.4,87.5,134,87.5z M131.3,87.5h-4v-1h4
		V87.5z M125.3,87.5h-4v-1h4V87.5z M119.3,87.5h-4v-1h4V87.5z M113.3,87.5h-4v-1h4V87.5z M107.3,87.5h-4v-1h4V87.5z M101.3,87.5h-4
		v-1h4V87.5z M95.3,87.5H95c-1.4,0-2.5-1.1-2.5-2.5v-0.6h1V85c0,0.8,0.7,1.5,1.5,1.5h0.3V87.5z M136.5,82.9h-1v-4h1V82.9z
		 M93.5,82.4h-1v-4h1V82.4z M136.5,76.9h-1v-4h1V76.9z M93.5,76.4h-1v-4h1V76.4z M136.5,70.9h-1v-4h1V70.9z M93.5,70.4h-1v-4h1V70.4
		z M136.5,64.9h-1v-4h1V64.9z M93.5,64.4h-1v-4h1V64.4z M136.5,58.9h-1v-4h1V58.9z M93.5,58.4h-1v-4h1V58.4z M136.5,52.9h-1v-4h1
		V52.9z M93.5,52.4h-1v-4h1V52.4z M136.5,46.9h-1l0-4l1-0.1c0,0.1,0,0.1,0,0.2V46.9z M93.5,46.4h-1V43c0-0.2,0-0.5,0.1-0.7l1,0.3
		c0,0.1-0.1,0.3-0.1,0.4V46.4z M134.7,41.7c-0.2-0.1-0.5-0.2-0.7-0.2h-3v-1h3c0.4,0,0.8,0.1,1.2,0.3L134.7,41.7z M94.6,41.6l-0.3-1
		c0.2-0.1,0.5-0.1,0.7-0.1h4v1h-4C94.9,41.5,94.7,41.5,94.6,41.6z M129,41.5h-4v-1h4V41.5z M123,41.5h-4v-1h4V41.5z M117,41.5h-4v-1
		h4V41.5z M111,41.5h-4v-1h4V41.5z M105,41.5h-4v-1h4V41.5z"/>
</g>
<g>
	<path class="st0" d="M95,3h39c1.1,0,2,0.9,2,2v28c0,1.1-0.9,2-2,2H95c-1.1,0-2-0.9-2-2V5C93,3.9,93.9,3,95,3z"/>
	<path class="st1" d="M134,35.5H95c-1.4,0-2.5-1.1-2.5-2.5V5c0-1.4,1.1-2.5,2.5-2.5h39c1.4,0,2.5,1.1,2.5,2.5v28
		C136.5,34.4,135.4,35.5,134,35.5z M95,3.5c-0.8,0-1.5,0.7-1.5,1.5v28c0,0.8,0.7,1.5,1.5,1.5h39c0.8,0,1.5-0.7,1.5-1.5V5
		c0-0.8-0.7-1.5-1.5-1.5H95z"/>
</g>
<g>
	<path class="st0" d="M53,3h33c1.1,0,2,0.9,2,2v42c0,1.1-0.9,2-2,2H53c-1.1,0-2-0.9-2-2V5C51,3.9,51.9,3,53,3z"/>
	<path class="st1" d="M86,49.5h-0.7v-1H86c0.8,0,1.5-0.7,1.5-1.5v-0.1h1V47C88.5,48.4,87.4,49.5,86,49.5z M83.3,49.5h-4v-1h4V49.5z
		 M77.3,49.5h-4v-1h4V49.5z M71.3,49.5h-4v-1h4V49.5z M65.3,49.5h-4v-1h4V49.5z M59.3,49.5h-4v-1h4V49.5z M53.3,49.5H53
		c-1.4,0-2.5-1.1-2.5-2.5v-0.6h1V47c0,0.8,0.7,1.5,1.5,1.5h0.3V49.5z M88.5,44.9h-1v-4h1V44.9z M51.5,44.4h-1v-4h1V44.4z M88.5,38.9
		h-1v-4h1V38.9z M51.5,38.4h-1v-4h1V38.4z M88.5,32.9h-1v-4h1V32.9z M51.5,32.4h-1v-4h1V32.4z M88.5,26.9h-1v-4h1V26.9z M51.5,26.4
		h-1v-4h1V26.4z M88.5,20.9h-1v-4h1V20.9z M51.5,20.4h-1v-4h1V20.4z M88.5,14.9h-1v-4h1V14.9z M51.5,14.4h-1v-4h1V14.4z M88.5,8.9
		h-1l0-4l1-0.1c0,0.1,0,0.1,0,0.2V8.9z M51.5,8.4h-1V5c0-0.2,0-0.5,0.1-0.7l1,0.3c0,0.1-0.1,0.3-0.1,0.4V8.4z M86.7,3.7
		c-0.2-0.1-0.5-0.2-0.7-0.2h-3v-1h3c0.4,0,0.8,0.1,1.2,0.3L86.7,3.7z M52.6,3.6l-0.3-1c0.2-0.1,0.5-0.1,0.7-0.1c0,0,0,0,0,0h4v1h-4
		C52.8,3.5,52.7,3.5,52.6,3.6z M81,3.5h-4v-1h4V3.5z M75,3.5h-4v-1h4V3.5z M69,3.5h-4v-1h4V3.5z M63,3.5h-4v-1h4V3.5z"/>
</g>
<g>
	<path class="st0" d="M47,55h39c1.1,0,2,0.9,2,2v42c0,1.1-0.9,2-2,2H47c-1.1,0-2-0.9-2-2V57C45,55.9,45.9,55,47,55z"/>
	<path class="st1" d="M86,101.5H47c-1.4,0-2.5-1.1-2.5-2.5V57c0-1.4,1.1-2.5,2.5-2.5h39c1.4,0,2.5,1.1,2.5,2.5v42
		C88.5,100.4,87.4,101.5,86,101.5z M47,55.5c-0.8,0-1.5,0.7-1.5,1.5v42c0,0.8,0.7,1.5,1.5,1.5h39c0.8,0,1.5-0.7,1.5-1.5V57
		c0-0.8-0.7-1.5-1.5-1.5H47z"/>
</g>
<g class="st7">
	<path class="st8" d="M128.3,104H56.7c-1.6,0-2.9-1.3-2.9-3V76c0-1.7,1.3-3,2.9-3h16.7v7c0,2.2,1.8,4,3.9,4h25.5
		c2.2,0,3.9-1.8,3.9-4v-7h21.6c1.6,0,2.9,1.3,2.9,3v25C131.3,102.7,130,104,128.3,104z"/>
</g>
<path class="st0" d="M139,107H45c-1.7,0-3-1.3-3-3V79c0-1.7,1.3-3,3-3h25.4v7.1c0,2.2,1.8,4,4,4h31.3c2.2,0,4-1.8,4-4V76H139
	c1.7,0,3,1.3,3,3v25C142,105.7,140.7,107,139,107z"/>
<g>
	<path class="st9" d="M42.2,100.9h99.5v4.1c0,1.1-0.9,2.1-2.1,2.1H44.3c-1.1,0-2.1-0.9-2.1-2.1V100.9z"/>
</g>
<g>
	<circle class="st10" cx="66.5" cy="48.5" r="3.5"/>
	<path class="st11" d="M66.5,52.5c-2.2,0-4-1.8-4-4s1.8-4,4-4s4,1.8,4,4S68.7,52.5,66.5,52.5z M66.5,45.5c-1.7,0-3,1.3-3,3
		s1.3,3,3,3s3-1.3,3-3S68.2,45.5,66.5,45.5z"/>
</g>
<g class="st12">
	<circle class="st13" cx="50.6" cy="42.6" r="28.6"/>
</g>
<g>
	<circle class="st0" cx="47.5" cy="40.5" r="28"/>
	<path class="st1" d="M47.5,69C31.8,69,19,56.2,19,40.5C19,24.8,31.8,12,47.5,12S76,24.8,76,40.5C76,56.2,63.2,69,47.5,69z M47.5,13
		C32.3,13,20,25.4,20,40.5S32.3,68,47.5,68S75,55.7,75,40.5S62.6,13,47.5,13z"/>
</g>
<ellipse class="st14" cx="47.4" cy="40.4" rx="21.6" ry="21.7"/>
<g class="st2">
	<path class="st15" d="M26.5,46.6c-0.6-1.8-0.9-3.9-0.9-5.9c0-11.9,9.9-21.5,22.1-21.5c6.8,0,13,3,17,7.8L26.5,46.6z"/>
</g>
<path class="st1" d="M139,107.5H45c-1.9,0-3.5-1.6-3.5-3.5V79c0-1.9,1.6-3.5,3.5-3.5h25.9v7.6c0,1.9,1.6,3.5,3.5,3.5h31.3
	c1.9,0,3.5-1.6,3.5-3.5v-7.6H139c1.9,0,3.5,1.6,3.5,3.5v25C142.5,105.9,140.9,107.5,139,107.5z M45,76.5c-1.4,0-2.5,1.1-2.5,2.5v25
	c0,1.4,1.1,2.5,2.5,2.5h94c1.4,0,2.5-1.1,2.5-2.5V79c0-1.4-1.1-2.5-2.5-2.5h-28.9v6.6c0,2.5-2,4.5-4.5,4.5H74.4
	c-2.5,0-4.5-2-4.5-4.5v-6.6H45z"/>
<path class="st1" d="M47.4,63c-0.3,0-0.5,0-0.8,0l0-1c1.3,0,2.6,0,3.9-0.2l0.1,1C49.6,62.9,48.5,63,47.4,63z M44.6,62.8
	c-1.3-0.2-2.7-0.5-4-0.9l0.3-1c1.2,0.4,2.5,0.7,3.8,0.8L44.6,62.8z M52.7,62.4l-0.2-1c1.3-0.3,2.5-0.7,3.7-1.3l0.4,0.9
	C55.3,61.6,54,62,52.7,62.4z M38.7,61.2c-1.2-0.5-2.5-1.2-3.6-1.9l0.5-0.8c1.1,0.7,2.2,1.3,3.4,1.8L38.7,61.2z M58.4,60.1l-0.5-0.9
	c1.1-0.6,2.2-1.4,3.2-2.2l0.6,0.8C60.7,58.7,59.6,59.5,58.4,60.1z M33.4,58.1c-1.1-0.8-2.1-1.8-3-2.8l0.8-0.7c0.9,1,1.8,1.9,2.8,2.7
	L33.4,58.1z M63.3,56.4l-0.7-0.7c0.9-0.9,1.8-1.9,2.5-3l0.8,0.6C65.1,54.4,64.2,55.5,63.3,56.4z M29.2,53.7
	c-0.8-1.1-1.5-2.3-2.1-3.5l0.9-0.4c0.6,1.2,1.2,2.3,2,3.4L29.2,53.7z M67,51.6l-0.9-0.5c0.6-1.1,1.2-2.3,1.6-3.6l0.9,0.3
	C68.2,49.1,67.7,50.4,67,51.6z M26.3,48.3c-0.5-1.3-0.8-2.6-1.1-3.9l1-0.2c0.2,1.3,0.6,2.5,1,3.8L26.3,48.3z M69.2,45.9l-1-0.2
	c0.3-1.3,0.5-2.6,0.6-3.9l1,0.1C69.8,43.2,69.6,44.6,69.2,45.9z M25,42.3c-0.1-0.6-0.1-1.3-0.1-1.9c0-0.7,0-1.5,0.1-2.2l1,0.1
	c-0.1,0.7-0.1,1.4-0.1,2.1c0,0.6,0,1.2,0.1,1.8L25,42.3z M68.9,39.8c0-1.3-0.2-2.6-0.5-3.9l1-0.2c0.3,1.3,0.4,2.7,0.5,4.1L68.9,39.8
	z M26.3,36.4l-1-0.2c0.3-1.3,0.6-2.7,1.1-3.9l0.9,0.4C26.9,33.9,26.5,35.1,26.3,36.4z M68,34.1c-0.4-1.2-0.9-2.5-1.5-3.6l0.9-0.5
	c0.6,1.2,1.2,2.5,1.6,3.8L68,34.1z M28.1,30.9l-0.9-0.4c0.6-1.2,1.3-2.4,2.1-3.5l0.8,0.6C29.4,28.6,28.7,29.7,28.1,30.9z M65.5,28.8
	c-0.7-1.1-1.5-2.1-2.4-3.1l0.7-0.7c0.9,1,1.8,2.1,2.5,3.2L65.5,28.8z M31.4,26l-0.7-0.7c0.9-1,1.9-2,3-2.8l0.6,0.8
	C33.2,24.2,32.3,25.1,31.4,26z M61.7,24.3c-1-0.9-2-1.6-3.1-2.3l0.5-0.9c1.2,0.7,2.3,1.5,3.3,2.4L61.7,24.3z M35.9,22.2l-0.5-0.8
	c1.1-0.7,2.4-1.4,3.6-1.9l0.4,0.9C38.1,20.9,37,21.5,35.9,22.2z M56.8,21.1c-1.2-0.6-2.4-1-3.6-1.4l0.3-1c1.3,0.4,2.6,0.9,3.8,1.5
	L56.8,21.1z M41.2,19.8l-0.3-1c1.3-0.4,2.6-0.7,4-0.8l0.1,1C43.7,19.2,42.4,19.4,41.2,19.8z M51.3,19.2c-1.3-0.2-2.6-0.3-3.9-0.4
	c-0.1,0-0.3,0-0.4,0l0-1c0.2,0,0.3,0,0.5,0c1.4,0,2.7,0.1,4.1,0.4L51.3,19.2z"/>
</svg>
