<?xml version="1.0" encoding="utf-8"?>
<!-- Generator: Adobe Illustrator 21.0.0, SVG Export Plug-In . SVG Version: 6.00 Build 0)  -->
<svg version="1.1" id="图层_1" xmlns="http://www.w3.org/2000/svg" xmlns:xlink="http://www.w3.org/1999/xlink" x="0px" y="0px"
	 viewBox="0 0 168 108" style="enable-background:new 0 0 168 108;" xml:space="preserve">
<style type="text/css">
	.st0{fill:#FFFFFF;}
	.st1{fill:#B1D0E8;}
	.st2{fill:#F5F8FC;}
	.st3{fill:#F1F3F7;}
	.st4{opacity:0.64;enable-background:new    ;}
	.st5{fill:#D3E4F2;}
	.st6{opacity:0.24;enable-background:new    ;}
	.st7{fill:#C4CEDE;}
	.st8{opacity:0.3;enable-background:new    ;}
	.st9{fill:#D9E3F2;}
	.st10{fill:#F4F7FC;}
	.st11{opacity:0.7;enable-background:new    ;}
	.st12{fill:#B5C7DF;}
	.st13{fill:#E4EEF6;}
	.st14{opacity:0.5;enable-background:new    ;}
	.st15{fill:#D9E2F3;}
</style>
<g>
	<path class="st0" d="M39,18.1h101c1.7,0,3,1.3,3,3V99c0,1.7-1.3,3-3,3H39c-1.7,0-3-1.3-3-3V21.1C36,19.4,37.3,18.1,39,18.1z"/>
	<path class="st1" d="M138.4,102.5v-1h1.6c0.7,0,1.3-0.3,1.8-0.7l0.7,0.7c-0.7,0.7-1.5,1-2.5,1H138.4z M136.4,102.5h-4v-1h4V102.5z
		 M130.4,102.5h-4v-1h4V102.5z M124.4,102.5h-4v-1h4V102.5z M118.4,102.5h-4v-1h4V102.5z M112.4,102.5h-4v-1h4V102.5z M106.4,102.5
		h-4v-1h4V102.5z M100.4,102.5h-4v-1h4V102.5z M94.4,102.5h-4v-1h4V102.5z M88.4,102.5h-4v-1h4V102.5z M82.4,102.5h-4v-1h4V102.5z
		 M76.4,102.5h-4v-1h4V102.5z M70.4,102.5h-4v-1h4V102.5z M64.4,102.5h-4v-1h4V102.5z M58.4,102.5h-4v-1h4V102.5z M52.4,102.5h-4v-1
		h4V102.5z M46.4,102.5h-4v-1h4V102.5z M40.4,102.5H39c-1,0-2-0.5-2.7-1.3l0.8-0.6c0.5,0.6,1.2,0.9,1.9,0.9h1.4V102.5z M143.5,99.4
		l-1-0.1c0-0.1,0-0.2,0-0.3v-3.7h1V99C143.5,99.1,143.5,99.3,143.5,99.4z M35.5,99.1l0-4h1V99L35.5,99.1z M143.5,93.3h-1v-4h1V93.3z
		 M36.5,93.1h-1v-4h1V93.1z M143.5,87.3h-1v-4h1V87.3z M36.5,87.1h-1v-4h1V87.1z M143.5,81.3h-1v-4h1V81.3z M36.5,81.1h-1v-4h1V81.1
		z M143.5,75.3h-1v-4h1V75.3z M36.5,75.1h-1v-4h1V75.1z M143.5,69.3h-1v-4h1V69.3z M36.5,69.1h-1v-4h1V69.1z M143.5,63.3h-1v-4h1
		V63.3z M36.5,63.1h-1v-4h1V63.1z M143.5,57.3h-1v-4h1V57.3z M36.5,57.1h-1v-4h1V57.1z M143.5,51.3h-1v-4h1V51.3z M36.5,51.1h-1v-4
		h1V51.1z M143.5,45.3h-1v-4h1V45.3z M36.5,45.1h-1v-4h1V45.1z M143.5,39.3h-1v-4h1V39.3z M36.5,39.1h-1v-4h1V39.1z M143.5,33.3h-1
		v-4h1V33.3z M36.5,33.1h-1v-4h1V33.1z M143.5,27.3h-1v-4h1V27.3z M36.5,27.1h-1v-4h1V27.1z M143.5,21.3h-1v-0.3
		c0-1.1-0.7-2-1.7-2.4l0.3-0.9c1.4,0.5,2.4,1.8,2.4,3.3V21.3z M35.5,21.1L35.5,21.1c0-1.6,1.1-3,2.7-3.4l0.2,1
		c-1.1,0.3-1.9,1.3-1.9,2.4L35.5,21.1z M139,18.6h-4v-1h4V18.6z M133,18.6h-4v-1h4V18.6z M127,18.6h-4v-1h4V18.6z M121,18.6h-4v-1h4
		V18.6z M115,18.6h-4v-1h4V18.6z M109,18.6h-4v-1h4V18.6z M103,18.6h-4v-1h4V18.6z M97,18.6h-4v-1h4V18.6z M91,18.6h-4v-1h4V18.6z
		 M85,18.6h-4v-1h4V18.6z M79,18.6h-4v-1h4V18.6z M73,18.6h-4v-1h4V18.6z M67,18.6h-4v-1h4V18.6z M61,18.6h-4v-1h4V18.6z M55,18.6
		h-4v-1h4V18.6z M49,18.6h-4v-1h4V18.6z M43,18.6h-4v-1h4V18.6z"/>
</g>
<g>
	<path class="st2" d="M39,16h101c1.7,0,3,1.3,3,3v19.8H36V19C36,17.3,37.3,16,39,16z"/>
	<path class="st1" d="M143.5,39.3h-108V19c0-1.9,1.6-3.5,3.5-3.5h101c1.9,0,3.5,1.6,3.5,3.5V39.3z M36.5,38.3h106V19
		c0-1.4-1.1-2.5-2.5-2.5H39c-1.4,0-2.5,1.1-2.5,2.5V38.3z"/>
</g>
<g>
	<path class="st3" d="M112.5,16.5h5.7c1.2,0,2.2,1,2.2,2.2v6.7c0,1.2-1,2.2-2.2,2.2h-5.7c-1.2,0-2.2-1-2.2-2.2v-6.7
		C110.4,17.5,111.3,16.5,112.5,16.5z"/>
</g>
<g class="st4">
	<rect x="57" y="53.9" class="st5" width="56.3" height="3.6"/>
</g>
<g class="st4">
	<rect x="57" y="68.6" class="st5" width="56.3" height="3.6"/>
</g>
<g class="st4">
	<rect x="54.2" y="83" class="st5" width="62" height="3.9"/>
</g>
<g>
	<path class="st3" d="M66.8,16.5h6.5c1,0,1.8,0.8,1.8,1.8v7.5c0,1-0.8,1.8-1.8,1.8h-6.5c-1,0-1.8-0.8-1.8-1.8v-7.5
		C65,17.3,65.8,16.5,66.8,16.5z"/>
</g>
<g>
	<path class="st0" d="M115,25h-6c-1.1,0-2-0.9-2-2V8c0-1.1,0.9-2,2-2h6c1.1,0,2,0.9,2,2v15C117,24.1,116.1,25,115,25z M70,25h-6
		c-1.1,0-2-0.9-2-2V8c0-1.1,0.9-2,2-2h6c1.1,0,2,0.9,2,2v15C72,24.1,71.1,25,70,25z"/>
	<path class="st1" d="M115,25.5h-6c-1.4,0-2.5-1.1-2.5-2.5V8c0-1.4,1.1-2.5,2.5-2.5h6c1.4,0,2.5,1.1,2.5,2.5v15
		C117.5,24.4,116.4,25.5,115,25.5z M109,6.5c-0.8,0-1.5,0.7-1.5,1.5v15c0,0.8,0.7,1.5,1.5,1.5h6c0.8,0,1.5-0.7,1.5-1.5V8
		c0-0.8-0.7-1.5-1.5-1.5H109z M70,25.5h-6c-1.4,0-2.5-1.1-2.5-2.5V8c0-1.4,1.1-2.5,2.5-2.5h6c1.4,0,2.5,1.1,2.5,2.5v15
		C72.5,24.4,71.4,25.5,70,25.5z M64,6.5c-0.8,0-1.5,0.7-1.5,1.5v15c0,0.8,0.7,1.5,1.5,1.5h6c0.8,0,1.5-0.7,1.5-1.5V8
		c0-0.8-0.7-1.5-1.5-1.5H64z"/>
</g>
<g>
	<path class="st0" d="M46,46.2l4.2,4c0.9,0.8,0.9,2.2,0,3l-39,40.2c-1.7,1.7-4.4,1.8-6.1,0.1l-1.1-1c-1.7-1.7-1.8-4.4-0.1-6.1
		l39-40.2C43.8,45.4,45.1,45.3,46,46.2z"/>
	<path class="st1" d="M8.1,95.2c-1.2,0-2.4-0.4-3.4-1.4l-1.1-1c-0.9-0.9-1.4-2.1-1.5-3.4c0-1.3,0.5-2.5,1.4-3.4l39-40.2
		c1-1.1,2.7-1.1,3.8-0.1l4.2,4c0.5,0.5,0.8,1.2,0.8,1.9c0,0.7-0.3,1.4-0.7,1.9l-39,40.2C10.6,94.8,9.3,95.2,8.1,95.2z M44.5,46.1
		c-0.4,0-0.9,0.2-1.2,0.5l-39,40.2c-0.7,0.7-1.1,1.7-1.1,2.7s0.4,2,1.2,2.7l1.1,1c1.5,1.5,3.9,1.4,5.4-0.1l39-40.2
		c0.3-0.3,0.5-0.7,0.5-1.2s-0.2-0.9-0.5-1.2l-4.2-4C45.3,46.2,44.9,46.1,44.5,46.1z"/>
</g>
<g class="st6">
	<circle class="st7" cx="49.6" cy="47.6" r="28.6"/>
</g>
<g class="st8">
	<path class="st9" d="M59.4,32.9l3.3,3.3c0.7,0.7,0.7,1.8,0,2.5L31.5,71.2c-1.3,1.4-4.2,1.2-5.6-0.2l0,0c-1.4-1.3-1.6-4.2-0.3-5.5
		l31.3-32.6C57.6,32.2,58.7,32.2,59.4,32.9z"/>
</g>
<g>
	<circle class="st0" cx="46.5" cy="45.5" r="28"/>
	<path class="st1" d="M46.5,74C30.8,74,18,61.2,18,45.5C18,29.8,30.8,17,46.5,17S75,29.8,75,45.5C75,61.2,62.2,74,46.5,74z M46.5,18
		C31.3,18,19,30.4,19,45.5S31.3,73,46.5,73S74,60.7,74,45.5S61.6,18,46.5,18z"/>
</g>
<ellipse class="st10" cx="45.9" cy="45" rx="22" ry="22.1"/>
<g class="st11">
	<path class="st1" d="M9.3,17.9L9.2,6.1l16.5,10.1L9.3,17.9z M10.2,7.9l0.1,8.8l12.4-1.2L10.2,7.9z"/>
</g>
<g class="st8">
	<path class="st12" d="M18.2,13.6L5.5,11.8l2.2,7.9L18.2,13.6z"/>
</g>
<g class="st8">
	<path class="st9" d="M152.5,33.2l13.7-5L165,39.4L152.5,33.2z"/>
</g>
<g class="st11">
	<path class="st1" d="M163,37.5l-16.8-1.4l15.4-12.6L163,37.5z M148.8,35.3l13.1,1.1l-1.1-10.9L148.8,35.3z"/>
</g>
<g>
	<path class="st0" d="M28.5,102H8.6"/>
	<rect x="8.6" y="101.5" class="st1" width="19.9" height="1"/>
</g>
<g>
	<path class="st0" d="M158,102h-6.4"/>
	<rect x="151.6" y="101.5" class="st1" width="6.4" height="1"/>
</g>
<g>
	<path class="st0" d="M149,102H33.6"/>
	<rect x="33.6" y="101.5" class="st1" width="115.4" height="1"/>
</g>
<g>
	<path class="st13" d="M142.3,78.4H141v23.1h-9.8V78.4h-1.4l-6.3-9.6l6.3-11.1h3.3v7.9c0,0.6,0.4,1,1,1h3.9c0.6,0,1-0.4,1-1v-7.9
		h3.3l6.2,11.1L142.3,78.4z"/>
</g>
<g>
	<path class="st0" d="M135.2,71.5h5.8c1.1,0,2,0.9,2,2V100c0,1.1-0.9,2-2,2h-5.8c-1.1,0-2-0.9-2-2V73.5
		C133.2,72.3,134.1,71.5,135.2,71.5z"/>
	<path class="st1" d="M141,102.5h-5.8c-1.4,0-2.5-1.1-2.5-2.5V73.5c0-1.4,1.1-2.5,2.5-2.5h5.8c1.4,0,2.5,1.1,2.5,2.5V100
		C143.5,101.4,142.4,102.5,141,102.5z M135.2,72c-0.8,0-1.5,0.7-1.5,1.5V100c0,0.8,0.7,1.5,1.5,1.5h5.8c0.8,0,1.5-0.7,1.5-1.5V73.5
		c0-0.8-0.7-1.5-1.5-1.5H135.2z"/>
</g>
<g class="st14">
	<path class="st15" d="M133.7,74.3h8.8v4.4h-8.8V74.3z"/>
</g>
<g>
	<path class="st0" d="M144.3,76.9h-12.5l-6.3-9.6l6.3-11.1h3.3v7.9c0,0.6,0.4,1,1,1h3.9c0.6,0,1-0.4,1-1v-7.9h3.3l6.2,11.1
		L144.3,76.9z"/>
	<path class="st1" d="M144.3,77.4h-12.5c-0.2,0-0.3-0.1-0.4-0.2l-6.3-9.6c-0.1-0.2-0.1-0.4,0-0.5l6.3-11.1c0.1-0.2,0.3-0.3,0.4-0.3
		h3.3c0.3,0,0.5,0.2,0.5,0.5v7.9c0,0.3,0.2,0.5,0.5,0.5h3.9c0.3,0,0.5-0.2,0.5-0.5v-7.9c0-0.3,0.2-0.5,0.5-0.5h3.3
		c0.2,0,0.3,0.1,0.4,0.3l6.2,11.1c0.1,0.2,0.1,0.4,0,0.5l-6.2,9.6C144.7,77.3,144.5,77.4,144.3,77.4z M132.1,76.4h12l5.9-9.1
		l-6-10.6h-2.5v7.4c0,0.8-0.7,1.5-1.5,1.5h-3.9c-0.8,0-1.5-0.7-1.5-1.5v-7.4h-2.5l-6,10.6L132.1,76.4z"/>
</g>
<g class="st8">
	<g>
		<path class="st9" d="M24.8,51.1c-0.6-1.9-0.9-4-0.9-6.1c0-12.2,9.8-22.1,22-22.1c6.8,0,12.9,3.1,16.9,8L24.8,51.1z"/>
	</g>
</g>
<path class="st1" d="M45.9,67.5c-0.3,0-0.5,0-0.8,0l0-1c1.3,0,2.6,0,3.9-0.2l0.1,1C48.2,67.5,47,67.5,45.9,67.5z M43.1,67.4
	c-1.3-0.2-2.7-0.5-4-0.9l0.3-1c1.2,0.4,2.5,0.7,3.8,0.8L43.1,67.4z M51.2,66.9l-0.2-1c1.3-0.3,2.5-0.7,3.7-1.3l0.4,0.9
	C53.9,66.1,52.6,66.6,51.2,66.9z M37.2,65.8c-1.2-0.5-2.5-1.2-3.6-1.9l0.5-0.8c1.1,0.7,2.2,1.3,3.4,1.8L37.2,65.8z M56.9,64.7
	l-0.5-0.9c1.1-0.6,2.2-1.4,3.2-2.2l0.6,0.8C59.3,63.2,58.1,64,56.9,64.7z M32,62.6c-1.1-0.8-2.1-1.8-3-2.8l0.8-0.7
	c0.9,1,1.8,1.9,2.8,2.7L32,62.6z M61.8,61l-0.7-0.7c0.9-0.9,1.8-1.9,2.5-3l0.8,0.6C63.7,58.9,62.8,60,61.8,61z M27.7,58.2
	c-0.8-1.1-1.5-2.3-2.1-3.5l0.9-0.4c0.6,1.2,1.2,2.3,2,3.4L27.7,58.2z M65.5,56.1l-0.9-0.5c0.6-1.1,1.2-2.3,1.6-3.6l0.9,0.3
	C66.8,53.7,66.2,54.9,65.5,56.1z M24.8,52.8c-0.5-1.3-0.8-2.6-1.1-3.9l1-0.2c0.2,1.3,0.6,2.5,1,3.8L24.8,52.8z M67.8,50.4l-1-0.2
	c0.3-1.3,0.5-2.6,0.6-3.9l1,0.1C68.3,47.7,68.1,49.1,67.8,50.4z M23.5,46.9c-0.1-0.6-0.1-1.3-0.1-1.9c0-0.7,0-1.5,0.1-2.2l1,0.1
	c-0.1,0.7-0.1,1.4-0.1,2.1c0,0.6,0,1.2,0.1,1.8L23.5,46.9z M67.4,44.4c0-1.3-0.2-2.6-0.5-3.9l1-0.2c0.3,1.3,0.4,2.7,0.5,4.1
	L67.4,44.4z M24.8,40.9l-1-0.2c0.3-1.3,0.6-2.7,1.1-3.9l0.9,0.4C25.4,38.4,25.1,39.7,24.8,40.9z M66.5,38.6
	c-0.4-1.2-0.9-2.5-1.5-3.6l0.9-0.5c0.6,1.2,1.2,2.5,1.6,3.8L66.5,38.6z M26.7,35.4L25.8,35c0.6-1.2,1.3-2.4,2.1-3.5l0.8,0.6
	C27.9,33.1,27.2,34.2,26.7,35.4z M64,33.3c-0.7-1.1-1.5-2.1-2.4-3.1l0.7-0.7c0.9,1,1.8,2.1,2.5,3.2L64,33.3z M29.9,30.6l-0.7-0.7
	c0.9-1,1.9-2,3-2.8l0.6,0.8C31.8,28.7,30.8,29.6,29.9,30.6z M60.2,28.9c-1-0.9-2-1.6-3.1-2.3l0.5-0.9c1.2,0.7,2.3,1.5,3.3,2.4
	L60.2,28.9z M34.4,26.8l-0.5-0.8c1.1-0.7,2.4-1.4,3.6-1.9l0.4,0.9C36.7,25.5,35.5,26.1,34.4,26.8z M55.4,25.6
	c-1.2-0.6-2.4-1-3.6-1.4l0.3-1c1.3,0.4,2.6,0.9,3.8,1.5L55.4,25.6z M39.7,24.3l-0.3-1c1.3-0.4,2.6-0.7,4-0.8l0.1,1
	C42.2,23.7,40.9,24,39.7,24.3z M49.8,23.8c-1.3-0.2-2.6-0.3-3.9-0.4c-0.1,0-0.3,0-0.4,0l0-1c0.2,0,0.3,0,0.5,0
	c1.4,0,2.7,0.1,4.1,0.4L49.8,23.8z"/>
</svg>
