<?xml version="1.0" encoding="utf-8"?>
<!-- Generator: Adobe Illustrator 19.0.0, SVG Export Plug-In . SVG Version: 6.00 Build 0)  -->
<svg version="1.1" id="图层_2" xmlns="http://www.w3.org/2000/svg" xmlns:xlink="http://www.w3.org/1999/xlink" x="0px" y="0px"
	 viewBox="-7 465 171 108" style="enable-background:new -7 465 171 108;" xml:space="preserve">
<style type="text/css">
	.st0{opacity:0.3;enable-background:new    ;}
	.st1{fill:#D9E3F2;}
	.st2{opacity:0.7;enable-background:new    ;}
	.st3{fill:#B1D0E8;}
	.st4{fill:#B5C7DF;}
	.st5{fill:#FFFFFF;}
	.st6{opacity:0.4;}
	.st7{opacity:0.6;}
	.st8{fill:none;}
	.st9{opacity:0.8;}
	.st10{opacity:0.12;}
	.st11{display:none;}
	.st12{display:inline;}
	.st13{opacity:0.24;enable-background:new    ;}
	.st14{fill:#C4CEDE;}
	.st15{opacity:0.9;enable-background:new    ;}
	.st16{fill:#F4F7FC;}
	.st17{opacity:0.3;fill:#D9E3F2;enable-background:new    ;}
</style>
<g id="XMLID_492_" class="st0">
	<g id="XMLID_493_">
		<g id="XMLID_454_">
			<g id="XMLID_497_">
				<g id="XMLID_498_">
					<path id="XMLID_204_" class="st1" d="M145.8,502.5l13.7-5l-1.2,11.2L145.8,502.5z"/>
				</g>
			</g>
		</g>
	</g>
</g>
<g id="XMLID_486_" class="st2">
	<g id="XMLID_487_">
		<g id="XMLID_453_">
			<g id="XMLID_472_">
				<g id="XMLID_473_">
					<path id="XMLID_196_" class="st3" d="M156.3,506.8l-16.8-1.4l15.4-12.6L156.3,506.8z M142.1,504.6l13.1,1.1l-1.1-10.9
						L142.1,504.6z"/>
				</g>
			</g>
		</g>
	</g>
</g>
<g id="XMLID_482_" class="st2">
	<g id="XMLID_483_">
		<g id="XMLID_452_">
			<g id="XMLID_447_">
				<g id="XMLID_448_">
					<path id="XMLID_200_" class="st3" d="M11.5,555l-10.2-5.8l17-9.2L11.5,555z M3.3,549.2l7.7,4.4l5.1-11.3L3.3,549.2z"/>
				</g>
			</g>
		</g>
	</g>
</g>
<g id="XMLID_480_" class="st0">
	<g id="XMLID_481_">
		<g id="XMLID_451_">
			<g id="XMLID_436_">
				<g id="XMLID_438_">
					<path id="XMLID_192_" class="st4" d="M12.3,545.1l-8,10.2l8,2V545.1z"/>
				</g>
			</g>
		</g>
	</g>
</g>
<g id="XMLID_216_">
	<g id="XMLID_427_">
		<g id="XMLID_430_">
			<circle id="XMLID_4_" class="st5" cx="93.2" cy="563.4" r="3.1"/>
		</g>
	</g>
</g>
<g id="XMLID_8_">
	<g id="XMLID_419_">
		<g id="XMLID_420_">
			<circle id="XMLID_5_" class="st5" cx="41.9" cy="563.4" r="3.1"/>
		</g>
	</g>
</g>
<g id="XMLID_477_">
	<g id="XMLID_479_">
		<g id="XMLID_450_">
			<g id="XMLID_416_">
				<g id="XMLID_417_">
					<path class="st5" d="M22.6,571.5H4.7"/>
				</g>
			</g>
		</g>
	</g>
	<g id="XMLID_478_">
		<g id="XMLID_444_">
			<g id="XMLID_412_">
				<g id="XMLID_413_">
					<rect x="4.7" y="571" class="st3" width="17.9" height="1"/>
				</g>
			</g>
		</g>
	</g>
</g>
<g id="XMLID_474_">
	<g id="XMLID_476_">
		<g id="XMLID_443_">
			<g id="XMLID_404_">
				<g id="XMLID_405_">
					<path class="st5" d="M154,571.3h-6.4"/>
				</g>
			</g>
		</g>
	</g>
	<g id="XMLID_475_">
		<g id="XMLID_442_">
			<g id="XMLID_400_">
				<g id="XMLID_401_">
					<rect x="147.6" y="570.8" class="st3" width="6.4" height="1"/>
				</g>
			</g>
		</g>
	</g>
</g>
<g id="XMLID_179_">
	<g id="XMLID_181_">
		<g id="XMLID_441_">
			<g id="XMLID_395_">
				<g id="XMLID_396_">
					<path class="st5" d="M145,571.3H27.6"/>
				</g>
			</g>
		</g>
	</g>
	<g id="XMLID_180_">
		<g id="XMLID_390_">
			<g id="XMLID_391_">
				<g id="XMLID_392_">
					<rect x="27.6" y="570.8" class="st3" width="117.4" height="1"/>
				</g>
			</g>
		</g>
	</g>
</g>
<g id="XMLID_7_">
	<g id="XMLID_77_">
		<g id="XMLID_384_">
			<path id="XMLID_6_" class="st3" d="M123.8,565.8h-99c-1.4,0-2.5-1.1-2.5-2.5v-80.5c0-1.4,1.1-2.5,2.5-2.5h99
				c1.4,0,2.5,1.1,2.5,2.5v80.5C126.3,564.6,125.1,565.8,123.8,565.8z M24.8,481.3c-0.8,0-1.5,0.7-1.5,1.5v80.5
				c0,0.8,0.7,1.5,1.5,1.5h99c0.8,0,1.5-0.7,1.5-1.5v-80.5c0-0.8-0.7-1.5-1.5-1.5H24.8z"/>
		</g>
	</g>
</g>
<g id="XMLID_229_">
	<g id="XMLID_76_">
		<g id="XMLID_381_">
			<rect id="XMLID_9_" x="23.3" y="490.2" class="st3" width="102" height="1"/>
		</g>
	</g>
</g>
<g id="XMLID_230_">
	<g id="XMLID_75_">
		<g id="XMLID_378_">
			<path id="XMLID_10_" class="st3" d="M46.7,486.3h-8.8c-0.3,0-0.5-0.2-0.5-0.5s0.2-0.5,0.5-0.5h8.8c0.3,0,0.5,0.2,0.5,0.5
				S46.9,486.3,46.7,486.3z"/>
		</g>
	</g>
</g>
<g id="XMLID_228_">
	<g id="XMLID_74_">
		<g id="XMLID_375_">
			<path id="XMLID_11_" class="st3" d="M61.7,486.3h-8.8c-0.3,0-0.5-0.2-0.5-0.5s0.2-0.5,0.5-0.5h8.8c0.3,0,0.5,0.2,0.5,0.5
				S61.9,486.3,61.7,486.3z"/>
		</g>
	</g>
</g>
<g id="XMLID_324_">
	<g id="XMLID_73_">
		<g id="XMLID_372_">
			<path id="XMLID_12_" class="st3" d="M76.7,486.3h-8.8c-0.3,0-0.5-0.2-0.5-0.5s0.2-0.5,0.5-0.5h8.8c0.3,0,0.5,0.2,0.5,0.5
				S76.9,486.3,76.7,486.3z"/>
		</g>
	</g>
</g>
<g id="XMLID_345_">
	<g id="XMLID_70_">
		<g id="XMLID_367_">
			<path id="XMLID_13_" class="st3" d="M30.6,488.1h-1.9c-1.1,0-1.9-0.9-1.9-1.9c0-1.1,0.9-1.9,1.9-1.9h1.9c1.1,0,1.9,0.9,1.9,1.9
				C32.5,487.2,31.6,488.1,30.6,488.1z M28.7,485.3c-0.5,0-0.9,0.4-0.9,0.9c0,0.5,0.4,0.9,0.9,0.9h1.9c0.5,0,0.9-0.4,0.9-0.9
				c0-0.5-0.4-0.9-0.9-0.9H28.7z"/>
		</g>
	</g>
</g>
<g id="XMLID_432_" class="st6">
	<g id="XMLID_68_">
		<g id="XMLID_364_">
			<path id="XMLID_14_" class="st3" d="M52.5,502l-1.6,0.7c0.7,1.3,1,2.8,1,4.3c0,4.9-3.8,9.1-8.7,9.5l0.2,1.7
				c5.7-0.6,10.2-5.4,10.2-11.3C53.6,505.2,53.2,503.5,52.5,502z"/>
		</g>
	</g>
</g>
<g id="XMLID_426_" class="st7">
	<g id="XMLID_67_">
		<g id="XMLID_361_">
			<path id="XMLID_15_" class="st3" d="M41.4,516.5c-4.9-0.4-8.7-4.5-8.7-9.5c0-2.2,0.7-4.3,2.1-6l-1.2-1.3c-1.7,2-2.6,4.6-2.6,7.2
				c0,6,4.7,11,10.6,11.3L41.4,516.5z"/>
		</g>
	</g>
</g>
<g id="XMLID_348_">
	<g id="XMLID_357_">
		<g id="XMLID_358_">
			<path id="XMLID_16_" class="st3" d="M42.3,495.6c-2.8,0-5.4,1-7.4,2.8l1.2,1.3c1.7-1.5,3.9-2.3,6.3-2.3c3,0,5.8,1.4,7.6,3.8
				l1.6-0.7C49.5,497.4,46,495.6,42.3,495.6z"/>
		</g>
	</g>
</g>
<g id="XMLID_349_">
	<g id="XMLID_428_">
		<g id="XMLID_346_">
			<g id="XMLID_347_">
				<path id="XMLID_19_" class="st8" d="M38.3,506.3c-0.2,0.2-0.4,0.3-0.7,0.3c-0.3,0-0.5-0.1-0.7-0.3l-3.6-3.8l-1.4-1.5l-1.6-1.7
					c-0.4-0.4-0.4-1,0-1.4s1-0.4,1.4,0l1.6,1.7l1.4,1.4l3.7,3.9C38.7,505.3,38.7,506,38.3,506.3z"/>
			</g>
		</g>
	</g>
</g>
<g id="XMLID_350_">
	<g id="XMLID_423_">
		<g id="XMLID_341_">
			<g id="XMLID_342_">
				<path id="XMLID_20_" class="st8" d="M55.7,502.7l-2.2,1l-1.8,0.8l-3.7,1.6c-0.1,0.1-0.3,0.1-0.4,0.1c-0.4,0-0.8-0.2-0.9-0.6
					c-0.2-0.5,0-1.1,0.5-1.3l3.4-1.5l1.9-0.8l2.4-1.1c0.5-0.2,1.1,0,1.3,0.5C56.4,501.9,56.2,502.5,55.7,502.7z"/>
			</g>
		</g>
	</g>
</g>
<g id="XMLID_351_">
	<g id="XMLID_429_">
		<g id="XMLID_337_">
			<g id="XMLID_338_">
				<path id="XMLID_21_" class="st8" d="M43.5,525.6c0.1,0.5-0.3,1-0.9,1.1c0,0-0.1,0-0.1,0c-0.5,0-0.9-0.4-1-0.9l-0.5-3.7l-0.2-2
					l-0.4-3.6c-0.1-0.5,0.3-1,0.9-1.1c0.6-0.1,1,0.3,1.1,0.9l0.5,3.8l0.2,2L43.5,525.6z"/>
			</g>
		</g>
	</g>
</g>
<g id="XMLID_409_" class="st7">
	<g id="XMLID_66_">
		<g id="XMLID_334_">
			<path id="XMLID_18_" class="st3" d="M91.8,500.4H59.6c-0.3,0-0.5-0.2-0.5-0.5s0.2-0.5,0.5-0.5h32.1c0.3,0,0.5,0.2,0.5,0.5
				S92,500.4,91.8,500.4z"/>
		</g>
	</g>
</g>
<g id="XMLID_408_" class="st7">
	<g id="XMLID_65_">
		<g id="XMLID_331_">
			<path id="XMLID_22_" class="st3" d="M91.8,505.9H59.6c-0.3,0-0.5-0.2-0.5-0.5s0.2-0.5,0.5-0.5h32.1c0.3,0,0.5,0.2,0.5,0.5
				S92,505.9,91.8,505.9z"/>
		</g>
	</g>
</g>
<g id="XMLID_421_" class="st7">
	<g id="XMLID_63_">
		<g id="XMLID_325_">
			<path id="XMLID_24_" class="st3" d="M76.3,511.4H59.6c-0.3,0-0.5-0.2-0.5-0.5s0.2-0.5,0.5-0.5h16.7c0.3,0,0.5,0.2,0.5,0.5
				S76.6,511.4,76.3,511.4z"/>
		</g>
	</g>
</g>
<g id="XMLID_458_" class="st9">
	<g id="XMLID_410_">
		<g id="XMLID_320_">
			<g id="XMLID_321_">
				<path class="st5" d="M90.3,538H31.9c-1.1,0-2-0.9-2-2v-10.4c0-1.1,0.9-2,2-2h58.4c1.1,0,2,0.9,2,2V536
					C92.3,537.1,91.3,538,90.3,538z"/>
			</g>
		</g>
	</g>
	<g id="XMLID_425_">
		<g id="XMLID_60_">
			<g id="XMLID_316_">
				<path id="XMLID_26_" class="st3" d="M90.3,538.5H31.9c-1.4,0-2.5-1.1-2.5-2.5v-10.4c0-1.4,1.1-2.5,2.5-2.5h58.4
					c1.4,0,2.5,1.1,2.5,2.5V536C92.8,537.4,91.6,538.5,90.3,538.5z M31.9,524.1c-0.8,0-1.5,0.7-1.5,1.5V536c0,0.8,0.7,1.5,1.5,1.5
					h58.4c0.8,0,1.5-0.7,1.5-1.5v-10.4c0-0.8-0.7-1.5-1.5-1.5H31.9z"/>
			</g>
		</g>
	</g>
	<g id="XMLID_437_">
		<g id="XMLID_59_">
			<g id="XMLID_313_">
				<path id="XMLID_27_" class="st3" d="M69,529.2H42.5c-0.3,0-0.5-0.2-0.5-0.5s0.2-0.5,0.5-0.5H69c0.3,0,0.5,0.2,0.5,0.5
					S69.3,529.2,69,529.2z"/>
			</g>
		</g>
	</g>
	<g id="XMLID_440_">
		<g id="XMLID_58_">
			<g id="XMLID_310_">
				<path id="XMLID_28_" class="st3" d="M42.5,533.6c-0.3,0-0.5-0.2-0.5-0.5c0-0.3,0.2-0.5,0.5-0.5l15.4-0.1c0,0,0,0,0,0
					c0.3,0,0.5,0.2,0.5,0.5c0,0.3-0.2,0.5-0.5,0.5L42.5,533.6C42.5,533.6,42.5,533.6,42.5,533.6z"/>
			</g>
		</g>
	</g>
	<g id="XMLID_431_">
		<g id="XMLID_56_">
			<g id="XMLID_49_">
				<path id="XMLID_29_" class="st3" d="M37,528.1v5h-0.6v-4.3c-0.3,0.3-0.7,0.5-1.2,0.7v-0.6c0.2-0.1,0.5-0.2,0.7-0.3
					c0.2-0.1,0.4-0.3,0.6-0.5H37z"/>
			</g>
			<g id="XMLID_93_">
				<path id="XMLID_30_" class="st3" d="M37.3,533.4h-1.1v-4c-0.3,0.2-0.5,0.3-0.9,0.4l-0.3,0.1v-1.1l0.2-0.1
					c0.2-0.1,0.4-0.2,0.6-0.3c0.2-0.1,0.4-0.3,0.5-0.5l0.1-0.1h0.8V533.4z M36.7,532.9L36.7,532.9l0.1-4.5h-0.1V532.9z M35.5,529.1
					L35.5,529.1c0.1,0,0.3-0.1,0.4-0.2C35.8,529,35.7,529.1,35.5,529.1z"/>
			</g>
		</g>
	</g>
	<g id="XMLID_455_">
		<g id="XMLID_298_">
			<g id="XMLID_299_">
				<circle id="XMLID_31_" class="st3" cx="85" cy="531.6" r="3.4"/>
			</g>
		</g>
	</g>
	<g id="XMLID_456_">
	</g>
	<g id="XMLID_457_">
		<g id="XMLID_55_">
			<g id="XMLID_295_">
				<path id="XMLID_32_" class="st5" d="M84.4,533C84.4,533,84.4,533,84.4,533c-0.1,0-0.2-0.1-0.3-0.1l-1-1.2
					c-0.1-0.1-0.1-0.4,0-0.5c0.1-0.1,0.4-0.1,0.5,0l0.8,0.9l1.9-1.8c0.1-0.1,0.4-0.1,0.5,0c0.1,0.1,0.1,0.4,0,0.5l-2.2,2
					C84.5,532.9,84.5,533,84.4,533z"/>
			</g>
		</g>
	</g>
</g>
<g id="XMLID_459_" class="st9">
	<g id="XMLID_467_">
		<g id="XMLID_290_">
			<g id="XMLID_291_">
				<path class="st5" d="M90.3,555H31.9c-1.1,0-2-0.9-2-2v-10.4c0-1.1,0.9-2,2-2h58.4c1.1,0,2,0.9,2,2V553
					C92.3,554.1,91.3,555,90.3,555z"/>
			</g>
		</g>
	</g>
	<g id="XMLID_466_">
		<g id="XMLID_52_">
			<g id="XMLID_286_">
				<path id="XMLID_33_" class="st3" d="M90.3,555.5H31.9c-1.4,0-2.5-1.1-2.5-2.5v-10.4c0-1.4,1.1-2.5,2.5-2.5h58.4
					c1.4,0,2.5,1.1,2.5,2.5V553C92.8,554.4,91.6,555.5,90.3,555.5z M31.9,541.1c-0.8,0-1.5,0.7-1.5,1.5V553c0,0.8,0.7,1.5,1.5,1.5
					h58.4c0.8,0,1.5-0.7,1.5-1.5v-10.4c0-0.8-0.7-1.5-1.5-1.5H31.9z"/>
			</g>
		</g>
	</g>
	<g id="XMLID_465_">
		<g id="XMLID_51_">
			<g id="XMLID_283_">
				<path id="XMLID_34_" class="st3" d="M69,546.2H42.5c-0.3,0-0.5-0.2-0.5-0.5s0.2-0.5,0.5-0.5H69c0.3,0,0.5,0.2,0.5,0.5
					S69.3,546.2,69,546.2z"/>
			</g>
		</g>
	</g>
	<g id="XMLID_464_">
		<g id="XMLID_50_">
			<g id="XMLID_280_">
				<path id="XMLID_35_" class="st3" d="M42.5,550.6c-0.3,0-0.5-0.2-0.5-0.5c0-0.3,0.2-0.5,0.5-0.5l15.4-0.1c0,0,0,0,0,0
					c0.3,0,0.5,0.2,0.5,0.5c0,0.3-0.2,0.5-0.5,0.5L42.5,550.6C42.5,550.6,42.5,550.6,42.5,550.6z"/>
			</g>
		</g>
	</g>
	<g id="XMLID_463_">
		<g id="XMLID_48_">
			<g id="XMLID_43_">
				<path id="XMLID_36_" class="st3" d="M37.8,545.4c0.3,0.3,0.4,0.6,0.4,1.1c0,0.4-0.2,0.8-0.5,1.2c-0.2,0.2-0.5,0.5-1,0.8
					c-0.6,0.4-1,0.8-1.1,1.1h2.6v0.5h-3.3c0-0.5,0.2-0.9,0.5-1.2c0.2-0.2,0.6-0.5,1.1-0.9c0.4-0.3,0.7-0.5,0.8-0.6
					c0.3-0.3,0.4-0.6,0.4-0.9c0-0.3-0.1-0.5-0.3-0.7c-0.2-0.2-0.4-0.3-0.8-0.3c-0.4,0-0.6,0.1-0.8,0.4c-0.2,0.2-0.3,0.6-0.3,1H35
					c0-0.6,0.2-1,0.5-1.3c0.3-0.3,0.7-0.5,1.2-0.5C37.1,545,37.5,545.2,37.8,545.4z"/>
			</g>
			<g id="XMLID_88_">
				<path id="XMLID_37_" class="st3" d="M38.5,550.4h-3.8v-0.3c0-0.5,0.2-1,0.6-1.4c0.2-0.3,0.6-0.6,1.1-0.9
					c0.5-0.3,0.7-0.5,0.7-0.6c0.2-0.2,0.3-0.5,0.3-0.7c0-0.2-0.1-0.4-0.2-0.5c-0.1-0.1-0.3-0.2-0.6-0.2c-0.3,0-0.5,0.1-0.6,0.3
					c-0.2,0.2-0.3,0.5-0.3,0.9l0,0.2h-1.1v-0.3c0-0.6,0.2-1.1,0.5-1.5c0.4-0.4,0.8-0.6,1.4-0.6c0.5,0,1,0.2,1.3,0.5l0,0
					c0.4,0.3,0.5,0.7,0.5,1.2c0,0.5-0.2,0.9-0.6,1.3c-0.2,0.2-0.6,0.5-1.1,0.8c-0.4,0.3-0.7,0.5-0.8,0.7h2.5V550.4z M35.2,549.9
					l2.8,0h-2.7l0.1-0.3c0.1-0.4,0.5-0.8,1.2-1.3c0.5-0.3,0.8-0.6,1-0.8c0.3-0.3,0.4-0.6,0.4-1c0-0.4-0.1-0.6-0.4-0.9
					c-0.1-0.1-0.3-0.2-0.4-0.2c0.1,0.1,0.3,0.1,0.4,0.2c0.2,0.2,0.4,0.5,0.4,0.9c0,0.4-0.2,0.7-0.5,1.1c-0.1,0.1-0.4,0.4-0.8,0.7
					c-0.5,0.3-0.8,0.6-1,0.9C35.4,549.3,35.3,549.6,35.2,549.9z M35.2,546.6L35.2,546.6c0.1-0.4,0.2-0.7,0.4-0.9
					c0.1-0.1,0.2-0.2,0.3-0.3c-0.1,0.1-0.2,0.2-0.3,0.3C35.4,545.9,35.3,546.2,35.2,546.6z"/>
			</g>
		</g>
	</g>
	<g id="XMLID_462_">
		<g id="XMLID_268_">
			<g id="XMLID_269_">
				<circle id="XMLID_38_" class="st3" cx="85" cy="548.6" r="3.4"/>
			</g>
		</g>
	</g>
	<g id="XMLID_461_">
	</g>
	<g id="XMLID_460_">
		<g id="XMLID_47_">
			<g id="XMLID_265_">
				<path id="XMLID_39_" class="st5" d="M84.4,550C84.4,550,84.4,550,84.4,550c-0.1,0-0.2-0.1-0.3-0.1l-1-1.2
					c-0.1-0.1-0.1-0.4,0-0.5c0.1-0.1,0.4-0.1,0.5,0l0.8,0.9l1.9-1.8c0.1-0.1,0.4-0.1,0.5,0c0.1,0.1,0.1,0.4,0,0.5l-2.2,2
					C84.5,549.9,84.5,550,84.4,550z"/>
			</g>
		</g>
	</g>
</g>
<g id="XMLID_176_">
	<g id="XMLID_191_">
		<g id="XMLID_260_">
			<g id="XMLID_261_">
				<path id="XMLID_40_" class="st5" d="M92.1,570.6c0.1-0.2,0.1-0.4,0.1-0.7v-10.3c0-1.1-0.9-2-2-2H31.9c-1.1,0-2,0.9-2,2v10.3
					c0,0.2,0,0.5,0.1,0.7H92.1z"/>
			</g>
		</g>
	</g>
	<g id="XMLID_186_" class="st9">
		<g id="XMLID_46_">
			<g id="XMLID_258_">
				<path id="XMLID_41_" class="st3" d="M92.3,571.8c-0.3,0-0.5-0.2-0.5-0.5v-11.4c0-0.9-0.7-1.7-1.5-1.7H31.9
					c-0.8,0-1.5,0.8-1.5,1.7v11.4c0,0.3-0.2,0.5-0.5,0.5s-0.5-0.2-0.5-0.5v-11.4c0-1.5,1.1-2.7,2.5-2.7h58.4c1.4,0,2.5,1.2,2.5,2.7
					v11.4C92.8,571.5,92.5,571.8,92.3,571.8z"/>
			</g>
		</g>
	</g>
	<g id="XMLID_185_" class="st9">
		<g id="XMLID_45_">
			<g id="XMLID_255_">
				<path id="XMLID_42_" class="st3" d="M69,563.2H42.5c-0.3,0-0.5-0.2-0.5-0.5s0.2-0.5,0.5-0.5H69c0.3,0,0.5,0.2,0.5,0.5
					S69.3,563.2,69,563.2z"/>
			</g>
		</g>
	</g>
	<g id="XMLID_184_" class="st9">
		<g id="XMLID_17_">
			<g id="XMLID_252_">
				<path id="XMLID_44_" class="st3" d="M42.5,567.6c-0.3,0-0.5-0.2-0.5-0.5c0-0.3,0.2-0.5,0.5-0.5l15.4-0.1c0,0,0,0,0,0
					c0.3,0,0.5,0.2,0.5,0.5c0,0.3-0.2,0.5-0.5,0.5L42.5,567.6C42.5,567.6,42.5,567.6,42.5,567.6z"/>
			</g>
		</g>
	</g>
	<g id="XMLID_183_" class="st9">
		<g id="XMLID_25_">
			<g id="XMLID_57_">
				<path id="XMLID_69_" class="st3" d="M37.8,562.4c0.3,0.2,0.4,0.6,0.4,1c0,0.6-0.3,0.9-0.8,1.1c0.3,0.1,0.5,0.2,0.7,0.4
					c0.2,0.2,0.3,0.4,0.3,0.7c0,0.5-0.2,0.8-0.5,1.1c-0.3,0.3-0.7,0.4-1.3,0.4c-0.5,0-0.9-0.1-1.2-0.4c-0.4-0.3-0.6-0.7-0.6-1.3h0.6
					c0,0.4,0.1,0.7,0.4,0.9c0.2,0.2,0.5,0.3,0.8,0.3c0.4,0,0.6-0.1,0.9-0.3c0.2-0.2,0.3-0.4,0.3-0.7c0-0.3-0.1-0.5-0.3-0.7
					c-0.2-0.2-0.5-0.2-0.8-0.2h-0.4v-0.4h0.4c0.3,0,0.6-0.1,0.8-0.2c0.2-0.2,0.3-0.4,0.3-0.6c0-0.3-0.1-0.5-0.3-0.6
					c-0.2-0.2-0.4-0.2-0.8-0.2c-0.3,0-0.6,0.1-0.8,0.3c-0.2,0.2-0.3,0.4-0.3,0.8H35c0-0.5,0.2-0.9,0.5-1.1c0.3-0.3,0.7-0.4,1.2-0.4
					C37.1,562,37.5,562.1,37.8,562.4z"/>
			</g>
			<g id="XMLID_81_">
				<path id="XMLID_82_" class="st3" d="M36.6,567.4c-0.5,0-1-0.1-1.3-0.4c-0.4-0.3-0.6-0.8-0.7-1.5l0-0.3h1.1l0,0.2
					c0,0.3,0.1,0.5,0.3,0.7c0.2,0.1,0.4,0.2,0.6,0.2c0.3,0,0.5-0.1,0.7-0.2c0.1-0.1,0.2-0.3,0.2-0.5c0-0.2-0.1-0.4-0.2-0.5
					c-0.1-0.1-0.4-0.2-0.7-0.2H36V564h0.6c0.3,0,0.5-0.1,0.6-0.2c0.1-0.1,0.2-0.3,0.2-0.5c0-0.2-0.1-0.4-0.2-0.5
					c-0.1-0.1-0.3-0.2-0.6-0.2c-0.3,0-0.5,0.1-0.6,0.2c-0.2,0.1-0.2,0.3-0.3,0.6l0,0.2h-1.1l0-0.3c0-0.5,0.3-1,0.6-1.3
					c0.3-0.3,0.8-0.5,1.3-0.5c0.5,0,1,0.1,1.3,0.4l0,0c0.3,0.3,0.5,0.7,0.5,1.2c0,0.5-0.2,0.8-0.5,1.1c0.1,0.1,0.2,0.2,0.3,0.3
					c0.2,0.2,0.3,0.5,0.3,0.9c0,0.5-0.2,1-0.6,1.3C37.7,567.2,37.2,567.4,36.6,567.4z M35.1,565.8c0.1,0.4,0.2,0.6,0.5,0.8
					c0.2,0.1,0.3,0.2,0.5,0.3c-0.2-0.1-0.3-0.1-0.5-0.2C35.4,566.4,35.3,566.1,35.1,565.8L35.1,565.8z M37.8,565
					c0.1,0.2,0.2,0.4,0.2,0.7c0,0.4-0.1,0.7-0.4,0.9c-0.1,0.1-0.3,0.2-0.5,0.3c0.2-0.1,0.4-0.2,0.6-0.3c0.3-0.2,0.4-0.5,0.4-0.9
					C38.1,565.4,38,565.2,37.8,565C37.9,565,37.9,565,37.8,565z M37.1,562.3c0.2,0,0.4,0.1,0.5,0.3c0.2,0.2,0.3,0.5,0.3,0.8
					c0,0.2,0,0.4-0.1,0.6c0.1-0.2,0.2-0.4,0.2-0.6c0-0.3-0.1-0.6-0.3-0.8C37.5,562.4,37.3,562.3,37.1,562.3z M35.3,563.3L35.3,563.3
					c0.1-0.3,0.3-0.5,0.4-0.7c0.1-0.1,0.3-0.2,0.5-0.3c-0.2,0.1-0.4,0.1-0.5,0.3C35.5,562.8,35.3,563,35.3,563.3z"/>
			</g>
		</g>
	</g>
	<g id="XMLID_182_" class="st9">
		<g id="XMLID_98_">
			<g id="XMLID_237_">
				<path id="XMLID_100_" class="st3" d="M85,569.3c-2.1,0-3.7-1.7-3.7-3.7s1.7-3.7,3.7-3.7s3.7,1.7,3.7,3.7S87,569.3,85,569.3z
					 M85,562.6c-1.7,0-3,1.3-3,3s1.4,3,3,3s3-1.3,3-3S86.6,562.6,85,562.6z"/>
			</g>
		</g>
	</g>
	<g id="XMLID_178_">
	</g>
	<g id="XMLID_177_" class="st9">
		<g id="XMLID_99_">
			<g id="XMLID_233_">
				<path id="XMLID_104_" class="st3" d="M84.4,566.9C84.4,566.9,84.4,566.9,84.4,566.9c-0.1,0-0.2-0.1-0.3-0.1l-1-1.2
					c-0.1-0.1-0.1-0.4,0-0.5c0.1-0.1,0.4-0.1,0.5,0l0.8,0.9l1.9-1.7c0.1-0.1,0.4-0.1,0.5,0c0.1,0.1,0.1,0.4,0,0.5l-2.2,2
					C84.5,566.9,84.5,566.9,84.4,566.9z"/>
			</g>
		</g>
	</g>
</g>
<g id="XMLID_188_" class="st10">
	<g id="XMLID_3_">
		<g id="XMLID_226_">
			<rect x="100" y="497" class="st5" width="20.5" height="63"/>
		</g>
	</g>
</g>
<g id="XMLID_189_" class="st11">
	<g id="XMLID_103_" class="st12">
		<g id="XMLID_194_">
			<path id="XMLID_106_" class="st3" d="M119.5,558.5h-3c-0.3,0-0.5-0.2-0.5-0.5s0.2-0.5,0.5-0.5h3c0.3,0,0.5,0.2,0.5,0.5
				S119.8,558.5,119.5,558.5z M113.5,558.5h-3c-0.3,0-0.5-0.2-0.5-0.5s0.2-0.5,0.5-0.5h3c0.3,0,0.5,0.2,0.5,0.5
				S113.8,558.5,113.5,558.5z M107.5,558.5h-3c-0.3,0-0.5-0.2-0.5-0.5s0.2-0.5,0.5-0.5h3c0.3,0,0.5,0.2,0.5,0.5
				S107.8,558.5,107.5,558.5z M101.5,558.5H99c-0.3,0-0.5-0.2-0.5-0.5v-0.5c0-0.3,0.2-0.5,0.5-0.5s0.5,0.2,0.5,0.5h2
				c0.3,0,0.5,0.2,0.5,0.5S101.8,558.5,101.5,558.5z M119.5,556.5c-0.3,0-0.5-0.2-0.5-0.5v-3c0-0.3,0.2-0.5,0.5-0.5s0.5,0.2,0.5,0.5
				v3C120,556.3,119.8,556.5,119.5,556.5z M99,555c-0.3,0-0.5-0.2-0.5-0.5v-3c0-0.3,0.2-0.5,0.5-0.5s0.5,0.2,0.5,0.5v3
				C99.5,554.8,99.3,555,99,555z M119.5,550.5c-0.3,0-0.5-0.2-0.5-0.5v-3c0-0.3,0.2-0.5,0.5-0.5s0.5,0.2,0.5,0.5v3
				C120,550.3,119.8,550.5,119.5,550.5z M99,549c-0.3,0-0.5-0.2-0.5-0.5v-3c0-0.3,0.2-0.5,0.5-0.5s0.5,0.2,0.5,0.5v3
				C99.5,548.8,99.3,549,99,549z M119.5,544.5c-0.3,0-0.5-0.2-0.5-0.5v-3c0-0.3,0.2-0.5,0.5-0.5s0.5,0.2,0.5,0.5v3
				C120,544.3,119.8,544.5,119.5,544.5z M99,543c-0.3,0-0.5-0.2-0.5-0.5v-3c0-0.3,0.2-0.5,0.5-0.5s0.5,0.2,0.5,0.5v3
				C99.5,542.8,99.3,543,99,543z M119.5,538.5c-0.3,0-0.5-0.2-0.5-0.5v-3c0-0.3,0.2-0.5,0.5-0.5s0.5,0.2,0.5,0.5v3
				C120,538.3,119.8,538.5,119.5,538.5z M99,537c-0.3,0-0.5-0.2-0.5-0.5v-3c0-0.3,0.2-0.5,0.5-0.5s0.5,0.2,0.5,0.5v3
				C99.5,536.8,99.3,537,99,537z M119.5,532.5c-0.3,0-0.5-0.2-0.5-0.5v-3c0-0.3,0.2-0.5,0.5-0.5s0.5,0.2,0.5,0.5v3
				C120,532.3,119.8,532.5,119.5,532.5z M99,531c-0.3,0-0.5-0.2-0.5-0.5v-3c0-0.3,0.2-0.5,0.5-0.5s0.5,0.2,0.5,0.5v3
				C99.5,530.8,99.3,531,99,531z M119.5,526.5c-0.3,0-0.5-0.2-0.5-0.5v-3c0-0.3,0.2-0.5,0.5-0.5s0.5,0.2,0.5,0.5v3
				C120,526.3,119.8,526.5,119.5,526.5z M99,525c-0.3,0-0.5-0.2-0.5-0.5v-3c0-0.3,0.2-0.5,0.5-0.5s0.5,0.2,0.5,0.5v3
				C99.5,524.8,99.3,525,99,525z M119.5,520.5c-0.3,0-0.5-0.2-0.5-0.5v-3c0-0.3,0.2-0.5,0.5-0.5s0.5,0.2,0.5,0.5v3
				C120,520.3,119.8,520.5,119.5,520.5z M99,519c-0.3,0-0.5-0.2-0.5-0.5v-3c0-0.3,0.2-0.5,0.5-0.5s0.5,0.2,0.5,0.5v3
				C99.5,518.8,99.3,519,99,519z M119.5,514.5c-0.3,0-0.5-0.2-0.5-0.5v-3c0-0.3,0.2-0.5,0.5-0.5s0.5,0.2,0.5,0.5v3
				C120,514.3,119.8,514.5,119.5,514.5z M99,513c-0.3,0-0.5-0.2-0.5-0.5v-3c0-0.3,0.2-0.5,0.5-0.5s0.5,0.2,0.5,0.5v3
				C99.5,512.8,99.3,513,99,513z M119.5,508.5c-0.3,0-0.5-0.2-0.5-0.5v-3c0-0.3,0.2-0.5,0.5-0.5s0.5,0.2,0.5,0.5v3
				C120,508.3,119.8,508.5,119.5,508.5z M99,507c-0.3,0-0.5-0.2-0.5-0.5v-3c0-0.3,0.2-0.5,0.5-0.5s0.5,0.2,0.5,0.5v3
				C99.5,506.8,99.3,507,99,507z M119.5,502.5c-0.3,0-0.5-0.2-0.5-0.5v-3c0-0.3,0.2-0.5,0.5-0.5s0.5,0.2,0.5,0.5v3
				C120,502.3,119.8,502.5,119.5,502.5z M99,501c-0.3,0-0.5-0.2-0.5-0.5v-3c0-0.3,0.2-0.5,0.5-0.5s0.5,0.2,0.5,0.5v3
				C99.5,500.8,99.3,501,99,501z M119.5,496.5c-0.3,0-0.5-0.2-0.5-0.5v-0.5h-1.5c-0.3,0-0.5-0.2-0.5-0.5s0.2-0.5,0.5-0.5h2
				c0.3,0,0.5,0.2,0.5,0.5v1C120,496.3,119.8,496.5,119.5,496.5z M114.5,495.5h-3c-0.3,0-0.5-0.2-0.5-0.5s0.2-0.5,0.5-0.5h3
				c0.3,0,0.5,0.2,0.5,0.5S114.8,495.5,114.5,495.5z M108.5,495.5h-3c-0.3,0-0.5-0.2-0.5-0.5s0.2-0.5,0.5-0.5h3
				c0.3,0,0.5,0.2,0.5,0.5S108.8,495.5,108.5,495.5z M102.5,495.5h-3c-0.3,0-0.5-0.2-0.5-0.5s0.2-0.5,0.5-0.5h3
				c0.3,0,0.5,0.2,0.5,0.5S102.8,495.5,102.5,495.5z"/>
		</g>
	</g>
</g>
<g id="XMLID_1_">
	<g id="XMLID_170_">
		<path id="XMLID_174_" class="st5" d="M113.1,513.5l36.6,37.7c1.6,1.6,1.5,4.1-0.1,5.7l-1,0.9c-1.6,1.6-4.1,1.5-5.7-0.1l-36.6-37.7
			c-0.8-0.8-0.8-2.1,0-2.8l3.9-3.8C111,512.7,112.2,512.8,113.1,513.5z"/>
		<path id="XMLID_171_" class="st3" d="M142.5,558.1L106,520.3c-0.5-0.5-0.8-1.1-0.8-1.8c0-0.7,0.3-1.3,0.8-1.8l3.9-3.8
			c1-0.9,2.6-0.9,3.6,0.1l36.6,37.7c0.8,0.8,1.4,2,1.3,3.2c-0.1,1.2-0.6,2.3-1.4,3.2l-1,0.9c-0.9,0.8-2.1,1.3-3.2,1.3
			S143.4,559.1,142.5,558.1z M110.5,513.8l-3.9,3.8c-0.3,0.3-0.5,0.8-0.5,1.1c0,0.5,0.2,0.8,0.5,1.1l36.6,37.7
			c1.4,1.4,3.7,1.5,5.1,0.1l1-0.9c0.8-0.7,1.1-1.6,1.1-2.5s-0.4-1.9-1-2.5l-36.6-37.7c-0.3-0.3-0.8-0.5-1.1-0.5
			C111.2,513.4,110.8,513.5,110.5,513.8z"/>
	</g>
	<g id="XMLID_168_" class="st0">
		<path id="XMLID_169_" class="st1" d="M99.1,499.8l29.4,30.6c1.2,1.2,1,3.9-0.3,5.2l0,0c-1.3,1.3-4,1.5-5.3,0.2l-29.2-30.6
			c-0.7-0.7-0.7-1.7,0-2.3l3.1-3.1C97.5,499.1,98.5,499.1,99.1,499.8z"/>
	</g>
	<g id="XMLID_166_" class="st13">
		<circle id="XMLID_167_" class="st14" cx="107.7" cy="514.8" r="26.8"/>
	</g>
	<g id="XMLID_161_">
		<circle id="XMLID_165_" class="st5" cx="109.7" cy="512.8" r="26.3"/>
		<path id="XMLID_162_" class="st3" d="M83,512.8c0-14.7,12-26.7,26.7-26.7s26.7,12,26.7,26.7c0,14.7-12,26.7-26.7,26.7
			S83,527.6,83,512.8z M83.9,512.8c0,14.3,11.5,25.8,25.8,25.8s25.8-11.6,25.8-25.8c0-14.2-11.5-25.8-25.8-25.8
			C95.5,487.1,83.9,498.6,83.9,512.8z"/>
	</g>
	<g id="XMLID_135_" class="st15">
		<ellipse id="XMLID_160_" class="st16" cx="110.3" cy="512.4" rx="20.6" ry="20.7"/>
		<path id="XMLID_136_" class="st3" d="M107.3,533.3l0.1-0.9c1.2,0.2,2.4,0.2,3.7,0.2v0.9c-0.3,0-0.5,0-0.8,0
			C109.2,533.5,108.1,533.5,107.3,533.3z M112.8,532.4c1.2-0.1,2.4-0.4,3.6-0.8l0.3,0.9c-1.2,0.4-2.4,0.7-3.8,0.8L112.8,532.4z
			 M101.6,531.6l0.4-0.8c1.1,0.6,2.3,0.9,3.5,1.2l-0.2,0.9C104,532.6,102.8,532.2,101.6,531.6z M118.2,531c1.1-0.5,2.2-1,3.2-1.7
			l0.5,0.8c-1,0.7-2.3,1.3-3.4,1.8L118.2,531z M96.9,528.7l0.6-0.8c0.9,0.8,2,1.5,3,2.1l-0.5,0.8C98.8,530.2,97.8,529.4,96.9,528.7z
			 M122.7,528.1c0.9-0.8,1.8-1.6,2.6-2.5l0.8,0.7c-0.8,0.9-1.8,1.9-2.8,2.6L122.7,528.1z M92.9,524.5l0.8-0.6c0.7,1,1.5,2,2.3,2.8
			l-0.7,0.7C94.4,526.4,93.6,525.4,92.9,524.5z M126.6,524.3c0.8-1,1.3-2.1,1.9-3.2l0.8,0.4c-0.6,1.1-1.2,2.3-2,3.3L126.6,524.3z
			 M90.4,519.2l0.8-0.3c0.4,1.2,0.9,2.3,1.5,3.4l-0.8,0.5C91.2,521.7,90.7,520.5,90.4,519.2z M129.2,519.4c0.4-1.2,0.8-2.3,0.9-3.6
			l0.9,0.2c-0.3,1.2-0.6,2.4-1,3.7L129.2,519.4z M89.2,513.7l0.9-0.1c0.1,1.2,0.3,2.4,0.6,3.7l-0.9,0.2
			C89.5,516.2,89.3,514.9,89.2,513.7z M130.3,514.1c0.1-0.6,0.1-1.1,0.1-1.7c0-0.7,0-1.3-0.1-2l0.9-0.1c0.1,0.7,0.1,1.4,0.1,2.1
			c0,0.6,0,1.2-0.1,1.8L130.3,514.1z M89.2,511.8c0.1-1.3,0.2-2.6,0.5-3.8l0.9,0.2c-0.3,1.2-0.5,2.4-0.5,3.7H89.2z M129.1,505.1
			l0.8-0.4c0.5,1.1,0.8,2.4,1,3.7l-0.9,0.2C129.8,507.4,129.5,506.2,129.1,505.1z M90,506.1c0.4-1.2,0.9-2.4,1.5-3.6l0.8,0.5
			c-0.6,1-1,2.3-1.4,3.4L90,506.1z M126.4,500.3l0.8-0.6c0.8,1,1.4,2.2,2,3.3l-0.8,0.4C127.8,502.2,127.2,501.2,126.4,500.3z
			 M92.5,500.8c0.7-1,1.5-2.1,2.3-3l0.7,0.7c-0.8,0.9-1.6,1.9-2.3,2.9L92.5,500.8z M122.6,496.3l0.6-0.8c1,0.8,2,1.7,2.8,2.6
			l-0.7,0.7C124.4,497.9,123.5,497.1,122.6,496.3z M96.2,496.5c0.9-0.8,2-1.6,3.1-2.3l0.5,0.8c-1,0.7-2,1.3-2.9,2.2L96.2,496.5z
			 M117.8,493.6l0.4-0.8c1.1,0.5,2.3,1.1,3.4,1.8l-0.5,0.8C120,494.7,118.9,494.1,117.8,493.6z M100.9,493.3c1.1-0.6,2.3-1,3.6-1.4
			l0.3,0.9c-1.1,0.4-2.3,0.8-3.4,1.3L100.9,493.3z M112.5,492.2l0.1-0.9c1.3,0.1,2.5,0.4,3.8,0.8l-0.3,0.9
			C115,492.7,113.7,492.4,112.5,492.2z M106.3,491.6c1.3-0.3,2.5-0.4,3.8-0.4c0.2,0,0.3,0,0.5,0v0.9c-0.1,0-0.3,0-0.4,0
			c-1.2,0.1-2.4,0.2-3.7,0.4L106.3,491.6z"/>
	</g>
	<path id="XMLID_105_" class="st17" d="M94.8,499.4c3.7-4.5,9.3-7.3,15.5-7.3c11.2,0,20.2,9.1,20.2,20.3c0,1.9-0.3,3.8-0.8,5.5
		L94.8,499.4z"/>
</g>
</svg>
