<?xml version="1.0" encoding="utf-8"?>
<!-- Generator: Adobe Illustrator 21.0.0, SVG Export Plug-In . SVG Version: 6.00 Build 0)  -->
<svg version="1.1" id="图层_1" xmlns="http://www.w3.org/2000/svg" xmlns:xlink="http://www.w3.org/1999/xlink" x="0px" y="0px"
	 viewBox="0 0 168 107.4" style="enable-background:new 0 0 168 107.4;" xml:space="preserve">
<style type="text/css">
	.st0{opacity:0.7;enable-background:new    ;}
	.st1{fill:#B1D0E8;}
	.st2{opacity:0.3;enable-background:new    ;}
	.st3{fill:#B5C7DF;}
	.st4{fill:#D9E3F2;}
	.st5{fill:#FFFFFF;}
	.st6{fill:#F1F5FB;}
	.st7{opacity:0.6;enable-background:new    ;}
</style>
<g class="st0">
	<path class="st1" d="M15.7,73.9l-6.5-9.7l19.3-0.6L15.7,73.9z M11.1,65.2l4.9,7.3l9.6-7.7L11.1,65.2z"/>
</g>
<g class="st2">
	<path class="st3" d="M20.8,65.6L9.2,71l6.2,5.4L20.8,65.6z"/>
</g>
<g class="st2">
	<path class="st4" d="M150.6,37.9l13.6-5L163,44.1L150.6,37.9z"/>
</g>
<g class="st0">
	<path class="st1" d="M161.1,42.2l-16.7-1.4l15.3-12.5L161.1,42.2z M147,40l13,1.1l-1.1-10.9L147,40z"/>
</g>
<g>
	<path class="st5" d="M27.3,106.4H7.6"/>
	<rect x="7.6" y="105.9" class="st1" width="19.8" height="1"/>
</g>
<g>
	<path class="st5" d="M156.1,106.4h-6.4"/>
	<rect x="149.7" y="105.9" class="st1" width="6.4" height="1"/>
</g>
<g>
	<path class="st5" d="M147.1,106.4H32.4"/>
	<rect x="32.4" y="105.9" class="st1" width="114.7" height="1"/>
</g>
<path class="st5" d="M79.6,1.7l58.6,15l4.9,11.2l-18.6,73.4c-0.3,1.1-1.3,1.7-2.4,1.5L57.7,86.2c-1.1-0.3-1.7-1.3-1.5-2.4l21-80.7
	C77.5,2.1,78.6,1.4,79.6,1.7z"/>
<path class="st5" d="M90.6,0.8L27.3,21.4c-1,0.3-1.6,1.5-1.3,2.5L52,103.3c0.3,1,1.4,1.6,2.5,1.3L117.9,84c1-0.3,1.6-1.5,1.3-2.5
	L93.1,2.1C92.8,1.1,91.6,0.5,90.6,0.8z"/>
<g>
	<path class="st6" d="M125.6,12.9V75h4V14.9L125.6,12.9z"/>
</g>
<g>
	<path class="st6" d="M49.7,14.6v61.9h-4V15.6L49.7,14.6z"/>
</g>
<path class="st1" d="M122.6,103.3c-0.2,0-0.4,0-0.6-0.1L57.6,86.7c-0.6-0.2-1.2-0.6-1.5-1.1s-0.4-1.2-0.3-1.9L76.7,3
	c0.3-1.3,1.7-2.1,3-1.8l0,0l58.8,15l5.1,11.6l0,0.2l-18.6,73.4C124.8,102.5,123.8,103.3,122.6,103.3z M79.1,2.1
	c-0.7,0-1.3,0.5-1.4,1.1l-21,80.7c-0.1,0.4,0,0.8,0.2,1.1c0.2,0.3,0.5,0.6,0.9,0.7l64.5,16.5c0.8,0.2,1.6-0.3,1.8-1.1l18.5-73.2
	l-4.7-10.8L79.5,2.2C79.4,2.1,79.3,2.1,79.1,2.1z"/>
<path class="st1" d="M53.9,105.2c-0.4,0-0.8-0.1-1.1-0.3c-0.6-0.3-1-0.8-1.2-1.5L25.5,24c-0.4-1.3,0.3-2.7,1.6-3.1L90.5,0.3
	c0.6-0.2,1.3-0.1,1.9,0.2c0.6,0.3,1,0.8,1.2,1.5l26.1,79.4c0.4,1.3-0.3,2.7-1.6,3.1L54.7,105C54.4,105.1,54.2,105.2,53.9,105.2z
	 M90.8,1.3L27.4,21.8c-0.8,0.2-1.2,1.1-1,1.9l26.1,79.4c0.1,0.4,0.4,0.7,0.7,0.9c0.4,0.2,0.8,0.2,1.1,0.1l63.3-20.5
	c0.8-0.2,1.2-1.1,1-1.9L92.6,2.3c-0.1-0.4-0.4-0.7-0.7-0.9C91.5,1.2,91.1,1.2,90.8,1.3L90.8,1.3z"/>
<g>
	<path class="st5" d="M51.7,1h72.6c1.1,0,2,0.9,2,2v95.4c0,1.1-0.9,2-2,2H51.7c-1.1,0-2-0.9-2-2V3C49.7,1.9,50.6,1,51.7,1z"/>
	<path class="st1" d="M124.2,100.9H51.7c-1.4,0-2.5-1.1-2.5-2.5V3c0-1.4,1.1-2.5,2.5-2.5h72.6c1.4,0,2.5,1.1,2.5,2.5v95.4
		C126.7,99.8,125.6,100.9,124.2,100.9z M51.7,1.5c-0.8,0-1.5,0.7-1.5,1.5v95.4c0,0.8,0.7,1.5,1.5,1.5h72.6c0.8,0,1.5-0.7,1.5-1.5V3
		c0-0.8-0.7-1.5-1.5-1.5H51.7z"/>
</g>
<g>
	<path class="st6" d="M122.3,103.4H53.7c-1.6,0-3-1.3-3-3V75.5c0-1.6,1.3-3,3-3h16.9v7c0,2.2,1.8,4,4,4h25.8c2.2,0,4-1.8,4-4v-7
		h17.9c1.6,0,3,1.3,3,3v24.9C125.2,102,123.9,103.4,122.3,103.4z"/>
</g>
<path class="st5" d="M132.2,106.4H42.7c-1.6,0-3-1.3-3-3V78.5c0-1.6,1.3-3,3-3H68v7c0,2.2,1.8,4,4,4H103c2.2,0,4-1.8,4-4v-7h25.2
	c1.6,0,3,1.3,3,3v24.9C135.2,105,133.8,106.4,132.2,106.4z"/>
<g>
	<path class="st6" d="M40,100.3h94.9v4c0,1.1-0.9,2-2,2H42c-1.1,0-2-0.9-2-2V100.3z"/>
</g>
<g>
	<rect x="50.2" y="11.4" class="st1" width="75.5" height="1"/>
</g>
<g>
	<circle class="st6" cx="58.6" cy="7" r="3"/>
	<path class="st1" d="M58.6,10.4c-1.9,0-3.5-1.6-3.5-3.5s1.6-3.5,3.5-3.5S62.1,5,62.1,7S60.6,10.4,58.6,10.4z M58.6,4.5
		c-1.4,0-2.5,1.1-2.5,2.5s1.1,2.5,2.5,2.5s2.5-1.1,2.5-2.5S60,4.5,58.6,4.5z"/>
</g>
<g>
	<circle class="st6" cx="67.6" cy="7" r="3"/>
	<path class="st1" d="M67.6,10.4c-1.9,0-3.5-1.6-3.5-3.5s1.6-3.5,3.5-3.5c1.9,0,3.5,1.6,3.5,3.5S69.5,10.4,67.6,10.4z M67.6,4.5
		c-1.4,0-2.5,1.1-2.5,2.5s1.1,2.5,2.5,2.5s2.5-1.1,2.5-2.5S69,4.5,67.6,4.5z"/>
</g>
<g>
	<circle class="st6" cx="76.5" cy="7" r="3"/>
	<path class="st1" d="M76.5,10.4c-1.9,0-3.5-1.6-3.5-3.5s1.6-3.5,3.5-3.5S80,5,80,7S78.5,10.4,76.5,10.4z M76.5,4.5
		c-1.4,0-2.5,1.1-2.5,2.5s1.1,2.5,2.5,2.5S79,8.3,79,7S77.9,4.5,76.5,4.5z"/>
</g>
<g>
	<polygon class="st1" points="139,28.3 132.5,26.2 134.7,20.7 135.6,21.1 133.9,25.5 139.3,27.4 	"/>
</g>
<g class="st7">
	<rect x="57.7" y="23.9" class="st4" width="8" height="8"/>
</g>
<g class="st7">
	<rect x="71.6" y="23.9" class="st4" width="44.7" height="8"/>
</g>
<g class="st7">
	<rect x="57.7" y="39.8" class="st4" width="8" height="8"/>
</g>
<g class="st7">
	<rect x="71.6" y="39.8" class="st4" width="44.7" height="8"/>
</g>
<g class="st7">
	<rect x="57.7" y="55.7" class="st4" width="8" height="8"/>
</g>
<g class="st7">
	<rect x="71.6" y="55.7" class="st4" width="44.7" height="8"/>
</g>
<g>
	<polygon class="st4" points="32.8,31.6 32.4,30.6 45.7,25.3 45.7,26.4 	"/>
</g>
<path class="st1" d="M132.2,106.9H42.7c-1.9,0-3.5-1.6-3.5-3.5V78.5c0-1.9,1.6-3.5,3.5-3.5h25.7v7.5c0,1.9,1.6,3.5,3.5,3.5H103
	c1.9,0,3.5-1.6,3.5-3.5V75h25.7c1.9,0,3.5,1.6,3.5,3.5v24.9C135.7,105.3,134.1,106.9,132.2,106.9z M42.7,76c-1.4,0-2.5,1.1-2.5,2.5
	v24.9c0,1.4,1.1,2.5,2.5,2.5h89.5c1.4,0,2.5-1.1,2.5-2.5V78.5c0-1.4-1.1-2.5-2.5-2.5h-24.7v6.5c0,2.5-2,4.5-4.5,4.5H71.9
	c-2.5,0-4.5-2-4.5-4.5V76H42.7z"/>
</svg>
