<?xml version="1.0" encoding="utf-8"?>
<!-- Generator: Adobe Illustrator 21.0.0, SVG Export Plug-In . SVG Version: 6.00 Build 0)  -->
<svg version="1.1" id="图层_1" xmlns="http://www.w3.org/2000/svg" xmlns:xlink="http://www.w3.org/1999/xlink" x="0px" y="0px"
	 viewBox="0 0 168 107.4" style="enable-background:new 0 0 168 107.4;" xml:space="preserve">
<style type="text/css">
	.st0{opacity:0.7;enable-background:new    ;}
	.st1{fill:#B1D0E8;}
	.st2{opacity:0.3;enable-background:new    ;}
	.st3{fill:#B5C7DF;}
	.st4{fill:#FFFFFF;}
	.st5{fill:#D9E3F2;}
	.st6{opacity:0.53;enable-background:new    ;}
	.st7{fill:#F1F3F7;}
	.st8{opacity:0.24;enable-background:new    ;}
	.st9{fill:#C4CEDE;}
	.st10{opacity:0.9;enable-background:new    ;}
	.st11{fill:#F4F7FC;}
	.st12{opacity:0.3;fill:#D9E3F2;enable-background:new    ;}
</style>
<g class="st0">
	<path class="st1" d="M8.3,20.7L8.2,9.1l16.4,10.1L8.3,20.7z M9.2,10.9l0.1,8.8l12.3-1.2L9.2,10.9z"/>
</g>
<g class="st2">
	<path class="st3" d="M17.1,16.5L4.4,14.7l2.2,7.9L17.1,16.5z"/>
</g>
<g>
	<path class="st4" d="M49.7,48.9l4.2,4c0.9,0.8,0.9,2.2,0,3L15.1,95.9c-1.7,1.7-4.4,1.7-6.1,0.1l-1.1-1c-1.7-1.6-1.7-4.4-0.1-6.1
		l38.8-39.9C47.5,48.1,48.8,48.1,49.7,48.9z"/>
	<path class="st1" d="M12,97.7c-1.2,0-2.4-0.4-3.3-1.3l-1.1-1c-0.9-0.9-1.4-2.1-1.5-3.4c0-1.3,0.5-2.5,1.4-3.4l38.8-39.9
		c1-1,2.7-1.1,3.7-0.1l4.2,4c0.5,0.5,0.8,1.2,0.8,1.9c0,0.7-0.3,1.4-0.7,1.9L15.4,96.2C14.5,97.2,13.3,97.7,12,97.7z M48.2,48.8
		c-0.4,0-0.9,0.2-1.2,0.5L8.2,89.2c-0.7,0.7-1.1,1.7-1.1,2.7s0.4,2,1.2,2.7l1.1,1c1.5,1.5,3.9,1.4,5.4-0.1l38.8-39.9
		c0.3-0.3,0.5-0.7,0.5-1.2c0-0.4-0.2-0.8-0.5-1.2l-4.2-4C49,48.9,48.6,48.8,48.2,48.8z"/>
</g>
<g class="st2">
	<path class="st5" d="M63,35.7l3.3,3.3c0.7,0.7,0.7,1.8,0,2.5L35.3,73.8c-1.3,1.4-4.2,1.2-5.5-0.2l0,0c-1.4-1.3-1.6-4.1-0.3-5.5
		l31.1-32.4C61.2,35,62.3,35,63,35.7z"/>
</g>
<g class="st2">
	<path class="st5" d="M150.6,36l13.6-5L163,42.2L150.6,36z"/>
</g>
<g class="st0">
	<path class="st1" d="M161.1,40.2l-16.7-1.4l15.3-12.5L161.1,40.2z M147,38l13,1.1l-1.1-10.9L147,38z"/>
</g>
<g>
	<path class="st4" d="M27.3,104.4H7.6"/>
	<rect x="7.6" y="103.9" class="st1" width="19.8" height="1"/>
</g>
<g>
	<path class="st4" d="M156.1,104.4h-6.4"/>
	<rect x="149.7" y="103.9" class="st1" width="6.4" height="1"/>
</g>
<g>
	<path class="st4" d="M147.1,104.4H32.4"/>
	<rect x="32.4" y="103.9" class="st1" width="114.7" height="1"/>
</g>
<g>
	<rect x="41.7" y="3" class="st4" width="42.7" height="101.4"/>
	<path class="st1" d="M85,104.9H41.2V2.5H85V104.9z M42.2,103.9H84V3.5H42.2V103.9z"/>
</g>
<g class="st6">
	<rect x="47.7" y="13.9" class="st1" width="29.8" height="3"/>
</g>
<g class="st6">
	<rect x="47.7" y="23.9" class="st1" width="29.8" height="3"/>
</g>
<g>
	<rect x="99.4" y="3" class="st4" width="42.7" height="101.4"/>
	<path class="st1" d="M142.6,104.9H98.9V2.5h43.7V104.9z M99.9,103.9h41.7V3.5H99.9V103.9z"/>
</g>
<g class="st6">
	<rect x="105.4" y="13.9" class="st1" width="29.8" height="3"/>
</g>
<g class="st6">
	<rect x="105.4" y="23.9" class="st1" width="29.8" height="3"/>
</g>
<g>
	<path class="st7" d="M85.9,57.7h27c0.5,0,0.9-0.4,0.9-0.9V51c0-0.8,1-1.2,1.6-0.6l11.8,12.6c0.6,0.6,0.1,1.6-0.7,1.6H85.9
		c-0.5,0-0.9-0.4-0.9-0.9v-5.1C85,58.1,85.4,57.7,85.9,57.7z"/>
</g>
<g>
	<path class="st4" d="M85.3,54.5h27.3c0.4,0,0.8-0.3,0.8-0.8v-6.2c0-0.7,0.8-1,1.3-0.5L127,60.2c0.5,0.5,0.1,1.3-0.6,1.3H85.3
		c-0.4,0-0.8-0.3-0.8-0.8v-5.4C84.5,54.9,84.8,54.5,85.3,54.5z"/>
	<path class="st1" d="M126.5,62H84v-8h28.3c0.3,0,0.6-0.3,0.6-0.6v-5.9c0-0.5,0.3-1,0.8-1.2c0.5-0.2,1-0.1,1.4,0.3l12.4,13.2
		c0.3,0.4,0.4,0.9,0.2,1.4C127.4,61.7,127,62,126.5,62z M113.2,55H85v6h41.5c0.2,0,0.2-0.1,0.2-0.2s0.1-0.2,0-0.3l-12.4-13.2
		c-0.1-0.1-0.2-0.1-0.3-0.1c0,0-0.2,0.1-0.2,0.2v6.9C113.8,54.8,113.6,55,113.2,55z"/>
</g>
<g>
	<path class="st7" d="M98,81.6H71c-0.5,0-0.9-0.4-0.9-0.9V75c0-0.8-1-1.3-1.6-0.6L56.6,87c-0.6,0.6-0.1,1.6,0.7,1.6H98
		c0.5,0,0.9-0.4,0.9-0.9v-5.1C98.9,82,98.5,81.6,98,81.6z"/>
</g>
<g>
	<path class="st4" d="M98.6,78.6H71.3c-0.4,0-0.8-0.3-0.8-0.8v-6.3c0-0.7-0.8-1-1.3-0.5L56.9,84.3c-0.5,0.5-0.1,1.3,0.6,1.3h41.2
		c0.4,0,0.8-0.3,0.8-0.8v-5.4C99.4,78.9,99.1,78.6,98.6,78.6z"/>
	<path class="st1" d="M57.4,86.1c-0.5,0-1-0.3-1.2-0.8c-0.2-0.5-0.1-1,0.2-1.4l12.4-13.2c0.4-0.4,0.9-0.5,1.4-0.3
		c0.5,0.2,0.8,0.6,0.8,1.2v6.3c0,0.1,0.1,0.3,0.3,0.3h28.6v8H57.4z M69.8,71.3c-0.1,0-0.1,0-0.2,0.1L57.2,84.6
		c-0.1,0.1-0.1,0.2,0,0.3c0,0,0.1,0.2,0.2,0.2h41.5v-6H71.3c-0.7,0-1.3-0.6-1.3-1.3v-6.3c0-0.2-0.1-0.2-0.2-0.2
		C69.9,71.3,69.9,71.3,69.8,71.3z"/>
</g>
<g class="st6">
	<rect x="47.7" y="34.8" class="st1" width="26.8" height="3"/>
</g>
<g class="st8">
	<circle class="st9" cx="51.3" cy="50.3" r="28.4"/>
</g>
<g>
	<circle class="st4" cx="50.2" cy="48.2" r="27.8"/>
	<path class="st1" d="M50.2,76.6c-15.6,0-28.3-12.7-28.3-28.3c0-15.6,12.7-28.3,28.3-28.3s28.3,12.7,28.3,28.3
		C78.5,63.8,65.8,76.6,50.2,76.6z M50.2,20.9c-15.1,0-27.3,12.3-27.3,27.3s12.3,27.3,27.3,27.3s27.3-12.3,27.3-27.3
		S65.2,20.9,50.2,20.9z"/>
</g>
<g class="st10">
	<ellipse class="st11" cx="49.8" cy="48.4" rx="21.9" ry="21.9"/>
	<path class="st1" d="M49.8,70.8c-0.4,0-0.8,0-1.2,0l0.1-1c1.3,0.1,2.6,0,3.9-0.1l0.1,1C51.8,70.7,50.8,70.8,49.8,70.8z M46.6,70.6
		c-1.3-0.2-2.7-0.5-4-1l0.3-0.9c1.2,0.4,2.5,0.7,3.8,0.9L46.6,70.6z M54.7,70.3l-0.2-1c1.3-0.3,2.5-0.7,3.7-1.2l0.4,0.9
		C57.4,69.6,56.1,70,54.7,70.3z M40.7,68.9c-1.2-0.6-2.4-1.2-3.6-2l0.6-0.8c1.1,0.7,2.2,1.4,3.4,1.9L40.7,68.9z M60.5,68.1L60,67.2
		c1.1-0.6,2.2-1.3,3.2-2.2l0.6,0.8C62.8,66.7,61.7,67.5,60.5,68.1z M35.5,65.6c-1-0.9-2-1.8-2.9-2.9l0.8-0.6c0.8,1,1.8,1.9,2.8,2.8
		L35.5,65.6z M65.4,64.5l-0.7-0.7c0.9-0.9,1.8-1.9,2.5-3l0.8,0.6C67.3,62.5,66.4,63.6,65.4,64.5z M31.4,61.1c-0.8-1.1-1.4-2.3-2-3.6
		l0.9-0.4c0.5,1.2,1.2,2.3,1.9,3.4L31.4,61.1z M69.2,59.7l-0.9-0.5c0.7-1.1,1.2-2.3,1.7-3.5l0.9,0.3C70.4,57.3,69.8,58.5,69.2,59.7z
		 M28.7,55.7c-0.4-1.3-0.8-2.6-1-4l1-0.1c0.2,1.3,0.5,2.6,0.9,3.8L28.7,55.7z M71.5,54l-1-0.3c0.3-1.3,0.5-2.6,0.6-3.9l1,0.1
		C72.1,51.4,71.8,52.7,71.5,54z M27.5,49.6c0-0.4,0-0.8,0-1.3c0-0.9,0.1-1.9,0.2-2.8l1,0.1c-0.1,0.9-0.2,1.8-0.2,2.7
		c0,0.4,0,0.8,0,1.2L27.5,49.6z M71.2,48c0-1.3-0.2-2.6-0.4-3.9l1-0.2c0.3,1.3,0.4,2.7,0.4,4.1L71.2,48z M29,43.8l-1-0.2
		c0.3-1.3,0.7-2.6,1.2-3.9l0.9,0.4C29.6,41.2,29.2,42.5,29,43.8z M70.3,42.2c-0.4-1.2-0.9-2.5-1.5-3.6l0.9-0.5
		c0.6,1.2,1.1,2.5,1.5,3.8L70.3,42.2z M31,38.3l-0.9-0.5c0.6-1.2,1.4-2.3,2.2-3.4l0.8,0.6C32.3,36,31.6,37.1,31,38.3z M67.9,36.9
		c-0.7-1.1-1.5-2.1-2.4-3.1l0.7-0.7c0.9,1,1.8,2.1,2.5,3.2L67.9,36.9z M34.4,33.5l-0.7-0.7c0.9-1,2-1.9,3.1-2.7l0.6,0.8
		C36.3,31.7,35.3,32.6,34.4,33.5z M64.1,32.4c-1-0.9-2-1.7-3.1-2.3l0.5-0.9c1.2,0.7,2.3,1.5,3.3,2.4L64.1,32.4z M39,29.9l-0.5-0.9
		c1.2-0.7,2.4-1.3,3.7-1.8l0.3,0.9C41.3,28.7,40.1,29.2,39,29.9z M59.3,29.1c-1.2-0.6-2.4-1-3.6-1.4l0.3-1c1.3,0.4,2.6,0.9,3.8,1.5
		L59.3,29.1z M44.4,27.7l-0.3-1c1.3-0.3,2.7-0.6,4-0.7l0.1,1C46.9,27.1,45.6,27.3,44.4,27.7z M53.7,27.3c-1.3-0.2-2.6-0.4-3.9-0.4
		v-1c1.4,0,2.7,0.1,4.1,0.4L53.7,27.3z"/>
</g>
<path class="st12" d="M29.3,54.5c-0.6-1.9-0.9-3.9-0.9-5.9C28.4,36.7,38,27,49.9,27c6.6,0,12.6,3,16.5,7.8L29.3,54.5z"/>
</svg>
