<?xml version="1.0" encoding="utf-8"?>
<!-- Generator: Adobe Illustrator 21.0.0, SVG Export Plug-In . SVG Version: 6.00 Build 0)  -->
<svg version="1.1" id="图层_1" xmlns="http://www.w3.org/2000/svg" xmlns:xlink="http://www.w3.org/1999/xlink" x="0px" y="0px"
	 viewBox="0 0 168 105.5" style="enable-background:new 0 0 168 105.5;" xml:space="preserve">
<style type="text/css">
	.st0{fill:#EEF2FA;}
	.st1{fill:#A1B6D1;}
	.st2{fill:#FFFFFF;}
	.st3{fill:#B1D0E8;}
	.st4{opacity:0.39;enable-background:new    ;}
	.st5{opacity:0.12;enable-background:new    ;}
	.st6{opacity:0.38;enable-background:new    ;}
	.st7{opacity:0.18;enable-background:new    ;}
	.st8{fill:#F1F5FB;}
	.st9{opacity:0.24;enable-background:new    ;}
	.st10{fill:#C4CEDE;}
	.st11{opacity:0.3;enable-background:new    ;}
	.st12{fill:#D9E3F2;}
	.st13{opacity:0.9;enable-background:new    ;}
	.st14{fill:#F4F7FC;}
	.st15{opacity:0.46;fill:none;enable-background:new    ;}
	.st16{opacity:0.36;enable-background:new    ;}
	.st17{opacity:0.7;enable-background:new    ;}
	.st18{fill:#B5C7DF;}
</style>
<g>
	<circle class="st0" cx="104" cy="28.8" r="3.4"/>
	<path class="st1" d="M104,32.7c-2.2,0-3.9-1.8-3.9-3.9s1.8-3.9,3.9-3.9c2.2,0,3.9,1.8,3.9,3.9S106.2,32.7,104,32.7z M104,25.9
		c-1.6,0-2.9,1.3-2.9,2.9s1.3,2.9,2.9,2.9s2.9-1.3,2.9-2.9S105.6,25.9,104,25.9z"/>
</g>
<g>
	<circle class="st0" cx="68.9" cy="42.5" r="3.4"/>
	<path class="st1" d="M68.9,46.4c-2.2,0-3.9-1.8-3.9-3.9s1.8-3.9,3.9-3.9c2.2,0,3.9,1.8,3.9,3.9S71,46.4,68.9,46.4z M68.9,39.6
		c-1.6,0-2.9,1.3-2.9,2.9s1.3,2.9,2.9,2.9c1.6,0,2.9-1.3,2.9-2.9S70.5,39.6,68.9,39.6z"/>
</g>
<g>
	<path class="st2" d="M44.9,12.7h88.9c1.6,0,2.9,1.3,2.9,2.9V83c0,1.6-1.3,2.9-2.9,2.9H44.9c-1.6,0-2.9-1.3-2.9-2.9V15.6
		C42,14,43.3,12.7,44.9,12.7z"/>
	<path class="st3" d="M133.8,86.5H44.9c-1.9,0-3.4-1.5-3.4-3.4V15.6c0-1.9,1.5-3.4,3.4-3.4h88.9c1.9,0,3.4,1.5,3.4,3.4V83
		C137.2,84.9,135.7,86.5,133.8,86.5z M44.9,13.2c-1.3,0-2.4,1.1-2.4,2.4V83c0,1.3,1.1,2.4,2.4,2.4h88.9c1.3,0,2.4-1.1,2.4-2.4V15.6
		c0-1.3-1.1-2.4-2.4-2.4H44.9z"/>
</g>
<g class="st4">
	<path class="st2" d="M50,23.3h78.7c0.5,0,0.9,0.4,0.9,0.9v51.3c0,0.5-0.4,0.9-0.9,0.9H50c-0.5,0-0.9-0.4-0.9-0.9V24.2
		C49.1,23.7,49.5,23.3,50,23.3z"/>
	<path class="st3" d="M128.7,77H50c-0.8,0-1.4-0.6-1.4-1.4V24.2c0-0.8,0.6-1.4,1.4-1.4h78.7c0.8,0,1.4,0.6,1.4,1.4v51.3
		C130.1,76.3,129.5,77,128.7,77z M50,23.8c-0.2,0-0.4,0.2-0.4,0.4v51.3c0,0.2,0.2,0.4,0.4,0.4h78.7c0.2,0,0.4-0.2,0.4-0.4V24.2
		c0-0.2-0.2-0.4-0.4-0.4H50z"/>
</g>
<path class="st2" d="M29.6,85h117.6c1.2,0,2.2,1,2.2,2.3l-4.4,10c0,1.3-1,2.3-2.2,2.3H34c-1.2,0-2.2-1-2.2-2.3l-4.4-10
	C27.3,86,28.3,85,29.6,85z"/>
<g class="st5">
	<path class="st3" d="M63.5,30h65.6v46H63.5V30z"/>
</g>
<g class="st6">
	<circle class="st3" cx="124.5" cy="34.7" r="1.5"/>
</g>
<g class="st6">
	<circle class="st3" cx="118.7" cy="34.7" r="1.5"/>
</g>
<g class="st6">
	<circle class="st3" cx="111.8" cy="34.7" r="1.5"/>
</g>
<g class="st7">
	<rect x="63.5" y="37.6" class="st1" width="65.6" height="1"/>
</g>
<g>
	<path class="st8" d="M30.3,94.5l2,4.9h112.3l2-4.9H30.3z"/>
</g>
<g>
	<path class="st2" d="M47.8,35.3l4.1,4c0.8,0.8,0.9,2.1,0,3L13.8,81.5c-1.6,1.7-4.3,1.7-6,0.1l-1.1-1c-1.7-1.6-1.7-4.3-0.1-6
		l38.1-39.2C45.7,34.5,47,34.5,47.8,35.3z"/>
	<path class="st3" d="M10.8,83.3c-1.2,0-2.4-0.4-3.3-1.3l-1.1-1C5.6,80,5.1,78.9,5,77.6c0-1.3,0.5-2.4,1.3-3.4L44.5,35
		c1-1,2.7-1.1,3.7-0.1l4.1,4c0.5,0.5,0.8,1.1,0.8,1.8c0,0.7-0.3,1.4-0.7,1.9L14.2,81.8C13.3,82.8,12.1,83.3,10.8,83.3z M46.4,35.2
		c-0.4,0-0.8,0.2-1.2,0.5L7.1,75c-0.7,0.7-1.1,1.6-1,2.6c0,1,0.4,1.9,1.1,2.6l1.1,1c1.5,1.4,3.8,1.4,5.3-0.1l38.1-39.2
		c0.3-0.3,0.5-0.7,0.5-1.1c0-0.4-0.2-0.8-0.5-1.1l-4.1-4C47.2,35.4,46.8,35.2,46.4,35.2z"/>
</g>
<g class="st9">
	<circle class="st10" cx="51.4" cy="36.7" r="27.9"/>
</g>
<g class="st11">
	<path class="st12" d="M63.5,19l3.5,3.4c0.7,0.7,0.7,1.8,0,2.6L34.7,58.6c-1.4,1.4-4.3,1.2-5.8-0.2l0,0c-1.4-1.4-1.6-4.3-0.3-5.7
		L61,19.1C61.6,18.3,62.8,18.3,63.5,19z"/>
</g>
<g>
	<circle class="st2" cx="48.3" cy="34.7" r="27.3"/>
	<path class="st3" d="M48.3,62.5C33,62.5,20.5,50,20.5,34.7C20.5,19.3,33,6.8,48.3,6.8c15.4,0,27.8,12.5,27.8,27.8
		C76.2,50,63.7,62.5,48.3,62.5z M48.3,7.8c-14.8,0-26.8,12-26.8,26.8s12,26.8,26.8,26.8s26.8-12,26.8-26.8S63.1,7.8,48.3,7.8z"/>
</g>
<g class="st13">
	<ellipse class="st14" cx="47.8" cy="34.2" rx="21.5" ry="21.5"/>
	<path class="st3" d="M47.8,56.2c-0.8,0-1.6,0-2.4-0.1l0.1-1c1.3,0.1,2.6,0.2,3.9,0.1l0.1,1C48.9,56.2,48.4,56.2,47.8,56.2z
		 M51.5,55.9l-0.2-1c1.3-0.2,2.5-0.6,3.8-1l0.3,0.9C54.2,55.3,52.8,55.7,51.5,55.9z M43.4,55.8c-1.3-0.3-2.7-0.7-3.9-1.2l0.4-0.9
		c1.2,0.5,2.5,0.9,3.7,1.1L43.4,55.8z M57.3,54l-0.4-0.9c1.2-0.6,2.3-1.2,3.3-2l0.6,0.8C59.7,52.7,58.5,53.4,57.3,54z M37.6,53.7
		c-1.2-0.6-2.4-1.4-3.4-2.2l0.6-0.8c1,0.8,2.1,1.5,3.3,2.1L37.6,53.7z M62.4,50.6l-0.7-0.7c1-0.9,1.9-1.8,2.7-2.9l0.8,0.6
		C64.4,48.7,63.4,49.7,62.4,50.6z M32.6,50.1c-1-0.9-1.9-2-2.7-3.1l0.8-0.6c0.8,1.1,1.6,2,2.6,2.9L32.6,50.1z M66.4,46l-0.8-0.5
		c0.7-1.1,1.3-2.3,1.8-3.5l0.9,0.4C67.7,43.6,67.1,44.8,66.4,46z M28.8,45.3c-0.7-1.2-1.3-2.4-1.7-3.7l0.9-0.3
		c0.4,1.2,1,2.4,1.7,3.5L28.8,45.3z M68.9,40.4l-1-0.3c0.4-1.2,0.6-2.5,0.7-3.8l1,0.1C69.5,37.7,69.3,39.1,68.9,40.4z M26.5,39.7
		c-0.3-1.3-0.6-2.7-0.6-4l1-0.1c0.1,1.3,0.3,2.6,0.6,3.9L26.5,39.7z M69.8,34.3l-1,0l0-0.2c0-1.2-0.1-2.5-0.3-3.7l1-0.2
		c0.2,1.3,0.3,2.6,0.3,3.9L69.8,34.3z M26.8,33.6l-1,0c0-1.4,0.2-2.7,0.5-4.1l1,0.2C27,31,26.9,32.3,26.8,33.6z M68,28.5
		c-0.3-1.3-0.8-2.5-1.4-3.6l0.9-0.4c0.6,1.2,1.1,2.5,1.4,3.8L68,28.5z M27.8,27.8l-1-0.3c0.4-1.3,0.9-2.6,1.6-3.8l0.9,0.5
		C28.7,25.4,28.2,26.6,27.8,27.8z M65.7,23.2c-0.7-1.1-1.5-2.2-2.3-3.1l0.7-0.7c0.9,1,1.7,2.1,2.4,3.3L65.7,23.2z M30.3,22.6
		L29.4,22c0.7-1.1,1.6-2.2,2.6-3.2l0.7,0.7C31.8,20.5,31,21.5,30.3,22.6z M62,18.7c-1-0.9-2-1.7-3.1-2.4l0.5-0.8
		c1.2,0.7,2.2,1.6,3.2,2.5L62,18.7z M34.1,18.2l-0.7-0.8c1-0.9,2.2-1.7,3.3-2.4l0.5,0.9C36.2,16.6,35.1,17.3,34.1,18.2z M57.2,15.3
		c-1.2-0.6-2.4-1.1-3.6-1.4l0.3-1c1.3,0.4,2.6,0.9,3.8,1.5L57.2,15.3z M39,15l-0.4-0.9c1.2-0.6,2.5-1,3.9-1.4l0.2,1
		C41.5,14,40.2,14.5,39,15z M51.7,13.5c-1.3-0.2-2.6-0.4-3.9-0.4c0,0,0,0,0,0c-1.1,0-2.1,0.1-3.2,0.2l-0.2-1
		c1.1-0.2,2.2-0.2,3.3-0.2c0,0,0,0,0,0c1.4,0,2.7,0.1,4.1,0.4L51.7,13.5z"/>
</g>
<path class="st15" d="z"/>
<g class="st16">
	<path class="st3" d="M107.3,65.1c0.1,0.3,0.1,0.6,0,0.9c-0.2,0.3-0.5,0.4-0.8,0.4H83.9c-0.3,0-0.6-0.2-0.8-0.4
		c-0.1-0.3-0.2-0.6,0-0.9l11.3-19.8c0.2-0.3,0.5-0.4,0.8-0.4c0.3,0,0.6,0.2,0.8,0.4L107.3,65.1L107.3,65.1z M93.8,59.5h2.8v-7.6
		h-2.8V59.5z M93.8,63.9h2.8v-2.5h-2.8V63.9L93.8,63.9z"/>
</g>
<g class="st17">
	<path class="st3" d="M10.1,17.5L10,6l16.2,9.9L10.1,17.5z M11,7.7l0.1,8.6l12-1.2L11,7.7z"/>
</g>
<g class="st11">
	<path class="st18" d="M18.8,13.3L6.3,11.5l2.2,7.7L18.8,13.3z"/>
</g>
<g class="st11">
	<path class="st12" d="M150,32.4l13.4-4.9l-1.2,11L150,32.4z"/>
</g>
<g class="st17">
	<path class="st3" d="M160.2,36.6l-16.4-1.4l15-12.3L160.2,36.6z M146.4,34.4l12.8,1.1l-1.1-10.7L146.4,34.4z"/>
</g>
<g>
	<path class="st2" d="M28.8,99.6H9.4"/>
	<rect x="9.4" y="99.1" class="st3" width="19.4" height="1"/>
</g>
<g>
	<path class="st2" d="M155.3,99.6H149"/>
	<rect x="149" y="99.1" class="st3" width="6.3" height="1"/>
</g>
<g>
	<path class="st2" d="M146.5,99.6H33.8"/>
	<rect x="33.8" y="99.1" class="st3" width="112.7" height="1"/>
</g>
<g class="st16">
	<path class="st3" d="M48.6,21.3c-7.1,0-12.9,4.9-12.9,13h-3l4.5,6.2l4.5-6.2h-2.9c0-6.1,4.4-9.9,9.8-9.9c5.4,0,9.8,4.3,9.8,9.7
		s-4.4,9.8-9.8,9.8c-0.9,0-1.5,0.7-1.5,1.5c0,0.9,0.7,1.5,1.5,1.5c7.1,0,12.9-5.7,12.9-12.8S55.7,21.3,48.6,21.3L48.6,21.3z
		 M48.6,21.3"/>
</g>
<path class="st3" d="M142.8,100.1H34c-1.5,0-2.7-1.2-2.7-2.7l-4.4-10.1c0-1.6,1.2-2.8,2.7-2.8h117.6c1.5,0,2.7,1.3,2.7,2.8l0,0.2
	l-4.4,9.9C145.4,98.9,144.2,100.1,142.8,100.1z M27.9,87.2l4.4,10.1c0,1,0.8,1.8,1.7,1.8h108.8c1,0,1.7-0.8,1.7-1.8l0-0.2l4.4-9.9
	c0-1-0.8-1.7-1.7-1.7H29.6C28.7,85.5,27.9,86.2,27.9,87.2z"/>
</svg>
