<?xml version="1.0" encoding="utf-8"?>
<!-- Generator: Adobe Illustrator 21.0.0, SVG Export Plug-In . SVG Version: 6.00 Build 0)  -->
<svg version="1.1" id="图层_1" xmlns="http://www.w3.org/2000/svg" xmlns:xlink="http://www.w3.org/1999/xlink" x="0px" y="0px"
	 viewBox="0 0 160 108" style="enable-background:new 0 0 160 108;" xml:space="preserve">
<style type="text/css">
	.st0{opacity:0.7;enable-background:new    ;}
	.st1{fill:#B1D0E8;}
	.st2{fill:#FFFFFF;}
	.st3{opacity:0.57;enable-background:new    ;}
	.st4{opacity:0.3;enable-background:new    ;}
	.st5{fill:#B5C7DF;}
	.st6{fill:#D9E3F2;}
	.st7{opacity:0.24;enable-background:new    ;}
	.st8{fill:#C4CEDE;}
	.st9{opacity:0.4;enable-background:new    ;}
	.st10{fill:#D0DAEA;}
	.st11{opacity:0.36;enable-background:new    ;}
	.st12{fill:#A1B6D1;}
	.st13{fill:#F4F7FC;}
	.st14{fill:#F1F3F7;}
</style>
<g class="st0">
	<path class="st1" d="M9.2,67.3L-1,61.5l17-9.2L9.2,67.3z M1,61.5l7.7,4.4l5.1-11.3L1,61.5z"/>
</g>
<g>
	<path class="st2" d="M44,60h102c1.1,0,2,0.9,2,2v36c0,1.1-0.9,2-2,2H44c-1.1,0-2-0.9-2-2V62C42,60.9,42.9,60,44,60z"/>
	<path class="st1" d="M146,100.5H44c-1.4,0-2.5-1.1-2.5-2.5V62c0-1.4,1.1-2.5,2.5-2.5h102c1.4,0,2.5,1.1,2.5,2.5v36
		C148.5,99.4,147.4,100.5,146,100.5z M44,60.5c-0.8,0-1.5,0.7-1.5,1.5v36c0,0.8,0.7,1.5,1.5,1.5h102c0.8,0,1.5-0.7,1.5-1.5V62
		c0-0.8-0.7-1.5-1.5-1.5H44z"/>
</g>
<g class="st3">
	<rect x="53" y="92" class="st1" width="85" height="2"/>
	<path class="st1" d="M138.5,94.5h-86v-3h86V94.5z M53.5,93.5h84v-1h-84V93.5z"/>
</g>
<g class="st4">
	<path class="st5" d="M10,57.4L2,67.6l8,2V57.4z"/>
</g>
<g>
	<path class="st2" d="M58,49.2l4.2,4c0.9,0.8,0.9,2.2,0,3l-39,40.2c-1.7,1.7-4.4,1.8-6.1,0.1l-1.1-1c-1.7-1.7-1.8-4.4-0.1-6.1
		l39-40.2C55.8,48.4,57.1,48.3,58,49.2z"/>
	<path class="st1" d="M20.1,98.2c-1.2,0-2.4-0.5-3.4-1.4l-1.1-1c-0.9-0.9-1.4-2.1-1.5-3.4s0.5-2.5,1.4-3.4l39-40.2
		c1-1.1,2.7-1.1,3.8-0.1l4.2,4c0.5,0.5,0.8,1.2,0.8,1.9S63,56,62.5,56.5l-39,40.2C22.6,97.8,21.3,98.2,20.1,98.2z M56.5,49.1
		c-0.4,0-0.9,0.2-1.2,0.5l-39,40.2c-0.7,0.7-1.1,1.7-1.1,2.7s0.4,2,1.2,2.7l1.1,1c1.5,1.5,3.9,1.4,5.4-0.1l39-40.2
		c0.3-0.3,0.5-0.7,0.5-1.2c0-0.4-0.2-0.9-0.5-1.2l-4.2-4C57.3,49.2,56.9,49.1,56.5,49.1z"/>
</g>
<g class="st4">
	<path class="st6" d="M145.5,32.2l13.7-5L158,38.4L145.5,32.2z"/>
</g>
<g class="st0">
	<path class="st1" d="M156,36.5l-16.8-1.4l15.4-12.6L156,36.5z M141.8,34.3l13.1,1.1l-1.1-10.9L141.8,34.3z"/>
</g>
<g class="st7">
	<circle class="st8" cx="59.6" cy="52.6" r="28.6"/>
</g>
<g>
	<path class="st2" d="M29.5,107H9.6"/>
	<rect x="9.6" y="106.5" class="st1" width="19.9" height="1"/>
</g>
<g>
	<path class="st2" d="M159,107h-6.4"/>
	<rect x="152.6" y="106.5" class="st1" width="6.4" height="1"/>
</g>
<g>
	<path class="st2" d="M150,107H34.6"/>
	<rect x="34.6" y="106.5" class="st1" width="115.4" height="1"/>
</g>
<g class="st9">
	<rect x="108.1" y="68" class="st10" width="8.9" height="19"/>
</g>
<g class="st9">
	<rect x="88" y="68" class="st10" width="8.9" height="19"/>
</g>
<g class="st11">
	<circle class="st6" cx="133" cy="73.1" r="5"/>
	<path class="st12" d="M133,78.6c-3,0-5.5-2.5-5.5-5.5s2.5-5.5,5.5-5.5s5.5,2.5,5.5,5.5C138.4,76.1,136,78.6,133,78.6z M133,68.6
		c-2.5,0-4.5,2-4.5,4.5s2,4.5,4.5,4.5s4.5-2,4.5-4.5C137.4,70.6,135.4,68.6,133,68.6z"/>
</g>
<g>
	<circle class="st2" cx="58.5" cy="48.5" r="28"/>
	<path class="st1" d="M58.5,77C42.8,77,30,64.2,30,48.5S42.8,20,58.5,20S87,32.8,87,48.5S74.2,77,58.5,77z M58.5,21
		C43.3,21,31,33.4,31,48.5S43.3,76,58.5,76C73.6,76,86,63.7,86,48.5S73.6,21,58.5,21z"/>
</g>
<ellipse class="st13" cx="58.4" cy="48.5" rx="21.4" ry="21.5"/>
<path class="st1" d="M58.4,71c-0.3,0-0.5,0-0.8,0v-1c1.3,0,2.6,0,3.9-0.2l0.1,1C60.7,71,59.5,71,58.4,71z M55.6,70.9
	c-1.4-0.2-2.7-0.5-4-0.9l0.3-1c1.2,0.4,2.5,0.7,3.8,0.8L55.6,70.9z M63.7,70.4l-0.2-1c1.3-0.3,2.5-0.7,3.7-1.3l0.4,0.9
	C66.4,69.6,65.1,70.1,63.7,70.4z M49.7,69.3c-1.2-0.5-2.5-1.2-3.6-1.9l0.5-0.8c1.1,0.7,2.2,1.3,3.4,1.8L49.7,69.3z M69.4,68.2
	l-0.5-0.9c1.1-0.6,2.2-1.4,3.2-2.2l0.6,0.8C71.7,66.7,70.6,67.5,69.4,68.2z M44.5,66.1c-1.1-0.8-2.1-1.8-3-2.8l0.8-0.7
	c0.9,1,1.8,1.9,2.8,2.7L44.5,66.1z M74.3,64.5l-0.7-0.7c0.9-0.9,1.8-1.9,2.5-3l0.8,0.6C76.2,62.4,75.3,63.5,74.3,64.5z M40.2,61.7
	c-0.8-1.1-1.5-2.3-2.1-3.5l0.9-0.4c0.6,1.2,1.2,2.3,2,3.4L40.2,61.7z M78,59.6l-0.9-0.5c0.6-1.1,1.2-2.3,1.6-3.6l0.9,0.3
	C79.3,57.2,78.7,58.4,78,59.6z M37.3,56.3c-0.5-1.3-0.8-2.6-1.1-3.9l1-0.2c0.2,1.3,0.6,2.5,1,3.8L37.3,56.3z M80.3,53.9l-1-0.2
	c0.3-1.3,0.5-2.6,0.6-3.9l1,0.1C80.8,51.2,80.6,52.6,80.3,53.9z M36,50.4c-0.1-0.6-0.1-1.3-0.1-1.9c0-0.7,0-1.5,0.1-2.2l1,0.1
	c-0.1,0.7-0.1,1.4-0.1,2.1c0,0.6,0,1.2,0.1,1.8L36,50.4z M79.9,47.9c0-1.3-0.2-2.6-0.5-3.9l1-0.2c0.3,1.3,0.4,2.7,0.5,4.1L79.9,47.9
	z M37.3,44.4l-1-0.2c0.3-1.3,0.6-2.7,1.1-3.9l0.9,0.4C37.9,41.9,37.6,43.2,37.3,44.4z M79,42.1c-0.4-1.2-0.9-2.5-1.5-3.6l0.9-0.5
	c0.6,1.2,1.2,2.5,1.6,3.8L79,42.1z M39.2,38.9l-0.9-0.4c0.6-1.2,1.3-2.4,2.1-3.5l0.8,0.6C40.4,36.6,39.7,37.7,39.2,38.9z M76.5,36.8
	c-0.7-1.1-1.5-2.1-2.4-3.1l0.7-0.7c0.9,1,1.8,2.1,2.5,3.2L76.5,36.8z M42.4,34.1l-0.7-0.7c0.9-1,1.9-2,3-2.8l0.6,0.8
	C44.3,32.2,43.3,33.1,42.4,34.1z M72.7,32.4c-1-0.9-2-1.6-3.1-2.3l0.5-0.9c1.2,0.7,2.3,1.5,3.3,2.4L72.7,32.4z M46.9,30.3l-0.5-0.8
	c1.1-0.7,2.4-1.4,3.6-1.9l0.4,0.9C49.2,29,48,29.6,46.9,30.3z M67.9,29.1c-1.2-0.6-2.4-1-3.6-1.4l0.3-1c1.3,0.4,2.6,0.9,3.8,1.5
	L67.9,29.1z M52.2,27.8l-0.3-1c1.3-0.4,2.6-0.7,4-0.8l0.1,1C54.7,27.2,53.4,27.5,52.2,27.8z M62.3,27.3c-1.3-0.2-2.6-0.3-3.9-0.4
	c-0.1,0-0.3,0-0.4,0v-1c0.2,0,0.3,0,0.5,0c1.4,0,2.7,0.1,4.1,0.4L62.3,27.3z"/>
<g class="st4">
	<path class="st6" d="M37.9,54.3c-0.6-1.8-0.9-3.9-0.9-5.9C37,36.6,46.5,27,58.3,27c6.6,0,12.5,3,16.3,7.7L37.9,54.3z"/>
</g>
<g>
	<path class="st2" d="M128,1h4c1.7,0,3,1.3,3,3v56h-10V4C125,2.3,126.3,1,128,1z"/>
	<path class="st1" d="M135.5,60.5h-11V4c0-1.9,1.6-3.5,3.5-3.5h4c1.9,0,3.5,1.5,3.5,3.5V60.5z M125.5,59.5h9V4
		c0-1.4-1.1-2.5-2.5-2.5h-4c-1.4,0-2.5,1.1-2.5,2.5V59.5z"/>
</g>
<g>
	<path class="st2" d="M128,100h10v4.4c0,1.4-1.3,2.6-3,2.6h-4c-1.7,0-3-1.2-3-2.6V100z"/>
	<path class="st1" d="M135,107.5h-4c-1.9,0-3.5-1.4-3.5-3.1v-4.9h11v4.9C138.5,106.1,136.9,107.5,135,107.5z M128.5,100.5v3.9
		c0,1.2,1.1,2.1,2.5,2.1h4c1.4,0,2.5-1,2.5-2.1v-3.9H128.5z"/>
</g>
<g>
	<path class="st2" d="M53,100h10v4.4c0,1.4-1.3,2.6-3,2.6h-4c-1.7,0-3-1.2-3-2.6V100z"/>
	<path class="st1" d="M60,107.5h-4c-1.9,0-3.5-1.4-3.5-3.1v-4.9h11v4.9C63.5,106.1,61.9,107.5,60,107.5z M53.5,100.5v3.9
		c0,1.2,1.1,2.1,2.5,2.1h4c1.4,0,2.5-1,2.5-2.1v-3.9H53.5z"/>
</g>
<g>
	<rect x="128.5" y="100.5" class="st14" width="9" height="3"/>
</g>
<g>
	<rect x="53.5" y="100.5" class="st14" width="9" height="3"/>
</g>
<g>
	<path class="st1" d="M112.5,25h-1c0-1.5,0.5-2.9,1.4-4l0.8,0.6C112.9,22.6,112.5,23.8,112.5,25z M115.1,20.4l-0.5-0.8
		c1.1-0.7,2.4-1.1,3.8-1.1v1C117.2,19.5,116,19.8,115.1,20.4z"/>
</g>
<g>
	<path class="st1" d="M94.5,26h-1c0-1.4,0.1-2.7,0.3-4.1l1,0.2C94.6,23.4,94.5,24.7,94.5,26z M95.2,20.2l-1-0.2
		c0.3-1.3,0.8-2.6,1.3-3.9l0.9,0.4C95.9,17.7,95.5,18.9,95.2,20.2z M97.3,14.7l-0.9-0.5c0.6-1.2,1.4-2.4,2.2-3.4l0.8,0.6
		C98.6,12.4,97.9,13.5,97.3,14.7z M100.6,9.9l-0.8-0.7c0.9-1,1.9-2,2.9-2.8l0.6,0.8C102.4,8,101.5,8.9,100.6,9.9z M105,5.9l-0.6-0.8
		c1.1-0.8,2.3-1.5,3.5-2.1l0.4,0.9C107.2,4.5,106,5.2,105,5.9z M110.1,3.2l-0.4-0.9c1.3-0.5,2.6-0.9,3.9-1.2l0.2,1
		C112.6,2.3,111.3,2.7,110.1,3.2z M115.8,1.7l-0.1-1c1.2-0.2,2.4-0.2,3.6-0.2v1C118.1,1.4,116.9,1.5,115.8,1.7z"/>
</g>
<g>
	<path class="st1" d="M103.5,25.5h-1c0-1.4,0.2-2.8,0.6-4.1l1,0.3C103.7,22.9,103.5,24.2,103.5,25.5z M104.7,19.9l-0.9-0.4
		c0.6-1.3,1.3-2.4,2.2-3.5l0.8,0.6C105.9,17.6,105.2,18.7,104.7,19.9z M108,15.2l-0.7-0.7c1-0.9,2.2-1.7,3.4-2.4l0.5,0.9
		C110,13.6,109,14.3,108,15.2z M113,12.3l-0.3-0.9c1.3-0.4,2.7-0.7,4-0.8l0.1,1C115.5,11.6,114.2,11.8,113,12.3z"/>
</g>
</svg>
