<?xml version="1.0" encoding="utf-8"?>
<!-- Generator: Adobe Illustrator 19.0.0, SVG Export Plug-In . SVG Version: 6.00 Build 0)  -->
<svg version="1.1" id="图层_1" xmlns="http://www.w3.org/2000/svg" xmlns:xlink="http://www.w3.org/1999/xlink" x="0px" y="0px"
	 viewBox="0 0 170 116" style="enable-background:new 0 0 170 116;" xml:space="preserve">
<style type="text/css">
	.st0{opacity:0.3;enable-background:new    ;}
	.st1{fill:#D9E3F2;}
	.st2{opacity:0.7;enable-background:new    ;}
	.st3{fill:#B1D0E8;}
	.st4{fill:#FFFFFF;}
	.st5{opacity:6.000000e-002;}
	.st6{fill:#B5C7DF;}
	.st7{fill:#E6EFF4;}
	.st8{opacity:0.28;}
	.st9{opacity:0.4;}
</style>
<g id="XMLID_789_">
	<g id="XMLID_70_" class="st0">
		<g id="XMLID_71_">
			<g id="XMLID_788_">
				<g id="XMLID_5_">
					<path class="st1" d="M147,36.4l13.7-5l-1.2,11.3L147,36.4z"/>
				</g>
			</g>
		</g>
	</g>
	<g id="XMLID_66_" class="st2">
		<g id="XMLID_67_">
			<g id="XMLID_787_">
				<g id="XMLID_6_">
					<path class="st3" d="M157.5,40.7l-16.8-1.4l15.4-12.6L157.5,40.7z M143.3,38.5l13.1,1.1l-1.1-10.9L143.3,38.5z"/>
				</g>
			</g>
		</g>
	</g>
	<g id="XMLID_650_">
		<g id="XMLID_270_">
			<g id="XMLID_786_">
				<g id="XMLID_7_">
					<rect x="10.3" y="110.8" class="st3" width="19.9" height="1"/>
				</g>
			</g>
		</g>
		<g id="XMLID_267_">
			<g id="XMLID_269_">
				<g id="XMLID_785_">
					<g id="XMLID_9_">
						<path class="st4" d="M159.7,111.3h-6.4"/>
					</g>
				</g>
			</g>
			<g id="XMLID_268_">
				<g id="XMLID_784_">
					<g id="XMLID_10_">
						<rect x="153.3" y="110.8" class="st3" width="6.4" height="1"/>
					</g>
				</g>
			</g>
		</g>
		<g id="XMLID_128_">
			<g id="XMLID_266_">
				<g id="XMLID_783_">
					<g id="XMLID_11_">
						<path class="st4" d="M150.7,111.3H35.3"/>
					</g>
				</g>
			</g>
			<g id="XMLID_265_">
				<g id="XMLID_782_">
					<g id="XMLID_12_">
						<rect x="35.3" y="110.8" class="st3" width="115.4" height="1"/>
					</g>
				</g>
			</g>
		</g>
	</g>
	<g id="XMLID_651_">
		<g id="XMLID_777_">
			<g id="XMLID_4_">
				<line id="XMLID_8_" class="st3" x1="87" y1="99.2" x2="87" y2="105.2"/>
			</g>
		</g>
	</g>
	<g id="XMLID_667_">
		<g id="XMLID_771_">
			<g id="XMLID_13_">
				<path id="XMLID_14_" class="st4" d="M92.3,107.5c-0.5,0-1-0.4-1-1v-3.8c0-0.5-0.4-1-1-1h-8.6c-0.5,0-1,0.5-1,1v3.8
					c0,0.6-0.4,1-1,1h-4c-0.5,0-1,0.5-1,1v5.5c0,0.5,0.5,1,1,1h20.7c0.6,0,1-0.5,1-1v-5.5c0-0.5-0.4-1-1-1H92.3z"/>
			</g>
		</g>
	</g>
	<g id="XMLID_668_">
		<g id="XMLID_680_">
			<g id="XMLID_905_">
				<g id="XMLID_16_">
					<path id="XMLID_17_" class="st3" d="M96.3,115.5H75.7c-0.8,0-1.5-0.7-1.5-1.5v-5.5c0-0.8,0.7-1.5,1.5-1.5h4
						c0.3,0,0.5-0.2,0.5-0.5v-3.8c0-0.8,0.7-1.5,1.5-1.5h8.6c0.8,0,1.5,0.7,1.5,1.5v3.8c0,0.3,0.2,0.5,0.5,0.5h4
						c0.8,0,1.5,0.7,1.5,1.5v5.5C97.8,114.8,97.2,115.5,96.3,115.5z M75.7,108c-0.3,0-0.5,0.2-0.5,0.5v5.5c0,0.3,0.2,0.5,0.5,0.5
						h20.7c0.3,0,0.5-0.2,0.5-0.5v-5.5c0-0.3-0.2-0.5-0.5-0.5h-4c-0.8,0-1.5-0.7-1.5-1.5v-3.8c0-0.3-0.2-0.5-0.5-0.5h-8.6
						c-0.3,0-0.5,0.2-0.5,0.5v3.8c0,0.8-0.7,1.5-1.5,1.5H75.7z"/>
				</g>
			</g>
		</g>
	</g>
	<g id="XMLID_670_">
		<g id="XMLID_693_">
			<g id="XMLID_901_">
				<g id="XMLID_18_">
					<path id="XMLID_19_" class="st3" d="M88.1,96.8v4.5h-4v-4.5h-1v5.5h6v-5.5H88.1z"/>
				</g>
			</g>
		</g>
	</g>
	<g id="XMLID_778_" class="st5">
		<g id="XMLID_765_">
			<g id="XMLID_21_">
				<path id="XMLID_263_" class="st6" d="M117.9,79.8H106V20.3c0-0.4,0.3-0.7,0.7-0.7h10.4c0.4,0,0.7,0.3,0.7,0.7V79.8z"/>
			</g>
		</g>
	</g>
	<g id="XMLID_702_">
		<g id="XMLID_770_">
			<g id="XMLID_22_">
				<rect id="XMLID_23_" x="57.6" y="39.5" class="st3" width="60.3" height="1"/>
			</g>
		</g>
	</g>
	<g id="XMLID_711_">
		<g id="XMLID_769_">
			<g id="XMLID_24_">
				<rect id="XMLID_25_" x="57.5" y="59.3" class="st3" width="60.6" height="1"/>
			</g>
		</g>
	</g>
	<g id="XMLID_779_">
		<g id="XMLID_755_">
			<g id="XMLID_26_">
				<circle id="XMLID_27_" class="st7" cx="108.3" cy="30.6" r="4"/>
			</g>
		</g>
	</g>
	<g id="XMLID_732_">
		<g id="XMLID_762_">
			<g id="XMLID_28_">
				<path id="XMLID_29_" class="st3" d="M108.3,35.1c-2.5,0-4.5-2-4.5-4.5s2-4.5,4.5-4.5s4.5,2,4.5,4.5S110.8,35.1,108.3,35.1z
					 M108.3,27.1c-1.9,0-3.5,1.6-3.5,3.5s1.6,3.5,3.5,3.5s3.5-1.6,3.5-3.5S110.2,27.1,108.3,27.1z"/>
			</g>
		</g>
	</g>
	<g id="XMLID_734_">
		<g id="XMLID_756_">
			<g id="XMLID_30_">
				<path id="XMLID_31_" class="st3" d="M108.3,54.1c-2.5,0-4.5-2-4.5-4.5s2-4.5,4.5-4.5s4.5,2,4.5,4.5S110.8,54.1,108.3,54.1z
					 M108.3,46.1c-1.9,0-3.5,1.6-3.5,3.5s1.6,3.5,3.5,3.5s3.5-1.6,3.5-3.5S110.2,46.1,108.3,46.1z"/>
			</g>
		</g>
	</g>
	<g id="XMLID_780_" class="st8">
		<g id="XMLID_749_">
			<g id="XMLID_32_">
				<circle id="XMLID_33_" class="st6" cx="108.3" cy="49.6" r="4"/>
			</g>
		</g>
	</g>
	<g id="XMLID_781_" class="st8">
		<g id="XMLID_717_">
			<g id="XMLID_34_">
				<circle id="XMLID_35_" class="st6" cx="108.3" cy="68.6" r="4"/>
			</g>
		</g>
	</g>
	<g id="XMLID_740_">
		<g id="XMLID_725_">
			<g id="XMLID_36_">
				<path id="XMLID_37_" class="st3" d="M108.3,73.1c-2.5,0-4.5-2-4.5-4.5s2-4.5,4.5-4.5s4.5,2,4.5,4.5S110.8,73.1,108.3,73.1z
					 M108.3,65.1c-1.9,0-3.5,1.6-3.5,3.5s1.6,3.5,3.5,3.5s3.5-1.6,3.5-3.5S110.2,65.1,108.3,65.1z"/>
			</g>
		</g>
	</g>
	<g id="XMLID_696_">
		<g id="XMLID_723_">
			<g id="XMLID_38_">
				<path id="XMLID_39_" class="st3" d="M115.1,96.6H54.6c-0.1,0-0.2,0-0.3-0.1C44.1,95.8,36.1,87.3,36.1,77
					c0-10.8,8.8-19.6,19.6-19.6c0.7,0,1.3,0,2,0.1c0.3,0,0.5,0.3,0.5,0.6c0,0.3-0.3,0.5-0.6,0.5c-0.6-0.1-1.3-0.1-1.9-0.1
					c-10.3,0-18.6,8.4-18.6,18.6c0,9.8,7.7,18,17.5,18.6c0.1,0,0.1,0,0.2,0.1h60c0.1,0,0.1-0.1,0.2-0.1c12.1-0.9,21.5-11,21.5-23.1
					c0-11.2-8-20.8-19-22.8c-0.3-0.1-0.5-0.3-0.4-0.6c0.1-0.3,0.3-0.5,0.6-0.4c11.5,2.1,19.8,12.1,19.8,23.8
					c0,12.6-9.8,23.1-22.3,24.1C115.3,96.6,115.2,96.6,115.1,96.6z"/>
			</g>
		</g>
	</g>
	<path id="XMLID_197_" class="st3" d="M126,79.3h-7.6v-58c0-1.2-1-2.2-2.2-2.2H59.1c-1.2,0-2.2,1-2.2,2.2v58h-6.3
		c-0.3,0-0.5,0.2-0.5,0.5s0.2,0.5,0.5,0.5H126c0.3,0,0.5-0.2,0.5-0.5S126.3,79.3,126,79.3z M57.9,79.3v-58c0-0.6,0.5-1.2,1.2-1.2
		h57.2c0.6,0,1.2,0.5,1.2,1.2v58H57.9z"/>
	<g id="XMLID_657_" class="st2">
		<g id="XMLID_660_">
			<g id="XMLID_661_">
				<g id="XMLID_43_">
					<path class="st3" d="M21.4,69.8L11.2,64l17-9.2L21.4,69.8z M13.2,64l7.7,4.4L26,57.1L13.2,64z"/>
				</g>
			</g>
		</g>
	</g>
	<g id="XMLID_653_" class="st0">
		<g id="XMLID_655_">
			<g id="XMLID_658_">
				<g id="XMLID_44_">
					<path class="st6" d="M22.2,60l-8,10.1l8,2V60z"/>
				</g>
			</g>
		</g>
	</g>
	<g id="XMLID_644_" class="st0">
		<g id="XMLID_648_">
			<g id="XMLID_647_">
				<g id="XMLID_45_">
					<path class="st1" d="M147,36.4l13.7-5l-1.2,11.3L147,36.4z"/>
				</g>
			</g>
		</g>
	</g>
	<g id="XMLID_116_" class="st2">
		<g id="XMLID_125_">
			<g id="XMLID_645_">
				<g id="XMLID_46_">
					<path class="st3" d="M157.5,40.7l-16.8-1.4l15.4-12.6L157.5,40.7z M143.3,38.5l13.1,1.1l-1.1-10.9L143.3,38.5z"/>
				</g>
			</g>
		</g>
	</g>
</g>
<g id="XMLID_1_">
	<g id="XMLID_64_">
		<path id="XMLID_3_" class="st3" d="M101.3,31.5h-10c-0.3,0-0.5-0.2-0.5-0.5s0.2-0.5,0.5-0.5h10c0.3,0,0.5,0.2,0.5,0.5
			S101.5,31.5,101.3,31.5z"/>
	</g>
</g>
<g id="XMLID_2_">
	<g id="XMLID_63_">
		<path id="XMLID_47_" class="st3" d="M101.3,50.5h-10c-0.3,0-0.5-0.2-0.5-0.5s0.2-0.5,0.5-0.5h10c0.3,0,0.5,0.2,0.5,0.5
			S101.5,50.5,101.3,50.5z"/>
	</g>
</g>
<g id="XMLID_42_">
	<g id="XMLID_62_">
		<path id="XMLID_49_" class="st3" d="M101.3,70.5h-10c-0.3,0-0.5-0.2-0.5-0.5s0.2-0.5,0.5-0.5h10c0.3,0,0.5,0.2,0.5,0.5
			S101.5,70.5,101.3,70.5z"/>
	</g>
</g>
<g id="XMLID_48_" class="st9">
	<g id="XMLID_105_">
		<circle id="XMLID_115_" class="st3" cx="62.7" cy="27.2" r="2"/>
	</g>
</g>
<g id="XMLID_117_" class="st9">
	<g id="XMLID_118_">
		<circle id="XMLID_119_" class="st3" cx="69.7" cy="27.2" r="2"/>
	</g>
</g>
<g id="XMLID_120_" class="st9">
	<g id="XMLID_121_">
		<circle id="XMLID_122_" class="st3" cx="83.7" cy="27.2" r="2"/>
	</g>
</g>
<g id="XMLID_123_" class="st9">
	<g id="XMLID_124_">
		<circle id="XMLID_126_" class="st3" cx="76.7" cy="27.2" r="2"/>
	</g>
</g>
<g id="XMLID_129_" class="st9">
	<g id="XMLID_130_">
		<circle id="XMLID_131_" class="st3" cx="62.7" cy="33.2" r="2"/>
	</g>
</g>
<g id="XMLID_132_" class="st9">
	<g id="XMLID_133_">
		<circle id="XMLID_134_" class="st3" cx="69.7" cy="33.2" r="2"/>
	</g>
</g>
<g id="XMLID_135_" class="st9">
	<g id="XMLID_136_">
		<circle id="XMLID_137_" class="st3" cx="83.7" cy="33.2" r="2"/>
	</g>
</g>
<g id="XMLID_138_" class="st9">
	<g id="XMLID_139_">
		<circle id="XMLID_140_" class="st3" cx="76.7" cy="33.2" r="2"/>
	</g>
</g>
<g id="XMLID_141_" class="st9">
	<g id="XMLID_142_">
		<circle id="XMLID_143_" class="st3" cx="62.7" cy="47.2" r="2"/>
	</g>
</g>
<g id="XMLID_144_" class="st9">
	<g id="XMLID_145_">
		<circle id="XMLID_146_" class="st3" cx="69.7" cy="47.2" r="2"/>
	</g>
</g>
<g id="XMLID_147_" class="st9">
	<g id="XMLID_148_">
		<circle id="XMLID_149_" class="st3" cx="83.7" cy="47.2" r="2"/>
	</g>
</g>
<g id="XMLID_150_" class="st9">
	<g id="XMLID_151_">
		<circle id="XMLID_152_" class="st3" cx="76.7" cy="47.2" r="2"/>
	</g>
</g>
<g id="XMLID_153_" class="st9">
	<g id="XMLID_154_">
		<circle id="XMLID_155_" class="st3" cx="62.7" cy="53.2" r="2"/>
	</g>
</g>
<g id="XMLID_156_" class="st9">
	<g id="XMLID_157_">
		<circle id="XMLID_158_" class="st3" cx="69.7" cy="53.2" r="2"/>
	</g>
</g>
<g id="XMLID_159_" class="st9">
	<g id="XMLID_160_">
		<circle id="XMLID_161_" class="st3" cx="83.7" cy="53.2" r="2"/>
	</g>
</g>
<g id="XMLID_162_" class="st9">
	<g id="XMLID_163_">
		<circle id="XMLID_164_" class="st3" cx="76.7" cy="53.2" r="2"/>
	</g>
</g>
<g id="XMLID_165_" class="st9">
	<g id="XMLID_166_">
		<circle id="XMLID_167_" class="st3" cx="62.7" cy="67.2" r="2"/>
	</g>
</g>
<g id="XMLID_168_" class="st9">
	<g id="XMLID_169_">
		<circle id="XMLID_170_" class="st3" cx="69.7" cy="67.2" r="2"/>
	</g>
</g>
<g id="XMLID_171_" class="st9">
	<g id="XMLID_172_">
		<circle id="XMLID_173_" class="st3" cx="83.7" cy="67.2" r="2"/>
	</g>
</g>
<g id="XMLID_174_" class="st9">
	<g id="XMLID_175_">
		<circle id="XMLID_176_" class="st3" cx="76.7" cy="67.2" r="2"/>
	</g>
</g>
<g id="XMLID_177_" class="st9">
	<g id="XMLID_178_">
		<circle id="XMLID_179_" class="st3" cx="62.7" cy="73.2" r="2"/>
	</g>
</g>
<g id="XMLID_180_" class="st9">
	<g id="XMLID_181_">
		<circle id="XMLID_182_" class="st3" cx="69.7" cy="73.2" r="2"/>
	</g>
</g>
<g id="XMLID_183_" class="st9">
	<g id="XMLID_184_">
		<circle id="XMLID_185_" class="st3" cx="83.7" cy="73.2" r="2"/>
	</g>
</g>
<g id="XMLID_187_" class="st9">
	<g id="XMLID_191_">
		<circle id="XMLID_192_" class="st3" cx="76.7" cy="73.2" r="2"/>
	</g>
</g>
</svg>
