<?xml version="1.0" encoding="utf-8"?>
<!-- Generator: Adobe Illustrator 19.0.0, SVG Export Plug-In . SVG Version: 6.00 Build 0)  -->
<svg version="1.1" id="图层_1" xmlns="http://www.w3.org/2000/svg" xmlns:xlink="http://www.w3.org/1999/xlink" x="0px" y="0px"
	 viewBox="0 0 171 108" style="enable-background:new 0 0 171 108;" xml:space="preserve">
<style type="text/css">
	.st0{opacity:0.7;enable-background:new    ;}
	.st1{fill:#B1D0E8;}
	.st2{opacity:0.3;enable-background:new    ;}
	.st3{fill:#B5C7DF;}
	.st4{fill:#D9E3F2;}
	.st5{fill:#FFFFFF;}
	.st6{fill:#F8FBFE;}
	.st7{opacity:0.5;}
	.st8{opacity:0.6;}
	.st9{fill:#E8F4FD;}
	.st10{opacity:0.2;}
	.st11{opacity:0.24;enable-background:new    ;}
	.st12{fill:#C4CEDE;}
	.st13{opacity:0.9;enable-background:new    ;}
	.st14{fill:#F4F7FC;}
</style>
<g id="XMLID_304_" class="st0">
	<g id="XMLID_305_">
		<g id="XMLID_306_">
			<path class="st1" d="M15.2,90L5,84.2L22,75L15.2,90z M7,84.2l7.7,4.4l5.1-11.3L7,84.2z"/>
		</g>
	</g>
</g>
<g id="XMLID_301_" class="st2">
	<g id="XMLID_302_">
		<g id="XMLID_303_">
			<path class="st3" d="M16,80.2L8,90.3l8,2V80.2z"/>
		</g>
	</g>
</g>
<g id="XMLID_298_" class="st2">
	<g id="XMLID_299_">
		<g id="XMLID_300_">
			<path class="st4" d="M153.8,12.7l13.7-5L166.3,19L153.8,12.7z"/>
		</g>
	</g>
</g>
<g id="XMLID_293_" class="st0">
	<g id="XMLID_294_">
		<g id="XMLID_295_">
			<path class="st1" d="M164.3,17l-16.8-1.4L162.8,3L164.3,17z M150.1,14.8l13.1,1.1L162.1,5L150.1,14.8z"/>
		</g>
	</g>
</g>
<g id="XMLID_2_">
	<rect x="26.8" y="35.2" class="st5" width="123" height="71"/>
</g>
<g id="XMLID_3_" class="st2">
	<rect id="XMLID_17_" x="26.8" y="35.2" class="st6" width="123" height="71"/>
</g>
<g id="XMLID_1_" class="st7">
	<path id="XMLID_153_" class="st1" d="M149.8,106.7c-0.3,0-0.5-0.2-0.5-0.5v-1c0-0.3,0.2-0.5,0.5-0.5s0.5,0.2,0.5,0.5v1
		C150.3,106.5,150.1,106.7,149.8,106.7z M26.8,106.7c-0.3,0-0.5-0.2-0.5-0.5v-3c0-0.3,0.2-0.5,0.5-0.5s0.5,0.2,0.5,0.5v3
		C27.3,106.5,27.1,106.7,26.8,106.7z M149.8,102.7c-0.3,0-0.5-0.2-0.5-0.5v-3c0-0.3,0.2-0.5,0.5-0.5s0.5,0.2,0.5,0.5v3
		C150.3,102.5,150.1,102.7,149.8,102.7z M26.8,100.7c-0.3,0-0.5-0.2-0.5-0.5v-3c0-0.3,0.2-0.5,0.5-0.5s0.5,0.2,0.5,0.5v3
		C27.3,100.5,27.1,100.7,26.8,100.7z M149.8,96.7c-0.3,0-0.5-0.2-0.5-0.5v-3c0-0.3,0.2-0.5,0.5-0.5s0.5,0.2,0.5,0.5v3
		C150.3,96.5,150.1,96.7,149.8,96.7z M26.8,94.7c-0.3,0-0.5-0.2-0.5-0.5v-3c0-0.3,0.2-0.5,0.5-0.5s0.5,0.2,0.5,0.5v3
		C27.3,94.5,27.1,94.7,26.8,94.7z M149.8,90.7c-0.3,0-0.5-0.2-0.5-0.5v-3c0-0.3,0.2-0.5,0.5-0.5s0.5,0.2,0.5,0.5v3
		C150.3,90.5,150.1,90.7,149.8,90.7z M26.8,88.7c-0.3,0-0.5-0.2-0.5-0.5v-3c0-0.3,0.2-0.5,0.5-0.5s0.5,0.2,0.5,0.5v3
		C27.3,88.5,27.1,88.7,26.8,88.7z M149.8,84.7c-0.3,0-0.5-0.2-0.5-0.5v-3c0-0.3,0.2-0.5,0.5-0.5s0.5,0.2,0.5,0.5v3
		C150.3,84.5,150.1,84.7,149.8,84.7z M26.8,82.7c-0.3,0-0.5-0.2-0.5-0.5v-3c0-0.3,0.2-0.5,0.5-0.5s0.5,0.2,0.5,0.5v3
		C27.3,82.5,27.1,82.7,26.8,82.7z M149.8,78.7c-0.3,0-0.5-0.2-0.5-0.5v-3c0-0.3,0.2-0.5,0.5-0.5s0.5,0.2,0.5,0.5v3
		C150.3,78.5,150.1,78.7,149.8,78.7z M26.8,76.7c-0.3,0-0.5-0.2-0.5-0.5v-3c0-0.3,0.2-0.5,0.5-0.5s0.5,0.2,0.5,0.5v3
		C27.3,76.5,27.1,76.7,26.8,76.7z M149.8,72.7c-0.3,0-0.5-0.2-0.5-0.5v-3c0-0.3,0.2-0.5,0.5-0.5s0.5,0.2,0.5,0.5v3
		C150.3,72.5,150.1,72.7,149.8,72.7z M26.8,70.7c-0.3,0-0.5-0.2-0.5-0.5v-3c0-0.3,0.2-0.5,0.5-0.5s0.5,0.2,0.5,0.5v3
		C27.3,70.5,27.1,70.7,26.8,70.7z M149.8,66.7c-0.3,0-0.5-0.2-0.5-0.5v-3c0-0.3,0.2-0.5,0.5-0.5s0.5,0.2,0.5,0.5v3
		C150.3,66.5,150.1,66.7,149.8,66.7z M26.8,64.7c-0.3,0-0.5-0.2-0.5-0.5v-3c0-0.3,0.2-0.5,0.5-0.5s0.5,0.2,0.5,0.5v3
		C27.3,64.5,27.1,64.7,26.8,64.7z M149.8,60.7c-0.3,0-0.5-0.2-0.5-0.5v-3c0-0.3,0.2-0.5,0.5-0.5s0.5,0.2,0.5,0.5v3
		C150.3,60.5,150.1,60.7,149.8,60.7z M26.8,58.7c-0.3,0-0.5-0.2-0.5-0.5v-3c0-0.3,0.2-0.5,0.5-0.5s0.5,0.2,0.5,0.5v3
		C27.3,58.5,27.1,58.7,26.8,58.7z M149.8,54.7c-0.3,0-0.5-0.2-0.5-0.5v-3c0-0.3,0.2-0.5,0.5-0.5s0.5,0.2,0.5,0.5v3
		C150.3,54.5,150.1,54.7,149.8,54.7z M26.8,52.7c-0.3,0-0.5-0.2-0.5-0.5v-3c0-0.3,0.2-0.5,0.5-0.5s0.5,0.2,0.5,0.5v3
		C27.3,52.5,27.1,52.7,26.8,52.7z M149.8,48.7c-0.3,0-0.5-0.2-0.5-0.5v-3c0-0.3,0.2-0.5,0.5-0.5s0.5,0.2,0.5,0.5v3
		C150.3,48.5,150.1,48.7,149.8,48.7z M26.8,46.7c-0.3,0-0.5-0.2-0.5-0.5v-3c0-0.3,0.2-0.5,0.5-0.5s0.5,0.2,0.5,0.5v3
		C27.3,46.5,27.1,46.7,26.8,46.7z M149.8,42.7c-0.3,0-0.5-0.2-0.5-0.5v-3c0-0.3,0.2-0.5,0.5-0.5s0.5,0.2,0.5,0.5v3
		C150.3,42.5,150.1,42.7,149.8,42.7z M26.8,40.7c-0.3,0-0.5-0.2-0.5-0.5v-3c0-0.3,0.2-0.5,0.5-0.5s0.5,0.2,0.5,0.5v3
		C27.3,40.5,27.1,40.7,26.8,40.7z M149.8,36.7c-0.3,0-0.5-0.2-0.5-0.5v-0.5h-1.5c-0.3,0-0.5-0.2-0.5-0.5s0.2-0.5,0.5-0.5h2
		c0.3,0,0.5,0.2,0.5,0.5v1C150.3,36.5,150.1,36.7,149.8,36.7z M144.8,35.7h-3c-0.3,0-0.5-0.2-0.5-0.5s0.2-0.5,0.5-0.5h3
		c0.3,0,0.5,0.2,0.5,0.5S145.1,35.7,144.8,35.7z M138.8,35.7h-3c-0.3,0-0.5-0.2-0.5-0.5s0.2-0.5,0.5-0.5h3c0.3,0,0.5,0.2,0.5,0.5
		S139.1,35.7,138.8,35.7z M132.8,35.7h-3c-0.3,0-0.5-0.2-0.5-0.5s0.2-0.5,0.5-0.5h3c0.3,0,0.5,0.2,0.5,0.5S133.1,35.7,132.8,35.7z
		 M126.8,35.7h-3c-0.3,0-0.5-0.2-0.5-0.5s0.2-0.5,0.5-0.5h3c0.3,0,0.5,0.2,0.5,0.5S127.1,35.7,126.8,35.7z M120.8,35.7h-3
		c-0.3,0-0.5-0.2-0.5-0.5s0.2-0.5,0.5-0.5h3c0.3,0,0.5,0.2,0.5,0.5S121.1,35.7,120.8,35.7z M114.8,35.7h-3c-0.3,0-0.5-0.2-0.5-0.5
		s0.2-0.5,0.5-0.5h3c0.3,0,0.5,0.2,0.5,0.5S115.1,35.7,114.8,35.7z M108.8,35.7h-3c-0.3,0-0.5-0.2-0.5-0.5s0.2-0.5,0.5-0.5h3
		c0.3,0,0.5,0.2,0.5,0.5S109.1,35.7,108.8,35.7z M102.8,35.7h-3c-0.3,0-0.5-0.2-0.5-0.5s0.2-0.5,0.5-0.5h3c0.3,0,0.5,0.2,0.5,0.5
		S103.1,35.7,102.8,35.7z M96.8,35.7h-3c-0.3,0-0.5-0.2-0.5-0.5s0.2-0.5,0.5-0.5h3c0.3,0,0.5,0.2,0.5,0.5S97.1,35.7,96.8,35.7z
		 M90.8,35.7h-3c-0.3,0-0.5-0.2-0.5-0.5s0.2-0.5,0.5-0.5h3c0.3,0,0.5,0.2,0.5,0.5S91.1,35.7,90.8,35.7z M84.8,35.7h-3
		c-0.3,0-0.5-0.2-0.5-0.5s0.2-0.5,0.5-0.5h3c0.3,0,0.5,0.2,0.5,0.5S85.1,35.7,84.8,35.7z M78.8,35.7h-3c-0.3,0-0.5-0.2-0.5-0.5
		s0.2-0.5,0.5-0.5h3c0.3,0,0.5,0.2,0.5,0.5S79.1,35.7,78.8,35.7z M72.8,35.7h-3c-0.3,0-0.5-0.2-0.5-0.5s0.2-0.5,0.5-0.5h3
		c0.3,0,0.5,0.2,0.5,0.5S73.1,35.7,72.8,35.7z M66.8,35.7h-3c-0.3,0-0.5-0.2-0.5-0.5s0.2-0.5,0.5-0.5h3c0.3,0,0.5,0.2,0.5,0.5
		S67.1,35.7,66.8,35.7z M60.8,35.7h-3c-0.3,0-0.5-0.2-0.5-0.5s0.2-0.5,0.5-0.5h3c0.3,0,0.5,0.2,0.5,0.5S61.1,35.7,60.8,35.7z
		 M54.8,35.7h-3c-0.3,0-0.5-0.2-0.5-0.5s0.2-0.5,0.5-0.5h3c0.3,0,0.5,0.2,0.5,0.5S55.1,35.7,54.8,35.7z M48.8,35.7h-3
		c-0.3,0-0.5-0.2-0.5-0.5s0.2-0.5,0.5-0.5h3c0.3,0,0.5,0.2,0.5,0.5S49.1,35.7,48.8,35.7z M42.8,35.7h-3c-0.3,0-0.5-0.2-0.5-0.5
		s0.2-0.5,0.5-0.5h3c0.3,0,0.5,0.2,0.5,0.5S43.1,35.7,42.8,35.7z M36.8,35.7h-3c-0.3,0-0.5-0.2-0.5-0.5s0.2-0.5,0.5-0.5h3
		c0.3,0,0.5,0.2,0.5,0.5S37.1,35.7,36.8,35.7z M30.8,35.7h-3c-0.3,0-0.5-0.2-0.5-0.5s0.2-0.5,0.5-0.5h3c0.3,0,0.5,0.2,0.5,0.5
		S31.1,35.7,30.8,35.7z"/>
</g>
<g id="XMLID_48_">
	<path class="st5" d="M142.2,22.1H95.4c0,0.3,0.1,0.6,0.1,0.8c0,4-3.2,7.2-7.2,7.2c-4,0-7.2-3.2-7.2-7.2c0-0.3,0-0.6,0.1-0.8H34.4
		v73.3h46.7c0.2,3.8,3.3,6.8,7.1,6.8c3.8,0,6.9-3,7.1-6.8h46.7V22.1z"/>
</g>
<g id="XMLID_10_" class="st8">
	<path id="XMLID_150_" class="st1" d="M88.3,102.6c-3.9,0-7.2-2.9-7.6-6.8H33.9V21.6h47.8l-0.1,0.6c0,0.3,0,0.5,0,0.8
		c0,3.7,3,6.7,6.7,6.7c3.7,0,6.7-3,6.7-6.7c0-0.3,0-0.5,0-0.8l-0.1-0.6h47.8v74.2H95.9C95.5,99.7,92.2,102.6,88.3,102.6z M34.9,94.8
		h46.7l0,0.5c0.2,3.5,3.1,6.3,6.6,6.3c3.5,0,6.4-2.8,6.6-6.3l0-0.5h46.7V22.6H96c0,0.1,0,0.2,0,0.3c0,4.2-3.4,7.7-7.7,7.7
		s-7.7-3.4-7.7-7.7c0-0.1,0-0.2,0-0.3H34.9V94.8z"/>
</g>
<g id="XMLID_50_" class="st8">
	<rect id="XMLID_149_" x="87.8" y="30.4" class="st1" width="1" height="71.3"/>
</g>
<g id="XMLID_54_">
	<path id="XMLID_147_" class="st1" d="M80.4,35.9H59.3c-0.3,0-0.5-0.2-0.5-0.5s0.2-0.5,0.5-0.5h21.2c0.3,0,0.5,0.2,0.5,0.5
		S80.7,35.9,80.4,35.9z"/>
</g>
<g id="XMLID_53_">
	<path id="XMLID_146_" class="st1" d="M80.4,45.5H59.3c-0.3,0-0.5-0.2-0.5-0.5s0.2-0.5,0.5-0.5h21.2c0.3,0,0.5,0.2,0.5,0.5
		S80.7,45.5,80.4,45.5z"/>
</g>
<g id="XMLID_56_">
	<path id="XMLID_145_" class="st1" d="M80.4,40.7H59.3c-0.3,0-0.5-0.2-0.5-0.5s0.2-0.5,0.5-0.5h21.2c0.3,0,0.5,0.2,0.5,0.5
		S80.7,40.7,80.4,40.7z"/>
</g>
<g id="XMLID_55_">
	<path id="XMLID_141_" class="st1" d="M80.4,50.2H59.3c-0.3,0-0.5-0.2-0.5-0.5s0.2-0.5,0.5-0.5h21.2c0.3,0,0.5,0.2,0.5,0.5
		S80.7,50.2,80.4,50.2z"/>
</g>
<g id="XMLID_76_">
	<path id="XMLID_140_" class="st1" d="M80.6,56.4H40.8c-0.3,0-0.5-0.2-0.5-0.5s0.2-0.5,0.5-0.5h39.8c0.3,0,0.5,0.2,0.5,0.5
		S80.9,56.4,80.6,56.4z"/>
</g>
<g id="XMLID_59_">
	<path id="XMLID_139_" class="st1" d="M80.6,66H40.8c-0.3,0-0.5-0.2-0.5-0.5s0.2-0.5,0.5-0.5h39.8c0.3,0,0.5,0.2,0.5,0.5
		S80.9,66,80.6,66z"/>
</g>
<g id="XMLID_58_">
	<path id="XMLID_138_" class="st1" d="M80.6,61.2H40.8c-0.3,0-0.5-0.2-0.5-0.5s0.2-0.5,0.5-0.5h39.8c0.3,0,0.5,0.2,0.5,0.5
		S80.9,61.2,80.6,61.2z"/>
</g>
<g id="XMLID_57_">
	<path id="XMLID_137_" class="st1" d="M80.6,70.7H40.8c-0.3,0-0.5-0.2-0.5-0.5s0.2-0.5,0.5-0.5h39.8c0.3,0,0.5,0.2,0.5,0.5
		S80.9,70.7,80.6,70.7z"/>
</g>
<g id="XMLID_77_">
	<path id="XMLID_136_" class="st1" d="M80.6,76.7H40.8c-0.3,0-0.5-0.2-0.5-0.5s0.2-0.5,0.5-0.5h39.8c0.3,0,0.5,0.2,0.5,0.5
		S80.9,76.7,80.6,76.7z"/>
</g>
<g id="XMLID_87_">
	<path id="XMLID_135_" class="st1" d="M135.6,56.4H95.8c-0.3,0-0.5-0.2-0.5-0.5s0.2-0.5,0.5-0.5h39.8c0.3,0,0.5,0.2,0.5,0.5
		S135.9,56.4,135.6,56.4z"/>
</g>
<g id="XMLID_86_">
	<path id="XMLID_111_" class="st1" d="M135.6,66H95.8c-0.3,0-0.5-0.2-0.5-0.5s0.2-0.5,0.5-0.5h39.8c0.3,0,0.5,0.2,0.5,0.5
		S135.9,66,135.6,66z"/>
</g>
<g id="XMLID_85_">
	<path id="XMLID_110_" class="st1" d="M135.6,61.2H95.8c-0.3,0-0.5-0.2-0.5-0.5s0.2-0.5,0.5-0.5h39.8c0.3,0,0.5,0.2,0.5,0.5
		S135.9,61.2,135.6,61.2z"/>
</g>
<g id="XMLID_84_">
	<path id="XMLID_109_" class="st1" d="M135.6,70.7H95.8c-0.3,0-0.5-0.2-0.5-0.5s0.2-0.5,0.5-0.5h39.8c0.3,0,0.5,0.2,0.5,0.5
		S135.9,70.7,135.6,70.7z"/>
</g>
<g id="XMLID_83_">
	<path id="XMLID_82_" class="st1" d="M135.6,76.7H95.8c-0.3,0-0.5-0.2-0.5-0.5s0.2-0.5,0.5-0.5h39.8c0.3,0,0.5,0.2,0.5,0.5
		S135.9,76.7,135.6,76.7z"/>
</g>
<g id="XMLID_78_">
	<path id="XMLID_72_" class="st1" d="M56.9,82.7H40.8c-0.3,0-0.5-0.2-0.5-0.5s0.2-0.5,0.5-0.5h16.2c0.3,0,0.5,0.2,0.5,0.5
		S57.2,82.7,56.9,82.7z"/>
</g>
<g id="XMLID_81_">
	<path id="XMLID_80_" class="st1" d="M46.2,50.9c-0.2,0-0.4,0-0.5-0.1l-1.4-0.5c-0.7-0.3-1.1-1-1-1.8l0.2-0.9
		c-0.2-0.2-0.4-0.3-0.5-0.5l-0.9,0.2c-0.1,0-0.3,0.1-0.4,0.1c-0.6,0-1.2-0.4-1.4-0.9l-0.6-1.3c-0.3-0.7-0.1-1.5,0.5-2l0.7-0.5
		c0-0.2,0-0.5,0-0.7l-0.8-0.4c-0.7-0.4-1-1.2-0.7-1.9l0.6-1.5c0.3-0.6,1-1,1.7-0.9l0.9,0.2c0.1-0.2,0.3-0.3,0.5-0.5l-0.2-0.9
		c-0.2-0.7,0.2-1.5,0.9-1.8l1.3-0.6c0.7-0.3,1.5-0.1,2,0.6l0.5,0.7c0.2,0,0.5,0,0.7,0l0.4-0.8c0.4-0.6,1.2-0.9,1.9-0.7L52,34
		c0.7,0.3,1.1,1,1,1.8l-0.2,0.9c0.2,0.1,0.3,0.3,0.5,0.5l0.8-0.2c0.8-0.2,1.5,0.2,1.9,0.9l0.6,1.3c0.3,0.7,0.1,1.5-0.5,2l-0.8,0.5
		c0,0.2,0,0.5,0,0.7l0.8,0.4c0.7,0.4,1,1.2,0.7,1.9L56.3,46c-0.3,0.7-1,1.1-1.8,1l-0.9-0.2c-0.1,0.2-0.3,0.3-0.5,0.5l0.2,0.8
		c0.2,0.7-0.2,1.5-0.9,1.8l-1.3,0.6c-0.7,0.3-1.5,0.1-2-0.6l-0.5-0.8c-0.2,0-0.4,0-0.6,0l-0.4,0.8C47.3,50.6,46.8,50.9,46.2,50.9z
		 M43,46.1c0.2,0,0.3,0.1,0.5,0.2c0.2,0.2,0.4,0.4,0.7,0.7c0.2,0.1,0.3,0.4,0.2,0.6l-0.2,1.1c-0.1,0.3,0.1,0.5,0.4,0.6l1.4,0.5
		c0.2,0.1,0.6,0,0.7-0.3l0.6-1c0.1-0.2,0.3-0.3,0.5-0.3c0.3,0,0.6,0,1,0c0.2,0,0.4,0.1,0.6,0.3l0.6,0.9c0.2,0.2,0.5,0.3,0.7,0.2
		l1.3-0.6c0.3-0.1,0.4-0.4,0.3-0.7l-0.3-1.1c-0.1-0.2,0-0.4,0.2-0.6c0.3-0.2,0.5-0.5,0.7-0.7c0.2-0.2,0.4-0.3,0.6-0.2l1.1,0.2
		c0.2,0,0.6-0.1,0.6-0.4l0.5-1.4c0.1-0.3,0-0.6-0.3-0.7l-1-0.6c-0.2-0.1-0.3-0.3-0.3-0.5c0-0.4,0-0.7,0-1c0-0.2,0.1-0.4,0.2-0.6
		l1-0.7c0.2-0.2,0.3-0.5,0.2-0.7l-0.6-1.3c-0.1-0.3-0.4-0.4-0.7-0.3l-1.1,0.3c-0.2,0.1-0.4,0-0.6-0.2c-0.3-0.3-0.5-0.5-0.7-0.7
		c-0.2-0.1-0.3-0.4-0.2-0.6l0.2-1.1c0.1-0.3-0.1-0.6-0.4-0.6l-1.4-0.5c-0.2-0.1-0.6,0-0.7,0.3l-0.6,1c-0.1,0.2-0.3,0.3-0.5,0.3
		c-0.4,0-0.7,0-1.1,0c-0.2,0-0.4-0.1-0.6-0.2l-0.7-1c-0.2-0.2-0.5-0.3-0.7-0.2l-1.3,0.6c-0.3,0.1-0.4,0.4-0.3,0.7l0.3,1.1
		c0.1,0.2,0,0.5-0.2,0.6c-0.2,0.2-0.5,0.5-0.6,0.7l0,0c-0.1,0.2-0.4,0.3-0.6,0.2l-1.1-0.2c0,0-0.1,0-0.1,0c-0.2,0-0.5,0.1-0.5,0.4
		L40.3,40c-0.1,0.3,0,0.6,0.3,0.7l1,0.6c0.2,0.1,0.3,0.3,0.3,0.5c0,0.4,0,0.7,0,1c0,0.2-0.1,0.5-0.3,0.6l-0.9,0.6
		c-0.2,0.2-0.3,0.5-0.2,0.7l0.6,1.3c0.1,0.3,0.4,0.4,0.7,0.3l1.1-0.3C42.9,46.1,43,46.1,43,46.1z"/>
</g>
<g id="XMLID_49_">
	<g id="XMLID_5_">
		<path class="st9" d="M47,45.2c0.3,0.1,0.7,0.2,1.1,0.2c1.4,0,2.6-0.9,3-2.1c0.6-1.7-0.3-3.5-2-4.1c-0.3-0.1-0.7-0.2-1.1-0.2
			c-1.4,0-2.6,0.9-3,2.1C44.5,42.7,45.3,44.6,47,45.2z"/>
	</g>
</g>
<g id="XMLID_79_">
	<path id="XMLID_73_" class="st1" d="M48.1,45.8c-0.4,0-0.8-0.1-1.2-0.2l0,0c-1.9-0.7-2.9-2.8-2.3-4.7c0.7-1.9,2.8-2.9,4.7-2.3
		c0.9,0.3,1.7,1,2.1,1.9c0.4,0.9,0.5,1.9,0.1,2.8C51.1,44.9,49.7,45.8,48.1,45.8z M47.2,44.7c1.5,0.5,3-0.3,3.5-1.6
		c0.2-0.7,0.2-1.4-0.1-2.1s-0.9-1.2-1.5-1.4c-1.5-0.5-3,0.3-3.5,1.6C45,42.6,45.8,44.2,47.2,44.7z"/>
</g>
<g id="XMLID_88_" class="st10">
	<rect id="XMLID_16_" x="95.2" y="36" class="st1" width="40.8" height="12.7"/>
</g>
<g id="XMLID_89_" class="st8">
	<path id="XMLID_18_" class="st1" d="M136.5,49.2H134v-1h1.5v-1.5h1V49.2z M133,49.2h-2v-1h2V49.2z M130,49.2h-2v-1h2V49.2z
		 M127,49.2h-2v-1h2V49.2z M124,49.2h-2v-1h2V49.2z M121,49.2h-2v-1h2V49.2z M118,49.2h-2v-1h2V49.2z M115,49.2h-2v-1h2V49.2z
		 M112,49.2h-2v-1h2V49.2z M109,49.2h-2v-1h2V49.2z M106,49.2h-2v-1h2V49.2z M103,49.2h-2v-1h2V49.2z M100,49.2h-2v-1h2V49.2z
		 M97,49.2h-2.3v-0.7h0.5v-0.3H97V49.2z M95.7,47.5h-1v-2h1V47.5z M136.5,45.7h-1v-2h1V45.7z M95.7,44.5h-1v-2h1V44.5z M136.5,42.7
		h-1v-2h1V42.7z M95.7,41.5h-1v-2h1V41.5z M136.5,39.7h-1v-2h1V39.7z M95.7,38.5h-1v-2h1V38.5z M136.5,36.7h-1v-0.2h-0.8v-1h1.8
		V36.7z M133.7,36.5h-2v-1h2V36.5z M130.7,36.5h-2v-1h2V36.5z M127.7,36.5h-2v-1h2V36.5z M124.7,36.5h-2v-1h2V36.5z M121.7,36.5h-2
		v-1h2V36.5z M118.7,36.5h-2v-1h2V36.5z M115.7,36.5h-2v-1h2V36.5z M112.7,36.5h-2v-1h2V36.5z M109.7,36.5h-2v-1h2V36.5z
		 M106.7,36.5h-2v-1h2V36.5z M103.7,36.5h-2v-1h2V36.5z M100.7,36.5h-2v-1h2V36.5z M97.7,36.5h-2v-1h2V36.5z"/>
</g>
<g id="XMLID_142_">
	<g id="XMLID_144_">
		<g id="XMLID_69_">
			<path class="st5" d="M23.5,106.2H3.6"/>
		</g>
	</g>
	<g id="XMLID_143_">
		<g id="XMLID_68_">
			<rect x="3.6" y="105.7" class="st1" width="19.9" height="1"/>
		</g>
	</g>
</g>
<g id="XMLID_217_">
	<g id="XMLID_219_">
		<g id="XMLID_67_">
			<path class="st5" d="M158.3,106.2h-6.4"/>
		</g>
	</g>
	<g id="XMLID_218_">
		<g id="XMLID_66_">
			<rect x="151.9" y="105.7" class="st1" width="6.4" height="1"/>
		</g>
	</g>
</g>
<g id="XMLID_214_">
	<g id="XMLID_216_">
		<g id="XMLID_65_">
			<path class="st5" d="M149.3,106.2H33.9"/>
		</g>
	</g>
	<g id="XMLID_215_">
		<g id="XMLID_64_">
			<rect x="27.9" y="105.7" class="st1" width="121.4" height="1"/>
		</g>
	</g>
</g>
<g id="XMLID_212_">
	<g id="XMLID_213_">
		<g id="XMLID_63_">
			<rect x="161.3" y="105.7" class="st1" width="8" height="1"/>
		</g>
	</g>
</g>
<g id="XMLID_51_">
	<g id="XMLID_131_">
		<g id="XMLID_167_">
			<path id="XMLID_15_" class="st5" d="M130.9,38.5l34.8,35.8c1.5,1.5,1.4,3.9-0.1,5.4l-1,0.9c-1.5,1.5-3.9,1.4-5.4-0.1l-34.8-35.8
				c-0.8-0.7-0.8-2,0-2.7l3.7-3.6C128.9,37.7,130.1,37.8,130.9,38.5z"/>
		</g>
		<g id="XMLID_132_">
			<path id="XMLID_14_" class="st1" d="M158.9,80.8L124.1,45c-0.4-0.4-0.7-1.1-0.7-1.7c0-0.6,0.3-1.2,0.7-1.7l3.7-3.6
				c1-0.9,2.5-0.9,3.4,0.1L166,73.9c0.8,0.8,1.3,1.9,1.2,3s-0.5,2.2-1.3,3l-1,0.9c-0.9,0.8-2,1.2-3,1.2
				C160.8,82.1,159.7,81.8,158.9,80.8z M128.4,38.7l-3.7,3.6c-0.3,0.3-0.4,0.7-0.4,1.1c0,0.4,0.2,0.8,0.4,1.1l34.8,35.8
				c1.3,1.3,3.5,1.4,4.8,0.1l1-0.9c0.7-0.6,1.1-1.5,1.1-2.4s-0.4-1.8-1-2.4l-34.8-35.8c-0.3-0.3-0.7-0.4-1.1-0.4
				C129.1,38.4,128.7,38.5,128.4,38.7z"/>
		</g>
	</g>
	<g id="XMLID_129_" class="st2">
		<g id="XMLID_130_">
			<path id="XMLID_13_" class="st4" d="M117.6,25.5l27.9,29.1c1.2,1.2,1,3.7-0.3,4.9l0,0c-1.2,1.2-3.8,1.4-5,0.2l-27.7-29.1
				c-0.6-0.6-0.6-1.6,0-2.2l2.9-2.9C116.1,24.7,117.1,24.7,117.6,25.5z"/>
		</g>
	</g>
	<g id="XMLID_127_" class="st11">
		<g id="XMLID_128_">
			<circle id="XMLID_12_" class="st12" cx="125.8" cy="39.7" r="25.5"/>
		</g>
	</g>
	<g id="XMLID_122_">
		<g id="XMLID_126_">
			<circle id="XMLID_11_" class="st5" cx="127.7" cy="37.8" r="25"/>
		</g>
		<g id="XMLID_123_">
			<path id="XMLID_9_" class="st1" d="M102.3,37.8c0-14,11.4-25.4,25.4-25.4s25.4,11.4,25.4,25.4s-11.4,25.4-25.4,25.4
				S102.3,51.8,102.3,37.8z M103.2,37.8c0,13.5,11,24.5,24.5,24.5s24.5-11.1,24.5-24.5s-11-24.5-24.5-24.5
				C114.2,13.3,103.2,24.3,103.2,37.8z"/>
		</g>
	</g>
	<g id="XMLID_91_" class="st13">
		<g id="XMLID_121_">
			<ellipse id="XMLID_8_" class="st14" cx="128.2" cy="37.4" rx="19.6" ry="19.7"/>
		</g>
		<g id="XMLID_92_">
			<path id="XMLID_7_" class="st1" d="M125.4,57.3l0.1-0.9c1.2,0.2,2.3,0.2,3.5,0.2v0.9c-0.3,0-0.4,0-0.7,0
				C127.2,57.4,126.2,57.4,125.4,57.3z M130.6,56.4c1.2-0.1,2.3-0.4,3.4-0.7l0.3,0.9c-1.2,0.4-2.3,0.6-3.6,0.8L130.6,56.4z
				 M120,55.7l0.4-0.8c1.1,0.5,2.1,0.9,3.3,1.2l-0.2,0.9C122.2,56.6,121.1,56.2,120,55.7z M135.7,55.1c1.1-0.4,2-1,3-1.6l0.4,0.7
				c-1,0.6-2.1,1.2-3.2,1.7L135.7,55.1z M115.5,52.9l0.5-0.7c0.9,0.7,1.9,1.4,2.9,2l-0.4,0.8C117.3,54.3,116.3,53.6,115.5,52.9z
				 M140.1,52.4c0.9-0.7,1.7-1.5,2.5-2.4l0.7,0.6c-0.8,0.9-1.7,1.8-2.7,2.5L140.1,52.4z M111.7,48.9l0.7-0.5c0.6,1,1.4,1.9,2.2,2.7
				l-0.6,0.6C113.1,50.8,112.3,49.8,111.7,48.9z M143.7,48.7c0.7-1,1.2-2,1.8-3l0.8,0.4c-0.5,1.1-1.2,2.1-1.9,3.1L143.7,48.7z
				 M109.3,43.9l0.8-0.3c0.4,1.2,0.9,2.2,1.4,3.2l-0.8,0.4C110.1,46.2,109.6,45.1,109.3,43.9z M146.2,44.1c0.4-1.2,0.7-2.2,0.9-3.4
				l0.9,0.2c-0.3,1.2-0.5,2.3-1,3.5L146.2,44.1z M108.1,38.6l0.9-0.1c0.1,1.2,0.3,2.3,0.5,3.5l-0.9,0.2
				C108.4,41,108.2,39.8,108.1,38.6z M147.3,39c0.1-0.5,0.1-1.1,0.1-1.6c0-0.6,0-1.2-0.1-1.9l0.9-0.1c0.1,0.6,0.1,1.3,0.1,2
				c0,0.5,0,1.2-0.1,1.7L147.3,39z M108.1,36.9c0.1-1.2,0.2-2.5,0.4-3.7l0.9,0.2c-0.3,1.2-0.4,2.3-0.4,3.5L108.1,36.9z M146.1,30.4
				l0.8-0.4c0.4,1.1,0.7,2.3,1,3.5l-0.9,0.2C146.7,32.7,146.5,31.5,146.1,30.4z M109,31.4c0.4-1.2,0.9-2.3,1.4-3.4l0.8,0.4
				c-0.5,1-1,2.1-1.3,3.2L109,31.4z M143.5,25.9l0.7-0.5c0.7,1,1.3,2,1.9,3.1l-0.8,0.4C144.9,27.8,144.2,26.8,143.5,25.9z
				 M111.4,26.4c0.6-1,1.4-2,2.2-2.9l0.6,0.6c-0.8,0.9-1.5,1.8-2.1,2.8L111.4,26.4z M139.9,22.2l0.5-0.7c1,0.7,1.9,1.6,2.7,2.5
				l-0.6,0.6C141.7,23.7,140.8,22.9,139.9,22.2z M114.8,22.3c0.9-0.8,1.9-1.5,2.9-2.1l0.4,0.8c-1,0.6-1.9,1.2-2.8,2L114.8,22.3z
				 M135.3,19.6l0.4-0.8c1.1,0.4,2.2,1.1,3.2,1.7l-0.4,0.7C137.5,20.6,136.4,20,135.3,19.6z M119.3,19.3c1.1-0.5,2.2-1,3.4-1.3
				l0.3,0.9c-1.1,0.4-2.1,0.7-3.2,1.2L119.3,19.3z M130.3,18.2l0.1-0.9c1.2,0.1,2.4,0.4,3.6,0.7l-0.3,0.9
				C132.7,18.7,131.5,18.4,130.3,18.2z M124.5,17.6c1.2-0.3,2.4-0.4,3.7-0.4c0.2,0,0.3,0,0.4,0v0.9c-0.1,0-0.3,0-0.4,0
				c-1.2,0.1-2.3,0.2-3.5,0.4L124.5,17.6z"/>
		</g>
	</g>
	<g id="XMLID_90_" class="st2">
		<path id="XMLID_4_" class="st4" d="M113.5,25.1c3.5-4.3,8.8-7,14.7-7c10.6,0,19.2,8.6,19.2,19.3c0,1.8-0.3,3.6-0.8,5.3L113.5,25.1
			z"/>
	</g>
</g>
</svg>
