<?xml version="1.0" encoding="utf-8"?>
<!-- Generator: Adobe Illustrator 19.0.0, SVG Export Plug-In . SVG Version: 6.00 Build 0)  -->
<svg version="1.1" id="图层_1" xmlns="http://www.w3.org/2000/svg" xmlns:xlink="http://www.w3.org/1999/xlink" x="0px" y="0px"
	 viewBox="0 0 171 108" style="enable-background:new 0 0 171 108;" xml:space="preserve">
<style type="text/css">
	.st0{fill:#FFFFFF;}
	.st1{fill:#B1D0E8;}
	.st2{opacity:0.7;enable-background:new    ;}
	.st3{opacity:0.3;enable-background:new    ;}
	.st4{fill:#B5C7DF;}
	.st5{fill:#D9E3F2;}
	.st6{opacity:0.6;}
	.st7{opacity:0.2;}
	.st8{opacity:0.38;}
	.st9{opacity:0.8;}
	.st10{opacity:0.25;}
	.st11{fill:#F8FBFE;}
	.st12{opacity:0.24;enable-background:new    ;}
	.st13{fill:#C4CEDE;}
	.st14{opacity:0.9;enable-background:new    ;}
	.st15{fill:#F4F7FC;}
</style>
<g id="XMLID_142_">
	<g id="XMLID_144_">
		<g id="XMLID_69_">
			<path class="st0" d="M23.5,105.9H3.6"/>
		</g>
	</g>
	<g id="XMLID_143_">
		<g id="XMLID_68_">
			<rect x="3.6" y="105.4" class="st1" width="19.9" height="1"/>
		</g>
	</g>
</g>
<g id="XMLID_217_">
	<g id="XMLID_219_">
		<g id="XMLID_67_">
			<path class="st0" d="M158.3,105.9h-6.4"/>
		</g>
	</g>
	<g id="XMLID_218_">
		<g id="XMLID_66_">
			<rect x="151.9" y="105.4" class="st1" width="6.4" height="1"/>
		</g>
	</g>
</g>
<g id="XMLID_214_">
	<g id="XMLID_216_">
		<g id="XMLID_65_">
			<path class="st0" d="M149.3,105.9H33.9"/>
		</g>
	</g>
	<g id="XMLID_215_">
		<g id="XMLID_64_">
			<rect x="33.9" y="105.4" class="st1" width="115.4" height="1"/>
		</g>
	</g>
</g>
<g id="XMLID_212_">
	<g id="XMLID_213_">
		<g id="XMLID_63_">
			<rect x="161.3" y="105.4" class="st1" width="8" height="1"/>
		</g>
	</g>
</g>
<g id="XMLID_304_" class="st2">
	<g id="XMLID_305_">
		<g id="XMLID_306_">
			<path class="st1" d="M15.2,90L5,84.2L22,75L15.2,90z M7,84.2l7.7,4.4l5.1-11.3L7,84.2z"/>
		</g>
	</g>
</g>
<g id="XMLID_301_" class="st3">
	<g id="XMLID_302_">
		<g id="XMLID_303_">
			<path class="st4" d="M16,80.2L8,90.3l8,2V80.2z"/>
		</g>
	</g>
</g>
<g id="XMLID_298_" class="st3">
	<g id="XMLID_299_">
		<g id="XMLID_300_">
			<path class="st5" d="M156.5,22.5l13.7-5L169,28.8L156.5,22.5z"/>
		</g>
	</g>
</g>
<g id="XMLID_293_" class="st2">
	<g id="XMLID_294_">
		<g id="XMLID_295_">
			<path class="st1" d="M167,26.8l-16.8-1.4l15.4-12.6L167,26.8z M152.8,24.6l13.1,1.1l-1.1-10.9L152.8,24.6z"/>
		</g>
	</g>
</g>
<g id="XMLID_42_" class="st6">
	<rect id="XMLID_123_" x="32.8" y="27" class="st0" width="67" height="78.3"/>
</g>
<g id="XMLID_46_" class="st7">
	<rect id="XMLID_122_" x="38.6" y="74.3" class="st4" width="60.5" height="4.8"/>
</g>
<g id="XMLID_45_" class="st7">
	<rect id="XMLID_79_" x="38.6" y="82.3" class="st4" width="60.5" height="4.8"/>
</g>
<g id="XMLID_43_" class="st6">
	<g id="XMLID_52_">
		<rect id="XMLID_121_" x="32.9" y="103.4" class="st1" width="1.2" height="1.8"/>
	</g>
	<g id="XMLID_51_">
		<path id="XMLID_110_" class="st1" d="M34.1,99.9h-1.2v-3.6h1.2V99.9z M34.1,92.8h-1.2v-3.6h1.2V92.8z M34.1,85.7h-1.2v-3.6h1.2
			V85.7z M34.1,78.6h-1.2V75h1.2V78.6z M34.1,71.5h-1.2v-3.6h1.2V71.5z M34.1,64.4h-1.2v-3.6h1.2V64.4z M34.1,57.2h-1.2v-3.6h1.2
			V57.2z M34.1,50.1h-1.2v-3.6h1.2V50.1z M34.1,43h-1.2v-3.6h1.2V43z M34.1,35.9h-1.2v-3.6h1.2V35.9z"/>
	</g>
	<g id="XMLID_50_">
		<polygon id="XMLID_109_" class="st1" points="34.1,28.8 32.9,28.8 32.9,26.4 35.3,26.4 35.3,27.6 34.1,27.6 		"/>
	</g>
	<g id="XMLID_49_">
		<path id="XMLID_99_" class="st1" d="M94.9,27.6h-3.7v-1.2h3.7V27.6z M87.5,27.6h-3.7v-1.2h3.7V27.6z M80,27.6h-3.7v-1.2H80V27.6z
			 M72.6,27.6h-3.7v-1.2h3.7V27.6z M65.1,27.6h-3.7v-1.2h3.7V27.6z M57.7,27.6H54v-1.2h3.7V27.6z M50.2,27.6h-3.7v-1.2h3.7V27.6z
			 M42.8,27.6h-3.7v-1.2h3.7V27.6z"/>
	</g>
	<g id="XMLID_48_">
		<polygon id="XMLID_98_" class="st1" points="101.1,28.8 99.9,28.8 99.9,27.6 98.7,27.6 98.7,26.4 101.1,26.4 		"/>
	</g>
	<g id="XMLID_10_">
		<path id="XMLID_87_" class="st1" d="M101.1,99.9h-1.2v-3.5h1.2V99.9z M101.1,92.8h-1.2v-3.6h1.2V92.8z M101.1,85.7h-1.2v-3.6h1.2
			V85.7z M101.1,78.6h-1.2V75h1.2V78.6z M101.1,71.5h-1.2v-3.6h1.2V71.5z M101.1,64.3h-1.2v-3.6h1.2V64.3z M101.1,57.2h-1.2v-3.6
			h1.2V57.2z M101.1,50.1h-1.2v-3.6h1.2V50.1z M101.1,43h-1.2v-3.6h1.2V43z M101.1,35.9h-1.2v-3.6h1.2V35.9z"/>
	</g>
	<g id="XMLID_9_">
		<rect id="XMLID_86_" x="99.9" y="103.4" class="st1" width="1.2" height="1.8"/>
	</g>
</g>
<g id="XMLID_17_">
	<path class="st0" d="M128.6,94.8V15.5c0-2.4-2-4.4-4.4-4.4H56.7c-2.4,0-4.4,2-4.4,4.4v80.4h0.1c0.5,5.6,5.2,10,10.9,10
		c0.3,0,0.5,0,0.8,0v0h62.3v0c0.1,0,0.2,0,0.3,0c6.1,0,11-4.9,11-11H128.6z"/>
</g>
<g id="XMLID_13_">
	<path id="XMLID_85_" class="st1" d="M63.3,106.3c-6.3,0-11.5-5.2-11.5-11.5c0-0.3,0.2-0.5,0.5-0.5s0.5,0.2,0.5,0.5
		c0,5.8,4.7,10.5,10.5,10.5s10.5-4.7,10.5-10.5c0-0.3,0.2-0.5,0.5-0.5s0.5,0.2,0.5,0.5C74.8,101.1,69.7,106.3,63.3,106.3z"/>
</g>
<g id="XMLID_7_">
	<path id="XMLID_82_" class="st1" d="M126.6,106.3c-0.1,0-0.1,0-0.2,0c-0.1,0-62.8,0-63.1,0c-6,0-10.9-4.5-11.4-10.5l-0.1-80.4
		c0-2.7,2.2-4.9,4.9-4.9h67.5c2.7,0,4.9,2.2,4.9,4.9v78.9h9v0.5C138.1,101.1,132.9,106.3,126.6,106.3z M126.3,105.2l0.3,0
		c5.6,0,10.2-4.4,10.5-10h-9V15.4c0-2.1-1.7-3.9-3.9-3.9H56.7c-2.1,0-3.9,1.7-3.9,3.9l0.1,80.4c0.5,5.4,5,9.5,10.4,9.5
		C63.6,105.3,126.3,105.2,126.3,105.2z"/>
</g>
<g id="XMLID_14_">
	<rect id="XMLID_81_" x="74.3" y="94.2" class="st1" width="54.6" height="1"/>
</g>
<g id="XMLID_15_">
	<rect id="XMLID_80_" x="52.8" y="20.8" class="st1" width="76.3" height="1"/>
</g>
<g id="XMLID_12_" class="st8">
	<circle id="XMLID_78_" class="st1" cx="59.3" cy="16.2" r="1.8"/>
</g>
<g id="XMLID_47_" class="st8">
	<circle id="XMLID_77_" class="st1" cx="40.4" cy="35.7" r="1.8"/>
</g>
<g id="XMLID_16_" class="st8">
	<circle id="XMLID_76_" class="st1" cx="67.8" cy="16.2" r="1.8"/>
</g>
<g id="XMLID_18_" class="st8">
	<circle id="XMLID_72_" class="st1" cx="76.3" cy="16.2" r="1.8"/>
</g>
<g id="XMLID_19_" class="st7">
	<rect id="XMLID_71_" x="59.2" y="30" class="st1" width="62.3" height="12.7"/>
</g>
<g id="XMLID_20_" class="st9">
	<path id="XMLID_73_" class="st1" d="M122,43.2H58.7V29.5H122V43.2z M59.7,42.2H121V30.5H59.7V42.2z"/>
</g>
<g id="XMLID_409_" class="st6">
	<g id="XMLID_25_">
		<g id="XMLID_334_">
			<g id="XMLID_26_">
				<path class="st1" d="M83.8,52.4h-24c-0.2,0-0.4-0.2-0.4-0.5s0.2-0.5,0.4-0.5h24c0.2,0,0.4,0.2,0.4,0.5S84,52.4,83.8,52.4z"/>
			</g>
		</g>
	</g>
</g>
<g id="XMLID_408_" class="st6">
	<g id="XMLID_22_">
		<g id="XMLID_331_">
			<g id="XMLID_23_">
				<path class="st1" d="M83.8,57.9h-24c-0.2,0-0.4-0.2-0.4-0.5s0.2-0.5,0.4-0.5h24c0.2,0,0.4,0.2,0.4,0.5S84,57.9,83.8,57.9z"/>
			</g>
		</g>
	</g>
</g>
<g id="XMLID_421_" class="st6">
	<g id="XMLID_21_">
		<g id="XMLID_325_">
			<g id="XMLID_24_">
				<path class="st1" d="M72.3,63.4H59.8c-0.2,0-0.4-0.2-0.4-0.5s0.2-0.5,0.4-0.5h12.5c0.2,0,0.4,0.2,0.4,0.5S72.5,63.4,72.3,63.4z"
					/>
			</g>
		</g>
	</g>
</g>
<g id="XMLID_35_" class="st6">
	<g id="XMLID_36_">
		<g id="XMLID_37_">
			<g id="XMLID_38_">
				<path class="st1" d="M119.8,52.4h-24c-0.2,0-0.4-0.2-0.4-0.5s0.2-0.5,0.4-0.5h24c0.2,0,0.4,0.2,0.4,0.5S120,52.4,119.8,52.4z"/>
			</g>
		</g>
	</g>
</g>
<g id="XMLID_31_" class="st6">
	<g id="XMLID_32_">
		<g id="XMLID_33_">
			<g id="XMLID_34_">
				<path class="st1" d="M119.8,57.9h-24c-0.2,0-0.4-0.2-0.4-0.5s0.2-0.5,0.4-0.5h24c0.2,0,0.4,0.2,0.4,0.5S120,57.9,119.8,57.9z"/>
			</g>
		</g>
	</g>
</g>
<g id="XMLID_27_" class="st6">
	<g id="XMLID_28_">
		<g id="XMLID_29_">
			<g id="XMLID_30_">
				<path class="st1" d="M108.3,63.4H95.8c-0.2,0-0.4-0.2-0.4-0.5s0.2-0.5,0.4-0.5h12.5c0.2,0,0.4,0.2,0.4,0.5
					S108.5,63.4,108.3,63.4z"/>
			</g>
		</g>
	</g>
</g>
<g id="XMLID_39_" class="st10">
	<rect id="XMLID_70_" x="59.8" y="73.8" class="st4" width="60.5" height="4.8"/>
</g>
<g id="XMLID_40_" class="st10">
	<rect id="XMLID_62_" x="59.8" y="81.8" class="st4" width="60.5" height="4.8"/>
</g>
<g id="XMLID_44_" class="st3">
	<rect id="XMLID_61_" x="59.8" y="73.8" class="st11" width="60.5" height="4.8"/>
</g>
<g id="XMLID_41_" class="st3">
	<rect id="XMLID_60_" x="59.8" y="81.8" class="st11" width="60.5" height="4.8"/>
</g>
<g id="XMLID_1_">
	<g id="XMLID_170_">
		<g id="XMLID_174_">
			<path id="XMLID_59_" class="st0" d="M124.2,44L159,79.8c1.5,1.5,1.4,3.9-0.1,5.4l-1,0.9c-1.5,1.5-3.9,1.4-5.4-0.1l-34.8-35.8
				c-0.8-0.7-0.8-2,0-2.7l3.7-3.6C122.3,43.2,123.4,43.3,124.2,44z"/>
		</g>
		<g id="XMLID_171_">
			<path id="XMLID_58_" class="st1" d="M152.2,86.3l-34.8-35.8c-0.4-0.4-0.7-1.1-0.7-1.7c0-0.6,0.3-1.2,0.7-1.7l3.7-3.6
				c1-0.9,2.5-0.9,3.4,0.1l34.8,35.8c0.8,0.8,1.3,1.9,1.2,3s-0.5,2.2-1.3,3l-1,0.9c-0.9,0.8-2,1.2-3,1.2
				C154.2,87.6,153,87.3,152.2,86.3z M121.7,44.2l-3.7,3.6c-0.3,0.3-0.4,0.7-0.4,1.1c0,0.4,0.2,0.8,0.4,1.1l34.8,35.8
				c1.3,1.3,3.5,1.4,4.8,0.1l1-0.9c0.7-0.6,1.1-1.5,1.1-2.4s-0.4-1.8-1-2.4l-34.8-35.8c-0.3-0.3-0.7-0.4-1.1-0.4
				C122.5,43.9,122.1,44,121.7,44.2z"/>
		</g>
	</g>
	<g id="XMLID_168_" class="st3">
		<g id="XMLID_6_">
			<path id="XMLID_57_" class="st5" d="M111,31L138.9,60c1.2,1.2,1,3.7-0.3,4.9l0,0c-1.2,1.2-3.8,1.4-5,0.2L105.9,36
				c-0.6-0.6-0.6-1.6,0-2.2l2.9-2.9C109.4,30.2,110.4,30.2,111,31z"/>
		</g>
	</g>
	<g id="XMLID_166_" class="st12">
		<g id="XMLID_5_">
			<circle id="XMLID_56_" class="st13" cx="119.2" cy="45.2" r="25.5"/>
		</g>
	</g>
	<g id="XMLID_161_">
		<g id="XMLID_165_">
			<circle id="XMLID_55_" class="st0" cx="121" cy="43.3" r="25"/>
		</g>
		<g id="XMLID_162_">
			<path id="XMLID_54_" class="st1" d="M95.6,43.3c0-14,11.4-25.4,25.4-25.4s25.4,11.4,25.4,25.4S135,68.7,121,68.7
				S95.6,57.3,95.6,43.3z M96.5,43.3c0,13.5,11,24.5,24.5,24.5s24.5-11.1,24.5-24.5s-11-24.5-24.5-24.5
				C107.6,18.8,96.5,29.8,96.5,43.3z"/>
		</g>
	</g>
	<g id="XMLID_135_" class="st14">
		<g id="XMLID_160_">
			<ellipse id="XMLID_53_" class="st15" cx="121.6" cy="42.9" rx="19.6" ry="19.7"/>
		</g>
		<g id="XMLID_136_">
			<path id="XMLID_3_" class="st1" d="M118.7,62.8l0.1-0.9c1.2,0.2,2.3,0.2,3.5,0.2v0.9c-0.3,0-0.4,0-0.7,0
				C120.6,62.9,119.5,62.9,118.7,62.8z M124,61.9c1.2-0.1,2.3-0.4,3.4-0.7l0.3,0.9c-1.2,0.4-2.3,0.6-3.6,0.8L124,61.9z M113.4,61.2
				l0.4-0.8c1.1,0.5,2.1,0.9,3.3,1.2l-0.2,0.9C115.6,62.1,114.4,61.7,113.4,61.2z M129.1,60.6c1.1-0.4,2-1,3-1.6l0.4,0.7
				c-1,0.6-2.1,1.2-3.2,1.7L129.1,60.6z M108.8,58.4l0.5-0.7c0.9,0.7,1.9,1.4,2.9,2l-0.4,0.8C110.7,59.8,109.7,59.1,108.8,58.4z
				 M133.4,57.9c0.9-0.7,1.7-1.5,2.5-2.4l0.7,0.6c-0.8,0.9-1.7,1.8-2.7,2.5L133.4,57.9z M105.1,54.4l0.7-0.5c0.6,1,1.4,1.9,2.2,2.7
				l-0.6,0.6C106.5,56.3,105.7,55.3,105.1,54.4z M137.1,54.2c0.7-1,1.2-2,1.8-3l0.8,0.4c-0.5,1.1-1.2,2.1-1.9,3.1L137.1,54.2z
				 M102.7,49.4l0.8-0.3c0.4,1.2,0.9,2.2,1.4,3.2l-0.8,0.4C103.5,51.7,102.9,50.6,102.7,49.4z M139.6,49.6c0.4-1.2,0.7-2.2,0.9-3.4
				l0.9,0.2c-0.3,1.2-0.5,2.3-1,3.5L139.6,49.6z M101.5,44.1l0.9-0.1c0.1,1.2,0.3,2.3,0.5,3.5l-0.9,0.2
				C101.8,46.5,101.6,45.3,101.5,44.1z M140.6,44.5c0.1-0.5,0.1-1.1,0.1-1.6c0-0.6,0-1.2-0.1-1.9l0.9-0.1c0.1,0.6,0.1,1.3,0.1,2
				c0,0.5,0,1.2-0.1,1.7L140.6,44.5z M101.5,42.4c0.1-1.2,0.2-2.5,0.4-3.7l0.9,0.2c-0.3,1.2-0.4,2.3-0.4,3.5L101.5,42.4z
				 M139.5,35.9l0.8-0.4c0.4,1.1,0.7,2.3,1,3.5l-0.9,0.2C140.1,38.2,139.8,37,139.5,35.9z M102.3,36.9c0.4-1.2,0.9-2.3,1.4-3.4
				l0.8,0.4c-0.5,1-1,2.1-1.3,3.2L102.3,36.9z M136.9,31.4l0.7-0.5c0.7,1,1.3,2,1.9,3.1l-0.8,0.4C138.2,33.3,137.6,32.3,136.9,31.4z
				 M104.7,31.9c0.6-1,1.4-2,2.2-2.9l0.6,0.6c-0.8,0.9-1.5,1.8-2.1,2.8L104.7,31.9z M133.2,27.7l0.5-0.7c1,0.7,1.9,1.6,2.7,2.5
				l-0.6,0.6C135,29.2,134.1,28.4,133.2,27.7z M108.2,27.8c0.9-0.8,1.9-1.5,2.9-2.1l0.4,0.8c-1,0.6-1.9,1.2-2.8,2L108.2,27.8z
				 M128.7,25.1l0.4-0.8c1.1,0.4,2.2,1.1,3.2,1.7l-0.4,0.7C130.8,26.1,129.8,25.5,128.7,25.1z M112.7,24.8c1.1-0.5,2.2-1,3.4-1.3
				l0.3,0.9c-1.1,0.4-2.1,0.7-3.2,1.2L112.7,24.8z M123.7,23.7l0.1-0.9c1.2,0.1,2.4,0.4,3.6,0.7l-0.3,0.9
				C126,24.2,124.9,23.9,123.7,23.7z M117.8,23.1c1.2-0.3,2.4-0.4,3.7-0.4c0.2,0,0.3,0,0.4,0v0.9c-0.1,0-0.3,0-0.4,0
				c-1.2,0.1-2.3,0.2-3.5,0.4L117.8,23.1z"/>
		</g>
	</g>
	<g id="XMLID_105_" class="st3">
		<path id="XMLID_2_" class="st5" d="M106.9,30.6c3.5-4.3,8.8-7,14.7-7c10.6,0,19.2,8.6,19.2,19.3c0,1.8-0.3,3.6-0.8,5.3L106.9,30.6
			z"/>
	</g>
</g>
</svg>
