<?xml version="1.0" encoding="utf-8"?>
<!-- Generator: Adobe Illustrator 19.0.0, SVG Export Plug-In . SVG Version: 6.00 Build 0)  -->
<svg version="1.1" id="图层_1" xmlns="http://www.w3.org/2000/svg" xmlns:xlink="http://www.w3.org/1999/xlink" x="0px" y="0px"
	 viewBox="0 22 172 108" style="enable-background:new 0 22 172 108;" xml:space="preserve">
<style type="text/css">
	.st0{opacity:0.3;enable-background:new    ;}
	.st1{fill:#D9E3F2;}
	.st2{opacity:0.7;enable-background:new    ;}
	.st3{fill:#B1D0E8;}
	.st4{fill:#B5C7DF;}
	.st5{fill:#FFFFFF;}
	.st6{opacity:0.6;}
	.st7{fill:none;}
	.st8{opacity:0.5;}
	.st9{opacity:0.4;}
	.st10{fill:#E9EDF2;}
	.st11{opacity:0.8;}
	.st12{fill:#F8FBFE;}
</style>
<g class="st0">
	<g>
		<path class="st1" d="M153.5,41.2l13.7-5L166,47.4L153.5,41.2z"/>
	</g>
</g>
<g class="st2">
	<g>
		<path class="st3" d="M164,45.5l-16.8-1.4l15.4-12.6L164,45.5z M149.8,43.3l13.1,1.1l-1.1-10.9L149.8,43.3z"/>
	</g>
</g>
<g class="st2">
	<g>
		<path class="st3" d="M13.2,95.3L3,89.5l17-9.2L13.2,95.3z M5,89.5l7.7,4.4l5.1-11.3L5,89.5z"/>
	</g>
</g>
<g class="st0">
	<g>
		<path class="st4" d="M14,85.4L6,95.6l8,2V85.4z"/>
	</g>
</g>
<g>
	<g>
		<path class="st5" d="M28.5,129H10.6"/>
	</g>
	<g>
		<rect x="10.6" y="128.5" class="st3" width="17.9" height="1"/>
	</g>
</g>
<g>
	<g>
		<path class="st5" d="M160,129h-6.4"/>
	</g>
	<g>
		<rect x="153.6" y="128.5" class="st3" width="6.4" height="1"/>
	</g>
</g>
<g>
	<g>
		<path class="st5" d="M151,129H33.6"/>
	</g>
	<g>
		<rect x="33.6" y="128.5" class="st3" width="117.4" height="1"/>
	</g>
</g>
<g class="st6">
	<g>
		<path class="st3" d="M98.3,129.3c-0.3,0-0.5-0.2-0.5-0.5v-1.5c0-0.3,0.2-0.5,0.5-0.5s0.5,0.2,0.5,0.5v1.5
			C98.8,129.1,98.5,129.3,98.3,129.3z"/>
	</g>
	<g>
		<path class="st3" d="M98.3,125.8c-0.3,0-0.5-0.2-0.5-0.5v-3c0-0.3,0.2-0.5,0.5-0.5s0.5,0.2,0.5,0.5v3
			C98.8,125.6,98.5,125.8,98.3,125.8z M129.9,125.8c-0.3,0-0.5-0.2-0.5-0.5v-3c0-0.3,0.2-0.5,0.5-0.5s0.5,0.2,0.5,0.5v3
			C130.4,125.6,130.2,125.8,129.9,125.8z M98.3,120.8c-0.3,0-0.5-0.2-0.5-0.5v-3c0-0.3,0.2-0.5,0.5-0.5s0.5,0.2,0.5,0.5v3
			C98.8,120.6,98.5,120.8,98.3,120.8z M129.9,120.8c-0.3,0-0.5-0.2-0.5-0.5v-3c0-0.3,0.2-0.5,0.5-0.5s0.5,0.2,0.5,0.5v3
			C130.4,120.6,130.2,120.8,129.9,120.8z M98.3,115.8c-0.3,0-0.5-0.2-0.5-0.5v-3c0-0.3,0.2-0.5,0.5-0.5s0.5,0.2,0.5,0.5v3
			C98.8,115.6,98.5,115.8,98.3,115.8z M129.9,115.8c-0.3,0-0.5-0.2-0.5-0.5v-3c0-0.3,0.2-0.5,0.5-0.5s0.5,0.2,0.5,0.5v3
			C130.4,115.6,130.2,115.8,129.9,115.8z M98.3,110.8c-0.3,0-0.5-0.2-0.5-0.5v-3c0-0.3,0.2-0.5,0.5-0.5s0.5,0.2,0.5,0.5v3
			C98.8,110.6,98.5,110.8,98.3,110.8z M129.9,110.8c-0.3,0-0.5-0.2-0.5-0.5v-3c0-0.3,0.2-0.5,0.5-0.5s0.5,0.2,0.5,0.5v3
			C130.4,110.6,130.2,110.8,129.9,110.8z M98.3,105.8c-0.3,0-0.5-0.2-0.5-0.5v-3c0-0.3,0.2-0.5,0.5-0.5s0.5,0.2,0.5,0.5v3
			C98.8,105.5,98.5,105.8,98.3,105.8z M129.9,105.8c-0.3,0-0.5-0.2-0.5-0.5v-3c0-0.3,0.2-0.5,0.5-0.5s0.5,0.2,0.5,0.5v3
			C130.4,105.5,130.2,105.8,129.9,105.8z M98.3,100.8c-0.3,0-0.5-0.2-0.5-0.5v-3c0-0.3,0.2-0.5,0.5-0.5s0.5,0.2,0.5,0.5v3
			C98.8,100.5,98.5,100.8,98.3,100.8z M129.9,100.7c-0.3,0-0.5-0.2-0.5-0.5v-3c0-0.3,0.2-0.5,0.5-0.5s0.5,0.2,0.5,0.5v3
			C130.4,100.5,130.2,100.7,129.9,100.7z M98.3,95.7c-0.3,0-0.5-0.2-0.5-0.5v-3c0-0.3,0.2-0.5,0.5-0.5s0.5,0.2,0.5,0.5v3
			C98.8,95.5,98.5,95.7,98.3,95.7z M129.9,95.7c-0.3,0-0.5-0.2-0.5-0.5v-3c0-0.3,0.2-0.5,0.5-0.5s0.5,0.2,0.5,0.5v3
			C130.4,95.5,130.2,95.7,129.9,95.7z M98.3,90.7c-0.3,0-0.5-0.2-0.5-0.5v-3c0-0.3,0.2-0.5,0.5-0.5s0.5,0.2,0.5,0.5v3
			C98.8,90.5,98.5,90.7,98.3,90.7z M129.9,90.7c-0.3,0-0.5-0.2-0.5-0.5v-3c0-0.3,0.2-0.5,0.5-0.5s0.5,0.2,0.5,0.5v3
			C130.4,90.5,130.2,90.7,129.9,90.7z M98.3,85.7c-0.3,0-0.5-0.2-0.5-0.5v-3c0-0.3,0.2-0.5,0.5-0.5s0.5,0.2,0.5,0.5v3
			C98.8,85.5,98.5,85.7,98.3,85.7z M129.9,85.7c-0.3,0-0.5-0.2-0.5-0.5v-3c0-0.3,0.2-0.5,0.5-0.5s0.5,0.2,0.5,0.5v3
			C130.4,85.5,130.2,85.7,129.9,85.7z M98.3,80.7c-0.3,0-0.5-0.2-0.5-0.5v-3c0-0.3,0.2-0.5,0.5-0.5s0.5,0.2,0.5,0.5v3
			C98.8,80.5,98.5,80.7,98.3,80.7z M129.9,80.7c-0.3,0-0.5-0.2-0.5-0.5v-3c0-0.3,0.2-0.5,0.5-0.5s0.5,0.2,0.5,0.5v3
			C130.4,80.5,130.2,80.7,129.9,80.7z M98.3,75.7c-0.3,0-0.5-0.2-0.5-0.5v-3c0-0.3,0.2-0.5,0.5-0.5s0.5,0.2,0.5,0.5v3
			C98.8,75.5,98.5,75.7,98.3,75.7z M129.9,75.7c-0.3,0-0.5-0.2-0.5-0.5v-3c0-0.3,0.2-0.5,0.5-0.5s0.5,0.2,0.5,0.5v3
			C130.4,75.5,130.2,75.7,129.9,75.7z M98.3,70.7c-0.3,0-0.5-0.2-0.5-0.5v-3c0-0.3,0.2-0.5,0.5-0.5s0.5,0.2,0.5,0.5v3
			C98.8,70.5,98.5,70.7,98.3,70.7z M129.9,70.7c-0.3,0-0.5-0.2-0.5-0.5v-3c0-0.3,0.2-0.5,0.5-0.5s0.5,0.2,0.5,0.5v3
			C130.4,70.4,130.2,70.7,129.9,70.7z M98.3,65.7c-0.3,0-0.5-0.2-0.5-0.5v-3c0-0.3,0.2-0.5,0.5-0.5s0.5,0.2,0.5,0.5v3
			C98.8,65.4,98.5,65.7,98.3,65.7z M129.9,65.7c-0.3,0-0.5-0.2-0.5-0.5v-3c0-0.3,0.2-0.5,0.5-0.5s0.5,0.2,0.5,0.5v3
			C130.4,65.4,130.2,65.7,129.9,65.7z M98.3,60.6c-0.3,0-0.5-0.2-0.5-0.5v-3c0-0.3,0.2-0.5,0.5-0.5s0.5,0.2,0.5,0.5v3
			C98.8,60.4,98.5,60.6,98.3,60.6z M129.9,60.6c-0.3,0-0.5-0.2-0.5-0.5v-3c0-0.3,0.2-0.5,0.5-0.5s0.5,0.2,0.5,0.5v3
			C130.4,60.4,130.2,60.6,129.9,60.6z M98.3,55.6c-0.3,0-0.5-0.2-0.5-0.5v-3c0-0.3,0.2-0.5,0.5-0.5s0.5,0.2,0.5,0.5v3
			C98.8,55.4,98.5,55.6,98.3,55.6z M129.9,55.6c-0.3,0-0.5-0.2-0.5-0.5v-3c0-0.3,0.2-0.5,0.5-0.5s0.5,0.2,0.5,0.5v3
			C130.4,55.4,130.2,55.6,129.9,55.6z M98.3,50.6c-0.3,0-0.5-0.2-0.5-0.5v-3c0-0.3,0.2-0.5,0.5-0.5s0.5,0.2,0.5,0.5v3
			C98.8,50.4,98.5,50.6,98.3,50.6z M129.9,50.6c-0.3,0-0.5-0.2-0.5-0.5v-3c0-0.3,0.2-0.5,0.5-0.5s0.5,0.2,0.5,0.5v3
			C130.4,50.4,130.2,50.6,129.9,50.6z M98.3,45.6c-0.3,0-0.5-0.2-0.5-0.5v-3c0-0.3,0.2-0.5,0.5-0.5s0.5,0.2,0.5,0.5v3
			C98.8,45.4,98.5,45.6,98.3,45.6z M129.9,45.6c-0.3,0-0.5-0.2-0.5-0.5v-3c0-0.3,0.2-0.5,0.5-0.5s0.5,0.2,0.5,0.5v3
			C130.4,45.4,130.2,45.6,129.9,45.6z M98.3,40.6c-0.3,0-0.5-0.2-0.5-0.5v-3c0-0.3,0.2-0.5,0.5-0.5s0.5,0.2,0.5,0.5v3
			C98.8,40.4,98.5,40.6,98.3,40.6z M129.9,40.6c-0.3,0-0.5-0.2-0.5-0.5v-3c0-0.3,0.2-0.5,0.5-0.5s0.5,0.2,0.5,0.5v3
			C130.4,40.4,130.2,40.6,129.9,40.6z M98.3,35.6c0,0-0.1,0-0.1,0c-0.3-0.1-0.4-0.3-0.4-0.6c0.2-1.1,1.3-2,2.4-2h0.3
			c0.3,0,0.5,0.2,0.5,0.5s-0.2,0.5-0.5,0.5h-0.3c-0.7,0-1.3,0.5-1.5,1.2C98.8,35.4,98.5,35.6,98.3,35.6z M129.9,35.6
			c-0.2,0-0.4-0.2-0.5-0.4c-0.2-0.7-0.8-1.2-1.5-1.2h-0.3c-0.3,0-0.5-0.2-0.5-0.5s0.2-0.5,0.5-0.5h0.3c1.2,0,2.2,0.8,2.4,2
			c0.1,0.3-0.1,0.5-0.4,0.6C130,35.6,129.9,35.6,129.9,35.6z M125.6,34h-3c-0.3,0-0.5-0.2-0.5-0.5s0.2-0.5,0.5-0.5h3
			c0.3,0,0.5,0.2,0.5,0.5S125.9,34,125.6,34z M120.6,34h-3c-0.3,0-0.5-0.2-0.5-0.5s0.2-0.5,0.5-0.5h3c0.3,0,0.5,0.2,0.5,0.5
			S120.9,34,120.6,34z M115.6,34h-3c-0.3,0-0.5-0.2-0.5-0.5s0.2-0.5,0.5-0.5h3c0.3,0,0.5,0.2,0.5,0.5S115.9,34,115.6,34z M110.6,34
			h-3c-0.3,0-0.5-0.2-0.5-0.5s0.2-0.5,0.5-0.5h3c0.3,0,0.5,0.2,0.5,0.5S110.9,34,110.6,34z M105.6,34h-3c-0.3,0-0.5-0.2-0.5-0.5
			s0.2-0.5,0.5-0.5h3c0.3,0,0.5,0.2,0.5,0.5S105.9,34,105.6,34z"/>
	</g>
	<g>
		<path class="st3" d="M129.9,129.3c-0.3,0-0.5-0.2-0.5-0.5v-1.5c0-0.3,0.2-0.5,0.5-0.5s0.5,0.2,0.5,0.5v1.5
			C130.4,129.1,130.2,129.3,129.9,129.3z"/>
	</g>
</g>
<g>
	<path class="st7" d="M61.2,158.8"/>
</g>
<g class="st8">
	<g>
		<path class="st3" d="M29.5,128.7c-0.3,0-0.5-0.2-0.5-0.5v-1.5c0-0.3,0.2-0.5,0.5-0.5s0.5,0.2,0.5,0.5v1.5
			C30,128.4,29.8,128.7,29.5,128.7z"/>
	</g>
	<g>
		<path class="st3" d="M29.5,125.2c-0.3,0-0.5-0.2-0.5-0.5v-3c0-0.3,0.2-0.5,0.5-0.5s0.5,0.2,0.5,0.5v3
			C30,125,29.8,125.2,29.5,125.2z M61.2,123.6c-0.3,0-0.5-0.2-0.5-0.5v-3c0-0.3,0.2-0.5,0.5-0.5s0.5,0.2,0.5,0.5v3
			C61.7,123.4,61.4,123.6,61.2,123.6z M29.5,120.3c-0.3,0-0.5-0.2-0.5-0.5v-3c0-0.3,0.2-0.5,0.5-0.5s0.5,0.2,0.5,0.5v3
			C30,120,29.8,120.3,29.5,120.3z M61.2,118.7c-0.3,0-0.5-0.2-0.5-0.5v-3c0-0.3,0.2-0.5,0.5-0.5s0.5,0.2,0.5,0.5v3
			C61.7,118.5,61.4,118.7,61.2,118.7z M29.5,115.3c-0.3,0-0.5-0.2-0.5-0.5v-3c0-0.3,0.2-0.5,0.5-0.5s0.5,0.2,0.5,0.5v3
			C30,115.1,29.8,115.3,29.5,115.3z M61.2,113.7c-0.3,0-0.5-0.2-0.5-0.5v-3c0-0.3,0.2-0.5,0.5-0.5s0.5,0.2,0.5,0.5v3
			C61.7,113.5,61.4,113.7,61.2,113.7z M29.5,110.4c-0.3,0-0.5-0.2-0.5-0.5v-3c0-0.3,0.2-0.5,0.5-0.5s0.5,0.2,0.5,0.5v3
			C30,110.2,29.8,110.4,29.5,110.4z M61.2,108.8c-0.3,0-0.5-0.2-0.5-0.5v-3c0-0.3,0.2-0.5,0.5-0.5s0.5,0.2,0.5,0.5v3
			C61.7,108.6,61.4,108.8,61.2,108.8z M29.5,105.5c-0.3,0-0.5-0.2-0.5-0.5v-3c0-0.3,0.2-0.5,0.5-0.5s0.5,0.2,0.5,0.5v3
			C30,105.3,29.8,105.5,29.5,105.5z M61.2,103.9c-0.3,0-0.5-0.2-0.5-0.5v-3c0-0.3,0.2-0.5,0.5-0.5s0.5,0.2,0.5,0.5v3
			C61.7,103.7,61.4,103.9,61.2,103.9z M29.5,100.6c-0.3,0-0.5-0.2-0.5-0.5v-3c0-0.3,0.2-0.5,0.5-0.5s0.5,0.2,0.5,0.5v3
			C30,100.3,29.8,100.6,29.5,100.6z M61.2,99c-0.3,0-0.5-0.2-0.5-0.5v-3c0-0.3,0.2-0.5,0.5-0.5s0.5,0.2,0.5,0.5v3
			C61.7,98.7,61.4,99,61.2,99z M29.5,95.6c-0.3,0-0.5-0.2-0.5-0.5v-3c0-0.3,0.2-0.5,0.5-0.5s0.5,0.2,0.5,0.5v3
			C30,95.4,29.8,95.6,29.5,95.6z M61.2,94c-0.3,0-0.5-0.2-0.5-0.5v-3c0-0.3,0.2-0.5,0.5-0.5s0.5,0.2,0.5,0.5v3
			C61.7,93.8,61.4,94,61.2,94z M29.5,90.7c-0.3,0-0.5-0.2-0.5-0.5v-3c0-0.3,0.2-0.5,0.5-0.5S30,87,30,87.3v3
			C30,90.5,29.8,90.7,29.5,90.7z M61.2,89.1c-0.3,0-0.5-0.2-0.5-0.5v-3c0-0.3,0.2-0.5,0.5-0.5s0.5,0.2,0.5,0.5v3
			C61.7,88.9,61.4,89.1,61.2,89.1z M29.5,85.8c-0.3,0-0.5-0.2-0.5-0.5v-3c0-0.3,0.2-0.5,0.5-0.5s0.5,0.2,0.5,0.5v3
			C30,85.6,29.8,85.8,29.5,85.8z M61.2,84.2c-0.3,0-0.5-0.2-0.5-0.5v-3c0-0.3,0.2-0.5,0.5-0.5s0.5,0.2,0.5,0.5v3
			C61.7,84,61.4,84.2,61.2,84.2z M29.5,80.9c-0.3,0-0.5-0.2-0.5-0.5v-3c0-0.3,0.2-0.5,0.5-0.5s0.5,0.2,0.5,0.5v3
			C30,80.6,29.8,80.9,29.5,80.9z M61.2,79.3c-0.3,0-0.5-0.2-0.5-0.5v-3c0-0.3,0.2-0.5,0.5-0.5s0.5,0.2,0.5,0.5v3
			C61.7,79,61.4,79.3,61.2,79.3z M29.5,75.9c-0.3,0-0.5-0.2-0.5-0.5v-3c0-0.3,0.2-0.5,0.5-0.5s0.5,0.2,0.5,0.5v3
			C30,75.7,29.8,75.9,29.5,75.9z M61.2,74.3c-0.3,0-0.5-0.2-0.5-0.5v-3c0-0.3,0.2-0.5,0.5-0.5s0.5,0.2,0.5,0.5v3
			C61.7,74.1,61.4,74.3,61.2,74.3z M29.5,71c-0.3,0-0.5-0.2-0.5-0.5v-3c0-0.3,0.2-0.5,0.5-0.5s0.5,0.2,0.5,0.5v3
			C30,70.8,29.8,71,29.5,71z M61.2,69.4c-0.3,0-0.5-0.2-0.5-0.5v-3c0-0.3,0.2-0.5,0.5-0.5s0.5,0.2,0.5,0.5v3
			C61.7,69.2,61.4,69.4,61.2,69.4z M29.5,66c-0.3,0-0.5-0.2-0.5-0.5v-0.1c0-1.2,0.9-2.3,2.2-2.5c0.3,0,0.5,0.2,0.6,0.4
			c0,0.3-0.2,0.5-0.4,0.6c-0.7,0.1-1.3,0.7-1.3,1.5C30,65.8,29.8,66,29.5,66z M60.6,64.6c-0.1,0-0.3-0.1-0.4-0.2
			C60,64.2,59.6,64,59.2,64h-1.3c-0.3,0-0.5-0.2-0.5-0.5s0.2-0.5,0.5-0.5h1.3c0.7,0,1.3,0.3,1.8,0.8c0.2,0.2,0.2,0.5,0,0.7
			C60.9,64.6,60.7,64.6,60.6,64.6z M55.9,64h-3c-0.3,0-0.5-0.2-0.5-0.5s0.2-0.5,0.5-0.5h3c0.3,0,0.5,0.2,0.5,0.5S56.1,64,55.9,64z
			 M50.9,64h-3c-0.3,0-0.5-0.2-0.5-0.5S47.7,63,48,63h3c0.3,0,0.5,0.2,0.5,0.5S51.2,64,50.9,64z M46,64h-3c-0.3,0-0.5-0.2-0.5-0.5
			S42.8,63,43,63h3c0.3,0,0.5,0.2,0.5,0.5S46.3,64,46,64z M41.1,64h-3c-0.3,0-0.5-0.2-0.5-0.5s0.2-0.5,0.5-0.5h3
			c0.3,0,0.5,0.2,0.5,0.5S41.4,64,41.1,64z M36.2,64h-3c-0.3,0-0.5-0.2-0.5-0.5s0.2-0.5,0.5-0.5h3c0.3,0,0.5,0.2,0.5,0.5
			S36.4,64,36.2,64z"/>
	</g>
	<g>
		<path class="st3" d="M61.2,127.1c-0.3,0-0.5-0.2-0.5-0.5v-1.5c0-0.3,0.2-0.5,0.5-0.5s0.5,0.2,0.5,0.5v1.5
			C61.7,126.9,61.4,127.1,61.2,127.1z"/>
	</g>
</g>
<g class="st9">
	<g>
		<path class="st10" d="M117.7,120.5c0,2.8-2.3,5-5,5H53.2c-2.8,0-5-2.3-5-5V43.7c0-2.8,2.3-5,5-5h59.5c2.8,0,5,2.3,5,5V120.5z"/>
	</g>
</g>
<g>
	<path class="st5" d="M115.7,123.5c0,2.8-2.3,5-5,5H51.2c-2.8,0-5-2.3-5-5V46.8c0-2.8,2.3-5,5-5h59.5c2.8,0,5,2.3,5,5V123.5z"/>
</g>
<g>
	<path class="st3" d="M115.8,128.5h-1V46.8c0-2.5-2-4.5-4.5-4.5H50.8c-2.5,0-4.5,2-4.5,4.5v81.8h-1V46.8c0-3,2.5-5.5,5.5-5.5h59.5
		c3,0,5.5,2.5,5.5,5.5V128.5z"/>
</g>
<g>
	<path class="st5" d="M94.3,44.8v-1.4c0-2.6-2.1-4.7-4.7-4.7H87c-0.1-2.5-2.1-4.5-4.6-4.5h-3.7c-2.5,0-4.5,2-4.6,4.5h-2.7
		c-2.6,0-4.7,2.1-4.7,4.7v1.4H94.3z"/>
</g>
<g>
	<path class="st3" d="M94.8,45.3H66.2v-1.9c0-2.9,2.3-5.2,5.2-5.2h2.2c0.3-2.6,2.5-4.5,5.1-4.5h3.7c2.6,0,4.8,1.9,5.1,4.5h2.2
		c2.9,0,5.2,2.3,5.2,5.2V45.3z M67.2,44.3h26.6v-0.9c0-2.3-1.9-4.2-4.2-4.2h-3.2l0-0.5c-0.1-2.2-1.9-4-4.1-4h-3.7
		c-2.2,0-4,1.8-4.1,4l0,0.5h-3.2c-2.3,0-4.2,1.9-4.2,4.2V44.3z"/>
</g>
<g>
	<path class="st3" d="M80.5,42.8c-1.5,0-2.7-1.2-2.7-2.7c0-1.5,1.2-2.7,2.7-2.7c1.5,0,2.7,1.2,2.7,2.7C83.2,41.6,82,42.8,80.5,42.8z
		 M80.5,38.4c-0.9,0-1.7,0.8-1.7,1.7s0.8,1.7,1.7,1.7s1.7-0.8,1.7-1.7S81.5,38.4,80.5,38.4z"/>
</g>
<g>
	<circle class="st10" cx="106.9" cy="53.6" r="3.4"/>
</g>
<g>
	<circle class="st10" cx="53.8" cy="53.6" r="3.4"/>
</g>
<g>
	<g>
		<path class="st3" d="M61,96.5h-7.3c-1.4,0-2.5-1.1-2.5-2.5v-7.3c0-1.4,1.1-2.5,2.5-2.5H61c1.4,0,2.5,1.1,2.5,2.5V94
			C63.5,95.4,62.4,96.5,61,96.5z M53.8,85.3c-0.8,0-1.5,0.7-1.5,1.5V94c0,0.8,0.7,1.5,1.5,1.5H61c0.8,0,1.5-0.7,1.5-1.5v-7.3
			c0-0.8-0.7-1.5-1.5-1.5H53.8z"/>
	</g>
	<g>
		<path class="st3" d="M56.4,92.8C56.4,92.8,56.4,92.8,56.4,92.8c-0.2,0-0.3-0.1-0.4-0.2l-2.2-2.8c-0.2-0.2-0.1-0.5,0.1-0.7
			c0.2-0.2,0.5-0.1,0.7,0.1l1.9,2.3l3.8-3.8c0.2-0.2,0.5-0.2,0.7,0c0.2,0.2,0.2,0.5,0,0.7l-4.2,4.1C56.6,92.7,56.5,92.8,56.4,92.8z"
			/>
	</g>
	<g class="st11">
		<path class="st3" d="M88.1,87.4H68.2c-0.3,0-0.5-0.2-0.5-0.5s0.2-0.5,0.5-0.5h19.9c0.3,0,0.5,0.2,0.5,0.5S88.4,87.4,88.1,87.4z"/>
	</g>
	<g class="st11">
		<path class="st3" d="M108,93.5H68.4c-0.3,0-0.5-0.2-0.5-0.5s0.2-0.5,0.5-0.5H108c0.3,0,0.5,0.2,0.5,0.5S108.3,93.5,108,93.5z"/>
	</g>
</g>
<g>
	<g>
		<path class="st3" d="M61,77h-7.3c-1.4,0-2.5-1.1-2.5-2.5v-7.3c0-1.4,1.1-2.5,2.5-2.5H61c1.4,0,2.5,1.1,2.5,2.5v7.3
			C63.5,75.9,62.4,77,61,77z M53.8,65.7c-0.8,0-1.5,0.7-1.5,1.5v7.3c0,0.8,0.7,1.5,1.5,1.5H61c0.8,0,1.5-0.7,1.5-1.5v-7.3
			c0-0.8-0.7-1.5-1.5-1.5H53.8z"/>
	</g>
	<g>
		<path class="st3" d="M56.4,73.2C56.4,73.2,56.4,73.2,56.4,73.2c-0.2,0-0.3-0.1-0.4-0.2l-2.2-2.8c-0.2-0.2-0.1-0.5,0.1-0.7
			c0.2-0.2,0.5-0.1,0.7,0.1l1.9,2.3l3.8-3.8c0.2-0.2,0.5-0.2,0.7,0s0.2,0.5,0,0.7l-4.2,4.1C56.6,73.2,56.5,73.2,56.4,73.2z"/>
	</g>
	<g class="st11">
		<path class="st3" d="M88.1,67.9H68.2c-0.3,0-0.5-0.2-0.5-0.5s0.2-0.5,0.5-0.5h19.9c0.3,0,0.5,0.2,0.5,0.5S88.4,67.9,88.1,67.9z"/>
	</g>
	<g class="st11">
		<path class="st3" d="M108,74H68.4c-0.3,0-0.5-0.2-0.5-0.5s0.2-0.5,0.5-0.5H108c0.3,0,0.5,0.2,0.5,0.5S108.3,74,108,74z"/>
	</g>
</g>
<g>
	<g>
		<path class="st3" d="M61,116h-7.3c-1.4,0-2.5-1.1-2.5-2.5v-7.3c0-1.4,1.1-2.5,2.5-2.5H61c1.4,0,2.5,1.1,2.5,2.5v7.3
			C63.5,114.9,62.4,116,61,116z M53.8,104.8c-0.8,0-1.5,0.7-1.5,1.5v7.3c0,0.8,0.7,1.5,1.5,1.5H61c0.8,0,1.5-0.7,1.5-1.5v-7.3
			c0-0.8-0.7-1.5-1.5-1.5H53.8z"/>
	</g>
	<g>
		<path class="st3" d="M56.4,112.3C56.4,112.3,56.4,112.3,56.4,112.3c-0.2,0-0.3-0.1-0.4-0.2l-2.2-2.8c-0.2-0.2-0.1-0.5,0.1-0.7
			c0.2-0.2,0.5-0.1,0.7,0.1l1.9,2.3l3.8-3.8c0.2-0.2,0.5-0.2,0.7,0c0.2,0.2,0.2,0.5,0,0.7l-4.2,4.1
			C56.6,112.2,56.5,112.3,56.4,112.3z"/>
	</g>
	<g class="st11">
		<path class="st3" d="M88.1,106.9H68.2c-0.3,0-0.5-0.2-0.5-0.5s0.2-0.5,0.5-0.5h19.9c0.3,0,0.5,0.2,0.5,0.5S88.4,106.9,88.1,106.9z
			"/>
	</g>
	<g class="st11">
		<path class="st3" d="M108,113H68.4c-0.3,0-0.5-0.2-0.5-0.5s0.2-0.5,0.5-0.5H108c0.3,0,0.5,0.2,0.5,0.5S108.3,113,108,113z"/>
	</g>
</g>
<g>
	<circle class="st5" cx="129.4" cy="84.9" r="21.5"/>
</g>
<g>
	<circle class="st12" cx="132.1" cy="89.9" r="21.5"/>
</g>
<g>
	<path class="st3" d="M129.4,106.9c-12.1,0-22-9.9-22-22c0-12.1,9.9-22,22-22s22,9.9,22,22C151.4,97,141.5,106.9,129.4,106.9z
		 M129.4,63.9c-11.6,0-21,9.4-21,21c0,11.6,9.4,21,21,21s21-9.4,21-21C150.4,73.3,141,63.9,129.4,63.9z"/>
</g>
<g>
	<path class="st3" d="M130.1,68.1c-0.3,0-0.6-0.3-0.6-0.6v-4c0-0.3,0.3-0.6,0.6-0.6s0.6,0.3,0.6,0.6v4
		C130.7,67.9,130.4,68.1,130.1,68.1z"/>
</g>
<g>
	<path class="st3" d="M129.9,107.2c-0.3,0-0.6-0.3-0.6-0.6v-4c0-0.3,0.3-0.6,0.6-0.6s0.6,0.3,0.6,0.6v4
		C130.5,107,130.2,107.2,129.9,107.2z"/>
</g>
<g>
	<path class="st3" d="M112.5,85.4h-4c-0.3,0-0.6-0.3-0.6-0.6s0.3-0.6,0.6-0.6h4c0.3,0,0.6,0.3,0.6,0.6S112.8,85.4,112.5,85.4z"/>
</g>
<g>
	<path class="st3" d="M150.5,85.6h-4c-0.3,0-0.6-0.3-0.6-0.6s0.3-0.6,0.6-0.6h4c0.3,0,0.6,0.3,0.6,0.6S150.8,85.6,150.5,85.6z"/>
</g>
<g>
	<path class="st3" d="M137.1,89.3c-0.1,0-0.2,0-0.3-0.1l-6.8-4.8c-0.1-0.1-0.2-0.2-0.2-0.4V72.5c0-0.3,0.2-0.5,0.5-0.5
		s0.5,0.2,0.5,0.5v11.2l6.6,4.6c0.2,0.2,0.3,0.5,0.1,0.7C137.4,89.2,137.2,89.3,137.1,89.3z"/>
</g>
</svg>
