<?xml version="1.0" encoding="utf-8"?>
<!-- Generator: Adobe Illustrator 21.0.0, SVG Export Plug-In . SVG Version: 6.00 Build 0)  -->
<svg version="1.1" id="图层_1" xmlns="http://www.w3.org/2000/svg" xmlns:xlink="http://www.w3.org/1999/xlink" x="0px" y="0px"
	 viewBox="0 0 168 107.4" style="enable-background:new 0 0 168 107.4;" xml:space="preserve">
<style type="text/css">
	.st0{fill:#EEF2FA;}
	.st1{fill:#A1B6D1;}
	.st2{fill:#FFFFFF;}
	.st3{fill:#B1D0E8;}
	.st4{opacity:0.39;enable-background:new    ;}
	.st5{opacity:0.12;enable-background:new    ;}
	.st6{fill:#F1F5FB;}
	.st7{opacity:0.46;enable-background:new    ;}
	.st8{opacity:0.24;enable-background:new    ;}
	.st9{fill:#C4CEDE;}
	.st10{opacity:0.3;enable-background:new    ;}
	.st11{fill:#D9E3F2;}
	.st12{opacity:0.9;enable-background:new    ;}
	.st13{fill:#F4F7FC;}
	.st14{opacity:0.7;enable-background:new    ;}
	.st15{fill:#B5C7DF;}
	.st16{opacity:0.72;enable-background:new    ;}
	.st17{fill:#D6E6F3;}
</style>
<g>
	<circle class="st0" cx="103.9" cy="29.3" r="3.5"/>
	<path class="st1" d="M103.9,33.3c-2.2,0-4-1.8-4-4s1.8-4,4-4c2.2,0,4,1.8,4,4S106.1,33.3,103.9,33.3z M103.9,26.3c-1.6,0-3,1.3-3,3
		s1.3,3,3,3s3-1.3,3-3S105.5,26.3,103.9,26.3z"/>
</g>
<g>
	<circle class="st0" cx="68.1" cy="43.2" r="3.5"/>
	<path class="st1" d="M68.1,47.2c-2.2,0-4-1.8-4-4s1.8-4,4-4s4,1.8,4,4S70.3,47.2,68.1,47.2z M68.1,40.3c-1.6,0-3,1.3-3,3s1.3,3,3,3
		s3-1.3,3-3S69.7,40.3,68.1,40.3z"/>
</g>
<g>
	<path class="st2" d="M43.7,12.9h90.5c1.6,0,3,1.3,3,3v68.6c0,1.6-1.3,3-3,3H43.7c-1.6,0-3-1.3-3-3V15.9
		C40.8,14.3,42.1,12.9,43.7,12.9z"/>
	<path class="st3" d="M134.2,88H43.7c-1.9,0-3.5-1.6-3.5-3.5V15.9c0-1.9,1.6-3.5,3.5-3.5h90.5c1.9,0,3.5,1.6,3.5,3.5v68.6
		C137.7,86.4,136.1,88,134.2,88z M43.7,13.4c-1.4,0-2.5,1.1-2.5,2.5v68.6c0,1.4,1.1,2.5,2.5,2.5h90.5c1.4,0,2.5-1.1,2.5-2.5V15.9
		c0-1.4-1.1-2.5-2.5-2.5H43.7z"/>
</g>
<g class="st4">
	<path class="st2" d="M48.9,23.7h80c0.5,0,0.9,0.4,0.9,0.9v52.2c0,0.5-0.4,0.9-0.9,0.9h-80c-0.5,0-0.9-0.4-0.9-0.9V24.6
		C48,24.1,48.4,23.7,48.9,23.7z"/>
	<path class="st3" d="M129,78.3h-80c-0.8,0-1.4-0.6-1.4-1.4V24.6c0-0.8,0.6-1.4,1.4-1.4h80c0.8,0,1.4,0.6,1.4,1.4v52.2
		C130.4,77.7,129.8,78.3,129,78.3z M48.9,24.2c-0.2,0-0.4,0.2-0.4,0.4v52.2c0,0.2,0.2,0.4,0.4,0.4h80c0.2,0,0.4-0.2,0.4-0.4V24.6
		c0-0.2-0.2-0.4-0.4-0.4H48.9z"/>
</g>
<path class="st2" d="M28.1,86.5h119.7c1.2,0,2.3,1.1,2.3,2.4L145.6,99c0,1.3-1,2.4-2.3,2.4H32.6c-1.2,0-2.3-1.1-2.3-2.4l-4.5-10.1
	C25.8,87.5,26.9,86.5,28.1,86.5z"/>
<g class="st5">
	<path class="st3" d="M62.6,30.5h65.6v45.6H62.6V30.5z"/>
	<path class="st3" d="M129.7,77.6H61.1V29h68.6V77.6z M64.1,74.6h62.6V32H64.1V74.6z"/>
</g>
<g>
	<path class="st6" d="M28.8,96.3l2,5.1h113.7l2-5.1H28.8z"/>
</g>
<g class="st7">
	<rect x="68.6" y="63.6" class="st3" width="19.9" height="2"/>
</g>
<g class="st7">
	<rect x="68.6" y="53.7" class="st3" width="23.9" height="2"/>
</g>
<g class="st7">
	<rect x="68.6" y="42.7" class="st3" width="27.8" height="2"/>
</g>
<g>
	<path class="st2" d="M46.7,36l4.2,4c0.9,0.8,0.9,2.2,0,3L12.1,82.9C10.5,84.6,7.7,84.7,6,83L5,82c-1.7-1.6-1.7-4.4-0.1-6.1L43.7,36
		C44.5,35.2,45.9,35.1,46.7,36z"/>
	<path class="st3" d="M9,84.7c-1.2,0-2.4-0.4-3.3-1.3l-1.1-1c-0.9-0.9-1.4-2.1-1.5-3.4c0-1.3,0.5-2.5,1.4-3.4l38.8-39.9
		c1-1,2.7-1.1,3.7-0.1l4.2,4c0.5,0.5,0.8,1.2,0.8,1.9s-0.3,1.4-0.7,1.9L12.5,83.3C11.5,84.2,10.3,84.7,9,84.7z M45.2,35.9
		c-0.4,0-0.9,0.2-1.2,0.5L5.2,76.3C4.5,77,4.1,78,4.2,79c0,1,0.4,2,1.2,2.7l1.1,1c1.5,1.5,3.9,1.4,5.4-0.1l38.8-39.9
		c0.3-0.3,0.5-0.7,0.5-1.2c0-0.4-0.2-0.8-0.5-1.2l-4.2-4C46,36,45.6,35.9,45.2,35.9z"/>
</g>
<g class="st8">
	<circle class="st9" cx="50.3" cy="37.4" r="28.4"/>
</g>
<g class="st10">
	<path class="st11" d="M60.8,21.3l3.3,3.3c0.7,0.7,0.7,1.8,0,2.5L33.1,59.4c-1.3,1.4-4.2,1.2-5.5-0.2l0,0c-1.4-1.3-1.6-4.1-0.3-5.5
		l31.1-32.4C59,20.7,60.1,20.6,60.8,21.3z"/>
</g>
<g>
	<circle class="st2" cx="47.2" cy="35.3" r="27.8"/>
	<path class="st3" d="M47.2,63.6c-15.6,0-28.3-12.7-28.3-28.3S31.6,7,47.2,7s28.3,12.7,28.3,28.3S62.8,63.6,47.2,63.6z M47.2,8
		C32.1,8,19.9,20.2,19.9,35.3s12.3,27.3,27.3,27.3s27.3-12.3,27.3-27.3S62.3,8,47.2,8z"/>
</g>
<g class="st12">
	<ellipse class="st13" cx="46.7" cy="34.8" rx="21.9" ry="21.9"/>
	<path class="st3" d="M46.7,57.2c-0.4,0-0.8,0-1.2,0l0.1-1c1.3,0.1,2.6,0,3.9-0.1l0.1,1C48.6,57.1,47.6,57.2,46.7,57.2z M43.4,57
		c-1.3-0.2-2.7-0.5-4-1l0.3-0.9c1.2,0.4,2.5,0.7,3.8,0.9L43.4,57z M51.6,56.7l-0.2-1c1.3-0.3,2.5-0.7,3.7-1.2l0.4,0.9
		C54.2,55.9,52.9,56.4,51.6,56.7z M37.5,55.3c-1.2-0.6-2.4-1.2-3.6-2l0.6-0.8c1.1,0.7,2.2,1.4,3.4,1.9L37.5,55.3z M57.3,54.5
		l-0.5-0.9c1.1-0.6,2.2-1.3,3.2-2.2l0.6,0.8C59.6,53.1,58.5,53.9,57.3,54.5z M32.4,52c-1-0.9-2-1.8-2.9-2.9l0.8-0.6
		c0.8,1,1.8,1.9,2.8,2.8L32.4,52z M62.2,50.9l-0.7-0.7c0.9-0.9,1.8-1.9,2.5-3l0.8,0.6C64.1,48.9,63.2,49.9,62.2,50.9z M28.2,47.5
		c-0.8-1.1-1.4-2.3-2-3.6l0.9-0.4c0.5,1.2,1.2,2.3,1.9,3.4L28.2,47.5z M66,46.1l-0.9-0.5c0.7-1.1,1.2-2.3,1.7-3.5l0.9,0.3
		C67.2,43.6,66.7,44.9,66,46.1z M25.5,42c-0.4-1.3-0.8-2.6-1-4l1-0.1c0.2,1.3,0.5,2.6,0.9,3.8L25.5,42z M68.3,40.4l-1-0.3
		c0.3-1.3,0.5-2.6,0.6-3.9l1,0.1C68.9,37.7,68.6,39.1,68.3,40.4z M24.3,36c0-0.4,0-0.8,0-1.3c0-0.9,0.1-1.9,0.2-2.8l1,0.1
		c-0.1,0.9-0.2,1.8-0.2,2.7c0,0.4,0,0.8,0,1.2L24.3,36z M68,34.4c0-1.3-0.2-2.6-0.4-3.9l1-0.2c0.3,1.3,0.4,2.7,0.4,4.1L68,34.4z
		 M25.8,30.1l-1-0.2c0.3-1.3,0.7-2.6,1.2-3.9l0.9,0.4C26.5,27.6,26.1,28.9,25.8,30.1z M67.1,28.6c-0.4-1.2-0.9-2.5-1.5-3.6l0.9-0.5
		c0.6,1.2,1.1,2.5,1.5,3.8L67.1,28.6z M27.8,24.7l-0.9-0.5c0.6-1.2,1.4-2.3,2.2-3.4l0.8,0.6C29.1,22.4,28.4,23.5,27.8,24.7z
		 M64.7,23.3c-0.7-1.1-1.5-2.1-2.4-3.1l0.7-0.7c0.9,1,1.8,2.1,2.5,3.2L64.7,23.3z M31.2,19.9l-0.7-0.7c0.9-1,2-1.9,3.1-2.7l0.6,0.8
		C33.1,18.1,32.1,19,31.2,19.9z M60.9,18.8c-1-0.9-2-1.7-3.1-2.3l0.5-0.9c1.2,0.7,2.3,1.5,3.3,2.4L60.9,18.8z M35.8,16.3l-0.5-0.9
		c1.2-0.7,2.4-1.3,3.7-1.8l0.3,0.9C38.1,15.1,36.9,15.6,35.8,16.3z M56.1,15.5c-1.2-0.6-2.4-1-3.6-1.4l0.3-1
		c1.3,0.4,2.6,0.9,3.8,1.5L56.1,15.5z M41.2,14l-0.3-1c1.3-0.3,2.7-0.6,4-0.7l0.1,1C43.7,13.5,42.5,13.7,41.2,14z M50.5,13.7
		c-1.3-0.2-2.6-0.4-3.9-0.4v-1c1.4,0,2.7,0.1,4.1,0.4L50.5,13.7z"/>
</g>
<g class="st14">
	<path class="st3" d="M8.3,17.8L8.2,6.1l16.4,10.1L8.3,17.8z M9.2,7.9l0.1,8.8l12.3-1.2L9.2,7.9z"/>
</g>
<g class="st10">
	<path class="st15" d="M17.1,13.5L4.4,11.7l2.2,7.9L17.1,13.5z"/>
</g>
<g class="st10">
	<path class="st11" d="M150.6,33l13.6-5L163,39.2L150.6,33z"/>
</g>
<g class="st14">
	<path class="st3" d="M161.1,37.2l-16.7-1.4l15.3-12.5L161.1,37.2z M147,35.1l13,1.1l-1.1-10.9L147,35.1z"/>
</g>
<g>
	<path class="st2" d="M27.3,101.4H7.6"/>
	<rect x="7.6" y="100.9" class="st3" width="19.8" height="1"/>
</g>
<g>
	<path class="st2" d="M156.1,101.4h-6.4"/>
	<rect x="149.7" y="100.9" class="st3" width="6.4" height="1"/>
</g>
<g>
	<path class="st2" d="M147.1,101.4H32.4"/>
	<rect x="32.4" y="100.9" class="st3" width="114.7" height="1"/>
</g>
<g class="st16">
	<path class="st3" d="M108.2,55.2c-3.7,0-6.6-3-6.6-6.6v-4.6c0-3.7,3-6.6,6.6-6.6s6.6,3,6.6,6.6v4.6
		C114.9,52.2,111.9,55.2,108.2,55.2z M108.2,38.3c-3.1,0-5.6,2.5-5.6,5.6v4.6c0,3.1,2.5,5.6,5.6,5.6c3.1,0,5.6-2.5,5.6-5.6v-4.6
		C113.9,40.8,111.3,38.3,108.2,38.3z"/>
</g>
<g class="st16">
	<path class="st3" d="M122.1,73.9H94.3l0-0.6c0-0.1,0-0.2,0-0.2c0-9.8,6.2-17.8,13.9-17.8s13.9,8,13.9,17.8c0,0.1,0,0.2,0,0.2
		L122.1,73.9z M95.3,72.9h25.8c0-9.2-5.8-16.7-12.9-16.7S95.4,63.7,95.3,72.9z"/>
</g>
<g class="st16">
	<path class="st3" d="M108.7,63.9c-0.2,0.3-0.7,0.3-0.9,0l-3-4.8l0.8-0.5l2.6,4.2l2.6-4.2l0.8,0.5L108.7,63.9z"/>
</g>
<g class="st16">
	<path class="st3" d="M104.7,46.9l-0.2-1c6.2-1,7-2.7,7.1-2.8l0.9,0.3C112.5,43.8,111.6,45.8,104.7,46.9z"/>
</g>
<g>
	<path class="st17" d="M57.6,37.3l0-4.1c0,0-2.7-0.5-2.8-0.7c-0.1-0.2-0.1-0.4-0.2-0.6c0.3-0.6,1.8-1.9,1.8-1.9l-3.1-4.1
		c0,0-2,1.6-2.5,1.9c-0.2-0.1-0.5-0.2-0.7-0.2c-0.3-0.1-1-2.7-1-2.7l-4.1,0c0,0-0.4,2.5-1.1,2.7c-0.2,0.1-0.4,0.2-0.7,0.3
		c-0.5-0.2-2.5-1.9-2.5-1.9l-3.1,4.1c0,0,1.5,1.5,1.6,2.1c-0.1,0.2-0.1,0.3-0.2,0.5c-0.7,0.2-2.5,0.6-2.5,0.6l0,4.1
		c0,0,2.2,0.5,2.6,0.8c0.1,0.2,0.2,0.5,0.3,0.7c-0.5,0.6-1.8,1.7-1.8,1.7l3.2,4.1c0,0,2.5-1.6,2.9-1.7c0.2,0.1,0.4,0.2,0.6,0.2
		c0.4,0.1,0.6,2.5,0.6,2.5l4.1,0c0,0,0.1-2.4,0.4-2.4c0.3-0.1,0.6-0.2,0.9-0.3c0.3,0.1,2,1.8,2,1.8l4.1-4.1c0,0-1.5-1-1.9-1.6
		c0.1-0.2,0.2-0.5,0.3-0.7C55.1,37.9,57.6,37.3,57.6,37.3z M47.2,40.5c-2.9,0-5.2-2.3-5.2-5.2c0-2.9,2.3-5.2,5.2-5.2
		c2.9,0,5.2,2.3,5.2,5.2S50,40.5,47.2,40.5z"/>
</g>
<g class="st10">
	<path class="st11" d="M25.9,40.9C25.3,39,25,37,25,35c0-11.9,9.6-21.6,21.5-21.6c6.6,0,12.6,3,16.5,7.8L25.9,40.9z"/>
</g>
<path class="st3" d="M143.3,101.9H32.6c-1.5,0-2.7-1.2-2.8-2.8l-4.5-10.2c0-1.6,1.2-2.9,2.8-2.9h119.7c1.5,0,2.8,1.3,2.8,2.9l0,0.2
	l-4.5,10C146,100.7,144.8,101.9,143.3,101.9z M26.3,88.8L30.9,99c0,1,0.8,1.9,1.8,1.9h110.7c1,0,1.8-0.8,1.8-1.9l0-0.2l4.5-10
	c0-1-0.8-1.8-1.8-1.8H28.1C27.2,87,26.4,87.8,26.3,88.8z"/>
</svg>
