<?xml version="1.0" encoding="utf-8"?>
<!-- Generator: Adobe Illustrator 21.0.0, SVG Export Plug-In . SVG Version: 6.00 Build 0)  -->
<svg version="1.1" id="图层_1" xmlns="http://www.w3.org/2000/svg" xmlns:xlink="http://www.w3.org/1999/xlink" x="0px" y="0px"
	 viewBox="0 0 172 108" style="enable-background:new 0 0 172 108;" xml:space="preserve">
<style type="text/css">
	.st0{opacity:0.3;enable-background:new    ;}
	.st1{fill:#D9E3F2;}
	.st2{opacity:0.7;enable-background:new    ;}
	.st3{fill:#B1D0E8;}
	.st4{fill:#B5C7DF;}
	.st5{fill:#FFFFFF;}
	.st6{fill:#FCFDFF;}
	.st7{fill:#CFDBE8;}
	.st8{fill:#F4F7FC;}
	.st9{opacity:0.48;enable-background:new    ;}
	.st10{fill:#E9EDF2;}
	.st11{opacity:0.28;enable-background:new    ;}
	.st12{fill:#F8FBFE;}
	.st13{fill:#EDF1F6;}
	.st14{opacity:0.68;enable-background:new    ;}
</style>
<g class="st0">
	<path class="st1" d="M153.5,19.2l13.7-5L166,25.4L153.5,19.2z"/>
</g>
<g class="st2">
	<path class="st3" d="M164,23.5l-16.8-1.4l15.4-12.6L164,23.5z M149.8,21.3l13.1,1.1l-1.1-10.9L149.8,21.3z"/>
</g>
<g class="st2">
	<path class="st3" d="M13.2,83.3L3,77.5l17-9.2L13.2,83.3z M5,77.5l7.7,4.4l5.1-11.3L5,77.5z"/>
</g>
<g class="st0">
	<path class="st4" d="M14,73.4L6,83.6l8,2V73.4z"/>
</g>
<g>
	<path class="st5" d="M28.5,107H10.6"/>
	<rect x="10.6" y="106.5" class="st3" width="17.9" height="1"/>
</g>
<g>
	<path class="st5" d="M160,107h-6.4"/>
	<rect x="153.6" y="106.5" class="st3" width="6.4" height="1"/>
</g>
<g>
	<path class="st6" d="M94,33h51c1.1,0,2,0.9,2,2v70c0,1.1-0.9,2-2,2H94c-1.1,0-2-0.9-2-2V35C92,33.9,92.9,33,94,33z"/>
	<path class="st7" d="M145,107.5h-2.7v-1h2.7c0.3,0,0.6-0.1,0.9-0.3l0.6,0.8C146.1,107.3,145.5,107.5,145,107.5z M140.3,107.5h-4v-1
		h4V107.5z M134.3,107.5h-4v-1h4V107.5z M128.3,107.5h-4v-1h4V107.5z M122.3,107.5h-4v-1h4V107.5z M116.3,107.5h-4v-1h4V107.5z
		 M110.3,107.5h-4v-1h4V107.5z M104.3,107.5h-4v-1h4V107.5z M98.3,107.5h-4v-1h4V107.5z M92.1,106.6c-0.4-0.5-0.6-1-0.6-1.6v-2.6h1
		v2.6c0,0.4,0.1,0.7,0.4,1L92.1,106.6z M147.5,104.9h-1v-4h1V104.9z M92.5,100.4h-1v-4h1V100.4z M147.5,98.9h-1v-4h1V98.9z
		 M92.5,94.4h-1v-4h1V94.4z M147.5,92.9h-1v-4h1V92.9z M92.5,88.4h-1v-4h1V88.4z M147.5,86.9h-1v-4h1V86.9z M92.5,82.4h-1v-4h1V82.4
		z M147.5,80.9h-1v-4h1V80.9z M92.5,76.4h-1v-4h1V76.4z M147.5,74.9h-1v-4h1V74.9z M92.5,70.4h-1v-4h1V70.4z M147.5,68.9h-1v-4h1
		V68.9z M92.5,64.4h-1v-4h1V64.4z M147.5,62.9h-1v-4h1V62.9z M92.5,58.4h-1v-4h1V58.4z M147.5,56.9h-1v-4h1V56.9z M92.5,52.4h-1v-4
		h1V52.4z M147.5,50.9h-1v-4h1V50.9z M92.5,46.4h-1v-4h1V46.4z M147.5,44.9h-1v-4h1V44.9z M92.5,40.4h-1v-4h1V40.4z M147.5,38.9h-1
		v-4l1-0.1c0,0.1,0,0.1,0,0.2V38.9z M92.6,34.6l-1-0.3c0.3-1.1,1.3-1.8,2.4-1.8l0,0h4v1h-4l0,0C93.3,33.5,92.7,33.9,92.6,34.6z
		 M145.7,33.7c-0.2-0.1-0.5-0.2-0.7-0.2h-3v-1h3c0.4,0,0.8,0.1,1.2,0.3L145.7,33.7z M140,33.5h-4v-1h4V33.5z M134,33.5h-4v-1h4V33.5
		z M128,33.5h-4v-1h4V33.5z M122,33.5h-4v-1h4V33.5z M116,33.5h-4v-1h4V33.5z M110,33.5h-4v-1h4V33.5z M104,33.5h-4v-1h4V33.5z"/>
</g>
<g>
	<path class="st8" d="M79,33.5h56c1.1,0,2,0.9,2,2.1v60.3c0,1.1-0.9,2.1-2,2.1H79c-1.1,0-2-0.9-2-2.1V35.6
		C77,34.4,77.9,33.5,79,33.5z"/>
</g>
<g>
	<path class="st5" d="M61.2,1h59L134,13.8v78.9c0,1.2-1,2.2-2.2,2.2H61.2C60,95,59,94,59,92.8V3.2C59,2,60,1,61.2,1z"/>
	<path class="st3" d="M131.8,95.5H61.2c-1.5,0-2.7-1.2-2.7-2.7V3.2c0-1.5,1.2-2.7,2.7-2.7h59.2l14.1,13.1v79.2
		C134.5,94.3,133.3,95.5,131.8,95.5z M61.2,1.5c-0.9,0-1.7,0.8-1.7,1.7v89.6c0,0.9,0.8,1.7,1.7,1.7h70.6c0.9,0,1.7-0.8,1.7-1.7V14.1
		L120,1.5H61.2z"/>
</g>
<g class="st9">
	<path class="st10" d="M65,22h41c1.7,0,3,1.3,3,3v65H68c-1.7,0-3-1.3-3-3V22z"/>
</g>
<g class="st11">
	<rect x="105" y="30.1" class="st4" width="17.7" height="6.7"/>
</g>
<g class="st11">
	<rect x="105" y="47.6" class="st4" width="17.7" height="6.6"/>
</g>
<g class="st11">
	<rect x="105" y="66.2" class="st4" width="17.7" height="6.6"/>
</g>
<g>
	<path class="st5" d="M42,25h60c2.2,0,4,1.8,4,4v78H38V29C38,26.8,39.8,25,42,25z"/>
	<path class="st3" d="M106.5,107.5h-4.2v-1h3.7v0.2h0.5V107.5z M100.3,107.5h-4v-1h4V107.5z M94.3,107.5h-4v-1h4V107.5z M88.3,107.5
		h-4v-1h4V107.5z M82.3,107.5h-4v-1h4V107.5z M76.3,107.5h-4v-1h4V107.5z M70.3,107.5h-4v-1h4V107.5z M64.3,107.5h-4v-1h4V107.5z
		 M58.3,107.5h-4v-1h4V107.5z M52.3,107.5h-4v-1h4V107.5z M46.3,107.5h-4v-1h4V107.5z M40.3,107.5h-2.8v-2.2h1v1.2h1.8V107.5z
		 M106.5,104.7h-1v-4h1V104.7z M38.5,103.3h-1v-4h1V103.3z M106.5,98.7h-1v-4h1V98.7z M38.5,97.3h-1v-4h1V97.3z M106.5,92.7h-1v-4h1
		V92.7z M38.5,91.3h-1v-4h1V91.3z M106.5,86.7h-1v-4h1V86.7z M38.5,85.3h-1v-4h1V85.3z M106.5,80.7h-1v-4h1V80.7z M38.5,79.3h-1v-4
		h1V79.3z M106.5,74.7h-1v-4h1V74.7z M38.5,73.3h-1v-4h1V73.3z M106.5,68.7h-1v-4h1V68.7z M38.5,67.3h-1v-4h1V67.3z M106.5,62.7h-1
		v-4h1V62.7z M38.5,61.3h-1v-4h1V61.3z M106.5,56.7h-1v-4h1V56.7z M38.5,55.3h-1v-4h1V55.3z M106.5,50.7h-1v-4h1V50.7z M38.5,49.3
		h-1v-4h1V49.3z M106.5,44.7h-1v-4h1V44.7z M38.5,43.3h-1v-4h1V43.3z M106.5,38.7h-1v-4h1V38.7z M38.5,37.3h-1v-4h1V37.3z
		 M106.5,32.7h-1V29c0-0.1,0-0.2,0-0.2l1-0.1c0,0.1,0,0.2,0,0.3V32.7z M38.5,31.3h-1V29c0-0.7,0.1-1.3,0.4-1.9l0.9,0.4
		c-0.2,0.5-0.3,0.9-0.3,1.5C38.5,29,38.5,31.3,38.5,31.3z M104.9,27.1c-0.6-1-1.8-1.6-2.9-1.6v-1c1.5,0,3,0.8,3.8,2.1L104.9,27.1z
		 M39.9,26.2l-0.6-0.8c0.8-0.6,1.7-0.9,2.7-0.9l0,0h4v1h-4l0,0C41.2,25.5,40.5,25.7,39.9,26.2z M100,25.5h-4v-1h4V25.5z M94,25.5h-4
		v-1h4V25.5z M88,25.5h-4v-1h4V25.5z M82,25.5h-4v-1h4V25.5z M76,25.5h-4v-1h4V25.5z M70,25.5h-4v-1h4V25.5z M64,25.5h-4v-1h4V25.5z
		 M58,25.5h-4v-1h4V25.5z M52,25.5h-4v-1h4V25.5z"/>
</g>
<path class="st12" d="M71,87c-13.8,0-25-11.2-25-25s11.2-25,25-25s25,11.2,25,25S84.8,87,71,87z M71,57c-2.8,0-5,2.2-5,5
	c0,2.8,2.2,5,5,5s5-2.2,5-5S73.8,57,71,57z"/>
<g>
	<path class="st13" d="M76.6,71l10,10l-3,2l-8-10L76.6,71z"/>
</g>
<g class="st0">
	<rect x="81" y="96" class="st4" width="18" height="5"/>
</g>
<g class="st0">
	<rect x="94" y="33" class="st4" width="5" height="5"/>
</g>
<g class="st0">
	<rect x="43" y="33" class="st4" width="5" height="5"/>
</g>
<g class="st14">
	<path class="st3" d="M129.6,15.9h-8.8c-2.5,0-2.7-1.2-2.7-2.5v-8h1v8c0,1,0,1.5,1.7,1.5h8.8V15.9z"/>
</g>
<g>
	<path class="st5" d="M151,107H33.6"/>
	<rect x="33.6" y="106.5" class="st3" width="117.4" height="1"/>
</g>
<path class="st10" d="M68.5,57.3L57.4,41.6c-4.9,3.4-8.5,8.2-10.3,14L65.4,62C65.6,60,66.8,58.2,68.5,57.3z"/>
<path class="st10" d="M69.1,57.1c0.5-0.3,1-0.4,1.7-0.5l-6.4-18.3c-1.6,0.5-3,1.1-4.4,1.9L69.1,57.1z"/>
<path class="st3" d="M71,87.5c-14.1,0-25.5-11.4-25.5-25.5S56.9,36.5,71,36.5S96.5,47.9,96.5,62S85.1,87.5,71,87.5z M71,37.5
	c-13.5,0-24.5,11-24.5,24.5s11,24.5,24.5,24.5s24.5-11,24.5-24.5S84.5,37.5,71,37.5z M71,67.5c-3,0-5.5-2.5-5.5-5.5s2.5-5.5,5.5-5.5
	s5.5,2.5,5.5,5.5S74,67.5,71,67.5z M71,57.5c-2.5,0-4.5,2-4.5,4.5s2,4.5,4.5,4.5s4.5-2,4.5-4.5S73.5,57.5,71,57.5z"/>
<g>
	<path class="st5" d="M76.6,69.2l0.6-0.6c0.7-0.7,1.6-0.8,2-0.3l17.1,13.8c0.5,0.5,1.4,2.1-0.3,3.7L93.8,88
		c-1.6,1.6-3.2,0.8-3.7,0.3L76.3,71.2C75.8,70.8,75.9,69.8,76.6,69.2z"/>
	<path class="st3" d="M91.7,89.5c-0.9,0-1.6-0.4-2-0.8L75.9,71.6c-0.6-0.6-0.5-1.9,0.4-2.7l0.6-0.6c0.9-0.9,2.1-1,2.8-0.3l17.1,13.7
		c0.4,0.4,0.9,1.2,0.8,2.1c0,0.8-0.4,1.7-1.1,2.4l-2.3,2.2C93.4,89.1,92.6,89.5,91.7,89.5C91.8,89.5,91.7,89.5,91.7,89.5z
		 M78.5,68.5c-0.3,0-0.6,0.1-0.9,0.4L77,69.5c-0.5,0.5-0.6,1.1-0.3,1.3L90.4,88c0.2,0.2,0.7,0.5,1.3,0.5c0.6,0,1.1-0.3,1.6-0.8
		l2.3-2.3c0.5-0.5,0.8-1.1,0.8-1.6c0-0.7-0.3-1.2-0.5-1.4l-17-13.7C78.8,68.6,78.6,68.5,78.5,68.5z"/>
</g>
</svg>
