<?xml version="1.0" encoding="utf-8"?>
<!-- Generator: Adobe Illustrator 21.0.0, SVG Export Plug-In . SVG Version: 6.00 Build 0)  -->
<svg version="1.1" id="图层_1" xmlns="http://www.w3.org/2000/svg" xmlns:xlink="http://www.w3.org/1999/xlink" x="0px" y="0px"
	 viewBox="0 0 172 108" style="enable-background:new 0 0 172 108;" xml:space="preserve">
<style type="text/css">
	.st0{fill:none;enable-background:new    ;}
	.st1{fill:#FFFFFF;}
	.st2{fill:#B1D0E8;}
	.st3{opacity:0.16;enable-background:new    ;}
	.st4{fill:#CEDAE9;}
	.st5{opacity:0.3;enable-background:new    ;}
	.st6{fill:#B1D0E8;enable-background:new    ;}
	.st7{opacity:0.75;enable-background:new    ;}
	.st8{enable-background:new    ;}
	.st9{fill:#DCECF7;}
	.st10{opacity:0.64;enable-background:new    ;}
	.st11{fill:#E6EFF4;}
</style>
<path class="st0" d="M0,0"/>
<g>
	<path class="st1" d="M100.5,90h16c0.6,0,1,0.4,1,1v6c0,0.6-0.4,1-1,1h-16c-0.6,0-1-0.4-1-1v-6C99.5,90.4,100,90,100.5,90z"/>
	<path class="st2" d="M116.5,98.5h-16c-0.8,0-1.5-0.7-1.5-1.5v-6c0-0.8,0.7-1.5,1.5-1.5h16c0.8,0,1.5,0.7,1.5,1.5v6
		C118,97.8,117.3,98.5,116.5,98.5z M100.5,90.5c-0.3,0-0.5,0.2-0.5,0.5v6c0,0.3,0.2,0.5,0.5,0.5h16c0.3,0,0.5-0.2,0.5-0.5v-6
		c0-0.3-0.2-0.5-0.5-0.5H100.5z"/>
</g>
<g>
	<path class="st1" d="M114.2,82h16c0.6,0,1,0.4,1,1v6c0,0.6-0.4,1-1,1h-16c-0.6,0-1-0.4-1-1v-6C113.2,82.4,113.7,82,114.2,82z"/>
	<path class="st2" d="M130.2,90.5h-16c-0.8,0-1.5-0.7-1.5-1.5v-6c0-0.8,0.7-1.5,1.5-1.5h16c0.8,0,1.5,0.7,1.5,1.5v6
		C131.8,89.8,131.1,90.5,130.2,90.5z M114.2,82.5c-0.3,0-0.5,0.2-0.5,0.5v6c0,0.3,0.2,0.5,0.5,0.5h16c0.3,0,0.5-0.2,0.5-0.5v-6
		c0-0.3-0.2-0.5-0.5-0.5H114.2z"/>
</g>
<g>
	<path class="st1" d="M103.2,73.9h16c0.6,0,1,0.4,1,1v6c0,0.6-0.4,1-1,1h-16c-0.6,0-1-0.4-1-1v-6C102.2,74.4,102.7,73.9,103.2,73.9z
		"/>
	<path class="st2" d="M119.2,82.5h-16c-0.8,0-1.5-0.7-1.5-1.5v-6c0-0.8,0.7-1.5,1.5-1.5h16c0.8,0,1.5,0.7,1.5,1.5v6
		C120.7,81.8,120,82.5,119.2,82.5z M103.2,74.5c-0.3,0-0.5,0.2-0.5,0.5v6c0,0.3,0.2,0.5,0.5,0.5h16c0.3,0,0.5-0.2,0.5-0.5v-6
		c0-0.3-0.2-0.5-0.5-0.5H103.2z"/>
</g>
<g>
	<path class="st1" d="M118,90h16c0.6,0,1,0.4,1,1v6c0,0.6-0.4,1-1,1h-16c-0.6,0-1-0.4-1-1v-6C117,90.4,117.4,90,118,90z"/>
	<path class="st2" d="M134,98.5h-16c-0.8,0-1.5-0.7-1.5-1.5v-6c0-0.8,0.7-1.5,1.5-1.5h16c0.8,0,1.5,0.7,1.5,1.5v6
		C135.5,97.8,134.8,98.5,134,98.5z M118,90.5c-0.3,0-0.5,0.2-0.5,0.5v6c0,0.3,0.2,0.5,0.5,0.5h16c0.3,0,0.5-0.2,0.5-0.5v-6
		c0-0.3-0.2-0.5-0.5-0.5H118z"/>
</g>
<g>
	<path class="st1" d="M110,98h16c0.6,0,1,0.4,1,1v6c0,0.6-0.4,1-1,1h-16c-0.6,0-1-0.4-1-1v-6C109,98.4,109.4,98,110,98z"/>
	<path class="st2" d="M126,106.5h-16c-0.8,0-1.5-0.7-1.5-1.5v-6c0-0.8,0.7-1.5,1.5-1.5h16c0.8,0,1.5,0.7,1.5,1.5v6
		C127.5,105.8,126.8,106.5,126,106.5z M110,98.5c-0.3,0-0.5,0.2-0.5,0.5v6c0,0.3,0.2,0.5,0.5,0.5h16c0.3,0,0.5-0.2,0.5-0.5v-6
		c0-0.3-0.2-0.5-0.5-0.5H110z"/>
</g>
<g>
	<path class="st1" d="M93,98h16c0.6,0,1,0.4,1,1v6c0,0.6-0.4,1-1,1H93c-0.6,0-1-0.4-1-1v-6C92,98.4,92.4,98,93,98z"/>
	<path class="st2" d="M109,106.5H93c-0.8,0-1.5-0.7-1.5-1.5v-6c0-0.8,0.7-1.5,1.5-1.5h16c0.8,0,1.5,0.7,1.5,1.5v6
		C110.5,105.8,109.8,106.5,109,106.5z M93,98.5c-0.3,0-0.5,0.2-0.5,0.5v6c0,0.3,0.2,0.5,0.5,0.5h16c0.3,0,0.5-0.2,0.5-0.5v-6
		c0-0.3-0.2-0.5-0.5-0.5H93z"/>
</g>
<g>
	<path class="st1" d="M143,90h-15"/>
	<rect x="128" y="89.5" class="st2" width="15" height="1"/>
</g>
<g>
	<path class="st1" d="M29.5,106H11.6"/>
	<rect x="11.6" y="105.5" class="st2" width="17.9" height="1"/>
</g>
<g>
	<path class="st1" d="M161,106h-6.4"/>
	<rect x="154.6" y="105.5" class="st2" width="6.4" height="1"/>
</g>
<g>
	<path class="st1" d="M43.5,49.9h65c1.2,0,2.2,0,2.2,1.2l-8.8,52.7c0,1.2-1,2.2-2.2,2.2H52.3c-1.2,0-2.2-1-2.2-2.2l-8.8-52.7
		C41.3,49.9,42.3,49.9,43.5,49.9z"/>
	<path class="st2" d="M98.5,106.5h-4v-1h4V106.5z M92.5,106.5h-4v-1h4V106.5z M86.5,106.5h-4v-1h4V106.5z M80.5,106.5h-4v-1h4V106.5
		z M74.5,106.5h-4v-1h4V106.5z M68.5,106.5h-4v-1h4V106.5z M62.5,106.5h-4v-1h4V106.5z M56.5,106.5h-4v-1h4V106.5z M100.7,106.3
		l-0.4-0.9c0.7-0.2,1.1-0.9,1.1-1.6l0.2-1.4l1,0.2l-0.2,1.3C102.4,104.9,101.7,105.9,100.7,106.3z M50.3,105.7
		c-0.5-0.5-0.8-1.2-0.8-1.9l-0.4-2.2l1-0.2l0.4,2.3c0,0.5,0.2,0.9,0.5,1.3L50.3,105.7z M103,100.6l-1-0.2l0.7-3.9l1,0.2L103,100.6z
		 M48.9,99.6l-0.7-3.9l1-0.2l0.7,3.9L48.9,99.6z M103.9,94.7l-1-0.2l0.7-3.9l1,0.2L103.9,94.7z M47.9,93.7l-0.7-3.9l1-0.2l0.7,3.9
		L47.9,93.7z M104.9,88.7l-1-0.2l0.7-3.9l1,0.2L104.9,88.7z M46.9,87.8l-0.7-3.9l1-0.2l0.7,3.9L46.9,87.8z M105.9,82.8l-1-0.2
		l0.7-3.9l1,0.2L105.9,82.8z M45.9,81.9L45.2,78l1-0.2l0.7,3.9L45.9,81.9z M106.9,76.9l-1-0.2l0.7-3.9l1,0.2L106.9,76.9z M44.9,76
		l-0.6-4l1-0.2l0.7,3.9L44.9,76z M107.9,71l-1-0.2l0.7-3.9l1,0.2L107.9,71z M43.9,70l-0.7-3.9l1-0.2l0.7,3.9L43.9,70z M108.9,65.1
		l-1-0.2l0.7-3.9l1,0.2L108.9,65.1z M43,64.1l-0.7-3.9l1-0.2l0.7,3.9L43,64.1z M109.9,59.2l-1-0.2l0.7-3.9l1,0.2L109.9,59.2z
		 M42,58.2l-0.7-3.9l1-0.2L43,58L42,58.2z M110.9,53.2l-1-0.2l0.3-2.1c0-0.4-0.1-0.5-0.8-0.6l0.1-1c0.4,0,1.7,0.2,1.7,1.7
		L110.9,53.2z M41,52.3l-0.2-1.1c0-1.8,1.5-1.8,2.6-1.8l0.1,1c-1.5,0-1.7,0.1-1.7,0.7l0.2,1L41,52.3z M107.5,50.4h-4v-1h4V50.4z
		 M101.5,50.4h-4v-1h4V50.4z M95.5,50.4h-4v-1h4V50.4z M89.5,50.4h-4v-1h4V50.4z M83.5,50.4h-4v-1h4V50.4z M77.5,50.4h-4v-1h4V50.4z
		 M71.5,50.4h-4v-1h4V50.4z M65.5,50.4h-4v-1h4V50.4z M59.5,50.4h-4v-1h4V50.4z M53.5,50.4h-4v-1h4V50.4z M47.5,50.4h-4v-1h4V50.4z"
		/>
</g>
<g class="st3">
	<path class="st4" d="M42.8,57l-1.1-6h69l-1.6,6H44"/>
</g>
<g>
	<path class="st1" d="M152,106H34.6"/>
	<rect x="34.6" y="105.5" class="st2" width="117.4" height="1"/>
</g>
<g>
	<path class="st1" d="M40,39h72c1.1,0,2,0.9,2,2v8c0,1.1-0.9,2-2,2H40c-1.1,0-2-0.9-2-2v-8C38,39.9,38.9,39,40,39z"/>
	<path class="st2" d="M112,51.5H40c-1.4,0-2.5-1.1-2.5-2.5v-8c0-1.4,1.1-2.5,2.5-2.5h72c1.4,0,2.5,1.1,2.5,2.5v8
		C114.5,50.4,113.4,51.5,112,51.5z M40,39.5c-0.8,0-1.5,0.7-1.5,1.5v8c0,0.8,0.7,1.5,1.5,1.5h72c0.8,0,1.5-0.7,1.5-1.5v-8
		c0-0.8-0.7-1.5-1.5-1.5H40z"/>
</g>
<g>
	<path class="st1" d="M33.7,18.9l-1.2-3.3c-0.3-0.9,0.2-1.9,1.1-2.2L61.4,4c0.9-0.3,2,0.2,2.3,1.1l1.2,3.3"/>
	<path class="st2" d="M33.3,19.1l-1.2-3.3c-0.2-0.6-0.2-1.2,0.1-1.7c0.3-0.6,0.7-1,1.3-1.2l27.8-9.4c1.2-0.4,2.5,0.2,2.9,1.4
		l1.2,3.3l-0.9,0.3l-1.2-3.3c-0.2-0.7-1-1-1.7-0.8l-27.8,9.4c-0.3,0.1-0.6,0.3-0.8,0.7c-0.1,0.3-0.2,0.6-0.1,1l1.2,3.3L33.3,19.1z"
		/>
</g>
<path class="st2" d="M131.8,39.8c-1.1-0.2-2.4-0.5-3.9-0.9l0.2-1c1.5,0.3,2.8,0.6,3.9,0.9L131.8,39.8z"/>
<path class="st2" d="M125.9,38.5c-1.3-0.3-2.6-0.6-3.9-1l0.3-1c1.3,0.3,2.6,0.7,3.9,1L125.9,38.5z"/>
<path class="st2" d="M120,37c-1.4-0.4-2.7-0.8-3.9-1.1l0.3-1c1.1,0.4,2.4,0.7,3.8,1.1L120,37z"/>
<path class="st2" d="M114.3,35.2c-0.3-0.1-0.5-0.2-0.8-0.3c-0.9-0.3-1.9-0.8-2.9-1.3l0.4-0.9c1,0.5,2,0.9,2.9,1.3
	c0.2,0.1,0.5,0.2,0.8,0.3L114.3,35.2z"/>
<path class="st2" d="M108.7,32.7c-0.7-0.4-1.3-0.7-1.9-1.1c-0.4,0.1-0.8,0.1-1.3,0.2l-0.1-1h0.1c-0.1-0.1-0.2-0.1-0.3-0.2l0.6-0.8
	c0.4,0.3,0.8,0.5,1.2,0.8c0.8-0.2,1.6-0.3,2.2-0.6l0.3,0.9c-0.4,0.1-0.8,0.3-1.3,0.4c0.3,0.2,0.6,0.3,0.9,0.5L108.7,32.7z"/>
<path class="st2" d="M102.7,32c-1,0-2.1-0.1-3.2-0.3l0.2-1c1.3,0.2,2.6,0.3,3.9,0.2v1C103.3,32,103,32,102.7,32z"/>
<path class="st2" d="M97.5,31.4c-1.3-0.3-2.6-0.7-3.9-1.2l0.4-0.9c1.3,0.5,2.5,0.9,3.8,1.2L97.5,31.4z"/>
<path class="st2" d="M111.5,30l-0.6-0.8c0.6-0.4,0.9-0.9,0.9-1.4c0-0.4-0.2-0.9-0.6-1.3l0.8-0.6c0.5,0.6,0.8,1.3,0.8,2
	C112.8,28.4,112.6,29.2,111.5,30z"/>
<path class="st2" d="M91.7,29.4c-1.2-0.5-2.4-1.2-3.6-1.8l0.5-0.9c1.2,0.7,2.4,1.3,3.5,1.8L91.7,29.4z"/>
<path class="st2" d="M103.7,29.3c-1.3-1.1-2.2-2.2-2.7-3.2l0.9-0.4c0.4,0.9,1.2,1.8,2.4,2.9L103.7,29.3z"/>
<path class="st2" d="M86.4,26.5c-1.1-0.7-2.2-1.5-3.3-2.3l0.6-0.8c1.1,0.8,2.2,1.5,3.3,2.2L86.4,26.5z"/>
<path class="st2" d="M109.8,25.4c-1.1-0.7-2.3-1.3-3.5-1.6l0.3-1c1.3,0.4,2.5,1,3.7,1.7L109.8,25.4z"/>
<path class="st2" d="M101.6,24.1l-1-0.2c0.1-0.3,0.2-0.6,0.3-0.9c0.4-0.7,1.7-0.8,2.4-0.8c0.4,0,0.8,0,1.2,0.1l-0.1,1
	c-0.4-0.1-0.7-0.1-1.1-0.1l0,0c-1,0-1.4,0.2-1.5,0.3C101.7,23.7,101.7,23.9,101.6,24.1z"/>
<path class="st2" d="M81.4,23c-1.9-1.5-3.1-2.6-3.1-2.6l0.7-0.7c0,0,1.1,1.1,3,2.6L81.4,23z"/>
<g class="st5">
	<rect x="43.5" y="43.4" class="st2" width="65" height="2"/>
</g>
<path class="st6" d="M0,0"/>
<g class="st7">
	<path class="st2" d="M144,50.1c-0.6,0.1-1.3,0-1.8-0.1c-3.3-0.8-7.5-1.8-7.6-7.5v-0.2l0.1-0.1c0,0,3.8-4.4,9.3-2.8
		c2.8,0.8,3.3,2.4,3.7,3.9c0.5,1.5,0.8,2.6,3.6,2.9l1.4,0.2l-1.2,0.8C151.3,47.2,147.3,49.8,144,50.1z M135.5,42.7
		c0.2,4.7,3.6,5.6,6.9,6.3c2.3,0.5,5.7-1.1,7.5-2.1c-2.2-0.6-2.7-2.1-3.1-3.4c-0.4-1.3-0.8-2.6-3.1-3.2
		C139.3,39,136.2,42,135.5,42.7z"/>
</g>
<g class="st8">
	<path class="st9" d="M147.4,47.4c-11.2-0.3-11.2-4.7-11.2-4.9l1-0.1h-0.5l0.5-0.1c0,0,0.8,3.8,11,4.1L147.4,47.4z"/>
</g>
<g class="st8">
	<rect x="138.1" y="43" transform="matrix(0.7822 -0.623 0.623 0.7822 3.4516 96.9223)" class="st9" width="4.5" height="1"/>
</g>
<g class="st8">
	<rect x="141.3" y="44.3" transform="matrix(0.8717 -0.49 0.49 0.8717 -3.5462 76.0863)" class="st9" width="4.5" height="1"/>
</g>
<g class="st10">
	<path class="st2" d="M9.8,92.2v-1.4c0-0.3,0-6.8,2.7-9.4c2.5-2.4,5.6-5.3,10.4-2.3l0.2,0.1l0.1,0.2c0,0.1,1.6,5.6-2.7,9.3
		c-2.2,1.9-3.8,1.4-5.3,1s-2.7-0.7-4.4,1.4L9.8,92.2z M18.9,78.8c-2.3,0-4.1,1.7-5.8,3.3c-1.7,1.6-2.2,5.4-2.3,7.4
		c1.8-1.5,3.2-1.1,4.5-0.8c1.3,0.4,2.6,0.7,4.4-0.8c3.4-2.9,2.7-7.2,2.5-8.1C21,79.1,19.9,78.8,18.9,78.8z"/>
</g>
<g class="st8">
	<path class="st9" d="M12.6,87.9h-1.2c6.1-9.4,10.1-7.5,10.3-7.4l-0.4,0.9C21.3,81.3,18.5,79.6,12.6,87.9z"/>
</g>
<g class="st8">
	<rect x="18.3" y="81.4" transform="matrix(0.9834 -0.1813 0.1813 0.9834 -14.8542 4.7959)" class="st9" width="1" height="4.5"/>
</g>
<g class="st8">
	
		<rect x="15.5" y="83.1" transform="matrix(0.9998 -2.172847e-02 2.172847e-02 0.9998 -1.8508 0.3678)" class="st9" width="1" height="4.5"/>
</g>
<g>
	<path class="st1" d="M18.8,23.9L80.3,2.8c2.1-0.7,4.4,0.4,5.1,2.5l2.6,7.6L19,36.6L16.3,29C15.6,26.9,16.7,24.7,18.8,23.9z"/>
	<path class="st2" d="M18.6,37.2l-2.8-8c-0.8-2.3,0.4-4.9,2.8-5.7L80.1,2.3c2.3-0.8,4.9,0.4,5.7,2.8l2.8,8L18.6,37.2z M19,24.4
		c-1.8,0.6-2.8,2.6-2.2,4.4l2.4,7.1l68.1-23.4l-2.4-7.1c-0.6-1.8-2.6-2.8-4.4-2.2L19,24.4z"/>
</g>
<g>
	<polygon class="st11" points="90,78.9 80.5,78.9 71.4,63 80.9,63 	"/>
</g>
<g>
	<polygon class="st11" points="65.2,88.6 60.6,80.3 70.2,64.6 74.8,72.9 	"/>
</g>
<g>
	<polygon class="st11" points="67.7,89.1 72.4,80.9 90.7,80.9 86,89.1 	"/>
</g>
</svg>
