<?xml version="1.0" encoding="utf-8"?>
<!-- Generator: Adobe Illustrator 21.0.0, SVG Export Plug-In . SVG Version: 6.00 Build 0)  -->
<svg version="1.1" id="图层_1" xmlns="http://www.w3.org/2000/svg" xmlns:xlink="http://www.w3.org/1999/xlink" x="0px" y="0px"
	 viewBox="0 0 172 108" style="enable-background:new 0 0 172 108;" xml:space="preserve">
<style type="text/css">
	.st0{fill:none;enable-background:new    ;}
	.st1{opacity:0.3;enable-background:new    ;}
	.st2{fill:#D9E3F2;}
	.st3{opacity:0.7;enable-background:new    ;}
	.st4{fill:#B1D0E8;}
	.st5{fill:#B5C7DF;}
	.st6{opacity:0.5;}
	.st7{opacity:0.6;enable-background:new    ;}
	.st8{fill:#FFFFFF;}
	.st9{fill:#F8FBFE;}
	.st10{fill:#EDF1F6;}
	.st11{fill:#E9EDF2;}
</style>
<path class="st0" d="z"/>
<g class="st1">
	<path class="st2" d="M153.5,37.2l13.7-5c0,0,2.5,14-1.2,11.2C162.2,40.6,153.5,37.2,153.5,37.2z"/>
</g>
<g class="st3">
	<path class="st4" d="M164,41.5l-16.8-1.4l15.4-12.6L164,41.5z M149.8,39.3l13.1,1.1l-1.1-10.9L149.8,39.3z"/>
</g>
<g class="st3">
	<path class="st4" d="M11.8,90.4l-6-10.1l19.4,0.4L11.8,90.4z M7.6,81.3l4.5,7.6l10.1-7.3L7.6,81.3z"/>
</g>
<g class="st1">
	<path class="st5" d="M16.7,84.4L4.8,89.2l8.5,6.6L16.7,84.4z"/>
</g>
<g class="st6">
	<path class="st4" d="M5.5,63h-1c0-17.6,14.3-32,31.8-32c1.2,0,2.4,0.1,3.6,0.2c4.4-18.1,20.4-30.7,39-30.7c13.5,0,26,6.8,33.5,18.1
		l-0.8,0.6c-7.3-11-19.5-17.6-32.7-17.6C60.6,1.5,45,14,40.8,31.9l-0.1,0.4l-0.4-0.1c-1.3-0.2-2.7-0.3-3.9-0.3
		C19.3,32,5.5,45.9,5.5,63z"/>
</g>
<g>
	<path class="st4" d="M126.9,107.5v-1l4,0v1L126.9,107.5z M124.9,107.5l-4,0l0-1l4,0V107.5z M118.8,107.5l-4,0v-1l4,0V107.5z
		 M132.9,107.5l0-1c1.8,0,3.2,0,4,0l0,1C136.1,107.5,134.7,107.5,132.9,107.5z M112.8,107.5l-4,0v-1l4,0V107.5z M106.8,107.5l-4,0
		v-1l4,0V107.5z M100.8,107.5V107V107.5z M100.8,107.5l-3.9,0l0-1l3.9,0l0.1,0.5L100.8,107.5z M94.8,107.5V107V107.5z M94.8,107.5
		l-4,0l0-1l4,0l0,0.5L94.8,107.5z M88.8,107.5l-4,0l0-1l4,0V107.5z M82.8,107.5l-4,0l0-1l4,0L82.8,107.5z M76.8,107.5l-4,0l0-1l4,0
		L76.8,107.5z M138,107.5l0-1c1.3,0,2.6-0.1,3.9-0.3l0.1,1C140.8,107.4,139.4,107.5,138,107.5z M70.8,107.5l-4,0v-1l4,0L70.8,107.5z
		 M64.8,107.5l-4,0v-1l4,0L64.8,107.5z M58.8,107.5l-4,0l0-1l4,0V107.5z M52.8,107.5H52v-1h0.8V107.5z M144.1,106.8l-0.2-1
		c1.3-0.3,2.5-0.6,3.8-1.1l0.4,0.9C146.7,106.1,145.4,106.5,144.1,106.8z M149.9,104.9l-0.4-0.9c1.2-0.6,2.3-1.2,3.4-1.9l0.6,0.8
		C152.3,103.6,151.1,104.3,149.9,104.9z M155.1,101.7l-0.6-0.8c1-0.8,2-1.7,2.9-2.7l0.7,0.7C157.1,99.9,156.1,100.8,155.1,101.7z
		 M159.3,97.3l-0.8-0.6c0.8-1,1.5-2.1,2.2-3.3l0.9,0.5C160.9,95.1,160.2,96.3,159.3,97.3z M162.5,92.1l-0.9-0.4
		c0.6-1.2,1-2.4,1.4-3.7l1,0.3C163.6,89.6,163.1,90.9,162.5,92.1z M164.6,86.4l-1-0.2c0.3-1.3,0.5-2.6,0.7-3.9l1,0.1
		C165.1,83.7,164.9,85.1,164.6,86.4z M165.4,80.4l-1-0.1c0-0.6,0.1-1.3,0.1-1.9c0-0.7,0-1.3-0.1-2l1-0.1c0,0.7,0.1,1.4,0.1,2.1
		C165.5,79,165.5,79.7,165.4,80.4z M164.2,74.4c-0.2-1.3-0.4-2.6-0.8-3.8l1-0.3c0.4,1.3,0.6,2.6,0.8,4L164.2,74.4z M162.9,68.7
		c-0.4-1.2-1-2.4-1.5-3.6l0.9-0.5c0.6,1.2,1.2,2.5,1.6,3.7L162.9,68.7z M160.4,63.4c-0.7-1.1-1.4-2.2-2.2-3.2l0.8-0.6
		c0.8,1.1,1.6,2.2,2.3,3.3L160.4,63.4z M156.8,58.6c-0.9-1-1.8-1.9-2.8-2.7l0.6-0.8c1,0.9,2,1.8,2.9,2.8L156.8,58.6z M152.4,54.7
		c-1.1-0.8-2.2-1.5-3.3-2.1l0.5-0.9c1.2,0.6,2.3,1.4,3.4,2.2L152.4,54.7z M147.4,51.8c-1.2-0.5-2.4-1-3.7-1.4l0.3-1
		c1.3,0.4,2.6,0.9,3.8,1.4L147.4,51.8z M141.8,49.9c-1.3-0.3-2.6-0.5-3.9-0.6l0.1-1c1.3,0.1,2.7,0.3,4,0.6L141.8,49.9z M131.8,49.4
		l-0.2-0.6l0.5-0.2l0-0.3c1.4-0.1,2.6-0.2,3.8-0.2l0,1c-1.2,0-2.4,0-3.7,0.2L131.8,49.4z M130.9,47c-0.5-1.2-1.1-2.4-1.8-3.5
		l0.9-0.5c0.7,1.2,1.3,2.4,1.8,3.6L130.9,47z M128,41.8c-0.7-1.1-1.5-2.2-2.3-3.2l0.8-0.6c0.8,1,1.6,2.1,2.4,3.3L128,41.8z
		 M124.4,37.1c-0.9-1-1.8-1.9-2.8-2.8l0.7-0.7c1,0.9,2,1.9,2.9,2.9L124.4,37.1z M120.2,33c-1-0.8-2.1-1.6-3.2-2.3l0.5-0.8
		c1.1,0.7,2.2,1.5,3.3,2.4L120.2,33z M72.7,32.8l-0.6-0.8c1.1-0.8,2.2-1.6,3.3-2.4l0.5,0.8C74.8,31.2,73.7,32,72.7,32.8z
		 M115.3,29.7c-1.1-0.7-2.3-1.3-3.5-1.8l0.4-0.9c1.2,0.6,2.4,1.2,3.6,1.9L115.3,29.7z M77.6,29.5l-0.5-0.9c1.2-0.7,2.4-1.3,3.6-1.8
		l0.4,0.9C79.9,28.3,78.7,28.9,77.6,29.5z M110,27.1c-1.2-0.5-2.5-0.9-3.8-1.2l0.3-1c1.3,0.4,2.6,0.8,3.8,1.3L110,27.1z M82.9,27
		l-0.4-0.9c1.3-0.5,2.6-0.9,3.9-1.2l0.3,1C85.4,26.1,84.2,26.5,82.9,27z M104.3,25.4c-1.3-0.3-2.6-0.5-3.9-0.6l0.1-1
		c1.3,0.1,2.7,0.4,4,0.6L104.3,25.4z M88.6,25.3l-0.2-1c1.3-0.3,2.7-0.5,4-0.6l0.1,1C91.2,24.9,89.9,25.1,88.6,25.3z M98.4,24.6
		c-1.3-0.1-2.6-0.1-3.9,0l0-1c1.3-0.1,2.7-0.1,4,0L98.4,24.6z"/>
</g>
<g class="st7">
	<path class="st8" d="M55,44h56c2.2,0,4,1.8,4,4v59H51V48C51,45.8,52.8,44,55,44z"/>
	<path class="st4" d="M115.5,107.5h-3.2v-1h2.2v-0.8h1V107.5z M110.3,107.5h-4v-1h4V107.5z M104.3,107.5h-4v-1h4V107.5z M98.3,107.5
		h-4v-1h4V107.5z M92.3,107.5h-4v-1h4V107.5z M86.3,107.5h-4v-1h4V107.5z M80.3,107.5h-4v-1h4V107.5z M74.3,107.5h-4v-1h4V107.5z
		 M68.3,107.5h-4v-1h4V107.5z M62.3,107.5h-4v-1h4V107.5z M56.3,107.5h-4v-1h4V107.5z M51.5,106.3h-1v-4h1V106.3z M115.5,103.7h-1
		v-4h1V103.7z M51.5,100.3h-1v-4h1V100.3z M115.5,97.7h-1v-4h1V97.7z M51.5,94.3h-1v-4h1V94.3z M115.5,91.7h-1v-4h1V91.7z
		 M51.5,88.3h-1v-4h1V88.3z M115.5,85.7h-1v-4h1V85.7z M51.5,82.3h-1v-4h1V82.3z M115.5,79.7h-1v-4h1V79.7z M51.5,76.3h-1v-4h1V76.3
		z M115.5,73.7h-1v-4h1V73.7z M51.5,70.3h-1v-4h1V70.3z M115.5,67.7h-1v-4h1V67.7z M51.5,64.3h-1v-4h1V64.3z M115.5,61.7h-1v-4h1
		V61.7z M51.5,58.3h-1v-4h1V58.3z M115.5,55.7h-1v-4h1V55.7z M51.5,52.3h-1v-4h1V52.3z M115.5,49.7h-1V48c0-0.7-0.2-1.3-0.6-1.9
		l0.8-0.5c0.5,0.7,0.7,1.6,0.7,2.4V49.7z M51.8,46.5l-0.9-0.4c0.6-1.4,1.9-2.4,3.5-2.6l0.1,1C53.3,44.7,52.3,45.5,51.8,46.5z
		 M112.7,44.9c-0.5-0.3-1.1-0.4-1.7-0.4h-2v-1h2c0.8,0,1.5,0.2,2.2,0.6L112.7,44.9z M107,44.5h-4v-1h4V44.5z M101,44.5h-4v-1h4V44.5
		z M95,44.5h-4v-1h4V44.5z M89,44.5h-4v-1h4V44.5z M83,44.5h-4v-1h4V44.5z M77,44.5h-4v-1h4V44.5z M71,44.5h-4v-1h4V44.5z M65,44.5
		h-4v-1h4V44.5z M59,44.5h-4v-1h4V44.5z"/>
</g>
<g>
	<path class="st8" d="M47,35h56c2.2,0,4,1.8,4,4v68H43V39C43,36.8,44.8,35,47,35z"/>
	<path class="st4" d="M107.5,107.5h-65V39c0-2.5,2-4.5,4.5-4.5h56c2.5,0,4.5,2,4.5,4.5V107.5z M43.5,106.5h63V39
		c0-1.9-1.6-3.5-3.5-3.5H47c-1.9,0-3.5,1.6-3.5,3.5V106.5z"/>
</g>
<path class="st9" d="M74,92.7c-13,0-23.5-10.4-23.5-23.3S61.1,46.2,74,46.2s23.5,10.4,23.5,23.3S87,92.7,74,92.7z M74,64.8
	c-2.6,0-4.7,2.1-4.7,4.7c0,2.6,2.1,4.7,4.7,4.7c2.6,0,4.7-2.1,4.7-4.7C78.8,66.9,76.6,64.8,74,64.8z"/>
<g>
	<path class="st10" d="M80,78.6l8.7,8.7L86,89l-6.9-8.7L80,78.6z"/>
</g>
<g class="st1">
	<rect x="83.5" y="98.9" class="st5" width="17" height="4.7"/>
</g>
<g class="st1">
	<rect x="95.7" y="41.4" class="st5" width="4.7" height="4.6"/>
</g>
<g class="st1">
	<rect x="47.7" y="41.4" class="st5" width="4.7" height="4.6"/>
</g>
<g>
	<path class="st11" d="M72.1,64.8L61.4,49.8c-4.7,3.3-8.2,7.9-10,13.5l17.7,6.1C69.4,67.5,70.5,65.8,72.1,64.8z"/>
</g>
<g>
	<path class="st11" d="M72.5,65c0.5-0.3,1-0.4,1.6-0.5L68,46.7c-1.5,0.5-2.9,1.1-4.3,1.8L72.5,65z"/>
</g>
<path class="st4" d="M74,93.2c-13.2,0-24-10.7-24-23.8s10.8-23.8,24-23.8c13.2,0,24,10.7,24,23.8S87.3,93.2,74,93.2z M74,46.7
	c-12.7,0-23,10.2-23,22.8s10.3,22.8,23,22.8c12.7,0,23-10.2,23-22.8S86.7,46.7,74,46.7z M74,74.6c-2.9,0-5.2-2.3-5.2-5.2
	c0-2.8,2.3-5.2,5.2-5.2c2.9,0,5.2,2.3,5.2,5.2C79.2,72.3,76.9,74.6,74,74.6z M74,65.3c-2.3,0-4.2,1.9-4.2,4.2c0,2.3,1.9,4.2,4.2,4.2
	s4.2-1.9,4.2-4.2C78.2,67.1,76.4,65.3,74,65.3z"/>
<g>
	<path class="st8" d="M27.5,107H9.6"/>
	<rect x="9.6" y="106.5" class="st4" width="17.9" height="1"/>
</g>
<g>
	<path class="st8" d="M159,107h-6.4"/>
	<rect x="152.6" y="106.5" class="st4" width="6.4" height="1"/>
</g>
<g>
	<path class="st8" d="M150,107H32.6"/>
	<rect x="32.6" y="106.5" class="st4" width="117.4" height="1"/>
</g>
<g>
	<path class="st8" d="M79.3,76.1l0.6-0.5c0.6-0.6,1.5-0.7,1.9-0.3l16.1,12.8c0.5,0.4,1.3,2-0.3,3.5l-2.1,2.1c-1.5,1.5-3,0.7-3.5,0.3
		L79,78C78.6,77.6,78.7,76.7,79.3,76.1z"/>
	<path class="st4" d="M93.6,95c-0.8,0-1.6-0.4-1.9-0.7l-13-16c-0.2-0.2-0.4-0.6-0.4-1c0-0.6,0.3-1.1,0.7-1.6h0l0.6-0.5
		c0.8-0.8,2-0.9,2.6-0.3l16.1,12.8c0.4,0.4,0.8,1.1,0.8,2c0,0.8-0.4,1.6-1.1,2.2L95.8,94C95.2,94.7,94.4,95,93.6,95
		C93.6,95,93.6,95,93.6,95z M79.7,76.5c-0.3,0.3-0.4,0.6-0.4,0.9c0,0.1,0,0.3,0.1,0.3l13,16c0.2,0.1,0.6,0.4,1.2,0.4
		c0.5,0,1.1-0.3,1.5-0.7l2.1-2.1c0.5-0.5,0.8-1,0.8-1.5c0-0.6-0.3-1.1-0.5-1.2L81.5,75.7c-0.3-0.3-0.8-0.2-1.3,0.3L79.7,76.5z"/>
</g>
</svg>
