<?xml version="1.0" encoding="utf-8"?>
<!-- Generator: Adobe Illustrator 21.0.0, SVG Export Plug-In . SVG Version: 6.00 Build 0)  -->
<svg version="1.1" id="图层_1" xmlns="http://www.w3.org/2000/svg" xmlns:xlink="http://www.w3.org/1999/xlink" x="0px" y="0px"
	 viewBox="0 0 172 108" style="enable-background:new 0 0 172 108;" xml:space="preserve">
<style type="text/css">
	.st0{fill:#B1D0E8;}
	.st1{fill:#FFFFFF;}
	.st2{fill:#EEF2FA;}
	.st3{fill:none;}
	.st4{fill:#F1F3F7;}
	.st5{fill:#F3F9FE;}
	.st6{opacity:0.16;enable-background:new    ;}
	.st7{fill:#F5F8FC;}
	.st8{opacity:0.3;enable-background:new    ;}
</style>
<g>
	<path class="st0" d="M143.4,83.7l-6,3.5v-7L143.4,83.7z"/>
</g>
<g>
	<circle class="st1" cx="82" cy="8" r="4.5"/>
	<path class="st0" d="M82,13c-2.8,0-5-2.2-5-5s2.2-5,5-5s5,2.2,5,5S84.8,13,82,13z M82,4c-2.2,0-4,1.8-4,4s1.8,4,4,4s4-1.8,4-4
		S84.2,4,82,4z"/>
</g>
<path class="st0" d="M144.2,45.2h-0.7v-1h0.7c1.1,0,1.9-0.4,2.2-1.2l0.9,0.4C146.8,44.6,145.7,45.2,144.2,45.2z M141.5,45.2h-4v-1h4
	V45.2z M135.5,45.2h-4v-1h4V45.2z M129.3,45.2h-4v-1h4V45.2z M123.3,45.2h-4v-1h4V45.2z M117.3,45.2h-4v-1h4V45.2z M147.7,41.3h-1
	v-4h1V41.3z M147.7,35.3h-1v-4h1V35.3z M147.7,29.3h-1v-4h1V29.3z M147.7,23.3h-1v-4h1V23.3z M147.7,17.3h-1v-4h1V17.3z M145,8.9
	c-1-0.3-2.4-0.5-3.9-0.7l0.1-1c1.5,0.2,3,0.5,4,0.7L145,8.9z M139.2,8h-4V7h4V8z M133.2,8h-4V7h4V8z M127,8h-4V7h4V8z M121,8h-4V7h4
	V8z M115,8h-4V7h4V8z M109,8h-4V7h4V8z M103,8h-4V7h4V8z M97,8h-4V7h4V8z M91,8h-4V7h4V8z"/>
<g>
	<path class="st0" d="M160.1,84.2h-1.6v-1h1.6V84.2z M156.5,84.2h-4v-1h4V84.2z M150.4,84.2h-4v-1h4V84.2z M144.4,84.2h-4v-1h4V84.2
		z M138.4,84.2h-4v-1h4V84.2z M132.4,84.2h-3.5c-0.2,0-0.4,0-0.6,0v-1c0.2,0,0.3,0,0.5,0h3.5v1H132.4z M126.3,83.9
		c-1.5-0.5-1.7-1.6-1.7-2.7v-1.1h1v1.1c0,1.1,0.2,1.5,1,1.8L126.3,83.9z M125.6,78h-1v-4h1V78z M124.6,72c-0.1-1.7-0.4-2.2-1.6-2.6
		l0.3-1c1.9,0.5,2.3,1.7,2.4,3.5L124.6,72z M121.1,69.2c-0.3,0-0.7,0-1.1,0h-2.9v-1h2.8c0.4,0,0.8,0,1.2,0V69.2z M115.1,69.2H113v-1
		h2.1V69.2z"/>
</g>
<g>
	<circle class="st2" cx="146.7" cy="8" r="3.5"/>
	<path class="st0" d="M146.7,12c-2.2,0-4-1.8-4-4s1.8-4,4-4s4,1.8,4,4S148.9,12,146.7,12z M146.7,5c-1.7,0-3,1.3-3,3s1.3,3,3,3
		s3-1.3,3-3S148.4,5,146.7,5z"/>
</g>
<g>
	<circle class="st2" cx="146.7" cy="44.2" r="3.5"/>
	<path class="st0" d="M146.7,48.2c-2.2,0-4-1.8-4-4s1.8-4,4-4s4,1.8,4,4S148.9,48.2,146.7,48.2z M146.7,41.2c-1.7,0-3,1.3-3,3
		s1.3,3,3,3s3-1.3,3-3S148.4,41.2,146.7,41.2z"/>
</g>
<path class="st3" d="M0,0"/>
<g>
	<rect x="4" y="106.5" class="st0" width="9" height="1"/>
</g>
<g>
	<rect x="147.6" y="106.5" class="st0" width="17.4" height="1"/>
</g>
<g>
	<rect x="16" y="106.5" class="st0" width="129" height="1"/>
</g>
<g>
	<path class="st1" d="M107,40c-3.1,0-11.9,0-11.9,0c-1.2,0-2.1-0.9-2.1-2.1c0,0,0-7.2,0-10.9 M113,37.3V105c0,1.1-0.9,2-2,2H43
		c-1.1,0-2-0.9-2-2V23c0-1.1,0.9-2,2-2h51.5L113,37.3z"/>
	<path class="st0" d="M111,107.5H43c-1.4,0-2.5-1.1-2.5-2.5V23c0-1.4,1.1-2.5,2.5-2.5h51.7l18.8,16.6V105
		C113.5,106.4,112.4,107.5,111,107.5z M43,21.5c-0.8,0-1.5,0.7-1.5,1.5v82c0,0.8,0.7,1.5,1.5,1.5h68c0.8,0,1.5-0.7,1.5-1.5V37.5
		l-18.2-16H43z M107,40.5H95.1c-1.4,0-2.6-1.2-2.6-2.6V27h1v10.9c0,0.9,0.7,1.6,1.6,1.6H107V40.5z"/>
</g>
<g>
	<path class="st4" d="M55,93h7c2.2,0,4,1.9,4,4.2v9.3H51v-9.3C51,94.9,52.8,93,55,93z"/>
</g>
<g>
	<rect x="48" y="44" class="st5" width="7" height="7"/>
</g>
<g>
	<rect x="60" y="44" class="st5" width="39" height="7"/>
</g>
<g>
	<rect x="60" y="82" class="st5" width="39" height="7"/>
</g>
<g>
	<circle class="st1" cx="153.1" cy="83" r="10"/>
	<path class="st0" d="M153.1,93.5c-5.8,0-10.5-4.7-10.5-10.5s4.7-10.5,10.5-10.5s10.5,4.7,10.5,10.5S158.9,93.5,153.1,93.5z
		 M153.1,73.5c-5.2,0-9.5,4.3-9.5,9.5s4.3,9.5,9.5,9.5s9.5-4.3,9.5-9.5S158.3,73.5,153.1,73.5z"/>
</g>
<g class="st6">
	<circle class="st0" cx="156.1" cy="87" r="10"/>
</g>
<g>
	<path class="st7" d="M50,95l-1-3H35l-1,3H50z"/>
</g>
<g>
	<polygon class="st0" points="158.8,79.8 152.8,87 147.4,83.5 147.7,82.5 152.6,85.8 158.1,79 	"/>
</g>
<g class="st8">
	<rect x="25" y="102" class="st0" width="34" height="2"/>
</g>
<g>
	<rect x="48" y="62" class="st5" width="7" height="7"/>
</g>
<g>
	<rect x="60" y="62" class="st5" width="39" height="7"/>
</g>
<g>
	<path class="st4" d="M51.3,79.4l3.9,13.9c0,0.9-0.7,1.7-1.7,1.7h-15c-0.9,0-1.7-0.7-1.7-1.7l3.9-13.9C37.9,77.6,36,74.5,36,71
		c0-5.5,4.5-10,10-10s10,4.5,10,10C56,74.5,54.1,77.6,51.3,79.4z"/>
</g>
<g>
	<path class="st1" d="M48.3,79.8l3.9,13.9c0,0.9-0.7,1.7-1.7,1.7h-15c-0.9,0-1.7-0.7-1.7-1.7l3.9-13.9C34.9,78,33,74.9,33,71.4
		c0-5.5,4.5-10,10-10s10,4.5,10,10C53,74.9,51.1,78,48.3,79.8z"/>
	<path class="st0" d="M50.5,95.9h-15c-1.2,0-2.2-1-2.2-2.2v-0.1L37.1,80c-2.9-2-4.6-5.2-4.6-8.7c0-5.8,4.7-10.5,10.5-10.5
		s10.5,4.7,10.5,10.5c0,3.5-1.7,6.7-4.6,8.7l3.8,13.7C52.7,94.9,51.7,95.9,50.5,95.9z M34.3,93.8c0,0.6,0.5,1.1,1.2,1.1h15
		c0.6,0,1.1-0.5,1.2-1.1l-4-14.2l0.3-0.2c2.8-1.7,4.5-4.7,4.5-8c0-5.2-4.3-9.5-9.5-9.5s-9.5,4.2-9.5,9.5c0,3.3,1.7,6.3,4.5,8
		l0.3,0.2L34.3,93.8z"/>
</g>
<g>
	<path class="st1" d="M25,95h34c2.2,0,4,1.8,4,4v8H21v-8C21,96.8,22.8,95,25,95z"/>
	<path class="st0" d="M63.5,107.5h-43V99c0-2.5,2-4.5,4.5-4.5h34c2.5,0,4.5,2,4.5,4.5V107.5z M21.5,106.5h41V99
		c0-1.9-1.6-3.5-3.5-3.5H25c-1.9,0-3.5,1.6-3.5,3.5V106.5z"/>
</g>
</svg>
