<?xml version="1.0" encoding="utf-8"?>
<!-- Generator: Adobe Illustrator 21.0.0, SVG Export Plug-In . SVG Version: 6.00 Build 0)  -->
<svg version="1.1" id="图层_1" xmlns="http://www.w3.org/2000/svg" xmlns:xlink="http://www.w3.org/1999/xlink" x="0px" y="0px"
	 viewBox="0 0 180 108" style="enable-background:new 0 0 180 108;" xml:space="preserve">
<style type="text/css">
	.st0{fill:#FFFFFF;}
	.st1{fill:#B1D0E8;}
	.st2{fill:#EEF2FA;}
	.st3{fill:#A1B6D1;}
	.st4{fill:#F1F5FB;}
	.st5{opacity:0.12;enable-background:new    ;}
	.st6{fill:#F0F3F8;}
	.st7{opacity:0.4;enable-background:new    ;}
	.st8{opacity:0.2;enable-background:new    ;}
	.st9{opacity:0.33;enable-background:new    ;}
	.st10{fill:#D3DEEB;}
</style>
<g>
	<path class="st0" d="M17,107h-5"/>
	<rect x="12" y="106.5" class="st1" width="5" height="1"/>
</g>
<g>
	<path class="st0" d="M173,107h-16.4"/>
	<rect x="156.6" y="106.5" class="st1" width="16.4" height="1"/>
</g>
<g>
	<path class="st0" d="M154,107H20"/>
	<rect x="20" y="106.5" class="st1" width="134" height="1"/>
</g>
<g>
	<path class="st1" d="M168,56.5h-1.2v-1h1.2V56.5z M164.8,56.5h-4v-1h4V56.5z M158.7,56.5h-4v-1h4V56.5z M152.7,56.5h-4v-1h4V56.5z
		 M146.7,56.5h-4v-1h4V56.5z M140.7,56.5h-4v-1h4V56.5z M134.7,56.5h-4v-1h4V56.5z M128.7,56.5h-4v-1h4V56.5z M122.7,56.5h-4v-1h4
		V56.5z M116.7,56.5h-4v-1h4V56.5z M110.7,56.5c-1.8,0-3.2-0.4-4.1-1.3l0.7-0.7c0.7,0.7,1.8,1,3.4,1L110.7,56.5z M105.5,53.2
		c0-0.2,0-0.5,0-0.7v-3.4h1v3.4c0,0.2,0,0.3,0,0.5L105.5,53.2z M106.5,47.1h-1v-4h1V47.1z M106.5,41.1h-1l0-4l1,0l0,0.4V41.1z
		 M106.8,35.4l-0.9-0.3c0.6-1.5,1.7-2.3,3.5-2.5l0.1,1C108.1,33.7,107.2,34.2,106.8,35.4z M151.5,33.5h-4v-1h4V33.5z M145.5,33.5h-4
		v-1h4V33.5z M139.5,33.5h-4v-1h4V33.5z M133.5,33.5h-4v-1h4V33.5z M127.5,33.5h-4v-1h4V33.5z M121.5,33.5h-4v-1h4V33.5z
		 M115.4,33.5h-4v-1h4V33.5z M153.6,33.4l-0.1-1c1.7-0.2,2.5-1.1,2.8-1.8l0.9,0.4C156.8,31.8,155.9,33.1,153.6,33.4z M157.5,28.9h-1
		v-4h1V28.9z M157.5,22.9h-1v-4h1V22.9z M157.5,16.9h-1v-4h1V16.9z M157.5,10.9h-1V9.8c0-1.1-0.2-2-0.5-2.6l0.9-0.4
		c0.4,0.8,0.6,1.8,0.6,3V10.9z M154.9,6c-0.9-0.5-2-0.5-2.9-0.5h-0.8v-1h0.8c1,0,2.3,0,3.4,0.6L154.9,6z M149.2,5.5h-4v-1h4V5.5z
		 M143.2,5.5h-4v-1h4V5.5z M137.2,5.5h-4v-1h4V5.5z M131.1,5.5h-4v-1h4V5.5z M125.1,5.5h-4v-1h4V5.5z M119.1,5.5h-4v-1h4V5.5z
		 M113.1,5.5h-4v-1h4V5.5z M107.1,5.5h-4v-1h4V5.5z M101.1,5.5h-4v-1h4V5.5z M95.1,5.5h-4v-1h4V5.5z M89.1,5.5h-4v-1h4V5.5z M83,5.5
		h-4v-1h4V5.5z"/>
</g>
<g>
	<circle class="st0" cx="75.5" cy="5.5" r="4.5"/>
	<path class="st1" d="M75.5,10.5c-2.8,0-5-2.2-5-5s2.2-5,5-5s5,2.2,5,5S78.3,10.5,75.5,10.5z M75.5,1.5c-2.2,0-4,1.8-4,4s1.8,4,4,4
		s4-1.8,4-4S77.7,1.5,75.5,1.5z"/>
</g>
<g>
	<circle class="st0" cx="174.5" cy="55.8" r="4.5"/>
	<path class="st1" d="M174.5,60.8c-2.8,0-5-2.2-5-5s2.2-5,5-5s5,2.2,5,5S177.3,60.8,174.5,60.8z M174.5,51.8c-2.2,0-4,1.8-4,4
		c0,2.2,1.8,4,4,4s4-1.8,4-4C178.5,53.6,176.7,51.8,174.5,51.8z"/>
</g>
<g>
	<circle class="st2" cx="103.5" cy="34.5" r="3.5"/>
	<path class="st3" d="M103.5,38.5c-2.2,0-4-1.8-4-4s1.8-4,4-4s4,1.8,4,4S105.7,38.5,103.5,38.5z M103.5,31.5c-1.7,0-3,1.3-3,3
		s1.3,3,3,3s3-1.3,3-3S105.2,31.5,103.5,31.5z"/>
</g>
<g>
	<circle class="st2" cx="66.5" cy="58.5" r="3.5"/>
	<path class="st3" d="M66.5,62.5c-2.2,0-4-1.8-4-4s1.8-4,4-4s4,1.8,4,4S68.7,62.5,66.5,62.5z M66.5,55.5c-1.7,0-3,1.3-3,3s1.3,3,3,3
		s3-1.3,3-3S68.2,55.5,66.5,55.5z"/>
</g>
<g>
	<circle class="st2" cx="118.5" cy="5.5" r="3.5"/>
	<path class="st1" d="M118.5,9.5c-2.2,0-4-1.8-4-4s1.8-4,4-4s4,1.8,4,4S120.7,9.5,118.5,9.5z M118.5,2.5c-1.7,0-3,1.3-3,3s1.3,3,3,3
		s3-1.3,3-3S120.2,2.5,118.5,2.5z"/>
</g>
<g>
	<circle class="st2" cx="156.5" cy="6.5" r="3.5"/>
	<path class="st1" d="M156.5,10.5c-2.2,0-4-1.8-4-4s1.8-4,4-4s4,1.8,4,4S158.7,10.5,156.5,10.5z M156.5,3.5c-1.7,0-3,1.3-3,3
		s1.3,3,3,3s3-1.3,3-3S158.2,3.5,156.5,3.5z"/>
</g>
<g>
	<circle class="st2" cx="157" cy="31.9" r="3.5"/>
	<path class="st1" d="M157,35.9c-2.2,0-4-1.8-4-4s1.8-4,4-4s4,1.8,4,4S159.2,35.9,157,35.9z M157,28.9c-1.7,0-3,1.3-3,3
		c0,1.7,1.3,3,3,3s3-1.3,3-3C160,30.2,158.7,28.9,157,28.9z"/>
</g>
<g>
	<path class="st1" d="M170,55.8l-6,3.5v-7L170,55.8z"/>
</g>
<g>
	<path class="st1" d="M157,28.4l-3.5-6h7L157,28.4z"/>
</g>
<g>
	<path class="st1" d="M-2.4,89.5L-3.1,89l0.4-0.5c0.1,0,1-0.2,2.3-0.5l0.2,1C-1.4,89.3-2.4,89.5-2.4,89.5z M1.8,88.4l-0.3-1
		c1.4-0.4,2.7-0.8,3.8-1.2l0.3,0.9C4.6,87.7,3.3,88.1,1.8,88.4z M7.6,86.5l-0.4-0.9c0.4-0.2,0.8-0.4,1.1-0.5c0.6-0.3,1.3-0.9,2-1.6
		l0.7,0.7C10.2,85,9.5,85.6,8.8,86C8.4,86.2,8,86.4,7.6,86.5z M16.2,84.4c-0.6,0-1.3,0-1.8-0.1l0.1-1c0.8,0.1,1.8,0.1,2.8,0.1
		c0.3,0,0.7-0.1,1-0.1l0.2,1c-0.4,0.1-0.7,0.1-1.1,0.1C17,84.4,16.6,84.4,16.2,84.4z M12.3,83.8c-1.9-0.7-2.8-1.9-3.2-2.8l0.9-0.4
		c0.5,1,1.4,1.8,2.7,2.3L12.3,83.8z M20.5,83.7l-0.4-0.9c1.1-0.4,2.2-1.1,3.4-1.9l0.6,0.8C22.9,82.6,21.7,83.2,20.5,83.7z
		 M12.4,82.7L11.6,82c0.9-1.1,1.6-2.2,2.1-3.3l0.9,0.4C14.1,80.3,13.3,81.5,12.4,82.7z M25.7,80.4L25,79.7c0.9-0.8,1.8-1.8,2.7-2.8
		l0.8,0.6C27.6,78.6,26.7,79.6,25.7,80.4z M9.6,78.8l-1,0c0-0.8,0.2-1.5,0.6-2.1c0.3-0.4,0.8-1.1,1.5-1.6l0.7,0.8
		c-0.6,0.5-1.1,1.1-1.4,1.5C9.8,77.7,9.6,78.3,9.6,78.8z M15.2,77.2l-1-0.2c0-0.2,0.1-0.4,0.1-0.6c0-0.5-0.1-0.9-0.4-1.1
		c-0.2-0.2-0.5-0.3-0.7-0.3c-0.1,0-0.2,0-0.3,0l-0.2-1c0.2-0.1,0.4-0.1,0.6-0.1c0.5,0,1,0.2,1.4,0.6c0.4,0.4,0.7,1.1,0.7,1.8
		C15.3,76.6,15.3,76.9,15.2,77.2z M29.8,75.9L29,75.3c1.4-1.8,2.2-3.3,2.2-3.3l0.9,0.5C32,72.5,31.2,74,29.8,75.9z"/>
</g>
<g>
	<path class="st0" d="M43,21h91c1.7,0,3,1.3,3,3v66c0,1.7-1.3,3-3,3H43c-1.7,0-3-1.3-3-3V24C40,22.3,41.3,21,43,21z"/>
	<path class="st1" d="M134,93.5H43c-1.9,0-3.5-1.6-3.5-3.5V24c0-1.9,1.6-3.5,3.5-3.5h91c1.9,0,3.5,1.6,3.5,3.5v66
		C137.5,91.9,135.9,93.5,134,93.5z M43,21.5c-1.4,0-2.5,1.1-2.5,2.5v66c0,1.4,1.1,2.5,2.5,2.5h91c1.4,0,2.5-1.1,2.5-2.5V24
		c0-1.4-1.1-2.5-2.5-2.5H43z"/>
</g>
<path class="st0" d="M48.2,31.4h80.5c0.5,0,0.9,0.4,0.9,0.9v50.5c0,0.5-0.4,0.9-0.9,0.9H48.2c-0.5,0-0.9-0.4-0.9-0.9V32.3
	C47.3,31.8,47.7,31.4,48.2,31.4z"/>
<g>
	<path class="st4" d="M47.8,69l6.3,7h-4.3l-2-3"/>
</g>
<path class="st0" d="M27.3,92h120.5c1.3,0,2.3,1.1,2.3,2.4l-4.6,10.2c0,1.3-1,2.4-2.3,2.4H31.8c-1.3,0-2.3-1.1-2.3-2.4L25,94.4
	C25,93.1,26,92,27.3,92z"/>
<g class="st5">
	<rect x="62" y="39" class="st1" width="67.7" height="44.7"/>
</g>
<g>
	<path class="st6" d="M63,47.1L54.1,76l-2.3-2.5l8-20.5l1.5-2.9"/>
</g>
<g class="st7">
	<circle class="st3" cx="65.5" cy="43.5" r="1.5"/>
</g>
<g class="st7">
	<circle class="st3" cx="70.5" cy="43.5" r="1.5"/>
</g>
<g class="st7">
	<circle class="st3" cx="75.5" cy="43.5" r="1.5"/>
</g>
<g class="st8">
	<rect x="62" y="47.5" class="st3" width="67.2" height="1"/>
</g>
<g>
	<path class="st4" d="M28.2,101.7l2,5.1h114.4l2-5.1H28.2z"/>
</g>
<g class="st9">
	<rect x="78" y="54" class="st10" width="9.9" height="10"/>
</g>
<g class="st9">
	<rect x="92" y="54" class="st10" width="24" height="10"/>
</g>
<g class="st9">
	<rect x="78" y="67" class="st10" width="28" height="10"/>
</g>
<g class="st9">
	<rect x="110" y="67" class="st10" width="6" height="10"/>
</g>
<path class="st1" d="M143.2,107.5H31.8c-1.5,0-2.7-1.2-2.8-2.8l-4.6-10.3c0-1.6,1.2-2.9,2.8-2.9h120.4c1.5,0,2.8,1.3,2.8,2.9l0,0.2
	l-4.5,10.1C145.9,106.3,144.7,107.5,143.2,107.5z M25.5,94.3l4.5,10.3c0,1,0.8,1.9,1.8,1.9h111.3c1,0,1.8-0.9,1.8-1.9l0-0.2
	l4.5-10.1c0-1-0.8-1.8-1.8-1.8H27.3C26.3,92.5,25.6,93.3,25.5,94.3z"/>
<path class="st1" d="M48.2,31.9c-0.2,0-0.4,0.2-0.4,0.4v50.5c0,0.2,0.2,0.4,0.4,0.4h80.5c0.2,0,0.4-0.2,0.4-0.4V32.3
	c0-0.2-0.2-0.4-0.4-0.4H48.2z M128.8,84.2H48.2c-0.8,0-1.4-0.6-1.4-1.4V32.3c0-0.8,0.6-1.4,1.4-1.4h80.5c0.8,0,1.4,0.6,1.4,1.4v50.5
	C130.2,83.6,129.5,84.2,128.8,84.2z"/>
<path class="st0" d="M62.2,47.7L52.4,74l-5.3-6.1L38,74l-8-10l8.6-5.8l-5.1-5.9L62.2,47.7z"/>
<path class="st1" d="M52.6,74.9L47,68.5l-9.1,6.2l-8.6-10.8l8.6-5.8l-5.3-6.1l30.4-4.9L52.6,74.9z M30.7,64.1l7.4,9.2l9.1-6.1
	l5.1,5.8l9.1-24.7l-26.9,4.3l4.9,5.6L30.7,64.1z"/>
</svg>
