<?xml version="1.0" encoding="utf-8"?>
<!-- Generator: Adobe Illustrator 21.0.0, SVG Export Plug-In . SVG Version: 6.00 Build 0)  -->
<svg version="1.1" id="图层_1" xmlns="http://www.w3.org/2000/svg" xmlns:xlink="http://www.w3.org/1999/xlink" x="0px" y="0px"
	 viewBox="0 0 172 108" style="enable-background:new 0 0 172 108;" xml:space="preserve">
<style type="text/css">
	.st0{fill:none;enable-background:new    ;}
	.st1{opacity:8.000000e-02;enable-background:new    ;}
	.st2{fill:#B5C7DF;}
	.st3{opacity:6.000000e-02;enable-background:new    ;}
	.st4{opacity:0.7;enable-background:new    ;}
	.st5{fill:#B1D0E8;}
	.st6{opacity:0.3;enable-background:new    ;}
	.st7{fill:#D9E3F2;}
	.st8{fill:#FFFFFF;}
	.st9{opacity:0.52;enable-background:new    ;}
	.st10{opacity:0.64;enable-background:new    ;}
	.st11{fill:#F0F5FB;}
	.st12{fill:#F1F3F7;}
	.st13{fill:#F3F9FE;}
</style>
<path class="st0" d="M0,0"/>
<g class="st1">
	<path class="st2" d="M101.8,33.4c0.1-0.5,0.2-1.1,0.4-1.6c2.9,7,3.6,15,1.6,22.9c-5,19.7-25,31.6-44.8,26.6
		c-7.2-1.8-13.3-5.6-18-10.6C68.9,74.8,95.3,59,101.8,33.4z"/>
</g>
<g class="st3">
	<path class="st2" d="M103.8,54.8c-2.7,10.9-10.1,19.3-19.4,24c0.4-1.1,0.8-2.2,1.1-3.3C95.8,39.6,77,21.7,50.4,13.3
		C58.2,9.1,67.6,7.7,77,10C96.7,15,108.7,35,103.8,54.8z"/>
</g>
<g class="st4">
	<path class="st5" d="M15.3,88l-6-10.1l19.4,0.5L15.3,88z M11.1,78.9l4.5,7.6l10.1-7.2L11.1,78.9z"/>
</g>
<g class="st6">
	<path class="st2" d="M20.9,79.9l-12,4.8l5.9,5.7L20.9,79.9z"/>
</g>
<g class="st6">
	<path class="st7" d="M140.5,32.2l13.7-5L153,38.4L140.5,32.2z"/>
</g>
<g class="st4">
	<path class="st5" d="M151,36.5l-16.8-1.4l15.4-12.6L151,36.5z M136.8,34.3l13.1,1.1l-1.1-10.9L136.8,34.3z"/>
</g>
<g>
	<path class="st8" d="M14,105H5"/>
	<rect x="5" y="104.5" class="st5" width="9" height="1"/>
</g>
<g>
	<path class="st8" d="M166,105h-17.4"/>
	<rect x="148.6" y="104.5" class="st5" width="17.4" height="1"/>
</g>
<g class="st9">
	<path class="st8" d="M34,20h75c1.1,0,2,0.9,2,2v81c0,1.1-0.9,2-2,2H34c-1.1,0-2-0.9-2-2V22C32,20.9,32.9,20,34,20z"/>
	<path class="st5" d="M109,105.5H34c-1.4,0-2.5-1.1-2.5-2.5V22c0-1.4,1.1-2.5,2.5-2.5h75c1.4,0,2.5,1.1,2.5,2.5v81
		C111.5,104.4,110.4,105.5,109,105.5z M34,20.5c-0.8,0-1.5,0.7-1.5,1.5v81c0,0.8,0.7,1.5,1.5,1.5h75c0.8,0,1.5-0.7,1.5-1.5V22
		c0-0.8-0.7-1.5-1.5-1.5H34z"/>
</g>
<g class="st10">
	<rect x="38" y="21" class="st11" width="4" height="83"/>
</g>
<g>
	<path class="st8" d="M43,12h75c1.1,0,2,0.9,2,2v89c0,1.1-0.9,2-2,2H43c-1.1,0-2-0.9-2-2V14C41,12.9,41.9,12,43,12z"/>
	<path class="st5" d="M118,105.5h-1.7v-1h1.7c0.6,0,1.1-0.3,1.4-0.9l0.9,0.4C119.9,104.9,119,105.5,118,105.5z M114.3,105.5h-4v-1h4
		V105.5z M108.3,105.5h-4v-1h4V105.5z M102.3,105.5h-4v-1h4V105.5z M96.3,105.5h-4v-1h4V105.5z M90.3,105.5h-4v-1h4V105.5z
		 M84.3,105.5h-4v-1h4V105.5z M78.3,105.5h-4v-1h4V105.5z M72.3,105.5h-4v-1h4V105.5z M66.3,105.5h-4v-1h4V105.5z M60.3,105.5h-4v-1
		h4V105.5z M54.3,105.5h-4v-1h4V105.5z M48.3,105.5h-4v-1h4V105.5z M42.1,105.3c-1-0.4-1.6-1.3-1.6-2.3v-1.6h1v1.6
		c0,0.6,0.4,1.2,1,1.4L42.1,105.3z M120.5,101.9h-1v-4h1V101.9z M41.5,99.4h-1v-4h1V99.4z M120.5,95.9h-1v-4h1V95.9z M41.5,93.4h-1
		v-4h1V93.4z M120.5,89.9h-1v-4h1V89.9z M41.5,87.4h-1v-4h1V87.4z M120.5,83.9h-1v-4h1V83.9z M41.5,81.4h-1v-4h1V81.4z M120.5,77.9
		h-1v-4h1V77.9z M41.5,75.4h-1v-4h1V75.4z M120.5,71.9h-1v-4h1V71.9z M41.5,69.4h-1v-4h1V69.4z M120.5,65.9h-1v-4h1V65.9z
		 M41.5,63.4h-1v-4h1V63.4z M120.5,59.9h-1v-4h1V59.9z M41.5,57.4h-1v-4h1V57.4z M120.5,53.9h-1v-4h1V53.9z M41.5,51.4h-1v-4h1V51.4
		z M120.5,47.9h-1v-4h1V47.9z M41.5,45.4h-1v-4h1V45.4z M120.5,41.9h-1v-4h1V41.9z M41.5,39.4h-1v-4h1V39.4z M120.5,35.9h-1v-4h1
		V35.9z M41.5,33.4h-1v-4h1V33.4z M120.5,29.9h-1v-4h1V29.9z M41.5,27.4h-1v-4h1V27.4z M120.5,23.9h-1v-4h1V23.9z M41.5,21.4h-1v-4
		h1V21.4z M120.5,17.9h-1v-4l1-0.1c0,0.1,0,0.1,0,0.2V17.9z M41.5,15.4h-1V14c0-1.1,0.7-2.1,1.8-2.4l0.3,1c-0.6,0.2-1.1,0.8-1.1,1.4
		V15.4z M118.7,12.7c-0.2-0.1-0.5-0.2-0.7-0.2h-3v-1h3c0.4,0,0.8,0.1,1.2,0.3L118.7,12.7z M113,12.5h-4v-1h4V12.5z M107,12.5h-4v-1
		h4V12.5z M101,12.5h-4v-1h4V12.5z M95,12.5h-4v-1h4V12.5z M89,12.5h-4v-1h4V12.5z M83,12.5h-4v-1h4V12.5z M77,12.5h-4v-1h4V12.5z
		 M71,12.5h-4v-1h4V12.5z M65,12.5h-4v-1h4V12.5z M59,12.5h-4v-1h4V12.5z M53,12.5h-4v-1h4V12.5z M47,12.5h-4v-1h4V12.5z"/>
</g>
<g>
	<path class="st12" d="M57.2,12.7h45.6c1.2,0,2.2,0.9,2.2,2V19c0,1.1-1,3-2.2,3H58.2C57,22,56,20.1,56,19v-4.3
		C56,13.6,56,12.7,57.2,12.7z"/>
</g>
<g>
	<path class="st8" d="M101,19H60c-1.1,0-2-0.9-2-2v-6.3c0-1.1,0.9-2,2-2h11V4c0-1.1,0.9-2,2-2h15c1.1,0,2,0.9,2,2v4.7h11
		c1.1,0,2,0.9,2,2V17C103,18.1,102.1,19,101,19z"/>
	<path class="st5" d="M101,19.5H60c-1.4,0-2.5-1.1-2.5-2.5v-6.3c0-1.4,1.1-2.5,2.5-2.5h10.5V4c0-1.4,1.1-2.5,2.5-2.5h15
		c1.4,0,2.5,1.1,2.5,2.5v4.2H101c1.4,0,2.5,1.1,2.5,2.5V17C103.5,18.4,102.4,19.5,101,19.5z M60,9.2c-0.8,0-1.5,0.7-1.5,1.5V17
		c0,0.8,0.7,1.5,1.5,1.5h41c0.8,0,1.5-0.7,1.5-1.5v-6.3c0-0.8-0.7-1.5-1.5-1.5H89.5V4c0-0.8-0.7-1.5-1.5-1.5H73
		c-0.8,0-1.5,0.7-1.5,1.5v5.2H60z"/>
</g>
<g>
	<rect x="72" y="36" class="st13" width="37" height="7"/>
</g>
<g>
	<rect x="72" y="55" class="st13" width="37" height="7"/>
</g>
<g>
	<polygon class="st13" points="57.9,43.3 52.4,39 54.3,36.7 57.7,39.4 64,33.4 66.1,35.5 	"/>
</g>
<g>
	<polygon class="st13" points="58.1,62.2 52.6,57.9 54.5,55.5 57.9,58.2 64.2,52.2 66.3,54.4 	"/>
</g>
<g>
	<polygon class="st13" points="58.5,83.1 53.1,78.7 54.9,76.4 58.4,79.1 64.7,73.1 66.7,75.3 	"/>
</g>
<g>
	<rect x="72" y="76" class="st13" width="37" height="7"/>
</g>
<g>
	<path class="st8" d="M146,105H17"/>
	<rect x="17" y="104.5" class="st5" width="129" height="1"/>
</g>
<g>
	<path class="st12" d="M116.7,70.1l5.1,18.3c0,1.2-1,2.2-2.2,2.2H99.9c-1.2,0-2.2-1-2.2-2.2l5.1-18.3c-3.7-2.3-6.2-6.4-6.2-11.1
		c0-7.2,5.9-13,13.1-13s13.1,5.8,13.1,13C122.9,63.7,120.4,67.8,116.7,70.1z"/>
</g>
<g>
	<path class="st8" d="M122.4,70.1l5.1,18.3c0,1.2-1,2.2-2.2,2.2h-19.7c-1.2,0-2.2-1-2.2-2.2l5.1-18.3c-3.7-2.3-6.2-6.4-6.2-11.1
		c0-7.2,5.9-13,13.1-13s13.1,5.8,13.1,13C128.7,63.7,126.2,67.8,122.4,70.1z"/>
	<path class="st5" d="M125.4,91.1h-19.7c-1.5,0-2.7-1.2-2.7-2.7v-0.1l5-17.9c-3.8-2.5-6.1-6.7-6.1-11.3c0-7.5,6.1-13.5,13.6-13.5
		s13.6,6.1,13.6,13.5c0,4.6-2.3,8.8-6.1,11.3l5,18.1C128.1,89.9,126.8,91.1,125.4,91.1z M104,88.5c0,0.9,0.8,1.6,1.7,1.6h19.7
		c0.9,0,1.6-0.7,1.7-1.6l-5.2-18.6l0.3-0.2c3.7-2.3,6-6.3,6-10.7c0-6.9-5.7-12.5-12.6-12.5c-7,0-12.6,5.6-12.6,12.5
		c0,4.4,2.2,8.3,6,10.6l0.3,0.2L104,88.5z"/>
</g>
<g>
	<path class="st12" d="M87.3,86.7H99c2.2,0,4,1.9,4,4.2v13.6H83.3V90.9C83.3,88.5,85.1,86.7,87.3,86.7z"/>
</g>
<g>
	<path class="st8" d="M92,89.3h47.1c2.2,0,4,1.8,4,4V105H88V93.3C88,91.1,89.8,89.3,92,89.3z"/>
	<path class="st5" d="M143.6,105.5H87.5V93.3c0-2.5,2-4.5,4.5-4.5h47.1c2.5,0,4.5,2,4.5,4.5V105.5z M88.5,104.5h54.1V93.3
		c0-1.9-1.6-3.5-3.5-3.5H92c-1.9,0-3.5,1.6-3.5,3.5V104.5z"/>
</g>
<g class="st6">
	<rect x="93.2" y="98.4" class="st5" width="44.6" height="2.6"/>
</g>
</svg>
