<?xml version="1.0" encoding="utf-8"?>
<!-- Generator: Adobe Illustrator 21.0.0, SVG Export Plug-In . SVG Version: 6.00 Build 0)  -->
<svg version="1.1" id="图层_1" xmlns="http://www.w3.org/2000/svg" xmlns:xlink="http://www.w3.org/1999/xlink" x="0px" y="0px"
	 viewBox="0 0 172 108" style="enable-background:new 0 0 172 108;" xml:space="preserve">
<style type="text/css">
	.st0{fill:none;enable-background:new    ;}
	.st1{opacity:8.000000e-02;enable-background:new    ;}
	.st2{fill:#B5C7DF;}
	.st3{opacity:6.000000e-02;enable-background:new    ;}
	.st4{opacity:0.7;enable-background:new    ;}
	.st5{fill:#B1D0E8;}
	.st6{opacity:0.3;enable-background:new    ;}
	.st7{fill:#D9E3F2;}
	.st8{fill:#FFFFFF;}
	.st9{opacity:0.52;enable-background:new    ;}
	.st10{opacity:0.64;enable-background:new    ;}
	.st11{fill:#F0F5FB;}
	.st12{fill:#F1F3F7;}
	.st13{fill:#F3F9FE;}
	.st14{fill:#F0F3F8;}
	.st15{opacity:0.24;enable-background:new    ;}
</style>
<path class="st0" d="M0,0"/>
<g class="st1">
	<path class="st2" d="M95.8,34.4c0.1-0.5,0.2-1.1,0.4-1.6c2.9,7,3.6,15,1.6,22.9c-5,19.7-25,31.6-44.8,26.6
		c-7.2-1.8-13.3-5.6-18-10.6C62.9,75.8,89.3,60,95.8,34.4z"/>
</g>
<g class="st3">
	<path class="st2" d="M97.8,55.8c-2.7,10.9-10.1,19.3-19.4,24c0.4-1.1,0.8-2.2,1.1-3.3C89.8,40.6,71,22.7,44.4,14.3
		C52.2,10.1,61.6,8.7,71,11C90.7,16,102.7,36,97.8,55.8z"/>
</g>
<g class="st4">
	<path class="st5" d="M9.3,89l-6-10.1l19.4,0.5L9.3,89z M5.1,79.9l4.5,7.6l10.1-7.2L5.1,79.9z"/>
</g>
<g class="st6">
	<path class="st2" d="M14.9,80.9l-12,4.8l5.9,5.7L14.9,80.9z"/>
</g>
<g class="st6">
	<path class="st7" d="M141.5,33.2l13.7-5L154,39.4L141.5,33.2z"/>
</g>
<g class="st4">
	<path class="st5" d="M152,37.5l-16.8-1.4l15.4-12.6L152,37.5z M137.8,35.3l13.1,1.1l-1.1-10.9L137.8,35.3z"/>
</g>
<g>
	<path class="st8" d="M15,106H6"/>
	<rect x="6" y="105.5" class="st5" width="9" height="1"/>
</g>
<g>
	<path class="st8" d="M167,106h-17.4"/>
	<rect x="149.6" y="105.5" class="st5" width="17.4" height="1"/>
</g>
<g class="st9">
	<path class="st8" d="M35,21h75c1.1,0,2,0.9,2,2v81c0,1.1-0.9,2-2,2H35c-1.1,0-2-0.9-2-2V23C33,21.9,33.9,21,35,21z"/>
	<path class="st5" d="M110,106.5H35c-1.4,0-2.5-1.1-2.5-2.5V23c0-1.4,1.1-2.5,2.5-2.5h75c1.4,0,2.5,1.1,2.5,2.5v81
		C112.5,105.4,111.4,106.5,110,106.5z M35,21.5c-0.8,0-1.5,0.7-1.5,1.5v81c0,0.8,0.7,1.5,1.5,1.5h75c0.8,0,1.5-0.7,1.5-1.5V23
		c0-0.8-0.7-1.5-1.5-1.5H35z"/>
</g>
<g class="st10">
	<rect x="39" y="21.5" class="st11" width="4" height="84"/>
</g>
<g>
	<path class="st8" d="M44,13h75c1.1,0,2,0.9,2,2v89c0,1.1-0.9,2-2,2H44c-1.1,0-2-0.9-2-2V15C42,13.9,42.9,13,44,13z"/>
	<path class="st5" d="M119,106.5h-1.7v-1h1.7c0.6,0,1.1-0.3,1.4-0.9l0.9,0.4C120.9,105.9,120,106.5,119,106.5z M115.3,106.5h-4v-1h4
		V106.5z M109.3,106.5h-4v-1h4V106.5z M103.3,106.5h-4v-1h4V106.5z M97.3,106.5h-4v-1h4V106.5z M91.3,106.5h-4v-1h4V106.5z
		 M85.3,106.5h-4v-1h4V106.5z M79.3,106.5h-4v-1h4V106.5z M73.3,106.5h-4v-1h4V106.5z M67.3,106.5h-4v-1h4V106.5z M61.3,106.5h-4v-1
		h4V106.5z M55.3,106.5h-4v-1h4V106.5z M49.3,106.5h-4v-1h4V106.5z M43.1,106.3c-1-0.4-1.6-1.3-1.6-2.3v-1.6h1v1.6
		c0,0.6,0.4,1.2,1,1.4L43.1,106.3z M121.5,102.9h-1v-4h1V102.9z M42.5,100.4h-1v-4h1V100.4z M121.5,96.9h-1v-4h1V96.9z M42.5,94.4
		h-1v-4h1V94.4z M121.5,90.9h-1v-4h1V90.9z M42.5,88.4h-1v-4h1V88.4z M121.5,84.9h-1v-4h1V84.9z M42.5,82.4h-1v-4h1V82.4z
		 M121.5,78.9h-1v-4h1V78.9z M42.5,76.4h-1v-4h1V76.4z M121.5,72.9h-1v-4h1V72.9z M42.5,70.4h-1v-4h1V70.4z M121.5,66.9h-1v-4h1
		V66.9z M42.5,64.4h-1v-4h1V64.4z M121.5,60.9h-1v-4h1V60.9z M42.5,58.4h-1v-4h1V58.4z M121.5,54.9h-1v-4h1V54.9z M42.5,52.4h-1v-4
		h1V52.4z M121.5,48.9h-1v-4h1V48.9z M42.5,46.4h-1v-4h1V46.4z M121.5,42.9h-1v-4h1V42.9z M42.5,40.4h-1v-4h1V40.4z M121.5,36.9h-1
		v-4h1V36.9z M42.5,34.4h-1v-4h1V34.4z M121.5,30.9h-1v-4h1V30.9z M42.5,28.4h-1v-4h1V28.4z M121.5,24.9h-1v-4h1V24.9z M42.5,22.4
		h-1v-4h1V22.4z M121.5,18.9h-1v-4l1-0.1c0,0.1,0,0.1,0,0.2V18.9z M42.5,16.4h-1V15c0-1.1,0.7-2.1,1.8-2.4l0.3,1
		c-0.6,0.2-1.1,0.8-1.1,1.4V16.4z M119.7,13.7c-0.2-0.1-0.5-0.2-0.7-0.2h-3v-1h3c0.4,0,0.8,0.1,1.2,0.3L119.7,13.7z M114,13.5h-4v-1
		h4V13.5z M108,13.5h-4v-1h4V13.5z M102,13.5h-4v-1h4V13.5z M96,13.5h-4v-1h4V13.5z M90,13.5h-4v-1h4V13.5z M84,13.5h-4v-1h4V13.5z
		 M78,13.5h-4v-1h4V13.5z M72,13.5h-4v-1h4V13.5z M66,13.5h-4v-1h4V13.5z M60,13.5h-4v-1h4V13.5z M54,13.5h-4v-1h4V13.5z M48,13.5
		h-4v-1h4V13.5z"/>
</g>
<g>
	<path class="st12" d="M58.2,13.7h45.6c1.2,0,2.2,0.9,2.2,2V20c0,1.1-1,3-2.2,3H59.2C58,23,57,21.1,57,20v-4.3
		C57,14.6,57,13.7,58.2,13.7z"/>
</g>
<g>
	<path class="st8" d="M102,20H61c-1.1,0-2-0.9-2-2v-6.3c0-1.1,0.9-2,2-2h11V5c0-1.1,0.9-2,2-2h15c1.1,0,2,0.9,2,2v4.7h11
		c1.1,0,2,0.9,2,2V18C104,19.1,103.1,20,102,20z"/>
	<path class="st5" d="M102,20.5H61c-1.4,0-2.5-1.1-2.5-2.5v-6.3c0-1.4,1.1-2.5,2.5-2.5h10.5V5c0-1.4,1.1-2.5,2.5-2.5h15
		c1.4,0,2.5,1.1,2.5,2.5v4.2H102c1.4,0,2.5,1.1,2.5,2.5V18C104.5,19.4,103.4,20.5,102,20.5z M61,10.2c-0.8,0-1.5,0.7-1.5,1.5V18
		c0,0.8,0.7,1.5,1.5,1.5h41c0.8,0,1.5-0.7,1.5-1.5v-6.3c0-0.8-0.7-1.5-1.5-1.5H90.5V5c0-0.8-0.7-1.5-1.5-1.5H74
		c-0.8,0-1.5,0.7-1.5,1.5v5.2H61z"/>
</g>
<g>
	<rect x="56" y="37" class="st13" width="7" height="7"/>
</g>
<g>
	<rect x="68" y="37" class="st13" width="39" height="7"/>
</g>
<g>
	<rect x="56" y="56" class="st13" width="7" height="7"/>
</g>
<g>
	<rect x="68" y="56" class="st13" width="39" height="7"/>
</g>
<g>
	<rect x="56" y="77" class="st13" width="7" height="7"/>
</g>
<g>
	<rect x="68" y="77" class="st13" width="39" height="7"/>
</g>
<g>
	<path class="st8" d="M147,106H18"/>
	<rect x="18" y="105.5" class="st5" width="129" height="1"/>
</g>
<g>
	<path class="st14" d="M132,104.3c0,0.3,0,0.7,0,1H94c0-0.3,0-0.7,0-1c0-13.3,5.9-24.4,13.9-27.8C99.9,73.1,94,62,94,48.7
		c0-0.3,0-0.7,0-1h38c0,0.3,0,0.7,0,1c0,13.3-5.9,24.4-13.9,27.8C126.1,79.9,132,91,132,104.3z"/>
</g>
<g>
	<path class="st8" d="M136,103H98c0-12.4,5.9-22.8,13.9-26c-8-3.2-13.9-13.6-13.9-26h38c0,12.4-5.9,22.8-13.9,26
		C130.1,80.2,136,90.6,136,103z"/>
	<path class="st5" d="M136.5,103.5h-39V103c0-11.8,5.4-22.2,13.2-26c-7.8-3.8-13.2-14.2-13.2-26v-0.5h39V51c0,11.8-5.4,22.2-13.2,26
		c7.8,3.8,13.2,14.2,13.2,26V103.5z M98.5,102.5h37c-0.2-11.7-5.7-21.9-13.6-25l-1.2-0.5l1.2-0.5c7.9-3.1,13.5-13.4,13.6-25h-37
		c0.2,11.7,5.7,21.9,13.6,25l1.2,0.5l-1.2,0.5C104.2,80.6,98.7,90.8,98.5,102.5z"/>
</g>
<g class="st15">
	<path class="st5" d="M127,63c-0.2,6.7-4.6,12-10,12s-9.8-5.3-10-12H127z"/>
</g>
<g class="st15">
	<path class="st5" d="M130.6,92.8c0.6,2.1,1,4.3,1,6.6c0,0.3,0,0.5,0,0.7h-29.7c0-0.2,0-0.5,0-0.7c0-2.3,0.4-4.6,1-6.6H130.6z"/>
</g>
<g>
	<path class="st8" d="M94,48h46"/>
	<rect x="94" y="47.5" class="st5" width="46" height="1"/>
</g>
<g>
	<path class="st13" d="M98,48h38c0.6,0,1,0.4,1,1v2c0,0.6-0.4,1-1,1H98c-0.6,0-1-0.4-1-1v-2C97,48.4,97.4,48,98,48z"/>
	<path class="st5" d="M136,52.5H98c-0.8,0-1.5-0.7-1.5-1.5v-2c0-0.8,0.7-1.5,1.5-1.5h38c0.8,0,1.5,0.7,1.5,1.5v2
		C137.5,51.8,136.8,52.5,136,52.5z M98,48.5c-0.3,0-0.5,0.2-0.5,0.5v2c0,0.3,0.2,0.5,0.5,0.5h38c0.3,0,0.5-0.2,0.5-0.5v-2
		c0-0.3-0.2-0.5-0.5-0.5H98z"/>
</g>
<g>
	<path class="st13" d="M98,102h38c0.6,0,1,0.4,1,1v2c0,0.6-0.4,1-1,1H98c-0.6,0-1-0.4-1-1v-2C97,102.4,97.4,102,98,102z"/>
	<path class="st5" d="M136,106.5H98c-0.8,0-1.5-0.7-1.5-1.5v-2c0-0.8,0.7-1.5,1.5-1.5h38c0.8,0,1.5,0.7,1.5,1.5v2
		C137.5,105.8,136.8,106.5,136,106.5z M98,102.5c-0.3,0-0.5,0.2-0.5,0.5v2c0,0.3,0.2,0.5,0.5,0.5h38c0.3,0,0.5-0.2,0.5-0.5v-2
		c0-0.3-0.2-0.5-0.5-0.5H98z"/>
</g>
</svg>
