<?xml version="1.0" encoding="utf-8"?>
<!-- Generator: Adobe Illustrator 21.0.0, SVG Export Plug-In . SVG Version: 6.00 Build 0)  -->
<svg version="1.1" id="图层_1" xmlns="http://www.w3.org/2000/svg" xmlns:xlink="http://www.w3.org/1999/xlink" x="0px" y="0px"
	 viewBox="0 0 172 108" style="enable-background:new 0 0 172 108;" xml:space="preserve">
<style type="text/css">
	.st0{fill:none;}
	.st1{fill:#B1D0E8;}
	.st2{fill:#FFFFFF;}
	.st3{fill:#F1F3F7;}
	.st4{fill:#F3F9FE;}
	.st5{fill:#EEF2FA;}
	.st6{opacity:0.16;enable-background:new    ;}
	.st7{fill:#F5F8FC;}
	.st8{opacity:0.3;enable-background:new    ;}
</style>
<path class="st0" d="M0,0"/>
<g>
	<rect x="4" y="106.5" class="st1" width="9" height="1"/>
</g>
<g>
	<rect x="147.6" y="106.5" class="st1" width="17.4" height="1"/>
</g>
<g>
	<rect x="16" y="106.5" class="st1" width="129" height="1"/>
</g>
<g>
	<path class="st1" d="M143.4,83l-6,3.5v-7L143.4,83z"/>
</g>
<g>
	<path class="st2" d="M107,40c-3.1,0-11.9,0-11.9,0c-1.2,0-2.1-0.9-2.1-2.1c0,0,0-7.2,0-10.9 M113,37.3V105c0,1.1-0.9,2-2,2H43
		c-1.1,0-2-0.9-2-2V23c0-1.1,0.9-2,2-2h51.5L113,37.3z"/>
	<path class="st1" d="M111,107.5H43c-1.4,0-2.5-1.1-2.5-2.5V23c0-1.4,1.1-2.5,2.5-2.5h51.7l18.8,16.6V105
		C113.5,106.4,112.4,107.5,111,107.5z M43,21.5c-0.8,0-1.5,0.7-1.5,1.5v82c0,0.8,0.7,1.5,1.5,1.5h68c0.8,0,1.5-0.7,1.5-1.5V37.5
		l-18.2-16H43z M107,40.5H95.1c-1.4,0-2.6-1.2-2.6-2.6V27h1v10.9c0,0.9,0.7,1.6,1.6,1.6H107V40.5z"/>
</g>
<g>
	<circle class="st2" cx="82" cy="7.3" r="4.5"/>
	<path class="st1" d="M82,12.3c-2.8,0-5-2.2-5-5s2.2-5,5-5s5,2.2,5,5S84.8,12.3,82,12.3z M82,3.3c-2.2,0-4,1.8-4,4s1.8,4,4,4
		s4-1.8,4-4S84.2,3.3,82,3.3z"/>
</g>
<path class="st1" d="M144.2,44.5h-0.7v-1h0.7c1.1,0,1.9-0.4,2.2-1.2l0.9,0.4C146.8,43.9,145.7,44.5,144.2,44.5z M141.5,44.5h-4v-1h4
	V44.5z M135.5,44.5h-4v-1h4V44.5z M129.3,44.5h-4v-1h4V44.5z M123.3,44.5h-4v-1h4V44.5z M117.3,44.5h-4v-1h4V44.5z M147.7,40.6h-1
	v-4h1V40.6z M147.7,34.6h-1v-4h1V34.6z M147.7,28.6h-1v-4h1V28.6z M147.7,22.6h-1v-4h1V22.6z M147.7,16.6h-1v-4h1V16.6z M145,8.2
	c-1-0.3-2.4-0.5-3.9-0.7l0.1-1c1.5,0.2,3,0.5,4,0.7L145,8.2z M139.2,7.3h-4v-1h4V7.3z M133.2,7.3h-4v-1h4V7.3z M127,7.3h-4v-1h4V7.3
	z M121,7.3h-4v-1h4V7.3z M115,7.3h-4v-1h4V7.3z M109,7.3h-4v-1h4V7.3z M103,7.3h-4v-1h4V7.3z M97,7.3h-4v-1h4V7.3z M91,7.3h-4v-1h4
	V7.3z"/>
<g>
	<path class="st1" d="M160.1,83.5h-1.6v-1h1.6V83.5z M156.5,83.5h-4v-1h4V83.5z M150.4,83.5h-4v-1h4V83.5z M144.4,83.5h-4v-1h4V83.5
		z M138.4,83.5h-4v-1h4V83.5z M132.4,83.5h-3.5c-0.2,0-0.4,0-0.6,0v-1c0.2,0,0.3,0,0.5,0h3.5v1H132.4z M126.3,83.2
		c-1.5-0.5-1.7-1.6-1.7-2.7v-1.1h1v1.1c0,1.1,0.2,1.5,1,1.8L126.3,83.2z M125.6,77.3h-1v-4h1V77.3z M124.6,71.3
		c-0.1-1.7-0.4-2.2-1.6-2.6l0.3-1c1.9,0.5,2.3,1.7,2.4,3.5L124.6,71.3z M121.1,68.5c-0.3,0-0.7,0-1.1,0h-2.9v-1h2.8
		c0.4,0,0.8,0,1.2,0V68.5z M115.1,68.5H113v-1h2.1V68.5z"/>
</g>
<g>
	<path class="st3" d="M55,93h7c2.2,0,4,1.9,4,4.2v9.3H51v-9.3C51,94.9,52.8,93,55,93z"/>
</g>
<g>
	<rect x="48" y="44" class="st4" width="7" height="7"/>
</g>
<g>
	<rect x="60" y="44" class="st4" width="39" height="7"/>
</g>
<g>
	<rect x="60" y="82" class="st4" width="39" height="7"/>
</g>
<g>
	<circle class="st5" cx="146.7" cy="7.3" r="3.5"/>
	<path class="st1" d="M146.7,11.3c-2.2,0-4-1.8-4-4s1.8-4,4-4s4,1.8,4,4S148.9,11.3,146.7,11.3z M146.7,4.3c-1.7,0-3,1.3-3,3
		s1.3,3,3,3s3-1.3,3-3S148.4,4.3,146.7,4.3z"/>
</g>
<g>
	<circle class="st5" cx="146.7" cy="43.5" r="3.5"/>
	<path class="st1" d="M146.7,47.5c-2.2,0-4-1.8-4-4s1.8-4,4-4s4,1.8,4,4S148.9,47.5,146.7,47.5z M146.7,40.5c-1.7,0-3,1.3-3,3
		s1.3,3,3,3s3-1.3,3-3S148.4,40.5,146.7,40.5z"/>
</g>
<g>
	<circle class="st2" cx="153.1" cy="83" r="10"/>
	<path class="st1" d="M153.1,93.5c-5.8,0-10.5-4.7-10.5-10.5s4.7-10.5,10.5-10.5s10.5,4.7,10.5,10.5S158.9,93.5,153.1,93.5z
		 M153.1,73.5c-5.2,0-9.5,4.3-9.5,9.5s4.3,9.5,9.5,9.5s9.5-4.3,9.5-9.5S158.3,73.5,153.1,73.5z"/>
</g>
<g class="st6">
	<circle class="st1" cx="156.1" cy="87" r="10"/>
</g>
<g>
	<path class="st7" d="M50,95l-1-3H35l-1,3H50z"/>
</g>
<g>
	<polygon class="st1" points="156.8,86.4 152.6,83.2 152.6,77 153.6,77 153.6,82.8 157.4,85.6 	"/>
</g>
<g class="st8">
	<rect x="25" y="102" class="st1" width="34" height="2"/>
</g>
<g>
	<rect x="48" y="62" class="st4" width="7" height="7"/>
</g>
<g>
	<rect x="60" y="62" class="st4" width="39" height="7"/>
</g>
<g>
	<path class="st3" d="M51.3,79.4l3.9,13.9c0,0.9-0.7,1.7-1.7,1.7h-15c-0.9,0-1.7-0.7-1.7-1.7l3.9-13.9C37.9,77.6,36,74.5,36,71
		c0-5.5,4.5-10,10-10s10,4.5,10,10C56,74.5,54.1,77.6,51.3,79.4z"/>
</g>
<g>
	<path class="st2" d="M48.3,79.8l3.9,13.9c0,0.9-0.7,1.7-1.7,1.7h-15c-0.9,0-1.7-0.7-1.7-1.7l3.9-13.9C34.9,78,33,74.9,33,71.4
		c0-5.5,4.5-10,10-10s10,4.5,10,10C53,74.9,51.1,78,48.3,79.8z"/>
	<path class="st1" d="M50.5,95.9h-15c-1.2,0-2.2-1-2.2-2.2v-0.1L37.1,80c-2.9-2-4.6-5.2-4.6-8.7c0-5.8,4.7-10.5,10.5-10.5
		s10.5,4.7,10.5,10.5c0,3.5-1.7,6.7-4.6,8.7l3.8,13.7C52.7,94.9,51.7,95.9,50.5,95.9z M34.3,93.8c0,0.6,0.5,1.1,1.2,1.1h15
		c0.6,0,1.1-0.5,1.2-1.1l-4-14.2l0.3-0.2c2.8-1.7,4.5-4.7,4.5-8c0-5.2-4.3-9.5-9.5-9.5s-9.5,4.2-9.5,9.5c0,3.3,1.7,6.3,4.5,8
		l0.3,0.2L34.3,93.8z"/>
</g>
<g>
	<path class="st2" d="M25,95h34c2.2,0,4,1.8,4,4v8H21v-8C21,96.8,22.8,95,25,95z"/>
	<path class="st1" d="M63.5,107.5h-43V99c0-2.5,2-4.5,4.5-4.5h34c2.5,0,4.5,2,4.5,4.5V107.5z M21.5,106.5h41V99
		c0-1.9-1.6-3.5-3.5-3.5H25c-1.9,0-3.5,1.6-3.5,3.5V106.5z"/>
</g>
</svg>
