<svg version="1.1" id="图层_1" xmlns="http://www.w3.org/2000/svg" x="0" y="0" viewBox="-335 244.3 171 108" xml:space="preserve"><style>.st0{fill:#eef2fa}.st1{fill:#a1b6d1}.st2{fill:#fff}.st3{fill:#b1d0e8}.st10,.st4,.st6,.st9{opacity:.39;enable-background:new}.st10,.st6,.st9{opacity:.38}.st10,.st9{opacity:.7}.st10{opacity:.3}.st12{fill:#d9e3f2}.st13{opacity:.15}.st14{fill:#c4cede}.st15{opacity:.4}.st16{fill:#e6eff4}.st17{fill:#aecbe2}.st19{fill:#abc7dd}.st20{opacity:.2}</style><g id="XMLID_261_"><g id="XMLID_265_"><circle id="XMLID_83_" class="st0" cx="-221.5" cy="273" r="3.5"/></g><g id="XMLID_262_"><path id="XMLID_82_" class="st1" d="M-221.5 277c-2.2 0-4-1.8-4-4s1.8-4 4-4 4 1.8 4 4-1.8 4-4 4zm0-7c-1.7 0-3 1.3-3 3s1.3 3 3 3 3-1.3 3-3-1.3-3-3-3z"/></g></g><g id="XMLID_256_"><g id="XMLID_260_"><circle id="XMLID_81_" class="st0" cx="-257.5" cy="287" r="3.5"/></g><g id="XMLID_257_"><path id="XMLID_80_" class="st1" d="M-257.5 291c-2.2 0-4-1.8-4-4s1.8-4 4-4 4 1.8 4 4-1.8 4-4 4zm0-7c-1.7 0-3 1.3-3 3s1.3 3 3 3 3-1.3 3-3-1.3-3-3-3z"/></g></g><g id="XMLID_155_"><g id="XMLID_159_"><path id="XMLID_79_" class="st2" d="M-295 256.5h91c1.7 0 3 1.3 3 3v69c0 1.7-1.3 3-3 3h-91c-1.7 0-3-1.3-3-3v-69c0-1.6 1.3-3 3-3z"/></g><g id="XMLID_156_"><path id="XMLID_78_" class="st3" d="M-204 332h-91c-1.9 0-3.5-1.6-3.5-3.5v-69c0-1.9 1.6-3.5 3.5-3.5h91c1.9 0 3.5 1.6 3.5 3.5v69c0 2-1.6 3.5-3.5 3.5zm-91-75c-1.4 0-2.5 1.1-2.5 2.5v69c0 1.4 1.1 2.5 2.5 2.5h91c1.4 0 2.5-1.1 2.5-2.5v-69c0-1.4-1.1-2.5-2.5-2.5h-91z"/></g></g><g id="XMLID_150_" class="st4"><g id="XMLID_154_"><path id="XMLID_77_" class="st2" d="M-289.8 267.4h80.5c.5 0 .9.4.9 1V321c0 .5-.4 1-.9 1h-80.5c-.5 0-.9-.4-.9-1v-52.7c0-.5.4-.9.9-.9z"/></g><g id="XMLID_151_"><path id="XMLID_76_" class="st3" d="M-209.2 322.3h-80.6c-.8 0-1.4-.7-1.4-1.5v-52.5c0-.8.6-1.5 1.4-1.5h80.5c.8 0 1.4.7 1.4 1.5v52.6c.1.8-.6 1.4-1.3 1.4zm-80.6-54.4c-.2 0-.4.2-.4.5V321c0 .2.2.5.4.5h80.5c.2 0 .4-.2.4-.5v-52.7c0-.2-.2-.5-.4-.5h-80.5v.1z"/></g></g><g id="XMLID_3_" class="st4"><g id="XMLID_7_" opacity=".12"><path id="XMLID_75_" class="st3" d="M-289.8 267.4h80.5c.5 0 .9.4.9 1V321c0 .5-.4 1-.9 1h-80.5c-.5 0-.9-.4-.9-1v-52.7c0-.5.4-.9.9-.9z"/></g><g id="XMLID_4_"><path id="XMLID_74_" class="st3" d="M-209.2 322.3h-80.6c-.8 0-1.4-.7-1.4-1.5v-52.5c0-.8.6-1.5 1.4-1.5h80.5c.8 0 1.4.7 1.4 1.5v52.6c.1.8-.6 1.4-1.3 1.4zm-80.6-54.4c-.2 0-.4.2-.4.5V321c0 .2.2.5.4.5h80.5c.2 0 .4-.2.4-.5v-52.7c0-.2-.2-.5-.4-.5h-80.5v.1z"/></g></g><g id="XMLID_245_"><path id="XMLID_73_" class="st2" d="M-297.7 330.5h120.5c1.3 0 2.3 1.1 2.3 2.4l-4.6 10.2c0 1.3-1 2.4-2.3 2.4h-111.4c-1.3 0-2.3-1.1-2.3-2.4l-4.5-10.2c0-1.3 1-2.4 2.3-2.4z"/></g><g id="XMLID_133_" class="st6"><g id="XMLID_134_"><circle id="XMLID_72_" class="st3" cx="-265.9" cy="275.7" r="1.9"/></g></g><g id="XMLID_131_" class="st6"><g id="XMLID_132_"><circle id="XMLID_71_" class="st3" cx="-274.8" cy="275.7" r="1.9"/></g></g><g id="XMLID_129_" class="st6"><g id="XMLID_130_"><circle id="XMLID_70_" class="st3" cx="-283.5" cy="275.7" r="1.9"/></g></g><g id="XMLID_135_" opacity=".18"><g id="XMLID_136_"><path id="XMLID_69_" class="st1" d="M-286.3 282.3h78.3v1h-78.3z"/></g></g><g id="XMLID_140_"><g id="XMLID_141_"><path id="XMLID_68_" d="M-309.8 339.5l2 6h114.6l2-6h-118.6z" fill="#f1f5fb"/></g></g><g id="XMLID_231_" class="st9"><g id="XMLID_232_"><path id="XMLID_67_" class="st3" d="M-324.8 305.8L-335 300l17-9.2-6.8 15zm-8.2-5.8l7.7 4.4 5.1-11.3-12.8 6.9z"/></g></g><g id="XMLID_229_" class="st10"><g id="XMLID_230_"><path id="XMLID_66_" d="M-324 296l-8 10.1 8 2V296z" fill="#b5c7df"/></g></g><g id="XMLID_227_" class="st10"><g id="XMLID_228_"><path id="XMLID_65_" class="st12" d="M-178.5 263.7l13.7-5-1.2 11.3-12.5-6.3z"/></g></g><g id="XMLID_223_" class="st9"><g id="XMLID_224_"><path id="XMLID_64_" class="st3" d="M-168 268l-16.8-1.4 15.4-12.6 1.4 14zm-14.2-2.2l13.1 1.1-1.1-10.9-12 9.8z"/></g></g><g id="XMLID_142_"><g id="XMLID_144_"><path id="XMLID_63_" class="st2" d="M-309.8 345.5h-19.9"/></g><g id="XMLID_143_"><path id="XMLID_62_" class="st3" d="M-329.6 345h19.9v1h-19.9z"/></g></g><g id="XMLID_217_"><g id="XMLID_219_"><path id="XMLID_61_" class="st2" d="M-175 345.5h-6.4"/></g><g id="XMLID_218_"><path id="XMLID_60_" class="st3" d="M-181.4 345h6.4v1h-6.4z"/></g></g><g id="XMLID_214_"><g id="XMLID_216_"><path id="XMLID_59_" class="st2" d="M-184 345.5h-115.4"/></g><g id="XMLID_215_"><path id="XMLID_58_" class="st3" d="M-299.4 345H-184v1h-115.4z"/></g></g><g id="XMLID_212_"><g id="XMLID_213_"><path id="XMLID_57_" class="st3" d="M-172 345h8v1h-8z"/></g></g><g id="XMLID_137_"><path id="XMLID_56_" class="st3" d="M-194.8 346h-111.4c-1.5 0-2.7-1.2-2.8-2.8l-4.6-10.3c0-1.6 1.2-2.9 2.8-2.9h120.4c1.5 0 2.8 1.3 2.8 2.9v.2l-4.5 10.2c0 1.5-1.2 2.7-2.7 2.7zm-117.7-13.2l4.5 10.3c0 1 .8 1.9 1.8 1.9h111.3c1 0 1.8-.9 1.8-1.9v-.2l4.5-10.1c0-1-.8-1.8-1.8-1.8h-120.3c-1 0-1.7.8-1.8 1.8z"/></g><g id="XMLID_178_" class="st13"><path id="XMLID_55_" class="st14" d="M-174.8 302.5h-62.7v-22.9h13l6.3 5.1h43.4z"/></g><g id="XMLID_177_" class="st13"><path id="XMLID_51_" class="st14" d="M-240.4 293.5h67.4v42h-67.4z"/></g><g id="XMLID_14_" class="st15"><path id="XMLID_47_" class="st16" d="M-272.8 300.1h-11.5c-1.1 0-2-.9-2-2v-5.5c0-1.1.9-2 2-2h11.5c1.1 0 2 .9 2 2v5.5c0 1.1-.9 2-2 2z"/></g><g id="XMLID_145_"><path id="XMLID_52_" class="st17" d="M-272.8 300.3h-11.5c-1.2 0-2.2-1-2.2-2.2v-5.5c0-1.2 1-2.2 2.2-2.2h11.5c1.2 0 2.2 1 2.2 2.2v5.5c0 1.2-1 2.2-2.2 2.2zm-11.6-9.5c-1 0-1.7.8-1.7 1.7v5.5c0 1 .8 1.7 1.7 1.7h11.5c1 0 1.7-.8 1.7-1.7v-5.5c0-1-.8-1.7-1.7-1.7h-11.5z"/></g><g id="XMLID_147_" class="st15"><path id="XMLID_43_" class="st16" d="M-252.5 300.1H-264c-1.1 0-2-.9-2-2v-5.5c0-1.1.9-2 2-2h11.5c1.1 0 2 .9 2 2v5.5c0 1.1-.9 2-2 2z"/></g><g id="XMLID_146_"><path id="XMLID_48_" class="st17" d="M-252.5 300.3H-264c-1.2 0-2.2-1-2.2-2.2v-5.5c0-1.2 1-2.2 2.2-2.2h11.5c1.2 0 2.2 1 2.2 2.2v5.5c.1 1.2-.9 2.2-2.2 2.2zm-11.5-9.5c-1 0-1.7.8-1.7 1.7v5.5c0 1 .8 1.7 1.7 1.7h11.5c1 0 1.7-.8 1.7-1.7v-5.5c0-1-.8-1.7-1.7-1.7H-264z"/></g><g id="XMLID_161_" class="st15"><path id="XMLID_39_" class="st16" d="M-272.8 313.1h-11.5c-1.1 0-2-.9-2-2v-5.5c0-1.1.9-2 2-2h11.5c1.1 0 2 .9 2 2v5.5c0 1.1-.9 2-2 2z"/></g><g id="XMLID_160_"><path id="XMLID_44_" class="st17" d="M-272.8 313.3h-11.5c-1.2 0-2.2-1-2.2-2.2v-5.5c0-1.2 1-2.2 2.2-2.2h11.5c1.2 0 2.2 1 2.2 2.2v5.5c0 1.2-1 2.2-2.2 2.2zm-11.6-9.5c-1 0-1.7.8-1.7 1.7v5.5c0 1 .8 1.7 1.7 1.7h11.5c1 0 1.7-.8 1.7-1.7v-5.5c0-1-.8-1.7-1.7-1.7h-11.5z"/></g><g id="XMLID_149_" class="st15"><path id="XMLID_35_" class="st16" d="M-252.5 313.1H-264c-1.1 0-2-.9-2-2v-5.5c0-1.1.9-2 2-2h11.5c1.1 0 2 .9 2 2v5.5c0 1.1-.9 2-2 2z"/></g><g id="XMLID_148_"><path id="XMLID_40_" class="st17" d="M-252.5 313.3H-264c-1.2 0-2.2-1-2.2-2.2v-5.5c0-1.2 1-2.2 2.2-2.2h11.5c1.2 0 2.2 1 2.2 2.2v5.5c.1 1.2-.9 2.2-2.2 2.2zm-11.5-9.5c-1 0-1.7.8-1.7 1.7v5.5c0 1 .8 1.7 1.7 1.7h11.5c1 0 1.7-.8 1.7-1.7v-5.5c0-1-.8-1.7-1.7-1.7H-264z"/></g><g id="XMLID_164_"><path id="XMLID_2_" class="st2" d="M-169.8 300.5h-62.7v-22.9h13l6.3 5.1h43.4z"/></g><g id="XMLID_1_" opacity=".3"><path id="XMLID_87_" class="st12" d="M-169.8 300.5h-62.7v-22.9h13l6.3 5.1h43.4z"/></g><g id="XMLID_166_"><path id="XMLID_36_" class="st17" d="M-169.3 301H-233v-23.9h13.7l6.2 5.1h43.8V301zm-62.7-1h61.7v-16.8h-43.1l-6.2-5.1H-232V300z"/></g><g id="XMLID_165_"><path id="XMLID_31_" class="st2" d="M-227.7 287h53.1v16.9h-53.1z"/><path id="XMLID_32_" class="st19" d="M-174.6 304.4h-53.1c-.3 0-.5-.2-.5-.5V287c0-.3.2-.5.5-.5h53.1c.3 0 .5.2.5.5v16.9c0 .3-.2.5-.5.5zm-52.6-1h52.1v-15.9h-52.1v15.9z"/></g><g id="XMLID_162_"><path id="XMLID_25_" class="st2" d="M-235.4 291.5h67.4v42h-67.4z"/><path id="XMLID_28_" class="st19" d="M-168 333.9h-67.4c-.3 0-.5-.2-.5-.5v-42c0-.3.2-.5.5-.5h67.4c.3 0 .5.2.5.5v42c0 .3-.2.5-.5.5zm-66.9-1h66.4v-41h-66.4v41z"/></g><g id="XMLID_169_"><path id="XMLID_27_" class="st17" d="M-219.7 282.3h-3.2c-.3 0-.5-.2-.5-.5s.2-.5.5-.5h3.2c.3 0 .5.2.5.5s-.2.5-.5.5z"/></g><g id="XMLID_167_"><path id="XMLID_26_" class="st17" d="M-225.9 282.3h-3.2c-.3 0-.5-.2-.5-.5s.2-.5.5-.5h3.2c.3 0 .5.2.5.5s-.2.5-.5.5z"/></g><g id="XMLID_176_"><g id="XMLID_168_" class="st20"><circle id="XMLID_24_" class="st3" cx="-201.8" cy="306.7" r="5.3"/></g><g id="XMLID_173_" class="st20"><path id="XMLID_10_" class="st3" d="M-192.5 323.9v-.1c0-5.1-4.1-9.3-9.3-9.3s-9.3 4.1-9.3 9.3v.1h18.6z"/></g><g id="XMLID_9_"><path id="XMLID_21_" class="st19" d="M-201.8 312.5c-3.2 0-5.8-2.6-5.8-5.8s2.6-5.8 5.8-5.8 5.8 2.6 5.8 5.8-2.6 5.8-5.8 5.8zm0-10.6c-2.6 0-4.8 2.1-4.8 4.8 0 2.6 2.1 4.8 4.8 4.8 2.6 0 4.8-2.1 4.8-4.8 0-2.6-2.2-4.8-4.8-4.8z"/></g><g id="XMLID_11_"><path id="XMLID_18_" class="st19" d="M-192.5 324.4h-19v-.6c0-5.4 4.4-9.8 9.8-9.8s9.8 4.4 9.8 9.8v.6h-.6zm-18-1h17.5c-.2-4.7-4.1-8.4-8.8-8.4-4.7 0-8.6 3.7-8.7 8.4z"/></g><g id="XMLID_171_"><path id="XMLID_15_" class="st19" d="M-189.4 312.2c-2.4 0-4.4-2-4.4-4.4s2-4.4 4.4-4.4 4.4 2 4.4 4.4-2 4.4-4.4 4.4zm0-7.8c-1.9 0-3.4 1.5-3.4 3.4s1.5 3.4 3.4 3.4 3.4-1.5 3.4-3.4-1.6-3.4-3.4-3.4z"/></g><g id="XMLID_170_"><path id="XMLID_13_" class="st19" d="M-182.1 321h-7.8v-1h6.8c-.2-3.3-3-6-6.3-6-1.5 0-3 .6-4.2 1.6l-.7-.8c1.3-1.2 3.1-1.8 4.8-1.8 4.1 0 7.4 3.3 7.4 7.4v.6z"/></g><g id="XMLID_174_"><path id="XMLID_84_" class="st19" d="M-214 312.2c-2.4 0-4.4-2-4.4-4.4s2-4.4 4.4-4.4 4.4 2 4.4 4.4-2 4.4-4.4 4.4zm0-7.8c-1.9 0-3.4 1.5-3.4 3.4s1.5 3.4 3.4 3.4 3.4-1.5 3.4-3.4-1.5-3.4-3.4-3.4z"/></g><g id="XMLID_172_"><path id="XMLID_88_" class="st19" d="M-213.6 321h-7.8v-.6c0-4.1 3.3-7.4 7.4-7.4 1.8 0 3.5.6 4.8 1.8l-.7.8c-1.2-1-2.6-1.6-4.2-1.6-3.4 0-6.1 2.6-6.3 6h6.8v1z"/></g></g><g id="XMLID_779_"><g id="XMLID_755_"><circle id="XMLID_89_" class="st16" cx="-175.4" cy="299.4" r="2.8"/></g></g><g id="XMLID_732_"><g id="XMLID_762_"><path id="XMLID_90_" class="st3" d="M-175.4 302.6c-1.7 0-3.2-1.4-3.2-3.2s1.4-3.2 3.2-3.2 3.2 1.4 3.2 3.2-1.5 3.2-3.2 3.2zm0-5.7c-1.4 0-2.5 1.1-2.5 2.5s1.1 2.5 2.5 2.5 2.5-1.1 2.5-2.5-1.2-2.5-2.5-2.5z"/></g></g></svg>