<svg version="1.1" id="图层_1" xmlns="http://www.w3.org/2000/svg" x="0" y="0" viewBox="0 0 132 96" xml:space="preserve"><style>.st3{fill:#fff}.st4{fill:#b1d0e8}.st10,.st11,.st7{opacity:.5;enable-background:new}.st10,.st11{opacity:.7}.st11{opacity:.3}.st14{fill:#f6f9fc}</style><path d="M20.6 75.6l1.5 3.9H109l1.5-3.9H20.6z" fill="#f1f5fb"/><path d="M78.3 22.5c1.5 0 2.7 1.2 2.7 2.7s-1.2 1.3-2.7 1.3-2.7.2-2.7-1.3 1.3-2.7 2.7-2.7z" fill="#eef2fa"/><path d="M78.3 27c-1.8 0-3.2 0-3.2-1.8s1.4-3.2 3.2-3.2 3.2 1.4 3.2 3.2-1.4 1.8-3.2 1.8zm0-4c-1.2 0-2.2 1-2.2 2.2s1 2.2 2.2 2.2 2.2-1 2.2-2.2-.9-2.2-2.2-2.2z" fill="#a1b6d1"/><path class="st3" d="M32.5 12.4h68.6c1.7 0 3 1.3 3 3v50.8c0 1.7-1.3 3-3 3H32.5c-1.7 0-3-1.3-3-3V15.4c0-1.7 1.4-3 3-3z"/><path class="st4" d="M101.1 69.7H32.5c-1.9 0-3.5-1.6-3.5-3.5V15.4c0-1.9 1.6-3.5 3.5-3.5h68.6c1.9 0 3.5 1.6 3.5 3.5v50.8c0 1.9-1.6 3.5-3.5 3.5zM32.5 12.9c-1.4 0-2.5 1.1-2.5 2.5v50.8c0 1.4 1.1 2.5 2.5 2.5h68.6c1.4 0 2.5-1.1 2.5-2.5V15.4c0-1.4-1.1-2.5-2.5-2.5H32.5z"/><g opacity=".39"><path class="st3" d="M35.9 20.8h61.9c.4 0 .7.3.7.7v39.3c0 .4-.3.7-.7.7H35.9c-.4 0-.7-.3-.7-.7V21.5c0-.4.3-.7.7-.7z"/><path class="st4" d="M97.8 62.1H35.9c-.7 0-1.2-.6-1.2-1.2V21.5c0-.7.5-1.2 1.2-1.2h61.9c.7 0 1.2.6 1.2 1.2v39.3c0 .8-.6 1.3-1.2 1.3zM35.9 21.3c-.1 0-.2.1-.2.2v39.3c0 .1.1.2.2.2h61.9c.1 0 .2-.1.2-.2V21.5c0-.1-.1-.2-.2-.2H35.9z"/></g><path class="st3" d="M19.7 68.4h92.6c1 0 1.7.8 1.7 1.9l-3.5 7.9c0 1-.8 1.9-1.7 1.9H23.2c-1 0-1.7-.8-1.7-1.9l-3.5-8c0-1 .8-1.8 1.7-1.8z"/><path class="st4" d="M108.8 80.5H23.2c-1.2 0-2.2-1-2.2-2.2l-3.5-8c0-1.3 1-2.4 2.2-2.4h92.6c1.2 0 2.2 1.1 2.2 2.4v.2l-3.5 7.8c0 1.2-1 2.2-2.2 2.2zM18.5 70.1l3.5 8c0 .8.6 1.4 1.2 1.4h85.6c.7 0 1.2-.6 1.2-1.4v-.2l3.5-7.8c0-.7-.6-1.3-1.2-1.3H19.7c-.6.1-1.2.6-1.2 1.3z"/><g opacity=".12"><path class="st4" d="M36 27.9h51V61H36z"/><path class="st4" d="M88.5 62.5h-54v-36h54v36zm-51-2.9h48V28h-48v31.6z"/></g><g class="st7"><path class="st4" d="M42.7 43.2h34.6v.5H42.7z"/><path class="st4" d="M41.2 42.7h37.6v1.6H41.2z"/></g><g class="st7"><path class="st4" d="M43.2 34.5h46.4v.5H43.2z"/><path class="st4" d="M41.2 33.9h50.4v1.6H41.2z"/></g><g class="st7"><path class="st4" d="M42.7 52.8h34.6v.5H42.7z"/><path class="st4" d="M41.2 52.3h37.6v1.6H41.2z"/></g><circle cx="87.5" cy="56.5" r="26.5" fill="#c4cede" opacity=".24"/><g class="st10"><path class="st4" d="M12.2 59.1l-5-8.6 16.3.4-11.3 8.2zM9 51.5l3.6 6.1 8-5.8L9 51.5z"/></g><path d="M16.8 52.2l-9.8 4 4.8 4.8 5-8.8z" fill="#b5c7df"/><path d="M119.5 26.6l10.5-3.9-1 8.7-9.5-4.8z" fill="#d9e3f2"/><g class="st10"><path class="st4" d="M127.7 30.1L114.4 29l12.2-10.1 1.1 11.2zm-10.8-1.9l9.7.8-.8-8.1-8.9 7.3z"/></g><path class="st3" d="M12.5 80H3"/><path class="st4" d="M3 79.5h9.5v1H3z"/><path class="st3" d="M121.7 80h-4.9"/><path class="st4" d="M116.8 79.5h4.9v1h-4.9z"/><path class="st3" d="M114.8 80H15"/><path class="st4" d="M15 79.5h99.8v1H15z"/><g><path class="st14" d="M66.1 31.9h6c1.1 0 2 .9 2 2v2.2c0 1.1-.9 2-2 2h-6c-1.1 0-2-.9-2-2v-2.2c0-1.1.9-2 2-2z"/><path class="st4" d="M72.1 38.6h-6c-1.4 0-2.5-1.1-2.5-2.5v-2.2c0-1.4 1.1-2.5 2.5-2.5h6c1.4 0 2.5 1.1 2.5 2.5v2.2c0 1.4-1.1 2.5-2.5 2.5zm-6-6.2c-.8 0-1.5.7-1.5 1.5v2.2c0 .8.7 1.5 1.5 1.5h6c.8 0 1.5-.7 1.5-1.5v-2.2c0-.8-.7-1.5-1.5-1.5h-6z"/></g><g><path class="st14" d="M57.1 49.9h6c1.1 0 2 .9 2 2v2.2c0 1.1-.9 2-2 2h-6c-1.1 0-2-.9-2-2v-2.2c0-1.1.9-2 2-2z"/><path class="st4" d="M63.1 56.6h-6c-1.4 0-2.5-1.1-2.5-2.5v-2.2c0-1.4 1.1-2.5 2.5-2.5h6c1.4 0 2.5 1.1 2.5 2.5v2.2c0 1.4-1.1 2.5-2.5 2.5zm-6-6.2c-.8 0-1.5.7-1.5 1.5v2.2c0 .8.7 1.5 1.5 1.5h6c.8 0 1.5-.7 1.5-1.5v-2.2c0-.8-.7-1.5-1.5-1.5h-6z"/></g><g><path class="st14" d="M50.8 40.4h6c1.1 0 2 .9 2 2v2.2c0 1.1-.9 2-2 2h-6c-1.1 0-2-.9-2-2v-2.2c0-1.1.9-2 2-2z"/><path class="st4" d="M56.8 47.1h-6c-1.4 0-2.5-1.1-2.5-2.5v-2.2c0-1.4 1.1-2.5 2.5-2.5h6c1.4 0 2.5 1.1 2.5 2.5v2.2c0 1.4-1.1 2.5-2.5 2.5zm-6-6.2c-.8 0-1.5.7-1.5 1.5v2.2c0 .8.7 1.5 1.5 1.5h6c.8 0 1.5-.7 1.5-1.5v-2.2c0-.8-.7-1.5-1.5-1.5h-6z"/></g><g><circle class="st14" cx="92.3" cy="58.1" r="23"/></g><g><path class="st3" d="M80.1 79.9c-12.1-6.7-16.4-22-9.7-34s22-16.4 34-9.7 16.4 22 9.7 34-21.9 16.5-34 9.7zm2.7-4.7c8.4 4.7 18.6 2.5 24.6-4.6L73.9 51.9c-3.1 8.8.6 18.7 8.9 23.3zm18.9-34c-9-5-20.2-2.2-25.7 6.3l33.9 18.9c4.3-9.2.8-20.2-8.2-25.2z"/><path class="st4" d="M79.9 80.4C67.6 73.5 63.2 58 70 45.7c6.9-12.3 22.4-16.7 34.7-9.9s16.7 22.4 9.9 34.7c-6.9 12.3-22.4 16.7-34.7 9.9zm24.3-43.7c-11.8-6.6-26.8-2.3-33.3 9.5C64.3 58 68.6 73 80.4 79.5c11.8 6.6 26.8 2.3 33.3-9.5 6.6-11.8 2.3-26.7-9.5-33.3zm-21.7 39C74 71 70.2 61 73.3 51.8l.2-.6L108 70.4l-.4.5c-6 7.5-16.6 9.5-25.1 4.8zm-8.4-23c-2.6 8.5 1.1 17.8 8.9 22.2s17.7 2.6 23.6-4c0-.1-32.5-18.2-32.5-18.2zm36.1 14.4L75.4 47.6l.2-.4c5.8-8.7 17.3-11.5 26.4-6.5s12.7 16.4 8.4 25.8l-.2.6zM76.8 47.3l33 18.4c3.8-8.9.2-19.3-8.2-24.1s-19.2-2.2-24.8 5.7z"/></g></svg>